<svg xmlns="http://www.w3.org/2000/svg" xmlns:xlink="http://www.w3.org/1999/xlink" width="2736.087" height="2858.895" viewBox="0 0 2736.087 2858.895">
  <defs>
    <linearGradient id="linear-gradient" x1="0.5" x2="0.5" y2="1" gradientUnits="objectBoundingBox">
      <stop offset="0" stop-color="#687dcc"/>
      <stop offset="0.402" stop-color="#2e4088"/>
      <stop offset="1" stop-color="#1a244d"/>
    </linearGradient>
    <clipPath id="clip-path">
      <rect id="Rectangle_492" data-name="Rectangle 492" width="850" height="350" transform="translate(0 698)" fill="none" stroke="#707070" stroke-width="1"/>
    </clipPath>
  </defs>
  <g id="Background-accueil-bottom-left" transform="translate(2007.703 226.423) rotate(28)">
    <path id="Polygon" d="M1479.711,155.411l960,554.254V1818.171l-960,554.259L519.719,1818.171V709.664Z" transform="translate(-1479.719 98.59)" fill-rule="evenodd" fill="url(#linear-gradient)"/>
    <rect id="Rectangle_587" data-name="Rectangle 587" width="960" height="794" transform="translate(0 254)" fill="none"/>
    <g id="Mozaique-bottom-left" clip-path="url(#clip-path)" style="mix-blend-mode: screen;isolation: isolate">
      <path id="Alveole" d="M46.882,108.084,0,81.063V27.021L46.882,0,93.764,27.021V81.063Z" transform="translate(241.821 980.68) rotate(60)" fill="none" stroke="#2e4088" stroke-width="8" opacity="0.55"/>
      <path id="Alveole-2" data-name="Alveole" d="M44.788,103.256,0,77.442V25.814L44.788,0,89.575,25.814V77.442Z" transform="translate(628.21 691.375) rotate(60)" fill="none" stroke="#eb6608" stroke-width="3" opacity="0.07"/>
      <path id="Alveole-3" data-name="Alveole" d="M57.725,133.083,0,99.812V33.271L57.725,0,115.45,33.271V99.812Z" transform="translate(184.522 700.146) rotate(60)" fill="none" stroke="#2e4088" stroke-width="4" opacity="0.1"/>
      <path id="Alveole-4" data-name="Alveole" d="M61.721,142.295,0,106.721V35.574L61.721,0l61.721,35.574v71.147Z" transform="translate(319.1 861.212) rotate(60)" fill="none" stroke="#2e4088" stroke-width="7" opacity="0.23"/>
      <path id="Alveole-5" data-name="Alveole" d="M61.721,142.295,0,106.721V35.574L61.721,0l61.721,35.574v71.147Z" transform="translate(411.906 983.604) rotate(60)" fill="none" stroke="#2e4088" stroke-width="1" opacity="0.56"/>
      <path id="Alveole-6" data-name="Alveole" d="M41.772,96.3,0,72.229V24.076L41.772,0,83.545,24.076V72.229Z" transform="translate(389.707 784.799) rotate(60)" fill="none" stroke="#2e4088" stroke-width="3" opacity="0.1"/>
      <path id="Alveole-7" data-name="Alveole" d="M53.59,123.551,0,92.663V30.888L53.59,0l53.59,30.888V92.663Z" transform="translate(513.326 958.119) rotate(60)" fill="none" stroke="#2e4088" stroke-width="13" opacity="0.04"/>
      <path id="Alveole-8" data-name="Alveole" d="M16.72,38.548,0,28.911V9.637L16.72,0l16.72,9.637V28.911Z" transform="translate(696.674 964.037) rotate(60)" fill="none" stroke="#2e4088" stroke-width="5" opacity="0.26"/>
      <path id="Alveole-9" data-name="Alveole" d="M43.247,99.7,0,74.778V24.926L43.247,0,86.494,24.926V74.778Z" transform="translate(112.117 947.618) rotate(60)" fill="none" stroke="#2e4088" stroke-width="1" opacity="0.38"/>
      <path id="Alveole-10" data-name="Alveole" d="M61.721,142.295,0,106.721V35.574L61.721,0l61.721,35.574v71.147Z" transform="translate(698.994 736.154) rotate(60)" fill="none" stroke="#2e4088" stroke-width="4" opacity="0.06"/>
      <path id="Alveole-11" data-name="Alveole" d="M42.453,97.874,0,73.406V24.468L42.453,0,84.906,24.468V73.405Z" transform="translate(17.548 858.134) rotate(60)" fill="none" stroke="#eb6608" stroke-width="2" opacity="0.16"/>
      <path id="Alveole-12" data-name="Alveole" d="M49.458,114.024,0,85.518V28.506L49.458,0,98.917,28.506V85.518Z" transform="translate(442.688 819.128) rotate(60)" fill="none" stroke="#2e4088" stroke-width="2" opacity="0.13"/>
      <path id="Alveole-13" data-name="Alveole" d="M46.845,108,0,81V27L46.845,0,93.69,27V81Z" transform="translate(183.879 851.906) rotate(60)" fill="none" stroke="#2e4088" stroke-width="6" opacity="0.1"/>
      <path id="Alveole-14" data-name="Alveole" d="M61.721,142.295,0,106.721V35.574L61.721,0l61.721,35.574v71.147Z" transform="translate(67.874 995.946) rotate(60)" fill="none" stroke="#2e4088" stroke-width="4" opacity="0.64"/>
      <path id="Alveole-15" data-name="Alveole" d="M18.2,41.961,0,31.471V10.49L18.2,0,36.4,10.49v20.98Z" transform="translate(96.341 830.986) rotate(60)" fill="none" stroke="#2e4088" stroke-width="2" opacity="0.32"/>
      <path id="Alveole-16" data-name="Alveole" d="M28.285,65.21,0,48.908V16.3L28.285,0,56.57,16.3V48.908Z" transform="translate(62.886 762.527) rotate(60)" fill="none" stroke="#eb6608" stroke-width="4" opacity="0.35"/>
      <path id="Alveole-17" data-name="Alveole" d="M38.588,88.963,0,66.722V22.241L38.588,0,77.176,22.241V66.722Z" transform="translate(68.172 905.682) rotate(60)" fill="#2e4088" stroke="#2e4088" stroke-width="2" opacity="0.1"/>
      <path id="Alveole-18" data-name="Alveole" d="M32.1,74.014,0,55.511V18.5L32.1,0l32.1,18.5V55.511Z" transform="translate(244.097 772.766) rotate(60)" fill="none" stroke="#2e4088" stroke-width="10" opacity="0.19"/>
      <path id="Alveole-19" data-name="Alveole" d="M61.721,142.295,0,106.721V35.574L61.721,0l61.721,35.574v71.147Z" transform="translate(687.648 959.025) rotate(60)" fill="none" stroke="#2e4088" stroke-width="3" opacity="0.1"/>
      <path id="Alveole-20" data-name="Alveole" d="M46.5,107.2,0,80.4V26.8L46.5,0,93,26.8V80.4Z" transform="translate(233.467 913.551) rotate(60)" fill="none" stroke="#2e4088" stroke-width="3" opacity="0.3"/>
      <path id="Alveole-21" data-name="Alveole" d="M79.877,184.154,0,138.115V46.038L79.877,0l79.877,46.038v92.077Z" transform="translate(7.708 804.751) rotate(60)" fill="none" stroke="#2e4088" stroke-width="6" opacity="0.65"/>
      <path id="Alveole-22" data-name="Alveole" d="M46.392,106.956,0,80.217V26.739L46.392,0,92.785,26.739V80.217Z" transform="translate(819.235 895.055) rotate(60)" fill="none" stroke="#79819f" stroke-width="4" opacity="0.12"/>
    </g>
  </g>
</svg>
