<svg xmlns="http://www.w3.org/2000/svg" width="657.887" height="540.477" viewBox="0 0 657.887 540.477">
  <g id="cooperative-illustration-mission-target" transform="translate(0 0)">
    <g id="Target" transform="translate(164.551 0)">
      <g id="Group_6394" data-name="Group 6394" transform="translate(85.419 435.109) rotate(-90)">
        <path id="Path_5937" data-name="Path 5937" d="M39.549,71.863h4.043L2.022,0,0,3.428Z" transform="translate(0)" fill="#37474f"/>
      </g>
      <g id="Group_6395" data-name="Group 6395" transform="translate(0 118.834)">
        <path id="Path_5938" data-name="Path 5938" d="M-137.742-824.668a.962.962,0,0,1,.457,1.042l-59.54,264.319-1.7,7.5a4.556,4.556,0,0,1-2.376-.472c-.016-.016-.033-.016-.051-.033l-3.989-2.309a.96.96,0,0,1-.456-1.04L-144.274-827a.959.959,0,0,1,1.415-.62Z" transform="translate(205.421 827.752)" fill="#37474f"/>
      </g>
      <g id="Group_6396" data-name="Group 6396" transform="translate(6.894 118.313)">
        <path id="Path_5939" data-name="Path 5939" d="M-138.91-839.134-200.337-566.52a1.6,1.6,0,0,1-.759,1.034l-3.993,2.312a4.144,4.144,0,0,1-2.073.505l1.7-7.5,59.693-265.009Z" transform="translate(207.163 839.134)" fill="#455a64"/>
      </g>
      <g id="Group_6397" data-name="Group 6397" transform="translate(75.13 252.913)">
        <path id="Path_5940" data-name="Path 5940" d="M-13.992,208.86v7.885a4.631,4.631,0,0,1-2.207-.507c-.018-.016-.034-.016-.051-.033l-3.706-2.14a1.545,1.545,0,0,1-.894-1.279l-.016-236.72,6.857,3.96Z" transform="translate(20.867 23.933)" fill="#37474f"/>
      </g>
      <g id="Group_6398" data-name="Group 6398" transform="translate(81.987 252.931)">
        <path id="Path_5941" data-name="Path 5941" d="M-13.992-730.467l-.016,236.618v.168a1.568,1.568,0,0,1-.91,1.2l-3.69,2.139a4.415,4.415,0,0,1-2.24.541v-7.887l-.018-228.833Z" transform="translate(20.867 730.467)" fill="#455a64"/>
      </g>
      <g id="Group_6399" data-name="Group 6399" transform="translate(123.13 225.199)">
        <path id="Path_5942" data-name="Path 5942" d="M-97.11,217.107a4.631,4.631,0,0,1-2.133-.622l-3.815-2.206a1.953,1.953,0,0,1-.939-1.321L-144.825,0l6.857,3.959,39.392,205.483Z" transform="translate(144.825)" fill="#37474f"/>
      </g>
      <g id="Group_6400" data-name="Group 6400" transform="translate(129.987 225.216)">
        <path id="Path_5943" data-name="Path 5943" d="M-97.077,200.977v.033a1.6,1.6,0,0,1-.943,1.3l-3.488,2.022-.169.1a4.649,4.649,0,0,1-2.24.539l-1.466-7.667L-144.775-8.178l6.875-3.943,40.756,212.794c0,.016.016.033.016.049Z" transform="translate(144.775 12.121)" fill="#455a64"/>
      </g>
      <g id="Group_6401" data-name="Group 6401" transform="translate(83.068 438.416) rotate(-29.999)">
        <path id="Path_5944" data-name="Path 5944" d="M0,6.845H89.646L93.6,0H3.952Z" transform="translate(0 0)" fill="#455a64"/>
      </g>
      <g id="Group_6402" data-name="Group 6402" transform="translate(3.14 0)">
        <path id="Path_5945" data-name="Path 5945" d="M-334.483-809.377v-.005l-.134-.076c-.124-.071-.248-.139-.373-.209-1.99-1.119-10.229-5.76-28-15.967-14.182-8.147-31.788-7.655-50.861,3.359-46.94,27.1-84.987,107.662-84.98,179.931,0,42.911,13.42,73.251,34.144,85.149,12.463,7.155,25.255,14.4,28.168,16.053.106.06.213.12.317.18l.3.17,0,0c14.091,7.84,31.5,7.236,50.335-3.643,46.932-27.1,84.98-107.659,84.98-179.931,0-42.748-13.314-73.017-33.9-85.008" transform="translate(498.83 831.212)" fill="#687dcc"/>
      </g>
      <g id="Group_6404" data-name="Group 6404" transform="translate(3.14 0)" opacity="0.1">
        <g id="Group_6403" data-name="Group 6403">
          <path id="Path_5946" data-name="Path 5946" d="M-334.483-809.377v-.005l-.134-.076c-.124-.071-.248-.139-.373-.209-1.99-1.119-10.229-5.76-28-15.967-14.182-8.147-31.788-7.655-50.861,3.359-46.94,27.1-84.987,107.662-84.98,179.931,0,42.911,13.42,73.251,34.144,85.149,12.463,7.155,25.255,14.4,28.168,16.053.106.06.213.12.317.18l.3.17,0,0c14.091,7.84,31.5,7.236,50.335-3.643,46.932-27.1,84.98-107.659,84.98-179.931,0-42.748-13.314-73.017-33.9-85.008" transform="translate(498.83 831.212)"/>
        </g>
      </g>
      <g id="Group_6406" data-name="Group 6406" transform="translate(3.14 103.358)" opacity="0.1">
        <g id="Group_6405" data-name="Group 6405">
          <path id="Path_5947" data-name="Path 5947" d="M-366.563-209.087l-164.172-94.784c-10.03,27.273-15.939,57.034-15.937,85.511,0,42.91,13.42,73.249,34.144,85.147,12.463,7.155,25.255,14.4,28.168,16.053.106.062.213.121.317.18l.3.172.005,0c14.09,7.84,31.5,7.236,50.334-3.643,27.123-15.662,51.278-49.178,66.837-88.631" transform="translate(546.671 303.871)"/>
        </g>
      </g>
      <g id="Group_6408" data-name="Group 6408" transform="translate(3.307 197.004)" opacity="0.1">
        <g id="Group_6407" data-name="Group 6407">
          <path id="Path_5948" data-name="Path 5948" d="M0-307.329c1.6,38.608,14.587,65.883,33.976,77.014,12.463,7.155,25.253,14.4,28.168,16.053l.317.18.3.17a.007.007,0,0,0,.005,0c14.091,7.84,31.5,7.236,50.335-3.643a105.587,105.587,0,0,0,18.488-13.8Z" transform="translate(0 307.329)"/>
        </g>
      </g>
      <g id="Group_6409" data-name="Group 6409" transform="translate(201.396 295.706) rotate(179.998)">
        <path id="Path_5949" data-name="Path 5949" d="M84.987,270.651c46.94-27.1,84.989-107.658,84.988-179.929S131.92-18.165,84.987,8.936,0,116.591,0,188.863s38.046,108.891,84.987,81.788" transform="translate(0 0)" fill="#2e4088"/>
      </g>
      <g id="Group_6410" data-name="Group 6410" transform="translate(184.52 267.947) rotate(179.997)">
        <path id="Path_5950" data-name="Path 5950" d="M68.111,216.905c37.618-21.721,68.111-86.281,68.109-144.2S105.724-14.557,68.111,7.16,0,93.439,0,151.359s30.492,87.267,68.111,65.547" transform="translate(0 0)" fill="#fafafa"/>
      </g>
      <g id="Group_6411" data-name="Group 6411" transform="translate(167.641 240.187) rotate(179.998)">
        <path id="Path_5951" data-name="Path 5951" d="M51.234,163.159c28.3-16.337,51.236-64.9,51.233-108.468S79.527-10.95,51.234,5.386,0,70.286,0,113.854,22.936,179.5,51.234,163.159" transform="translate(0 0)" fill="#8193d5"/>
      </g>
      <g id="Group_6412" data-name="Group 6412" transform="translate(150.764 212.426) rotate(179.998)">
        <path id="Path_5952" data-name="Path 5952" d="M34.359,109.413C53.335,98.457,68.717,65.89,68.715,36.675S53.331-7.343,34.359,3.612,0,47.133,0,76.35s15.382,44.019,34.359,33.063" transform="translate(0 0)" fill="#fafafa"/>
      </g>
      <g id="Group_6413" data-name="Group 6413" transform="translate(133.886 184.668) rotate(179.997)">
        <path id="Path_5953" data-name="Path 5953" d="M17.479,55.667C27.134,50.092,34.96,33.524,34.959,18.66S27.133-3.737,17.479,1.838,0,23.98,0,38.844s7.825,22.4,17.479,16.823" transform="translate(0 0)" fill="#eb6608"/>
      </g>
    </g>
    <g id="Character" transform="translate(375.816 107.508)">
      <g id="Group_6414" data-name="Group 6414" transform="translate(224.476 372.032)">
        <path id="Path_5954" data-name="Path 5954" d="M-1.006-105.779c-.36,2.59-1.54,4.707,1.837,10.7,2.619,4.645,6.414,6.571,8.85,8.259a37.888,37.888,0,0,1,7.355,6.9,32.653,32.653,0,0,0,7.708,7.457c2.3,1.533,8.169.946,10.835-.6s3.425-4.022,2.677-8.5c-.734-4.375-14.588-4.267-14.588-4.267Z" transform="translate(1.5 105.779)" fill="#37474f"/>
      </g>
      <g id="Group_6415" data-name="Group 6415" transform="translate(237.623 344.744)">
        <path id="Path_5955" data-name="Path 5955" d="M-49.455-144.288l-.691,41.985c.007,2.475-13.545,5.553-16.5-.084a91.989,91.989,0,0,0-2.029-12.883c-1.054-4.2-2.846-11.542-2.846-11.542-1.55-8.738-2.234-15.2-2.234-15.2Z" transform="translate(73.754 144.288)" fill="#ffa8a7"/>
      </g>
      <g id="Group_6416" data-name="Group 6416" transform="translate(174.125 363.809)">
        <path id="Path_5956" data-name="Path 5956" d="M-51.7-134.873s-6.385,38.849-6.57,40.984-6.216,3.536-10.676,3.388c-4.6-.154-7.1-2.2-7.056-3.161l-1.1-41.467Z" transform="translate(77.1 135.129)" fill="#ffa8a7"/>
      </g>
      <g id="Group_6417" data-name="Group 6417" transform="translate(173.731 154.413)">
        <path id="Path_5957" data-name="Path 5957" d="M-64.1,19.093s.556-7.484,4.974-30.058C-56.067-26.62-53.5-43.418-53.5-43.418s5.538,20.254,8.716,36.23c2.31,11.614,4.618,22.55,9.1,44.681,3.826,18.871,7.136,28.835,7.136,28.835,8.606,4.573,21.2-.673,21.2-.673s.526-13.5.347-30.165c-.231-21.643-4.96-30.109-4.96-30.109s-1.824-29.177-2.7-50.7c-1.246-30.554-.286-59.017-7.483-82.818-1.109-.3-68.685-29.8-70.405,10.6-.423,9.976-1.16,36.55-1.877,57.865-1.212,36.134-.874,63.007-.918,75.315-.243,11.839-.356,22.944-.129,45.049.1,9.653.67,17.838.67,17.838,8.088,5.429,25.409-1.219,25.409-1.219s.765-9.494,3.161-22.918c4.2-23.5,2.135-35.3,2.135-35.3" transform="translate(95.602 138.814)" fill="#8193d5"/>
      </g>
      <g id="Group_6419" data-name="Group 6419" transform="translate(190.152 190.43)" opacity="0.2">
        <g id="Group_6418" data-name="Group 6418" transform="translate(0 0)">
          <path id="Path_5958" data-name="Path 5958" d="M-2.691-86.054c.128,5.315.662,17.665,1.86,20.081,1.153,2.324,8.279,6.679,12.058,7.764,1.341.389,1.678.2,1.689.188,2.384-1.465,11.38-9.132,11.32-10.7l-.027-.9a169.121,169.121,0,0,0-1.547-18.232ZM10.868-56.962C7.062-58.057-.578-62.548-1.99-65.4-3.623-68.686-3.984-85.911-4-86.643l-.012-.616,27.8-1.978.08.607A172.709,172.709,0,0,1,25.5-69.663l.029.891c.107,2.787-10.834,11.178-11.938,11.857a1.841,1.841,0,0,1-.907.243,5.987,5.987,0,0,1-1.819-.29" transform="translate(4.013 89.238)"/>
        </g>
      </g>
      <g id="Group_6421" data-name="Group 6421" transform="translate(238.123 185.191)" opacity="0.2">
        <g id="Group_6420" data-name="Group 6420" transform="translate(0)">
          <path id="Path_5959" data-name="Path 5959" d="M-31.652,30.073l.254-1.355c-4.7-2.272-11.556-6.044-12.078-7.32-.641-1.57-1.848-12.565-2.33-17.348,1.426-.365,5.664-1.421,12.111-2.783L-33.964,0C-42,1.7-46.626,2.925-46.672,2.936l-.533.141.055.549c.162,1.647,1.614,16.155,2.474,18.262.9,2.2,11.058,7.236,13.023,8.184" transform="translate(47.204)"/>
        </g>
      </g>
      <g id="Group_6422" data-name="Group 6422" transform="translate(171.718 360.721)">
        <path id="Path_5960" data-name="Path 5960" d="M-4.641-67.163l.128,3.089S-2.025-60.827,8.62-60.6s13.427-2.564,13.427-2.564l.347-2.579c1.7.4,1.33,2.416.235,7.457S20.576-48.9,19.486-47.852s-6.824,2.817-13.111,2.538S-3.982-48.2-5.077-49.715s-1.472-7.549-1.774-10.8.362-6.519,2.21-6.648" transform="translate(6.921 67.163)" fill="#eb6608"/>
      </g>
      <g id="Group_6423" data-name="Group 6423" transform="translate(235.525 342.784)">
        <path id="Path_5961" data-name="Path 5961" d="M-2.25-61.471l.754,3.078s2.431,2.719,13.044,1.85,11.872-3.89,11.872-3.89l.029-2.5c2.262.342,2.844,2.128,2.273,7.255s-1.082,9.553-2.058,10.7-6.5,3.5-12.783,3.868S1.63-42.682.387-44.072s-2.352-7.994-2.986-11.2-1.476-5.886.349-6.2" transform="translate(3.356 62.933)" fill="#eb6608"/>
      </g>
      <g id="Group_6425" data-name="Group 6425" transform="translate(215.829 210.373)" opacity="0.2">
        <g id="Group_6424" data-name="Group 6424" transform="translate(0 0)">
          <path id="Path_5962" data-name="Path 5962" d="M0-20.081,4.846-44.048s9.336-3.661,12.506-15.468c0,0,.807,10.951-8.756,16.525L2.634-20.157,5.012-.473Z" transform="translate(0 59.517)"/>
        </g>
      </g>
      <g id="Group_6426" data-name="Group 6426" transform="translate(136.146 419.459)">
        <path id="Path_5963" data-name="Path 5963" d="M-1.559-42.154c-.973-.089-.861,2.8-.524,4.039s4.3,5.4,11.351,6.867,16.793.154,20.972-.014S41.631-29.4,45.8-28.788s11.671-.8,14.145-3.151a4.367,4.367,0,0,0,1.024-3.446c-.082-2.77-.336-3.33-.659-3.307Z" transform="translate(2.325 42.156)" fill="#37474f"/>
      </g>
      <g id="Group_6427" data-name="Group 6427" transform="translate(136.907 390.299)">
        <path id="Path_5964" data-name="Path 5964" d="M-123.186-79.469a26.641,26.641,0,0,0,.877-4.563,8.381,8.381,0,0,0-.542-3.8,3.992,3.992,0,0,0-2.516-1.883l-.61,3.8c-.811.773-3.083,1.128-4.022,1.741-2.1,1.373-2.514,4.209-3.053,6.663a3.819,3.819,0,0,1-.641,1.6c-1.886,2.349-2.435-1.757-2.53-2.858-.139-1.594-.28-3.367-1.463-4.444a7.465,7.465,0,0,0-4.068-1.4c-1.433-.132-3.149-.08-3.94-1.347l-.093-2.438c-1.223-.139-2.958.1-3.469,1.44a4.267,4.267,0,0,0-.113,1.969c.188,1.83.449,3.653.815,5.455a21.222,21.222,0,0,1,.615,4.065,6.927,6.927,0,0,1-.051.78,4.052,4.052,0,0,1-1.38,1.462,17.732,17.732,0,0,1-7.2,1.682c-3.616.233-6.69-.324-10.765-.378-3.623-.045-7.7.413-10.85,2.207-2.98,1.7-5.729,4.275-5.52,9.67a13.387,13.387,0,0,0,6.448,5.844c3.391,1.5,7,1.923,10.682,2.3,4.3.446,10.242-.312,14.555-.555A41.486,41.486,0,0,1-141.253-51.3c5.46,1.1,9.226,1.393,14.179-.118,1.877-.574,4.214-1.689,5.085-3.753A27.738,27.738,0,0,0-122.5-63.7q-.148-.83-.335-1.65c-.152-.682-.323-1.362-.5-2.04-.27-1.021-.292-2.148-.475-3.2-.066-.386-.27-1.413-.537-2.625a32.178,32.178,0,0,1,.55-3.579c.184-.9.394-1.785.612-2.671" transform="translate(183.713 89.717)" fill="#1a244d"/>
      </g>
      <g id="Group_6428" data-name="Group 6428" transform="matrix(-0.721, -0.693, 0.693, -0.721, 163.96, 418.046)">
        <path id="Path_5965" data-name="Path 5965" d="M3.007,12.008C3.8,7.154.458,3.07.458,3.07-1.045,1.624,1.5-1.027,3.007.418a17.8,17.8,0,0,1,2.67,7.557s-.594,2.854-2.67,4.033" transform="translate(0 0)" fill="#fafafa"/>
      </g>
      <g id="Group_6429" data-name="Group 6429" transform="translate(156.458 417.466) rotate(-133.429)">
        <path id="Path_5966" data-name="Path 5966" d="M2.6,10.25A12.959,12.959,0,0,0,.276,2.512C-.8,1.4,1.529-.806,2.6.3c0,0,3.234,3.748,2.291,7.718C4.7,9.243,3.273,10.433,2.6,10.25" transform="translate(0 0)" fill="#fafafa"/>
      </g>
      <g id="Group_6430" data-name="Group 6430" transform="translate(136.262 406.821)">
        <path id="Path_5967" data-name="Path 5967" d="M-39.8-55.675c-1.68-.033-5.232,2.251-6.972,7.413s-.792,11.675-.792,11.675a16.6,16.6,0,0,1-9.34-4.446A10.006,10.006,0,0,1-59.246-44c-.431-3.387.372-6.216,1.779-7.881C-55.005-54.8-51.227-56.7-45.267-57-38.579-57.339-38-55.557-38-55.557Z" transform="translate(59.362 57.045)" fill="#d5dbf1"/>
      </g>
      <g id="Group_6431" data-name="Group 6431" transform="translate(225.455 366.048)">
        <path id="Path_5968" data-name="Path 5968" d="M-6.469-105.158c3.308-1.936,12.866,2.43,12.866,2.43l.563,2.243.6,2.371c.5,1.77,2.811,2.346,4.4,2.585,2.464.371,8.76-.082,12.557-2.185,1.746-.965,1.863-2.015,1.863-2.015-.022-.641.037-2.345.037-2.345,1.067-.04,2.287.49,2.109,2.8-.312,4.028-.664,11.077-.043,14.744.306,1.8.811,3.932,1.083,5.741.184,1.218.133,4.81-1.472,6.253l-.029.018a5.928,5.928,0,0,1-1.614,1.444c-3.485,2.169-9.559,1.8-12.465-1.023-3.621-3.518-6.175-6.713-11.25-10.93-3-2.493-5.91-3.689-8.342-6.765v-.011a19.516,19.516,0,0,1-3.042-5.851c-1.793-5.188-1.212-7.508,2.185-9.5" transform="translate(9.647 105.653)" fill="#1a244d"/>
      </g>
      <g id="Group_6432" data-name="Group 6432" transform="matrix(0.911, 0.413, -0.413, 0.911, 239.293, 369.961)">
        <path id="Path_5969" data-name="Path 5969" d="M3.04,9.244A12.046,12.046,0,0,1,4.675,2.051C4.142,1.378,3.592.7,3.04,0A12.6,12.6,0,0,0,.056,9.373c.2,1.6,2.551,1.484,2.984-.129" transform="translate(0 0)" fill="#fafafa"/>
      </g>
      <g id="Group_6433" data-name="Group 6433" transform="translate(240.407 375.942) rotate(0.574)">
        <path id="Path_5970" data-name="Path 5970" d="M2.842,5.757a11.68,11.68,0,0,1,.965-2.111c-.3-1.13-.622-2.354-.965-3.646A12.645,12.645,0,0,0,.063,4.67C-.4,6.209,1.8,7.057,2.842,5.757" transform="translate(0 0)" fill="#fafafa"/>
      </g>
      <g id="Group_6434" data-name="Group 6434" transform="translate(224.926 364.86)">
        <path id="Path_5971" data-name="Path 5971" d="M-9.292,18.558v-.012c-.03-.4-.583-9.832,12.009-12.922-.019-.069-.227-.891-.31-1.226V4.385A11.127,11.127,0,0,0-3.378,1.647c-4.595-.634-7.951.962-9.9,4.272s1.433,11,3.985,12.639" transform="translate(13.857 -1.51)" fill="#d5dbf1"/>
      </g>
      <g id="Group_6435" data-name="Group 6435" transform="translate(222.753 126.382) rotate(-45)">
        <path id="Path_5972" data-name="Path 5972" d="M.572,33.262c-5.318-1.256,28.172-28.881,28.75-28.75L49.677,0,22.57,32.634s-11.6,3.084-22,.628" transform="translate(0 0)" fill="#ffa8a7"/>
      </g>
      <g id="Group_6436" data-name="Group 6436" transform="matrix(-0.727, 0.687, -0.687, -0.727, 274.315, 102.154)">
        <path id="Path_5973" data-name="Path 5973" d="M9.513,45.753C5.122,42.593-.726,36.989.074,29.456S4.188,18.48,9.513,12.926C14.868,7.343,26.982,0,26.982,0Z" transform="translate(0 0)" fill="#2e4088"/>
      </g>
      <g id="Group_6438" data-name="Group 6438" transform="translate(227.371 63.378) rotate(84.046)">
        <path id="Path_5975" data-name="Path 5975" d="M0,25.891H25.3L29.281,1.036.036,0Z" transform="translate(0 0)" fill="#ffa8a7"/>
      </g>
      <g id="Group_6439" data-name="Group 6439" transform="translate(181.139 35.934)">
        <path id="Path_5976" data-name="Path 5976" d="M-11.786-34.871s-6.375,8.635-5.748,9.55,4.921,1.938,4.921,1.938Z" transform="translate(17.578 34.871)" fill="#f28f8f"/>
      </g>
      <g id="Group_6440" data-name="Group 6440" transform="translate(185.655 11.383)">
        <path id="Path_5977" data-name="Path 5977" d="M-38.609-167.76c-12.068,1.882-15.8,6.945-17.93,25.844-2.231,19.749-.539,26.084,1.921,28.89,1.662,1.893,11.406,2.739,16.4,1.643,6.256-1.37,20.45-5.565,27.5-15.183,8.3-11.314,11.162-27.1,3.293-34.053-11.074-9.789-26.282-7.907-31.193-7.141" transform="translate(57.579 168.427)" fill="#ffa8a7"/>
      </g>
      <g id="Group_6441" data-name="Group 6441" transform="translate(182.235)">
        <path id="Path_5978" data-name="Path 5978" d="M-6.279-134.354a16.307,16.307,0,0,0,2.917,2.574,42.724,42.724,0,0,0,4.839,3.034A29.849,29.849,0,0,1,6.2-126.221c2.082,1.661,2.251,3.723,2.176,6.215-.049,1.631-.162,3.652-.255,5.844-.137,3.289,1.827,5.9,3.086,1.55,0,0,2.277-7.222,8.4-5.973,6.164,1.257,6.3,8.232,3.063,13.535-1.969,3.226-6.717,2.1-6.717,2.1A21.566,21.566,0,0,0,21.516-86s4.758,2.82,14.573,1.268c7.143-8.8,11.561-13.018,15.53-20.726,8.392-16.3,5.33-26.978-.236-31.7-.743-7.759-6.619-11.533-13.445-13.489-10.207-2.924-20.2,2.695-30.291-.139a51.069,51.069,0,0,1-4.916-1.572,2.741,2.741,0,0,0-2.008-.246,2.274,2.274,0,0,0-1.087,2.231,6.18,6.18,0,0,0,2.747,5c-.2-.133-1.209.085-1.487.088-.574.008-1.149-.014-1.723-.03a30.12,30.12,0,0,1-3.343-.417,6.257,6.257,0,0,0-2.32-.047,4.2,4.2,0,0,0-2.872,4.069,10.364,10.364,0,0,0,1.577,5.056,15.057,15.057,0,0,0,1.137,1.842c.118.158.242.313.369.463" transform="translate(9.364 152.719)" fill="#37474f"/>
      </g>
      <g id="Group_6442" data-name="Group 6442" transform="translate(202.494 66.12) rotate(98.618)">
        <path id="Path_5979" data-name="Path 5979" d="M2.736,13.622C4.048,12.064,3.889,5.379,2.811.353L2.736,0,0,.777S3.2,8.594,2.736,13.622" transform="translate(0 0)" fill="#f28f8f"/>
      </g>
      <g id="Group_6443" data-name="Group 6443" transform="translate(174.101 75.429)">
        <path id="Path_5980" data-name="Path 5980" d="M-159.821-334.863c-3.085-7.436-9.788-14.488-18.41-13.055-2,.334-3.9.5-5.8.842-1.019,4.217-14.455,4.614-25.5,2.058l-12.947,1.544c-7.917,2.662-14.28,17.942-15.411,41.139s.122,59.073.572,75.217a88.976,88.976,0,0,0,50.21,5.151c23.737-4.721,27.6-14.914,27.6-14.914l-1.833-41.528c.04-9.033,3.307-21.283,4-27.087,2.117-17.825-.607-24.847-2.482-29.366" transform="translate(238.348 348.105)" fill="#4a63c2"/>
      </g>
      <g id="Group_6444" data-name="Group 6444" transform="translate(16.127 105.139)">
        <path id="Path_5981" data-name="Path 5981" d="M-3.386-81a4.135,4.135,0,0,0-1.658,3.354,1.315,1.315,0,0,0,.625,1.174l45.01,22.34,2.354-4.74L-2.074-81.216A1.313,1.313,0,0,0-3.386-81" transform="translate(5.05 81.312)" fill="#455a64"/>
      </g>
      <g id="Group_6445" data-name="Group 6445" transform="translate(0 98.719)">
        <path id="Path_5982" data-name="Path 5982" d="M-34.105,11.259C-39.625,8.53-50.863,0-50.863,0S-34.5,5.115-31.76,6.515Z" transform="translate(50.863 0)" fill="#455a64"/>
      </g>
      <g id="Group_6447" data-name="Group 6447" transform="translate(0 98.719)" opacity="0.2">
        <g id="Group_6446" data-name="Group 6446" transform="translate(0 0)">
          <path id="Path_5983" data-name="Path 5983" d="M-127.813,22.124-172.1.287l-18.516-7.233,17.872,9,44.766,22.356Z" transform="translate(190.613 6.946)" fill="#fff"/>
        </g>
      </g>
      <g id="Group_6448" data-name="Group 6448" transform="translate(64.963 132.235) rotate(176.302)">
        <path id="Path_5984" data-name="Path 5984" d="M1.871,4.576a4.134,4.134,0,0,0,1.872-3.24C3.742.142,2.9-.341,1.871.256A4.132,4.132,0,0,0,0,3.5C0,4.69.837,5.173,1.871,4.576" transform="translate(0 0)" fill="#37474f"/>
      </g>
      <g id="Group_6449" data-name="Group 6449" transform="translate(227.261 165.612) rotate(116.214)">
        <path id="Path_5985" data-name="Path 5985" d="M40.49,165.142C27.365,164.62-.047,143.69,0,115.172S23.08,22.531,40.49,0C58.358,24.626,81.2,81.679,81.154,109.194S66.961,158.056,40.49,165.142" transform="translate(0 0)" fill="#8193d5"/>
      </g>
      <g id="Group_6451" data-name="Group 6451" transform="translate(43.256 92.665)" opacity="0.7">
        <g id="Group_6450" data-name="Group 6450" transform="translate(184.005 72.947) rotate(116.214)">
          <path id="Path_5986" data-name="Path 5986" d="M40.49,165.142C27.365,164.62-.047,143.69,0,115.172S23.08,22.531,40.49,0C58.358,24.626,81.2,81.679,81.154,109.194S66.961,158.056,40.49,165.142" transform="translate(0 0)" fill="#fff"/>
        </g>
      </g>
      <g id="Group_6452" data-name="Group 6452" transform="translate(60.025 110.012)">
        <path id="Path_5987" data-name="Path 5987" d="M-46.89,18.635c-1.26-19.518,9.143-42.957,23.237-52.355,5.959-3.973,11.625-4.8,16.273-2.951C-32.67-48.128-62.581-33.137-68.738-21.8c-5.336,26.879,7.569,49,32.233,61.2l.047.022c-5.76-2.916-9.747-10.18-10.432-20.786" transform="translate(69.93 40.775)" fill="#4a63c2"/>
      </g>
      <g id="Group_6454" data-name="Group 6454" transform="translate(46.88 83.737)" opacity="0.15">
        <g id="Group_6453" data-name="Group 6453" transform="translate(76.652 0) rotate(54.012)">
          <path id="Path_5988" data-name="Path 5988" d="M68.456,86.891C92.814,74.1,132.63,27.291,146.085,0,131.1,21.513,96.071,55.405,68.456,68.994,45.638,80.222,17.231,84.019,0,77.012c18.613,20.111,44.1,22.671,68.456,9.878" transform="translate(0 0)"/>
        </g>
      </g>
      <g id="Group_6456" data-name="Group 6456" transform="translate(61.219 98.791)" opacity="0.5">
        <g id="Group_6455" data-name="Group 6455" transform="translate(163.026 72.948) rotate(116.215)">
          <path id="Path_5989" data-name="Path 5989" d="M33.663,165.141C14.286,147.8,7.862,122.962,8.518,103.678S22.354,20.133,33.663,0c0,0-29.814,56.16-33.416,102.982s33.416,62.16,33.416,62.16" transform="translate(0 0)" fill="#fff"/>
        </g>
      </g>
      <g id="Group_6457" data-name="Group 6457" transform="translate(195.969 201.939)">
        <path id="Path_5990" data-name="Path 5990" d="M-135.65,31.906c-4.036,5.675-18.605-1.584-34.441-14.47v-.008L-178.437-.4l2.924,13.239A200.385,200.385,0,0,1-202.3-15.689c4.611-.316,9.095-.814,13.409-1.536l22.126,10.687s37.891,28.93,31.115,38.444" transform="translate(202.3 17.225)" fill="#4a63c2"/>
      </g>
      <g id="Group_6459" data-name="Group 6459" transform="translate(195.969 201.939)" opacity="0.15">
        <g id="Group_6458" data-name="Group 6458" transform="translate(0 0)">
          <path id="Path_5991" data-name="Path 5991" d="M-135.65,31.906c-4.036,5.675-18.605-1.584-34.441-14.47v-.008L-178.437-.4l2.924,13.239A200.385,200.385,0,0,1-202.3-15.689c4.611-.316,9.095-.814,13.409-1.536l22.126,10.687s37.891,28.93,31.115,38.444" transform="translate(202.3 17.225)"/>
        </g>
      </g>
      <g id="Group_6461" data-name="Group 6461" transform="translate(195.971 201.939)" opacity="0.15">
        <g id="Group_6460" data-name="Group 6460" transform="translate(0 0)">
          <path id="Path_5992" data-name="Path 5992" d="M0-42.847A184.505,184.505,0,0,0,12.421-28.225a48.638,48.638,0,0,1-7.633-12.1l8.779-1.516L35.535-33.7,13.409-44.383C9.095-43.66,4.61-43.162,0-42.847" transform="translate(0 44.383)"/>
        </g>
      </g>
      <g id="Group_6462" data-name="Group 6462" transform="translate(196.357 188.72)">
        <path id="Path_5993" data-name="Path 5993" d="M-71.535,9.063-93.661-1.624c-5.9-5.059-7.16-7.519-13.022-12.041a251.269,251.269,0,0,1,29.939-1.089l-5.178,7.42,13.688-6.89c12.148,1.165,19.931,3.91,24.325,7.672C-30.68,4.764-47.352,14.134-71.535,9.063" transform="translate(106.683 14.844)" fill="#2e4088"/>
      </g>
      <g id="Group_6464" data-name="Group 6464" transform="translate(196.356 175.117)" opacity="0.5">
        <g id="Group_6463" data-name="Group 6463" transform="matrix(0.572, -0.82, 0.82, 0.572, 0, 14.783)">
          <path id="Path_5994" data-name="Path 5994" d="M8.982,23.927h9.047A250.939,250.939,0,0,0,0,0S13.331,18.681,14.889,22.012Z" transform="translate(0 0)" fill="#fff"/>
        </g>
      </g>
      <g id="Group_6466" data-name="Group 6466" transform="translate(227.962 189.341)" opacity="0.5">
        <g id="Group_6465" data-name="Group 6465" transform="translate(0 0)">
          <path id="Path_5995" data-name="Path 5995" d="M-31.937,23.952c17.046.242,26.335-7.727,15.477-17.013C-20.855,3.176-28.638.432-40.785-.733l-6.845,3.444L-39.982.594s15.625,1.579,22.608,9.292c4.283,4.732-.582,13.954-14.564,14.065" transform="translate(47.629 0.733)" fill="#fff"/>
        </g>
      </g>
      <g id="Group_6467" data-name="Group 6467" transform="translate(83.017 81.808)">
        <path id="Path_5996" data-name="Path 5996" d="M-210.378-223.309c-14.473,27.354-22.733,45.8-27.281,50.4S-276.5-141.33-288.906-140.1s-23.494-2.557-24.57-8.871a14.3,14.3,0,0,1-.066-5.344s2.972,2.087,3.12,2.139c3.776,1.29,9.5.863,12.242-1.231,4.026-3.075-5.086-5.542-7.21-8.066-2.714-3.223-1.554-6.707,5.291-3.715,5.969,2.612,11.269,4.7,15.5,4.56s28.62-25.649,28.62-25.649,13.07-27.61,19.15-42.346c11.43-27.693,22.614-27.55,28.684-27.693Z" transform="translate(313.746 256.313)" fill="#ffa8a7"/>
      </g>
      <g id="Group_6468" data-name="Group 6468" transform="translate(153.595 80.059)">
        <path id="Path_5997" data-name="Path 5997" d="M-74.036-180.167c-5.939.589-10.377.857-15.349,3.474-6.024,3.172-8.141,8.846-10.875,15.061-5.212,11.859-10.153,22.63-10.153,22.63,1.973,5.35,13.012,18.193,23.03,14.459,0,0,8.429-14.55,12.822-23.942,4.095-8.751,4.908-24.454.526-31.682" transform="translate(110.413 180.167)" fill="#687dcc"/>
      </g>
    </g>
    <g id="Character-2" data-name="Character" transform="translate(0 68.725)">
      <g id="Group_6553" data-name="Group 6553" transform="translate(43.391 74.533)">
        <path id="Path_6060" data-name="Path 6060" d="M51.919-173.3c-10.1.473-14.91,2.034-20.194,8.26C26.564-158.958,0-120.575,0-120.575s4.672,13.1,14.9,11.987l20.072-24.283Z" transform="translate(0 173.296)" fill="#ffaaa8"/>
      </g>
      <g id="Group_6554" data-name="Group 6554" transform="translate(62.424 74.314)">
        <path id="Path_6061" data-name="Path 6061" d="M34.224-108.445s-7.252-.946-12.425.926S12.588-101.3,9.559-97.286,0-84.212,0-84.212,4.817-74.09,18-66.457Z" transform="translate(0 108.684)" fill="#687dcc"/>
      </g>
      <g id="Group_6555" data-name="Group 6555" transform="translate(76.4 0)">
        <path id="Path_6062" data-name="Path 6062" d="M-61.926,63.54h3.5A32.286,32.286,0,0,0-26.142,31.253,31.252,31.252,0,0,0-57.395,0h-5.564A31.252,31.252,0,0,0-94.213,31.253,32.286,32.286,0,0,0-61.926,63.54" transform="translate(94.213)" fill="#1a2e35"/>
      </g>
      <g id="Group_6556" data-name="Group 6556" transform="matrix(-0.894, 0.447, -0.447, -0.894, 152.717, 93.503)">
        <path id="Path_6063" data-name="Path 6063" d="M11.592,0a20.964,20.964,0,0,1,9.375,28.124L11.593,46.875A20.964,20.964,0,0,1,2.217,18.751Z" transform="translate(0 0)" fill="#1a2e35"/>
      </g>
      <g id="Group_6557" data-name="Group 6557" transform="translate(107.035 400.552)">
        <path id="Path_6064" data-name="Path 6064" d="M-25.246-97.688v-2.187c-.863,2.567-4.865,13.615-10.937,19.153-4.827,4.4-11.411,9.488-13.085,14.4-1.741,5.105,9.162,6.819,13.672,6.022,5.24-.927,12.018-3.9,15.707-8.434,2.594-3.187,4.246-6.965,6.1-9.472s6.123-5.3,7.125-8.206c.551-1.594-.1-5.083-.875-8.033-.711-2.7-1.478-5.68-2.4-5.425,0,.329,0,1.668,0,1.668-1.111,1.23-4.186,2.453-7.65,2.584-2.239.087-7.671-.358-7.652-2.065" transform="translate(49.455 99.89)" fill="#1a2e35"/>
      </g>
      <g id="Group_6558" data-name="Group 6558" transform="translate(114.271 388.025)">
        <path id="Path_6065" data-name="Path 6065" d="M-78.916,19.3c1.5-1.336,3-2.641,4.37-3.888,4.24-3.869,7.473-10.429,9.331-14.907a21,21,0,0,0,1.6-8.052v-8.722h15.3V-1.691l-.078.04C-49.122,1.528-56.144,9.986-60.134,15.5c-2.673,3.7-7.756,8.4-13.827,9.211-5.754.769-8.695-1.046-4.955-5.409" transform="translate(80.583 16.267)" fill="#ffaaa8"/>
      </g>
      <g id="Group_6559" data-name="Group 6559" transform="translate(53.023 385.469)">
        <path id="Path_6066" data-name="Path 6066" d="M-25.246-97.69v-2.189c-.863,2.567-4.867,13.617-10.937,19.154-4.827,4.4-11.411,9.488-13.085,14.4-1.741,5.105,9.162,6.819,13.672,6.02,5.24-.927,12.018-3.9,15.707-8.434,2.594-3.187,4.246-6.965,6.1-9.47s6.123-5.3,7.125-8.206c.551-1.594-.1-5.085-.875-8.033-.711-2.706-1.48-5.68-2.4-5.427,0,.331,0,1.668,0,1.668-1.111,1.231-4.186,2.453-7.65,2.586-2.239.085-7.671-.358-7.652-2.065" transform="translate(49.455 99.894)" fill="#1a2e35"/>
      </g>
      <g id="Group_6560" data-name="Group 6560" transform="translate(60.259 372.94)">
        <path id="Path_6067" data-name="Path 6067" d="M-78.921,19.3c1.5-1.336,3-2.641,4.371-3.888,4.24-3.868,7.473-10.429,9.331-14.907a20.99,20.99,0,0,0,1.6-8.052v-8.722h15.3V-1.691l-.078.04C-49.126,1.528-56.148,9.987-60.139,15.5c-2.671,3.7-7.755,8.4-13.826,9.211-5.754.769-8.695-1.046-4.957-5.409" transform="translate(80.588 16.267)" fill="#ffaaa8"/>
      </g>
      <g id="Group_6561" data-name="Group 6561" transform="translate(70.807 161.163)">
        <path id="Path_6068" data-name="Path 6068" d="M54.223-600.588c11.862,25.91-.429,117.179-.429,117.179.358,4.2,5.164,12.477,6.956,30.981,2.116,21.865-3.32,76.766-3.32,76.766a16.56,16.56,0,0,1-15.464.616S27.382-457.733,24.641-479.471c-2.393-18.972-6.987-60.69-6.987-60.69l-7.381,60.587s3.352,10.629,4.135,18.725c1.239,12.787-11.151,72.323-11.151,72.323s-5.28,1.937-15.3.461c0,0-4.382-79.007-5.538-94.412-1.94-25.869-.742-106.588,4-121.9Z" transform="translate(18.471 604.38)" fill="#4a63c2"/>
      </g>
      <g id="Group_6563" data-name="Group 6563" transform="translate(70.807 161.163)" opacity="0.33">
        <g id="Group_6562" data-name="Group 6562">
          <path id="Path_6069" data-name="Path 6069" d="M54.223-600.588c11.862,25.91-.429,117.179-.429,117.179.358,4.2,5.164,12.477,6.956,30.981,2.116,21.865-3.32,76.766-3.32,76.766a16.56,16.56,0,0,1-15.464.616S27.382-457.733,24.641-479.471c-2.393-18.972-6.987-60.69-6.987-60.69l-7.381,60.587s3.352,10.629,4.135,18.725c1.239,12.787-11.151,72.323-11.151,72.323s-5.28,1.937-15.3.461c0,0-4.382-79.007-5.538-94.412-1.94-25.869-.742-106.588,4-121.9Z" transform="translate(18.471 604.38)"/>
        </g>
      </g>
      <g id="Group_6565" data-name="Group 6565" transform="translate(79.397 190.995)" opacity="0.38">
        <g id="Group_6564" data-name="Group 6564" transform="translate(0 0)">
          <path id="Path_6070" data-name="Path 6070" d="M27.533-114.493l-3.852-24.065S7.388-141.932,0-148.879c0,0,7.752,9.644,19.267,12.8l4.325,18.528L20.644-57.945Z" transform="translate(0 148.879)" fill="#4a63c2"/>
        </g>
      </g>
      <g id="Group_6566" data-name="Group 6566" transform="translate(73.83 74.533)">
        <path id="Path_6071" data-name="Path 6071" d="M-10.14-275.615c4.512.31,6.019.2,9.29.536,6.539.671,8.114,10.236,10.79,15.886a26.031,26.031,0,0,1,.72,19.6l-10.6,30.66S5.023-196.936,10.785-185.6c-26.6,14.845-59.807,7.043-67.8-3.79-.339-2.3,1.717-20.26,2.983-31.994-4.685-11.751-5.922-19.2-3.945-26.966,3.668-14.418,16.814-27.684,20.574-27.67Z" transform="translate(58.886 276.025)" fill="#687dcc"/>
      </g>
      <g id="Group_6567" data-name="Group 6567" transform="translate(140.57 10.928)">
        <path id="Path_6072" data-name="Path 6072" d="M-.8-23.071l-4.6,7.4a4.233,4.233,0,0,0,6-1.23A4.578,4.578,0,0,0-.8-23.071" transform="translate(5.405 23.071)" fill="#1a2e35"/>
      </g>
      <g id="Group_6568" data-name="Group 6568" transform="translate(141.519 18.145)">
        <path id="Path_6073" data-name="Path 6073" d="M8.7-9.6.068-10.813a4.23,4.23,0,0,0,3.55,4.988A4.58,4.58,0,0,0,8.7-9.6" transform="translate(0 10.813)" fill="#1a2e35"/>
      </g>
      <g id="Group_6569" data-name="Group 6569" transform="translate(80.42 13.632)">
        <path id="Path_6074" data-name="Path 6074" d="M-115.015-205.1c-3.594,2.124-8.038,11.167-7.6,30.123.374,16.065,5.582,20.033,8.195,21.177s7.658.448,12.561-.369v9.924s-6.777,7.587-6.349,12.009,9.782,5.466,16.124,1.147A41.014,41.014,0,0,0-81.68-141.984v-23.305s3.309,4.419,8.723.825,5.62-12.493,2.472-15.688-10.051-2.279-11.316,2.137c0,0-8.032-5.963-8.032-20.737,0-6.131-16.621-6.859-25.182-6.348" transform="translate(122.646 205.234)" fill="#ffaaa8"/>
      </g>
      <g id="Group_6570" data-name="Group 6570" transform="matrix(0.047, -0.999, 0.999, 0.047, 101.951, 41.306)">
        <path id="Path_6075" data-name="Path 6075" d="M2.1,0A2.052,2.052,0,0,0,0,2.013,2.069,2.069,0,0,0,2.1,4.039,2.056,2.056,0,0,0,4.2,2.024,2.067,2.067,0,0,0,2.1,0" transform="translate(0 0)" fill="#1a2e35"/>
      </g>
      <g id="Group_6571" data-name="Group 6571" transform="translate(94.13 53.661)">
        <path id="Path_6076" data-name="Path 6076" d="M5.183-11.1l-5.5,1.755a2.837,2.837,0,0,0,3.58,1.974A3.025,3.025,0,0,0,5.183-11.1" transform="translate(0.321 11.096)" fill="#ff9090"/>
      </g>
      <g id="Group_6572" data-name="Group 6572" transform="translate(104.295 30.286)">
        <path id="Path_6077" data-name="Path 6077" d="M-12.758-2.237-8.111-.46a2.389,2.389,0,0,0-1.34-3.2,2.612,2.612,0,0,0-3.306,1.418" transform="translate(12.758 3.822)" fill="#1a2e35"/>
      </g>
      <g id="Group_6573" data-name="Group 6573" transform="matrix(0.047, -0.999, 0.999, 0.047, 85.084, 41.518)">
        <path id="Path_6078" data-name="Path 6078" d="M2.1,0A2.055,2.055,0,0,0,0,2.015,2.068,2.068,0,0,0,2.1,4.039,2.053,2.053,0,0,0,4.2,2.026,2.067,2.067,0,0,0,2.1,0" transform="translate(0 0)" fill="#1a2e35"/>
      </g>
      <g id="Group_6574" data-name="Group 6574" transform="translate(87.848 38.315)">
        <path id="Path_6079" data-name="Path 6079" d="M6.723-32.017,6.4-19.856,0-21.837Z" transform="translate(0 32.017)" fill="#ff9090"/>
      </g>
      <g id="Group_6575" data-name="Group 6575" transform="matrix(-0.184, -0.983, 0.983, -0.184, 101.205, 67.913)">
        <path id="Path_6080" data-name="Path 6080" d="M3.16.592c-.285,5.2.758,16.214,4.585,18.616A10.89,10.89,0,0,1,3.16,14.557C1.07,10.936,0,0,0,0Z" transform="translate(0 0)" fill="#ff9090"/>
      </g>
      <g id="Group_6576" data-name="Group 6576" transform="translate(86.671 93.033)">
        <path id="Path_6081" data-name="Path 6081" d="M-47.65,53.568A16.056,16.056,0,0,0-35.68,33.986a6.69,6.69,0,0,0-.271-.836,5.228,5.228,0,0,0-5.387-3.572A15.517,15.517,0,0,0-34.69,19.67s4.322-20.938,3.724-17.391,1.537-9.621-1.113-17.06l10.493-6.448,1.975,1.372A26.665,26.665,0,0,1-20.049-3.3l-10.6,30.66A173.576,173.576,0,0,1-19.922,50.692c-19.6,10.939-42.783,9.573-56.83,3.765a77.548,77.548,0,0,0,29.1-.889" transform="translate(76.752 21.229)" fill="#687dcc"/>
      </g>
      <g id="Group_6577" data-name="Group 6577" transform="translate(129.619 75.479)">
        <path id="Path_6082" data-name="Path 6082" d="M-348.636-190.9c7.446.116,11.138,2.157,21,13.033,6.18,6.819,33.14,35.332,33.14,35.332s40.534-8.065,42.635-9.589,2.186-3.828,2.3-6.1.608-7.239.473-8.707c-.236-2.561,3.073-1.037,4.555,1.681,1.518,2.785,1.29,7.24,2.122,8.241s10.885-5.938,15.76-9.279,8.728-6.414,10.8-3.988c1.491,1.749-.516,4.5-4.164,7.5a44.277,44.277,0,0,0-5.56,5.1c-.494.576.367,1.361.673,1.817.562.84,1.587,2.246,1.415,3.292a9.364,9.364,0,0,0-.328,1.7c.038,1.318,1.41,2.285,1.529,3.6.089.951-.5,1.837-.562,2.79-.04.614.147,1.225.1,1.839a4.211,4.211,0,0,1-2.021,2.86c-3.455,2.469-7.381,2.746-11.344,3.774-3.293.856-6.451.79-10.151,1.413s-49.543,16.2-57.3,12.4c-7.125-3.5-40.948-36.433-40.948-36.433-11.3-13.735-4.123-32.274-4.123-32.274" transform="translate(350.882 190.904)" fill="#ffaaa8"/>
      </g>
      <g id="Group_6578" data-name="Group 6578" transform="translate(128.209 75.167)">
        <path id="Path_6083" data-name="Path 6083" d="M-90.545-110.3s9.956-1.28,15.649,4.287c7.182,7.027,19.278,19.838,19.278,19.838S-60.928-72.725-74.3-67.206c0,0-10.8-8.184-14-14.185s-5.126-16.193-2.247-28.913" transform="translate(91.954 110.43)" fill="#687dcc"/>
      </g>
      <g id="Group_6579" data-name="Group 6579" transform="matrix(0.967, 0.255, -0.255, 0.967, 14.009, 111.667)">
        <path id="Path_6084" data-name="Path 6084" d="M0,0H55.545L85.32,55,32.16,53.668Z" transform="translate(0 0)" fill="#d5dbf1"/>
      </g>
      <g id="Group_6581" data-name="Group 6581" transform="translate(0 111.667)" opacity="0.25">
        <g id="Group_6580" data-name="Group 6580" transform="matrix(0.967, 0.255, -0.255, 0.967, 14.009, 0)">
          <path id="Path_6085" data-name="Path 6085" d="M0,0H55.545L85.32,55,32.16,53.668Z" transform="translate(0 0)"/>
        </g>
      </g>
      <g id="Group_6583" data-name="Group 6583" transform="translate(27.844 154.704)" opacity="0.1">
        <g id="Group_6582" data-name="Group 6582" transform="translate(0 0)">
          <path id="Path_6086" data-name="Path 6086" d="M10.434-16.583a10.642,10.642,0,0,1-10.045,6L0-11.926Z" transform="translate(0 16.583)"/>
        </g>
      </g>
      <g id="Group_6585" data-name="Group 6585" transform="translate(29.733 118.392)" opacity="0.1">
        <g id="Group_6584" data-name="Group 6584" transform="translate(0 0)">
          <path id="Path_6087" data-name="Path 6087" d="M-59.785-11.906s-.2-.918-.443-2.049,2.909-1.179,7.041-.108l7.913,2.053c4.132,1.071,7.68,2.858,7.927,3.99l.443,2.048Z" transform="translate(60.242 14.836)"/>
        </g>
      </g>
      <g id="Group_6586" data-name="Group 6586" transform="translate(26.052 110.862)">
        <path id="Path_6088" data-name="Path 6088" d="M-73.6-16.664c-.157-.707,1.12-.893,2.852-.415l3.134.866s-.934-4.431,6.02-2.882,8.473,6.579,8.473,6.579l3.347.951c1.847.524,3.521,1.521,3.74,2.224l.4,1.276-27.667-7.285s-.139-.608-.294-1.314" transform="translate(73.617 19.424)" fill="#2b454e"/>
      </g>
      <g id="Group_6587" data-name="Group 6587" transform="translate(29.069 114.957)">
        <path id="Path_6089" data-name="Path 6089" d="M-47.594-23.85c2.537.611,3.589.948,3.968,2.692.432,1.991.609,3.453.609,3.453l12.246,3.236s-.592-2.523-.78-3.505.226-1.575,2.176-1.06l.165-.779L-48.4-24.7Z" transform="translate(48.4 24.7)" fill="#2b454e"/>
      </g>
      <g id="Group_6588" data-name="Group 6588" transform="translate(28.997 118.584)">
        <path id="Path_6090" data-name="Path 6090" d="M-59.781-11.909s-.2-.916-.443-2.048,2.907-1.181,7.041-.109l7.913,2.053c4.132,1.071,7.68,2.858,7.927,3.99l.442,2.049Z" transform="translate(60.238 14.838)" fill="#2b454e"/>
      </g>
      <g id="Group_6589" data-name="Group 6589" transform="translate(15.684 129.98)">
        <path id="Path_6091" data-name="Path 6091" d="M-47.989-70.549s2.01,6.87,2.469,8.508,6.476,4.582,10.425,5.667,8.268,2.371,6.4,7.889c-1.722,5.091-8.22,6.253-11.528,6.109s-7.835-3.306-9.621-8.4c-2.274-6.5-1.049-13.444-1.951-17.241s1.829-4.8,3.808-2.532" transform="translate(51.975 71.747)" fill="#ffaaa8"/>
      </g>
      <g id="Group_6590" data-name="Group 6590" transform="translate(121.264 33.276) rotate(90)">
        <path id="Path_6092" data-name="Path 6092" d="M6.332,0h7.949A5.409,5.409,0,0,1,8.87,5.411H0Z" fill="#1a2e35"/>
      </g>
      <g id="Group_6591" data-name="Group 6591" transform="translate(72.754 2.336)">
        <path id="Path_6093" data-name="Path 6093" d="M-32.989-79.938h0A26.877,26.877,0,0,0-59.867-53.06v3.485h13.151A12.238,12.238,0,0,0-34.588-60.168l.483,10.592a9.733,9.733,0,0,0,9.7-8.886l.15-1.727A11.531,11.531,0,0,0-12.764-49.575H-11.6l1.347-18.99Z" transform="translate(59.867 79.938)" fill="#1a2e35"/>
      </g>
      <g id="Group_6592" data-name="Group 6592" transform="translate(77.617 32.988)">
        <path id="Path_6094" data-name="Path 6094" d="M-.493-10.663a5.435,5.435,0,0,0-5.428-5.428H-6.929a5.435,5.435,0,0,0-5.428,5.428A5.434,5.434,0,0,0-6.929-5.235h1.008A5.434,5.434,0,0,0-.493-10.663m-19.908,0a5.435,5.435,0,0,0-5.43-5.428h-1.008a5.434,5.434,0,0,0-5.427,5.428,5.433,5.433,0,0,0,5.427,5.428h1.008a5.434,5.434,0,0,0,5.43-5.428M11.062-10.9H.585c0,.081.024.157.024.239a6.536,6.536,0,0,1-6.53,6.53H-6.929a6.536,6.536,0,0,1-6.528-6.53,6.5,6.5,0,0,1,.135-1.321l-.055.033a4.313,4.313,0,0,0-3.448-1.758,3.611,3.611,0,0,0-2.842.975,6.477,6.477,0,0,1,.369,2.072,6.536,6.536,0,0,1-6.53,6.53h-1.008a6.536,6.536,0,0,1-6.528-6.53,6.535,6.535,0,0,1,6.528-6.528h1.008A6.506,6.506,0,0,1-20.141-13.8a4.807,4.807,0,0,1,3.369-1,5.615,5.615,0,0,1,3.809,1.659,6.536,6.536,0,0,1,6.033-4.042h1.008A6.534,6.534,0,0,1,.466-12H12.181a5.508,5.508,0,0,0-1.119,1.1" transform="translate(33.367 17.192)" fill="#4a63c2"/>
      </g>
      <g id="Group_6594" data-name="Group 6594" transform="translate(77.617 32.988)" opacity="0.5">
        <g id="Group_6593" data-name="Group 6593" transform="translate(0 0)">
          <path id="Path_6095" data-name="Path 6095" d="M-.493-10.663a5.435,5.435,0,0,0-5.428-5.428H-6.929a5.435,5.435,0,0,0-5.428,5.428A5.434,5.434,0,0,0-6.929-5.235h1.008A5.434,5.434,0,0,0-.493-10.663m-19.908,0a5.435,5.435,0,0,0-5.43-5.428h-1.008a5.434,5.434,0,0,0-5.427,5.428,5.433,5.433,0,0,0,5.427,5.428h1.008a5.434,5.434,0,0,0,5.43-5.428M11.062-10.9H.585c0,.081.024.157.024.239a6.536,6.536,0,0,1-6.53,6.53H-6.929a6.536,6.536,0,0,1-6.528-6.53,6.5,6.5,0,0,1,.135-1.321l-.055.033a4.313,4.313,0,0,0-3.448-1.758,3.611,3.611,0,0,0-2.842.975,6.477,6.477,0,0,1,.369,2.072,6.536,6.536,0,0,1-6.53,6.53h-1.008a6.536,6.536,0,0,1-6.528-6.53,6.535,6.535,0,0,1,6.528-6.528h1.008A6.506,6.506,0,0,1-20.141-13.8a4.807,4.807,0,0,1,3.369-1,5.615,5.615,0,0,1,3.809,1.659,6.536,6.536,0,0,1,6.033-4.042h1.008A6.534,6.534,0,0,1,.466-12H12.181a5.508,5.508,0,0,0-1.119,1.1" transform="translate(33.367 17.192)"/>
        </g>
      </g>
    </g>
  </g>
</svg>
