<svg xmlns="http://www.w3.org/2000/svg" width="661.39" height="609.701" viewBox="0 0 661.39 609.701">
  <g id="cooperative-illustration-gear" transform="translate(-223.458 -153.442)">
    <g id="Character-3" transform="translate(627.709 218.051)">
      <g id="Group_6266" data-name="Group 6266" transform="translate(86.317 123.51)">
        <path id="Path_5824" data-name="Path 5824" d="M-62.743,42.571c28.08-2.54,54.751-7.133,63.417-18.288-7.658-6.005-9.568-7.173-17.558-7.114-7.112.05-37.771,8.854-47.17,8.179C-70.58,22.09-90.572,6.614-97.909,1.334c-1.3-.934-11.3,10.707-5.335,15.9,8.392,7.3,22.3,17.843,30.2,22.328,3.521,2,6.273,3.375,10.3,3.01" transform="translate(105.126 -1.281)" fill="#ffc1a7"/>
      </g>
      <g id="Group_6267" data-name="Group 6267" transform="translate(129.366 36.213)">
        <path id="Path_5825" data-name="Path 5825" d="M-46.645-4.105a2.02,2.02,0,0,0-1.386.133L-63.5,3a1.832,1.832,0,0,1-2.574-1.186c-.61-1.952-11.208-4.2-12.076-5.876L-72.2-18.838Z" transform="translate(78.154 18.838)" fill="#949dc2"/>
      </g>
      <g id="Group_6268" data-name="Group 6268" transform="translate(0)">
        <path id="Path_5826" data-name="Path 5826" d="M-100.634-38.361c-7.459,4.307-13.62,5.228-18.1,3.145-5.26-2.448,37.407-75.6,41.885-71.6,3.62,3.229,5.584,9.219,5.584,17.591,0,18.73-13.15,41.5-29.369,50.867m67.348-84.434,0-.035a1.461,1.461,0,0,0-1.346-.005l-11.423-26.434a2.339,2.339,0,0,0-.914-3.027l-11.193-6.462a2.341,2.341,0,0,0-3.079.721l-12.852,19.33a4.274,4.274,0,0,1-3.365,1.671,32.45,32.45,0,0,0-4.49.21v-14.134l-8.587-4.952v0a1.43,1.43,0,0,0-1.4.126l-17.385,10.037A4.689,4.689,0,0,0-111.4-142.5l-1.74,19.343a6.474,6.474,0,0,1-1.809,3.612,105,105,0,0,0-9.657,10.222,3.328,3.328,0,0,1-3.415.968l-11.158-3.9a2.723,2.723,0,0,0-3.133,1.164l-12.78,22.135a2.722,2.722,0,0,0,.559,3.294l8.954,7.716a3.332,3.332,0,0,1,.87,3.444,104.4,104.4,0,0,0-4.025,13.474,6.45,6.45,0,0,1-2.224,3.37l-15.881,11.179a4.69,4.69,0,0,0-1.774,3.418v20.072a1.416,1.416,0,0,0,.618,1.29l-.005,0,20.128,11.618-7.341,14.8a2.342,2.342,0,0,0,.916,3.029L-126.934,23.6a2.342,2.342,0,0,0,3.079-.722l12.434-12.715a1.454,1.454,0,0,0,.665,1.188l25.488,14.71.68-19.955s-5.389-6.958-5.281-8.151l27.781-30.254a2.713,2.713,0,0,0,3.131-1.157l12.78-22.135a2.724,2.724,0,0,0-.559-3.3l12.3-39.181a4.683,4.683,0,0,0,1.776-3.418Z" transform="translate(168.613 159.06)" fill="#79819f"/>
      </g>
      <g id="Group_6269" data-name="Group 6269" transform="translate(93.587 0.003)">
        <path id="Path_5827" data-name="Path 5827" d="M-68.082-28.773l-3.459,6.985L-82.646-8.975l-13.088-7.564-18.337-10.6a3.032,3.032,0,0,0,.926-.9l12.856-19.322a2.346,2.346,0,0,1,3.052-.736l11.221,6.477,17.022,9.82a2.341,2.341,0,0,1,.912,3.022" transform="translate(114.071 48.378)" fill="#949dc2"/>
      </g>
      <g id="Group_6270" data-name="Group 6270" transform="translate(0.682 100.161)">
        <path id="Path_5828" data-name="Path 5828" d="M-26.868-72.271a5.427,5.427,0,0,1-1.176,1.24L-43.925-59.852a4.132,4.132,0,0,0-1.092,1.268l26.7,15.45L2.771-55.128Z" transform="translate(45.017 72.271)" fill="#949dc2"/>
      </g>
      <g id="Group_6271" data-name="Group 6271" transform="translate(13.201 46.692)">
        <path id="Path_5829" data-name="Path 5829" d="M-22.485-102.467a2.711,2.711,0,0,0-2.086,1.275L-37.353-79.055a2.624,2.624,0,0,0-.286,1.705L-9.656-61.156,7.838-84.822Z" transform="translate(37.674 102.467)" fill="#949dc2"/>
      </g>
      <g id="Group_6272" data-name="Group 6272" transform="translate(57.491 3.02)">
        <path id="Path_5830" data-name="Path 5830" d="M-68.3-23.068v6.363L-83.77-7.768l-30.659-17.714a4.65,4.65,0,0,1,1.792-2.17L-95.252-37.69a1.8,1.8,0,0,1,.868-.26,1.08,1.08,0,0,1,.534.131L-85.477-33l.217.131L-73.7-26.193Z" transform="translate(114.429 37.95)" fill="#949dc2"/>
      </g>
      <g id="Group_6273" data-name="Group 6273" transform="translate(25.555 14.749)">
        <path id="Path_5831" data-name="Path 5831" d="M-100.634-10.452C-116.853-1.087-130-8.679-130-27.407s13.15-41.5,29.369-50.869,29.367-1.772,29.367,16.956-13.148,41.5-29.367,50.867m67.978-63.122V-93.648a1.3,1.3,0,0,0-1.977-1.278L-50.108-87.95a1.839,1.839,0,0,1-2.577-1.194,34.631,34.631,0,0,0-3.449-7.672,4.272,4.272,0,0,1-.235-3.749l10.313-20.795a2.341,2.341,0,0,0-.914-3.029l-11.193-6.461a2.343,2.343,0,0,0-3.081.721L-74.1-110.8a4.279,4.279,0,0,1-3.365,1.671,34.631,34.631,0,0,0-8.369.848,1.835,1.835,0,0,1-2.32-1.634l-1.7-16.887a1.3,1.3,0,0,0-2.095-1.073l-17.385,10.035a4.678,4.678,0,0,0-2.073,3.245l-1.74,19.343a6.474,6.474,0,0,1-1.809,3.612,104.793,104.793,0,0,0-9.657,10.222,3.329,3.329,0,0,1-3.415.968l-11.159-3.9a2.723,2.723,0,0,0-3.133,1.164l-12.78,22.135a2.726,2.726,0,0,0,.558,3.3l8.955,7.716a3.33,3.33,0,0,1,.87,3.442,104.664,104.664,0,0,0-4.025,13.474,6.455,6.455,0,0,1-2.222,3.371l-15.881,11.178a4.69,4.69,0,0,0-1.774,3.418V4.92A1.3,1.3,0,0,0-166.635,6.2l15.475-6.975A1.838,1.838,0,0,1-148.584.416a34.646,34.646,0,0,0,3.449,7.674,4.272,4.272,0,0,1,.233,3.749l-10.313,20.795a2.339,2.339,0,0,0,.916,3.027l11.191,6.462a2.344,2.344,0,0,0,3.081-.722l12.852-19.328a4.282,4.282,0,0,1,3.366-1.671,34.636,34.636,0,0,0,8.369-.85,1.836,1.836,0,0,1,2.32,1.634l1.7,16.891a1.3,1.3,0,0,0,2.1,1.072l17.385-10.037a4.678,4.678,0,0,0,2.071-3.244l1.742-19.345a6.461,6.461,0,0,1,1.808-3.61,104.561,104.561,0,0,0,9.656-10.22,3.331,3.331,0,0,1,3.417-.969l11.158,3.9a2.725,2.725,0,0,0,3.135-1.164l12.78-22.135a2.724,2.724,0,0,0-.559-3.294l-8.954-7.717a3.326,3.326,0,0,1-.87-3.442,104.665,104.665,0,0,0,4.025-13.474,6.453,6.453,0,0,1,2.222-3.37L-34.43-70.156a4.687,4.687,0,0,0,1.774-3.418" transform="translate(168.613 131.151)" fill="#d5dbf1"/>
      </g>
      <g id="Group_6274" data-name="Group 6274" transform="translate(163.566 75.237)">
        <path id="Path_5832" data-name="Path 5832" d="M-42.768,56.737h1.152A28.891,28.891,0,0,0-12.724,27.845,27.845,27.845,0,0,0-40.57,0h-3.244A27.844,27.844,0,0,0-71.658,27.845a28.891,28.891,0,0,0,28.89,28.892" transform="translate(71.658 0)" fill="#37474f"/>
      </g>
      <g id="Group_6275" data-name="Group 6275" transform="translate(220.266 94.302)">
        <path id="Path_5833" data-name="Path 5833" d="M-24.955,53.936h0A16.856,16.856,0,0,1-41.813,37.079V0A16.858,16.858,0,0,1-24.955,16.857Z" transform="translate(41.813)" fill="#37474f"/>
      </g>
      <g id="Group_6276" data-name="Group 6276" transform="translate(233.102 393.707)">
        <path id="Path_5834" data-name="Path 5834" d="M-24.55-108.966c-1.067,2.132-.575,4.809-.764,10.618a97.332,97.332,0,0,1-.67,11.455c-.208,1.357-.672,2.592-.983,3.911a4.777,4.777,0,0,1-1.581,2.691,2.919,2.919,0,0,1-2.624.689,2.785,2.785,0,0,1-1.636-1.441,22,22,0,0,1-1.426-4.032c-1.27,9.706-11.158,16-4.766,18.53,5.547,2.194,9.484.43,12.933-1.048a11.576,11.576,0,0,0,4.455-3.692c2.555-4.274,2.207-8.181,2.308-11.9.223-8.211,1.391-11.105,2.127-15.2.889-4.957-5.8-11.3-7.373-10.583" transform="translate(41.133 109.022)" fill="#263238"/>
      </g>
      <g id="Group_6277" data-name="Group 6277" transform="translate(229.95 373.556)">
        <path id="Path_5835" data-name="Path 5835" d="M-11.778-43.62c0-.007-7.956-19.968-7.956-19.968l13.222-5.066C-4.932-65.531-.837-49.63,0-48.447a9.422,9.422,0,0,1,2.044,5.634A93.777,93.777,0,0,1-.417-23.136,8.911,8.911,0,0,1-5.765-16.8a6.427,6.427,0,0,1-3.363.724,1.687,1.687,0,0,1-1.042-.432c-.554-.578-.015-1.91.106-2.58a25.756,25.756,0,0,0,.358-3.271c.1-2.154.086-4.783-.017-6.933A70.569,70.569,0,0,0-11.778-43.62" transform="translate(19.733 68.654)" fill="#ffc1a7"/>
      </g>
      <g id="Group_6278" data-name="Group 6278" transform="translate(136.416 404.641)">
        <path id="Path_5836" data-name="Path 5836" d="M-62.355-73.7a.894.894,0,0,1,.653.832c.163,1.1.343,3.145.679,5.018.447,2.493.91,6.079.467,8.067s-5.12,4.8-8.261,5.218S-77.37-51.221-79.9-49c-3.1,2.715-9.662,4.909-14.072,4.961-5.171.059-9.229-1.162-10.408-4.907-.494-1.574.8-3.489,7.472-6.54,0,0,3.373-1.7,5.293-2.856,9.662-5.831,12.983-9.182,15.875-15.255Z" transform="translate(104.476 73.696)" fill="#263238"/>
      </g>
      <g id="Group_6279" data-name="Group 6279" transform="translate(143.991 392.973)">
        <path id="Path_5837" data-name="Path 5837" d="M-25.865-23.8A17.011,17.011,0,0,0-23.2-32.3l.213-8.24H-8.751L-8.8-28.873l-.047,1.784c-.8,5.659-6.14,6.326-10.6,9.458-2.217,1.557-10.9,8.231-16.74,9.3-4.746.872-6.516-.994-7.151-2.338A94.835,94.835,0,0,0-25.865-23.8" transform="translate(43.338 40.538)" fill="#ffc1a7"/>
      </g>
      <g id="Group_6280" data-name="Group 6280" transform="translate(159.004 215.375)">
        <path id="Path_5838" data-name="Path 5838" d="M-97.07-98.759A55.107,55.107,0,0,1-82.585-78.3C-78.2-67.117-72.8-28.911-72.8-28.911s-6.642,6.073-14.141,3.681c0,0-27.205-51.114-31.292-63.338-4.148-6.241-9.332-36.985-13.086-58.244l-.138.227-6.388,45.124a97.688,97.688,0,0,1,3.578,16.21c1.073,11.072-8.261,64.686-8.261,64.686s-6.365,3.319-15.174.388c0,0-3.146-67.163-4.148-80.5-1.68-22.4-.756-88.249,3.355-101.506l58.674,3.281.045-.04c4.867,14.064,5.255,23.049,4.625,38.468-.65,15.952-1.922,61.716-1.922,61.716" transform="translate(162.641 202.184)" fill="#8193d5"/>
      </g>
      <g id="Group_6281" data-name="Group 6281" transform="translate(166.355 241.202)">
        <path id="Path_5839" data-name="Path 5839" d="M-35.288-73.48l-3.334-20.833s-14.106-2.923-20.5-8.937c0,0,6.711,8.349,16.679,11.084L-38.7-76.126l-2.553,44.272Z" transform="translate(59.125 103.25)" fill="#37474f"/>
      </g>
      <g id="Group_6282" data-name="Group 6282" transform="translate(161.534 140.116)">
        <path id="Path_5840" data-name="Path 5840" d="M-62.474-223.493h0c4.289.3,7.677.894,9.851,2.107,4.5,2.513,4.887,7.008,4.947,12.354.067,5.859-1.408,10.381-3.188,20.02l-3.353,18.571s4.957,11.235,9.859,24.878c-23.027,12.852-51.778,6.1-58.7-3.282-.292-1.991,1.488-17.541,2.582-27.7-4.055-10.173-5.125-16.622-3.413-23.346,3.175-12.483,15.5-24.645,20.961-24.2Z" transform="translate(104.674 224.104)" fill="#687dcc"/>
      </g>
      <g id="Group_6284" data-name="Group 6284" transform="translate(164.134 156.226)" opacity="0.15">
        <g id="Group_6283" data-name="Group 6283" transform="translate(0)">
          <path id="Path_5841" data-name="Path 5841" d="M-64.066,67.95a55.128,55.128,0,0,0,14.443-5.52c-4.9-13.644-9.859-24.878-9.859-24.878l3.353-18.569C-54.455,9.919-53.053,5.379-52.947,0l-8.834,2.466S-99.72,22.916-99.87,23.083c-.074.082-3.759,2.068-7.472,4.06.475,1.367.991,2.783,1.6,4.305-.242,2.256-.519,4.781-.8,7.361a137.584,137.584,0,0,0,21.168-5.172c11.625-4.07,23.9-12.883,24.331-12.384s-1.566,15.13-1.566,15.13l-5.322-1s8.3,10.319,10.633,14.8,4.651,13.751-6.766,17.759" transform="translate(107.342)"/>
        </g>
      </g>
      <g id="Group_6285" data-name="Group 6285" transform="translate(219.907 86.477)">
        <path id="Path_5842" data-name="Path 5842" d="M-2.818-19.6l-1.9,7.3A3.666,3.666,0,0,0-.078-14.862,3.967,3.967,0,0,0-2.818-19.6" transform="translate(4.721 19.604)" fill="#37474f"/>
      </g>
      <g id="Group_6286" data-name="Group 6286" transform="translate(220.59 89.862)">
        <path id="Path_5843" data-name="Path 5843" d="M-9.333-16.125l-6.3,4.146a3.661,3.661,0,0,0,5.159,1.209,3.964,3.964,0,0,0,1.146-5.355" transform="translate(15.638 16.125)" fill="#37474f"/>
      </g>
      <g id="Group_6287" data-name="Group 6287" transform="translate(167.241 87.761)">
        <path id="Path_5844" data-name="Path 5844" d="M-9.78-168.213c-3.114,1.839-6.961,9.669-6.58,26.08.321,13.909,4.83,17.346,7.094,18.335s6.63.388,10.874-.319v8.347s-5.866,6.813-5.5,10.642,8.47,4.732,13.959.993a35.529,35.529,0,0,0,9.009-9.431V-135.2s2.763,3.113,7.45,0a8.005,8.005,0,0,0,1.557-11.984c-2.725-2.767-7.912-1.322-9.007,2.5,0,0-6.77.247-15.784-4.7A25.333,25.333,0,0,1-9.78-168.213" transform="translate(16.386 168.213)" fill="#ffc1a7"/>
      </g>
      <g id="Group_6288" data-name="Group 6288" transform="matrix(-0.048, 0.999, -0.999, -0.048, 187.934, 108.698)">
        <path id="Path_5845" data-name="Path 5845" d="M1.816,3.5A1.776,1.776,0,0,0,3.634,1.755,1.79,1.79,0,0,0,1.816,0,1.778,1.778,0,0,0,0,1.744,1.787,1.787,0,0,0,1.816,3.5" transform="translate(0 0)" fill="#263238"/>
      </g>
      <g id="Group_6289" data-name="Group 6289" transform="translate(178.265 122.137)">
        <path id="Path_5846" data-name="Path 5846" d="M-6.016-7.717l-4.064,1.3A2.1,2.1,0,0,0-7.437-4.963,2.234,2.234,0,0,0-6.016-7.717" transform="translate(10.079 7.717)" fill="#f59f7b"/>
      </g>
      <g id="Group_6290" data-name="Group 6290" transform="translate(169.659 101.546)">
        <path id="Path_5847" data-name="Path 5847" d="M-.522,4.185,3.016,1.733a2.066,2.066,0,0,0-2.94-.6,2.261,2.261,0,0,0-.6,3.056" transform="translate(0.874 -0.755)" fill="#263238"/>
      </g>
      <g id="Group_6291" data-name="Group 6291" transform="translate(174.408 107.433) rotate(92.697)">
        <path id="Path_5848" data-name="Path 5848" d="M1.816,3.5A1.778,1.778,0,0,0,3.633,1.757,1.791,1.791,0,0,0,1.816,0,1.777,1.777,0,0,0,0,1.742,1.79,1.79,0,0,0,1.816,3.5" transform="translate(0 0)" fill="#263238"/>
      </g>
      <g id="Group_6292" data-name="Group 6292" transform="translate(173.551 108.08)">
        <path id="Path_5849" data-name="Path 5849" d="M-8.617-26.117-8.9-15.587-14.438-17.3Z" transform="translate(14.438 26.117)" fill="#f59f7b"/>
      </g>
      <g id="Group_6293" data-name="Group 6293" transform="matrix(0.184, 0.983, -0.983, 0.184, 200.345, 124.989)">
        <path id="Path_5850" data-name="Path 5850" d="M3.968,16.116C4.215,11.613,3.309,2.08,0,0A9.435,9.435,0,0,1,3.968,4.028C5.777,7.165,6.7,16.63,6.7,16.63Z" transform="translate(0 0)" fill="#f59f7b"/>
      </g>
      <g id="Group_6294" data-name="Group 6294" transform="translate(86.509 142.834)">
        <path id="Path_5851" data-name="Path 5851" d="M-114.963,46.487C-71.855,30.2-57.774,22.6-58.369,6.045c-.208-5.809-3.113-8.513-7.171-9.6-5.569.237-9.757,7.376-16.738,15.908,0,0-25.421,13.01-34.749,17.84-11,.365-34.255-3.209-43.009-5.461-1.551-.4-2.513-2.742-3.405-4.07-2.4-3.57-4.872-4.171-7.831-6.818a18.467,18.467,0,0,1-2.293-2.508l-.647,7.183s-2.622-.052-8.366-4.379c-6.454-4.861-10.277-5-10.03,5.312.156,6.461,4.309,11.482,18.7,15.873,4.146,1.265,10.778,2.767,16.128,4.013,8.035,1.871,10.731,2.275,18.567,4.137,8.335,1.981,20.462,4.44,24.25,3.009" transform="translate(192.62 3.55)" fill="#ffc1a7"/>
      </g>
    </g>
    <g id="Character-2" transform="translate(479.256 153.442)">
      <g id="Group_6295" data-name="Group 6295" transform="translate(93.23 140.529)">
        <path id="Path_5852" data-name="Path 5852" d="M-37.715-234.359a6.794,6.794,0,0,0-2.913-3.845c-3.756-2.4-5.256-4.836-8.072-7.841-2.2-2.352-4.1-2.95-3.795-3.689.386-.949,1.989-2.478,4.71-1.619a25.683,25.683,0,0,1,5.332,2.958,34.034,34.034,0,0,0-5.4-9.483c-5.234-6.543-5.431-10.531,5.263-10.526,6.7,0,12.2,2.535,17.1,17.346,1.413,4.267,2.4,11.5,3.38,17.111,2.191,12.78,4.366,29.251,3.7,38.195-.336,4.534-1.907,7.213-4.087,12.14S-48.547-134.4-54.735-126.144c-16.111-7.791-4.248-26.6-4.248-26.6s18.357-37.345,21.374-41.926A10.444,10.444,0,0,0-36.2-198.5c.464-2.484-.462-26.543-1.519-35.856" transform="translate(63.191 268.404)" fill="#b16668"/>
      </g>
      <g id="Group_6296" data-name="Group 6296" transform="translate(82.363 233.619)">
        <path id="Path_5853" data-name="Path 5853" d="M0-49.371c4.171-1.08,6.309-1.584,10.867-5.76C17.292-61.021,24.61-74.1,24.61-74.1c5.832-1.388,17.956,3.173,18.455,14.08l-23.3,41.766Z" transform="translate(0 74.342)" fill="#687dcc"/>
      </g>
      <g id="Group_6297" data-name="Group 6297" transform="translate(0.003 0)">
        <path id="Path_5854" data-name="Path 5854" d="M-58.024-72.655-3.75-129.937a28.524,28.524,0,0,1,2.243,11.917A32.652,32.652,0,0,1,2.18-119.9q.174,1.887.175,3.99c0,18.744-13.146,41.506-29.372,50.877-1.186.679-2.359,1.287-3.471,1.808a31.406,31.406,0,0,1-.232-4.252c-11.584,6.768-22.589,5.221-27.3-5.177M28.458-95.88l35.72-8.011a.34.34,0,0,0-.072-.044c-.853-.492-8.157-4.729-15.271-8.836-7.015-4.064-13.869-8.026-14.173-8.2a1.991,1.991,0,0,0-1-.289l-12.538-.707a2.032,2.032,0,0,1-2.112-2.039,67.613,67.613,0,0,0,.015-12.091,6,6,0,0,1,1.374-3.7l20.057-1.634c.853-1.042,17.267-16.877,17.267-16.877l-.086-.044c-1.72-1-29.3-16.978-29.475-17.079a1.207,1.207,0,0,0-.563-.116c-8.49-4.9-23.37-13.521-23.718-13.738a2.365,2.365,0,0,0-1.446-.276l-14.62,1.446a4.078,4.078,0,0,0-3.2,2.227L-23.3-164.631a6.992,6.992,0,0,1-3.2,3.094c-1.547.724-3.1,1.549-4.657,2.444l-15.345-8.88c-.606-.4-1.576-.144-2.37.694l-16.053,16.95a4.247,4.247,0,0,0-1.245,3.529l4.468,15.127a5.085,5.085,0,0,1-.823,3.645A122.268,122.268,0,0,0-69.9-115.2a5.821,5.821,0,0,1-3.486,2.589L-87.12-109.3a4.509,4.509,0,0,0-3.109,2.589l-6.914,23.269a1.506,1.506,0,0,0,.522,1.692c.3.245,15.56,9.024,15.56,9.024-.015,2.127.072,4.208.26,6.232a5.975,5.975,0,0,1-1.359,3.7L-96.173-45.843a3.824,3.824,0,0,0-.84,3.486l6.652,14.707a1.061,1.061,0,0,0,.42.477c.534.319,28.475,16.488,29.517,17.081,0,.013,0,.013.015.013l.013.015h.029a.319.319,0,0,0,.087-.131c.144.087.289.16.433.26h.015C-51.488-5.1-37.011,3.269-36.1,3.79c.015.015.029.015.044.029.4-1.1,12.451-51.005,12.972-50.211l7.49,11.44a1.463,1.463,0,0,0,.232.26l14.275,8.287,15.4,8.922-.015-.029L3.163-52.278c9.835,3.4,32.265-38.9,25.3-43.6" transform="translate(97.219 189.578)" fill="#8193d5"/>
      </g>
      <g id="Group_6299" data-name="Group 6299" transform="translate(0.003 0)" opacity="0.15">
        <g id="Group_6298" data-name="Group 6298" transform="translate(0)">
          <path id="Path_5855" data-name="Path 5855" d="M-58.024-72.655-3.75-129.937a28.524,28.524,0,0,1,2.243,11.917A32.652,32.652,0,0,1,2.18-119.9q.174,1.887.175,3.99c0,18.744-13.146,41.506-29.372,50.877-1.186.679-2.359,1.287-3.471,1.808a31.406,31.406,0,0,1-.232-4.252c-11.584,6.768-22.589,5.221-27.3-5.177M28.458-95.88l35.72-8.011a.34.34,0,0,0-.072-.044c-.853-.492-8.157-4.729-15.271-8.836-7.015-4.064-13.869-8.026-14.173-8.2a1.991,1.991,0,0,0-1-.289l-12.538-.707a2.032,2.032,0,0,1-2.112-2.039,67.613,67.613,0,0,0,.015-12.091,6,6,0,0,1,1.374-3.7l20.057-1.634c.853-1.042,17.267-16.877,17.267-16.877l-.086-.044c-1.72-1-29.3-16.978-29.475-17.079a1.207,1.207,0,0,0-.563-.116c-8.49-4.9-23.37-13.521-23.718-13.738a2.365,2.365,0,0,0-1.446-.276l-14.62,1.446a4.078,4.078,0,0,0-3.2,2.227L-23.3-164.631a6.992,6.992,0,0,1-3.2,3.094c-1.547.724-3.1,1.549-4.657,2.444l-15.345-8.88c-.606-.4-1.576-.144-2.37.694l-16.053,16.95a4.247,4.247,0,0,0-1.245,3.529l4.468,15.127a5.085,5.085,0,0,1-.823,3.645A122.268,122.268,0,0,0-69.9-115.2a5.821,5.821,0,0,1-3.486,2.589L-87.12-109.3a4.509,4.509,0,0,0-3.109,2.589l-6.914,23.269a1.506,1.506,0,0,0,.522,1.692c.3.245,15.56,9.024,15.56,9.024-.015,2.127.072,4.208.26,6.232a5.975,5.975,0,0,1-1.359,3.7L-96.173-45.843a3.824,3.824,0,0,0-.84,3.486l6.652,14.707a1.061,1.061,0,0,0,.42.477c.534.319,28.475,16.488,29.517,17.081,0,.013,0,.013.015.013l.013.015h.029a.319.319,0,0,0,.087-.131c.144.087.289.16.433.26h.015C-51.488-5.1-37.011,3.269-36.1,3.79c.015.015.029.015.044.029.4-1.1,12.451-51.005,12.972-50.211l7.49,11.44a1.463,1.463,0,0,0,.232.26l14.275,8.287,15.4,8.922-.015-.029L3.163-52.278c9.835,3.4,32.265-38.9,25.3-43.6" transform="translate(97.219 189.578)"/>
        </g>
      </g>
      <g id="Group_6301" data-name="Group 6301" transform="translate(55.691 59.099)" opacity="0.15">
        <g id="Group_6300" data-name="Group 6300" transform="translate(0 0)">
          <path id="Path_5856" data-name="Path 5856" d="M-116.4-187.982l-8.576-17.59-7.4-.417a2.033,2.033,0,0,1-2.112-2.039c.191-2.2.277-4.359.272-6.472l-20.637,2.777-1.162,1.384a31.688,31.688,0,0,1,1.008,8.3,32.8,32.8,0,0,1,3.687-1.88q.171,1.887.173,3.991c0,18.742-13.146,41.506-29.372,50.876-1.186.68-2.357,1.287-3.471,1.807a31.661,31.661,0,0,1-.232-4.252,29.317,29.317,0,0,1-10.533,3.9l-.277.766,15.058,27.845.131.039c1.755-6.817,3.091-11.712,3.257-11.46l7.49,11.44a1.525,1.525,0,0,0,.23.26l14.277,8.287,15.4,8.922-.013-.029L-150.331-136.3c9.834,3.4,32.265-38.9,25.293-43.6l6.908-1.55Z" transform="translate(195.025 214.5)"/>
        </g>
      </g>
      <g id="Group_6303" data-name="Group 6303" transform="translate(34.989 152.998)" opacity="0.15">
        <g id="Group_6302" data-name="Group 6302" transform="translate(0 0)">
          <path id="Path_5857" data-name="Path 5857" d="M-30.65-100.2s-11.784,13.933-20.7,25.443c1.008.583,1.666.963,1.809,1.043,0,.013,0,.013.015.013l.015.015h.029a.341.341,0,0,0,.086-.129c.144.086.289.158.433.26h.015c8.344,4.83,22.821,13.2,23.731,13.724.015.013.03.013.044.029.239-.65,4.544-18.341,8.134-32.544Z" transform="translate(51.354 100.204)"/>
        </g>
      </g>
      <g id="Group_6305" data-name="Group 6305" transform="translate(0.048 125.258)" opacity="0.15">
        <g id="Group_6304" data-name="Group 6304" transform="translate(0 0)">
          <path id="Path_5858" data-name="Path 5858" d="M-23.538-117.554a6.356,6.356,0,0,1-.887,1.53L-38.438-99.076a3.829,3.829,0,0,0-.84,3.486l6.654,14.707a1.049,1.049,0,0,0,.418.477c.192.114,3.885,2.254,8.6,4.981L-8.5-70.161,11.122-97.542Z" transform="translate(39.438 117.554)"/>
        </g>
      </g>
      <g id="Group_6307" data-name="Group 6307" transform="translate(11.214 107.359)" opacity="0.05">
        <g id="Group_6306" data-name="Group 6306" transform="translate(0 0)">
          <path id="Path_5859" data-name="Path 5859" d="M-41.428-60.743l2.555-2.7c-12.191-2.915-29-6.869-29-6.869l-1.539,6.644,4.947,2.849c-.015,2.127.072,4.208.26,6.232a4.859,4.859,0,0,1-.472,2.174L-30.019-32.4s9.871-17.413,9.4-18.228c-.111-.192-.517-.833-1.062-1.692-8.594,2.372-16.074-.336-19.743-8.426" transform="translate(69.413 70.308)"/>
        </g>
      </g>
      <g id="Group_6309" data-name="Group 6309" transform="translate(1.951 76.1)" opacity="0.15">
        <g id="Group_6308" data-name="Group 6308" transform="translate(0 0)">
          <path id="Path_5860" data-name="Path 5860" d="M-85.084-24.786l-33.735-19.476a5.715,5.715,0,0,1-1.851.865l-13.738,3.313a4.509,4.509,0,0,0-3.109,2.589l-5.041,16.97,32.233,13.585L-91.236-18.3Z" transform="translate(142.558 44.263)"/>
        </g>
      </g>
      <g id="Group_6311" data-name="Group 6311" transform="translate(30.986 34.318)" opacity="0.15">
        <g id="Group_6310" data-name="Group 6310" transform="translate(0)">
          <path id="Path_5861" data-name="Path 5861" d="M-55.115,44.514l9.051-16.96L-52.182,5.508-86.36,0l-4.67,4.932A4.244,4.244,0,0,0-92.275,8.46l4.47,15.127a3.979,3.979,0,0,1-.108,1.991Z" transform="translate(92.345)"/>
        </g>
      </g>
      <g id="Group_6313" data-name="Group 6313" transform="translate(72.347 0)" opacity="0.15">
        <g id="Group_6312" data-name="Group 6312">
          <path id="Path_5862" data-name="Path 5862" d="M0-25.914,36.992-4.559S43.943-30.117,47.15-41.917C38.907-46.684,29.044-52.4,28.762-52.575a2.378,2.378,0,0,0-1.446-.275L12.7-51.4a4.078,4.078,0,0,0-3.2,2.227L1.574-27.918a5.6,5.6,0,0,1-1.574,2" transform="translate(0 52.865)"/>
        </g>
      </g>
      <g id="Group_6314" data-name="Group 6314" transform="translate(0.054 145.493)">
        <path id="Path_5863" data-name="Path 5863" d="M-54.437,34.019-55.855,20.34-91.085,0a2.71,2.71,0,0,0,.03,1.732L-84.4,16.437a1,1,0,0,0,.425.477l.069.04c1.425.818,29.468,17.062,29.471,17.064" transform="translate(91.21)" fill="#687dcc"/>
      </g>
      <g id="Group_6315" data-name="Group 6315" transform="translate(0 81.961)">
        <path id="Path_5864" data-name="Path 5864" d="M-61.112-39.255-94.9-58.688a2.8,2.8,0,0,0-.5.9l-6.916,23.276a1.514,1.514,0,0,0,.527,1.695c.02.015.108.069.249.153l15.226,8.821.081.047,14.156,8.2Z" transform="translate(102.394 58.688)" fill="#687dcc"/>
      </g>
      <g id="Group_6316" data-name="Group 6316" transform="translate(31.164 21.42)">
        <path id="Path_5865" data-name="Path 5865" d="M0-21.727,29.555-4.755l19.5-19.553-29.5-17.079h0c-.608-.393-1.571-.136-2.364.7L1.131-23.732A5.048,5.048,0,0,0,0-21.727" transform="translate(0 41.568)" fill="#687dcc"/>
      </g>
      <g id="Group_6317" data-name="Group 6317" transform="translate(82.599 0.001)">
        <path id="Path_5866" data-name="Path 5866" d="M-27.4-60.427a2.276,2.276,0,0,0-1.441-.279l-14.625,1.448A4.335,4.335,0,0,0-45.908-58.1L-7.467-35.9l9.822-5.669-.282-1.789S-26.919-60.123-27.4-60.427" transform="translate(45.908 60.721)" fill="#687dcc"/>
      </g>
      <g id="Group_6319" data-name="Group 6319" transform="translate(0.054 145.493)" opacity="0.3">
        <g id="Group_6318" data-name="Group 6318" transform="translate(0)">
          <path id="Path_5867" data-name="Path 5867" d="M-54.437,34.019-55.855,20.34-91.085,0a2.71,2.71,0,0,0,.03,1.732L-84.4,16.437a1,1,0,0,0,.425.477l.069.04c1.425.818,29.468,17.062,29.471,17.064" transform="translate(91.21)" fill="#fff"/>
        </g>
      </g>
      <g id="Group_6321" data-name="Group 6321" transform="translate(0 81.961)" opacity="0.3">
        <g id="Group_6320" data-name="Group 6320" transform="translate(0 0)">
          <path id="Path_5868" data-name="Path 5868" d="M-61.112-39.255-94.9-58.688a2.8,2.8,0,0,0-.5.9l-6.916,23.276a1.514,1.514,0,0,0,.527,1.695c.02.015.108.069.249.153l15.226,8.821.081.047,14.156,8.2Z" transform="translate(102.394 58.688)" fill="#fff"/>
        </g>
      </g>
      <g id="Group_6323" data-name="Group 6323" transform="translate(31.164 21.42)" opacity="0.4">
        <g id="Group_6322" data-name="Group 6322" transform="translate(0 0)">
          <path id="Path_5869" data-name="Path 5869" d="M0-21.727,29.555-4.755l19.5-19.553-29.5-17.079h0c-.608-.393-1.571-.136-2.364.7L1.131-23.732A5.048,5.048,0,0,0,0-21.727" transform="translate(0 41.568)" fill="#fff"/>
        </g>
      </g>
      <g id="Group_6325" data-name="Group 6325" transform="translate(82.599 0.001)" opacity="0.4">
        <g id="Group_6324" data-name="Group 6324" transform="translate(0)">
          <path id="Path_5870" data-name="Path 5870" d="M-27.4-60.427a2.276,2.276,0,0,0-1.441-.279l-14.625,1.448A4.335,4.335,0,0,0-45.908-58.1L-7.467-35.9l9.822-5.669-.282-1.789S-26.919-60.123-27.4-60.427" transform="translate(45.908 60.721)" fill="#fff"/>
        </g>
      </g>
      <g id="Group_6326" data-name="Group 6326" transform="translate(29.534 17.098)">
        <path id="Path_5871" data-name="Path 5871" d="M-86.691-1.342c-.274.072-.534.144-.81.2-.2.059-.391.087-.578.131-.435.087-.868.158-1.3.217-.511.074-1.01.113-1.508.146-.316.02-.625.03-.936.034-.148,0-.292,0-.438,0-6.005-.067-11-3.111-13.776-9.264a25.155,25.155,0,0,1-2.009-7.663,31.424,31.424,0,0,1-.232-4.252c.087-13.262,6.9-29.691,18.134-41.564a50.453,50.453,0,0,1,11.079-8.98,33.079,33.079,0,0,1,3.687-1.88,23.34,23.34,0,0,1,10.37-2.2.342.342,0,0,1,.116.013c.173,0,.348.015.519.029.19.015.363.03.538.059a3.608,3.608,0,0,1,.563.072c4.989.722,9.068,3.731,11.5,9.081,6.205,13.724-.912,37.674-15.893,53.479C-73.949-7.056-80.617-2.9-86.691-1.342m73.307-56.864a.342.342,0,0,0-.072-.042,2.171,2.171,0,0,0-.91-.232l-12.538-.709a2.031,2.031,0,0,1-2.112-2.039c.173-1.982.274-3.948.289-5.858A58.3,58.3,0,0,0-29-73.319a6.092,6.092,0,0,1,1.374-3.7l14-16.95a3.832,3.832,0,0,0,.855-3.484l-6.654-14.709a.985.985,0,0,0-.4-.462l-.086-.044a2.031,2.031,0,0,0-2.14.665L-37.015-98.352c-1.057.969-2.488,1.186-3.269.549a23.2,23.2,0,0,0-6.392-3.716,2.394,2.394,0,0,1-1.5-2.619l4.613-20.926a1.3,1.3,0,0,0-.637-1.475,2.451,2.451,0,0,0-1.388-.245l-14.621,1.46a4.022,4.022,0,0,0-3.2,2.227l-7.924,21.258a6.829,6.829,0,0,1-3.2,3.081,66,66,0,0,0-9.053,5.25c-1.23.823-2.6.882-3.14.072L-94.2-104.859c-.536-.81-1.735-.637-2.7.361l-16.053,16.963a4.231,4.231,0,0,0-1.243,3.514l4.468,15.142a5.159,5.159,0,0,1-.81,3.644,122.235,122.235,0,0,0-7.39,12.814,5.866,5.866,0,0,1-3.486,2.6l-13.739,3.311a4.564,4.564,0,0,0-3.109,2.574l-6.911,23.284a1.648,1.648,0,0,0,1.705,2.1l12.553.709A2.042,2.042,0,0,1-128.8-15.8a66.1,66.1,0,0,0-.029,12.09,5.91,5.91,0,0,1-1.361,3.7l-14,16.963a3.814,3.814,0,0,0-.853,3.486l6.652,14.692a.915.915,0,0,0,.4.464c0,.015,0,.015.015.015a.055.055,0,0,0,.044.013,1.054,1.054,0,0,0,.519.131h.015a2.585,2.585,0,0,0,1.635-.768l14.939-13.666c1.057-.954,2.488-1.186,3.267-.549a23.659,23.659,0,0,0,6.393,3.716,2.372,2.372,0,0,1,1.5,2.619l-4.613,20.939a1.286,1.286,0,0,0,.606,1.433c.015.013.029.013.044.029a2.266,2.266,0,0,0,1.374.247l14.62-1.448a4.082,4.082,0,0,0,3.2-2.226l7.937-21.26a6.931,6.931,0,0,1,3.2-3.094c1.534-.722,3.094-1.547,4.643-2.444,1.46-.852,2.935-1.792,4.41-2.79,1.216-.84,2.6-.9,3.123-.087l7.492,11.44a1,1,0,0,0,.361.333c.61.375,1.549.116,2.33-.709L-44.868,10.5a4.241,4.241,0,0,0,1.23-3.516L-48.107-8.139a5.151,5.151,0,0,1,.825-3.645,119.657,119.657,0,0,0,7.375-12.827,5.828,5.828,0,0,1,3.5-2.589l13.724-3.311A4.478,4.478,0,0,0-19.575-33.1l6.928-23.269a1.554,1.554,0,0,0-.737-1.838" transform="translate(145.251 126.794)" fill="#d5dbf1"/>
      </g>
      <g id="Group_6327" data-name="Group 6327" transform="translate(125.384 14.146) rotate(30.069)">
        <path id="Path_5872" data-name="Path 5872" d="M0,0H34.156" transform="translate(0 0)" fill="none"/>
      </g>
      <g id="Group_6328" data-name="Group 6328" transform="matrix(1, 0.029, -0.029, 1, 43.074, 514.755)">
        <rect id="Rectangle_521" data-name="Rectangle 521" width="12.76" height="21.84" transform="translate(0 0)" fill="#b16668"/>
      </g>
      <g id="Group_6329" data-name="Group 6329" transform="translate(39.494 528.451)">
        <path id="Path_5873" data-name="Path 5873" d="M-23.523-79.342l.052-1.824c1.206.566,3.731,11.465,8.66,16.226,3.917,3.785,9.283,8.179,10.563,12.31,1.33,4.3-7.831,6.383-11.571,5.611-4.344-.9-11.826-4.19-13.645-7.094s-2.587-7.134-4.07-9.269-4.977-4.566-5.742-7.008c-.422-1.341.207-4.235.921-6.674.657-2.238,1.367-4.7,2.132-4.465-.005.275-.039,1.389-.039,1.389.9,1.053,3.429,2.145,6.313,2.338,1.865.126,6.4-.114,6.427-1.539" transform="translate(39.413 81.547)" fill="#263238"/>
      </g>
      <g id="Group_6330" data-name="Group 6330" transform="matrix(0.998, 0.063, -0.063, 0.998, 78.872, 498.136)">
        <path id="Path_5874" data-name="Path 5874" d="M.791,23.123h12.76L13.4,0,0,.022Z" transform="translate(0 0)" fill="#b16668"/>
      </g>
      <g id="Group_6331" data-name="Group 6331" transform="translate(74.083 516.928)">
        <path id="Path_5875" data-name="Path 5875" d="M-25.327-61.872c.662.042,1.173.991,2.589,2.614a27.858,27.858,0,0,0,7.348,5.612C-10.684-51.117-1.5-47.175,2.643-45.16c2.592,1.257,2.377,4.425-.386,6.152s-9.353,2.839-17.17.855c-4.258-1.082-9.723-5.2-13.259-5.087s-10.143-.128-12.7-2-1.4-5.678-.571-8.954c.905-3.575,2.073-9.157,3.257-8.876l-.037,1.24c1.468,2.367,9.353,3.536,12.77,1.923Z" transform="translate(42.435 63.079)" fill="#263238"/>
      </g>
      <g id="Group_6332" data-name="Group 6332" transform="translate(37.415 335.871)">
        <path id="Path_5876" data-name="Path 5876" d="M-7.246-425.491c-.349,12.179-.223,83.077-.223,83.077-.4,3.5-3.949,9.631-4.573,22.246-.9,18.294,4.705,68.756,4.705,68.756a16.784,16.784,0,0,0,14.191.687s7.734-67.966,10.538-86.02c2.448-15.755,7.06-58.616,7.06-58.616l4.527,51.795a72.547,72.547,0,0,0-2.16,20.224c.356,8.4,1.231,60.358,1.231,60.358s5.888,4.245,14.694,1.549c0,0,11.112-73.723,11.48-81.409.418-8.762-.521-98.351-.521-98.351Z" transform="translate(12.14 441.196)" fill="#8193d5"/>
      </g>
      <g id="Group_6334" data-name="Group 6334" transform="translate(37.415 335.871)" opacity="0.3">
        <g id="Group_6333" data-name="Group 6333" transform="translate(0)">
          <path id="Path_5877" data-name="Path 5877" d="M-7.246-425.491c-.349,12.179-.223,83.077-.223,83.077-.4,3.5-3.949,9.631-4.573,22.246-.9,18.294,4.705,68.756,4.705,68.756a16.784,16.784,0,0,0,14.191.687s7.734-67.966,10.538-86.02c2.448-15.755,7.06-58.616,7.06-58.616l4.527,51.795a72.547,72.547,0,0,0-2.16,20.224c.356,8.4,1.231,60.358,1.231,60.358s5.888,4.245,14.694,1.549c0,0,11.112-73.723,11.48-81.409.418-8.762-.521-98.351-.521-98.351Z" transform="translate(12.14 441.196)"/>
        </g>
      </g>
      <g id="Group_6336" data-name="Group 6336" transform="translate(54.622 366.639)" opacity="0.35">
        <g id="Group_6335" data-name="Group 6335" transform="translate(51.502 13.405) rotate(119.666)">
          <path id="Path_5878" data-name="Path 5878" d="M17.339,27.084S10.012,19.432,0,16.189c0,0,7.275.01,17.339,6.2L56.508,0Z" transform="translate(0 0)"/>
        </g>
      </g>
      <g id="Group_6337" data-name="Group 6337" transform="matrix(-0.78, -0.625, 0.625, -0.78, 28.589, 264.021)">
        <path id="Path_5879" data-name="Path 5879" d="M10.3,24.879c1.431-.144,4.8-5.775,5.076-11.964S12.065.63,10.3.021,0,12.66,0,12.66Z" transform="translate(0 0)" fill="#37474f"/>
      </g>
      <g id="Group_6338" data-name="Group 6338" transform="translate(40.436 258.561)">
        <path id="Path_5880" data-name="Path 5880" d="M-15.068-229.1a11.735,11.735,0,0,0-6.148,6.4c-1,2.548-4.03,6.671-4.03,11.541l2.162,24.485-.947,43.815A59.074,59.074,0,0,0,38.2-147.7s-1.614-56.5-1.614-66.44c0-.448-.01-.9-.034-1.364a22.377,22.377,0,0,0-17.638-20.561c-3.449-.779-22.376,3.14-22.376,3.14Z" transform="translate(25.246 236.171)" fill="#fafafa"/>
      </g>
      <g id="Group_6339" data-name="Group 6339" transform="translate(7.844 146.439)">
        <path id="Path_5881" data-name="Path 5881" d="M-3.939-59.393C-1.04-50.743,24.1-8.183,30.289.071c16.111-7.791,4.248-26.6,4.248-26.6S14.069-65.687,11.831-70.7c-1.386-3.1-1.357-22.517-1.2-31.757a27.2,27.2,0,0,1,.858-7.393c.739-2.763,1.811-4.571,1.981-7.5.109-1.9-1.075-5.248-1.745-7.032-1.288-3.424-2.681-7.648-1.865-11.32a7.373,7.373,0,0,0,.309-1.779,4.984,4.984,0,0,0-1.673-3.061,56.391,56.391,0,0,0-4.319-4.159,10.908,10.908,0,0,0-2.97-2,4.239,4.239,0,0,0-3.486.005,5.335,5.335,0,0,0-2.135,2.5,20.539,20.539,0,0,0-1.87,9.577,45.309,45.309,0,0,0,.664,6.388c.321,1.972-.141,15.268-.192,20.049-.133,12.965-1.241,26.755-.578,35.7A47.544,47.544,0,0,0-3.939-59.393" transform="translate(6.6 147.067)" fill="#b16668"/>
      </g>
      <g id="Group_6340" data-name="Group 6340" transform="translate(20.562 238.163)">
        <path id="Path_5882" data-name="Path 5882" d="M-48.709-57.509-66.067-84.254s.054,16.333-15.545,19.4l20.818,36.7c2.137,4.618,9.051,1.233,11.683-8.372,3.674-13.4.4-20.978.4-20.978" transform="translate(81.613 84.254)" fill="#687dcc"/>
      </g>
      <g id="Group_6341" data-name="Group 6341" transform="translate(100.909 199.601) rotate(90)">
        <path id="Path_5883" data-name="Path 5883" d="M17.534,35.068A17.534,17.534,0,1,0,0,17.534,17.534,17.534,0,0,0,17.534,35.068" transform="translate(0 0)" fill="#263238"/>
      </g>
      <g id="Group_6342" data-name="Group 6342" transform="translate(63.65 246.695) rotate(157.845)">
        <path id="Path_5884" data-name="Path 5884" d="M3.358,19.824S5.76,6.39,5.532,3.927A6.041,6.041,0,0,0,3.358,0L0,8.772Z" transform="translate(0 0)" fill="#263238"/>
      </g>
      <g id="Group_6343" data-name="Group 6343" transform="translate(58.346 230.587) rotate(-169.436)">
        <path id="Path_5885" data-name="Path 5885" d="M5.374,19.453a6.578,6.578,0,0,0,5-2.881c1.86-2.778-.8-9.9-5-16.572L0,.376Z" transform="translate(0 0)" fill="#263238"/>
      </g>
      <g id="Group_6344" data-name="Group 6344" transform="translate(47.676 202.244)">
        <path id="Path_5886" data-name="Path 5886" d="M-18.276-68.613c-1.073.642-2.6-1.421-3.927-2.805S-27.847-74.7-30-70.153c-2.2,4.628,1.9,10.743,5.3,11.809,5.861,1.841,6.741-1.918,6.741-1.918l.432,23.709c7.289,9.345,27.514,8.633,19.088-1.127l-.017-8.433s5.31.806,7.9.4c4.31-.665,7.023-4.067,8.33-8.734,2.1-7.494,2.9-13.546,1.115-28.287C16.942-98.885-1.85-99.053-12-92.665s-6.278,24.052-6.278,24.052" transform="translate(30.621 96.59)" fill="#b16668"/>
      </g>
      <g id="Group_6345" data-name="Group 6345" transform="translate(55.39 196.021)">
        <path id="Path_5887" data-name="Path 5887" d="M-6.856,38.068c-.539.01-2.592-3.395-3.927-4.611-1.851-1.685.536-16.936.536-16.936s-1.779-3.791,1.786-7.714C-5.925,6.015-3.167,4.252,4.147,3.861c4.282-.228,11.129.443,14.976.7,7.22.489,9.886-1.29,14.03-2.454,3.173-.89,3.534,10.568-4.482,14.363,0,0-2.607,1.682-9.474,2.518S1.634,18.832.173,18.632c-1.991-.272-2.416,1.656-3.491,6.929-.942,4.628-1.724,12.471-3.538,12.506" transform="translate(11.487 -2.061)" fill="#263238"/>
      </g>
      <g id="Group_6346" data-name="Group 6346" transform="translate(50.152 206.133)">
        <path id="Path_5888" data-name="Path 5888" d="M-9.607,6.864-16.1,3.38a3.578,3.578,0,0,1,4.912-1.624A3.871,3.871,0,0,1-9.607,6.864" transform="translate(16.096 -1.332)" fill="#263238"/>
      </g>
      <g id="Group_6347" data-name="Group 6347" transform="translate(62.205 244.392)">
        <path id="Path_5889" data-name="Path 5889" d="M-26.112,1.979S-35.736.04-39.1-1.749a11.071,11.071,0,0,1-4.651-4.6A15.147,15.147,0,0,0-41.108-.922c2.461,3.146,15,5.461,15,5.461Z" transform="translate(43.75 6.35)" fill="#9a4a4d"/>
      </g>
      <g id="Group_6348" data-name="Group 6348" transform="translate(75.511 229.808) rotate(-89.85)">
        <path id="Path_5890" data-name="Path 5890" d="M2,3.855A1.959,1.959,0,0,1,0,1.934,1.971,1.971,0,0,1,2,0a1.96,1.96,0,0,1,2,1.923A1.973,1.973,0,0,1,2,3.855" transform="translate(0 0)" fill="#263238"/>
      </g>
      <g id="Group_6349" data-name="Group 6349" transform="translate(72.927 219.243)">
        <path id="Path_5891" data-name="Path 5891" d="M-6.517-3.5l-4.127,2.276a2.475,2.475,0,0,1,.963-3.284A2.3,2.3,0,0,1-6.517-3.5" transform="translate(10.919 4.791)" fill="#263238"/>
      </g>
      <g id="Group_6350" data-name="Group 6350" transform="translate(78.833 241.136)">
        <path id="Path_5892" data-name="Path 5892" d="M-.2-8.846,4.2-7.195a2.311,2.311,0,0,1-2.99,1.46A2.461,2.461,0,0,1-.2-8.846" transform="translate(0.343 8.846)" fill="#9a4a4d"/>
      </g>
      <g id="Group_6351" data-name="Group 6351" transform="translate(92.249 218.262)">
        <path id="Path_5893" data-name="Path 5893" d="M-5.568,4.675l-3.761-2.9a2.277,2.277,0,0,1,3.269-.5,2.494,2.494,0,0,1,.492,3.4" transform="translate(9.329 -0.797)" fill="#263238"/>
      </g>
      <g id="Group_6352" data-name="Group 6352" transform="matrix(0.003, -1, 1, 0.003, 90.988, 229.257)">
        <path id="Path_5894" data-name="Path 5894" d="M2,3.859A1.958,1.958,0,0,1,0,1.935,1.975,1.975,0,0,1,2,0,1.958,1.958,0,0,1,4,1.923,1.975,1.975,0,0,1,2,3.859" transform="translate(0 0)" fill="#263238"/>
      </g>
      <g id="Group_6353" data-name="Group 6353" transform="translate(85.026 225.437)">
        <path id="Path_5895" data-name="Path 5895" d="M0-28.767l.633,11.6,6.054-2.065Z" transform="translate(0 28.767)" fill="#9a4a4d"/>
      </g>
      <g id="Group_6354" data-name="Group 6354" transform="translate(2.28 154.885)">
        <path id="Path_5896" data-name="Path 5896" d="M-9.729,22.73c-1.4-4.608-3.447-7.175-5.244-11.062-2.787-6.027-.413-10.1.176-8.8,1.26,2.785,5.633,8.922,6.928,8.915s1.626,6.745,1.626,6.745Z" transform="translate(16.301 -2.629)" fill="#b16668"/>
      </g>
    </g>
    <g id="Character-1" transform="translate(223.458 218.624)">
      <g id="Group_6355" data-name="Group 6355" transform="translate(62.676 134.977)">
        <path id="Path_5897" data-name="Path 5897" d="M0,125.98c.422-12.407,6.173-18.747,12.033-26.432,10.743-14.092,21.3-28.314,21.3-28.314s28.347-58.941,30.8-64.368c2.911-6.446,16.241.751,13.7,5.014,0,0-2.859,5.957-5.1,11.611C64.472,44.319,56.911,64.615,48.3,84.948L14.173,128.123Z" transform="translate(0 -4.295)" fill="#ffa8a7"/>
      </g>
      <g id="Group_6356" data-name="Group 6356" transform="translate(212.116 36.215)">
        <path id="Path_5898" data-name="Path 5898" d="M-46.645-4.105a2.023,2.023,0,0,0-1.384.131L-63.5,3a1.832,1.832,0,0,1-2.574-1.186c-.608-1.952-11.208-4.2-12.076-5.876L-72.2-18.838Z" transform="translate(78.154 18.838)" fill="#2e4088"/>
      </g>
      <g id="Group_6357" data-name="Group 6357" transform="translate(82.751)">
        <path id="Path_5899" data-name="Path 5899" d="M-100.634-38.361c-7.46,4.307-13.622,5.228-18.1,3.145-5.26-2.448,37.408-75.6,41.887-71.6,3.618,3.229,5.582,9.219,5.582,17.591,0,18.73-13.148,41.5-29.367,50.867m67.348-84.434,0-.035a1.456,1.456,0,0,0-1.346-.005l-11.423-26.434a2.34,2.34,0,0,0-.914-3.027l-11.193-6.462a2.341,2.341,0,0,0-3.079.721l-12.852,19.33a4.282,4.282,0,0,1-3.366,1.671,32.426,32.426,0,0,0-4.489.21v-14.134l-8.589-4.952v0a1.431,1.431,0,0,0-1.4.126l-17.383,10.037A4.685,4.685,0,0,0-111.4-142.5l-1.74,19.343a6.471,6.471,0,0,1-1.807,3.612,104.8,104.8,0,0,0-9.657,10.222,3.329,3.329,0,0,1-3.415.968l-11.159-3.9a2.723,2.723,0,0,0-3.133,1.164l-12.779,22.135a2.722,2.722,0,0,0,.558,3.294l8.955,7.716a3.331,3.331,0,0,1,.868,3.444,104.655,104.655,0,0,0-4.023,13.474,6.453,6.453,0,0,1-2.226,3.37l-15.88,11.179a4.69,4.69,0,0,0-1.774,3.418v20.072A1.415,1.415,0,0,0-168-21.7l0,0,20.126,11.618-7.341,14.8a2.343,2.343,0,0,0,.916,3.029L-126.936,23.6a2.341,2.341,0,0,0,3.079-.722l12.434-12.715a1.458,1.458,0,0,0,.665,1.188l25.49,14.71.68-19.955S-89.977-.848-89.87-2.041l27.781-30.254a2.712,2.712,0,0,0,3.131-1.157l12.78-22.135a2.722,2.722,0,0,0-.559-3.3L-34.43-98.064a4.687,4.687,0,0,0,1.774-3.418Z" transform="translate(168.613 159.06)" fill="#687dcc"/>
      </g>
      <g id="Group_6358" data-name="Group 6358" transform="translate(176.338 0.004)">
        <path id="Path_5900" data-name="Path 5900" d="M-68.079-28.773l-3.457,6.985L-82.642-8.975-95.73-16.539l-18.337-10.6a3.044,3.044,0,0,0,.924-.9l12.857-19.322a2.344,2.344,0,0,1,3.051-.736l11.223,6.477L-68.99-31.8a2.341,2.341,0,0,1,.91,3.022" transform="translate(114.067 48.378)" fill="#d5dbf1"/>
      </g>
      <g id="Group_6359" data-name="Group 6359" transform="translate(83.433 100.163)">
        <path id="Path_5901" data-name="Path 5901" d="M-26.868-72.271a5.43,5.43,0,0,1-1.178,1.24l-15.88,11.179a4.087,4.087,0,0,0-1.092,1.268l26.7,15.45L2.77-55.128Z" transform="translate(45.017 72.271)" fill="#d5dbf1"/>
      </g>
      <g id="Group_6360" data-name="Group 6360" transform="translate(95.95 46.693)">
        <path id="Path_5902" data-name="Path 5902" d="M-22.485-102.467a2.714,2.714,0,0,0-2.086,1.275l-12.78,22.137a2.615,2.615,0,0,0-.287,1.705L-9.656-61.156,7.838-84.822Z" transform="translate(37.674 102.467)" fill="#d5dbf1"/>
      </g>
      <g id="Group_6361" data-name="Group 6361" transform="translate(140.24 3.021)">
        <path id="Path_5903" data-name="Path 5903" d="M-68.3-23.068v6.363L-83.769-7.768l-30.66-17.716a4.637,4.637,0,0,1,1.794-2.169L-95.252-37.69a1.8,1.8,0,0,1,.867-.26,1.082,1.082,0,0,1,.536.131L-85.477-33l.217.131L-73.7-26.193Z" transform="translate(114.429 37.95)" fill="#d5dbf1"/>
      </g>
      <g id="Group_6362" data-name="Group 6362" transform="translate(108.305 14.751)">
        <path id="Path_5904" data-name="Path 5904" d="M-100.634-10.452C-116.853-1.087-130-8.68-130-27.407s13.15-41.5,29.369-50.869,29.369-1.772,29.369,16.956-13.15,41.5-29.369,50.867m67.978-63.122V-93.648a1.3,1.3,0,0,0-1.977-1.278L-50.106-87.95a1.839,1.839,0,0,1-2.579-1.194,34.631,34.631,0,0,0-3.449-7.672,4.273,4.273,0,0,1-.235-3.749l10.313-20.795a2.343,2.343,0,0,0-.914-3.029l-11.193-6.461a2.341,2.341,0,0,0-3.079.721L-74.1-110.8a4.279,4.279,0,0,1-3.365,1.671,34.631,34.631,0,0,0-8.369.848,1.835,1.835,0,0,1-2.32-1.634l-1.7-16.887a1.3,1.3,0,0,0-2.1-1.073l-17.383,10.035a4.683,4.683,0,0,0-2.073,3.245l-1.742,19.343a6.472,6.472,0,0,1-1.807,3.612,104.6,104.6,0,0,0-9.657,10.222,3.329,3.329,0,0,1-3.415.968l-11.159-3.9a2.722,2.722,0,0,0-3.133,1.164l-12.78,22.135a2.722,2.722,0,0,0,.559,3.3l8.954,7.716a3.328,3.328,0,0,1,.868,3.442,104.644,104.644,0,0,0-4.022,13.474,6.471,6.471,0,0,1-2.224,3.371l-15.881,11.178a4.69,4.69,0,0,0-1.774,3.418V4.92A1.3,1.3,0,0,0-166.635,6.2l15.473-6.975A1.838,1.838,0,0,1-148.584.416a34.646,34.646,0,0,0,3.449,7.674,4.278,4.278,0,0,1,.233,3.749l-10.313,20.795a2.342,2.342,0,0,0,.916,3.029l11.191,6.461a2.344,2.344,0,0,0,3.081-.722l12.852-19.328a4.282,4.282,0,0,1,3.366-1.671,34.636,34.636,0,0,0,8.369-.85,1.836,1.836,0,0,1,2.32,1.634l1.7,16.889a1.3,1.3,0,0,0,2.1,1.073l17.383-10.037a4.682,4.682,0,0,0,2.075-3.244l1.74-19.345a6.461,6.461,0,0,1,1.808-3.61,104.561,104.561,0,0,0,9.656-10.22,3.329,3.329,0,0,1,3.415-.969l11.159,3.9a2.722,2.722,0,0,0,3.135-1.162l12.779-22.135a2.721,2.721,0,0,0-.558-3.294l-8.955-7.717a3.328,3.328,0,0,1-.868-3.442,104.654,104.654,0,0,0,4.023-13.474,6.459,6.459,0,0,1,2.226-3.37l15.88-11.179a4.687,4.687,0,0,0,1.774-3.418" transform="translate(168.613 131.151)" fill="#949dc2"/>
      </g>
      <g id="Group_6363" data-name="Group 6363" transform="translate(101.225 496.145)">
        <path id="Path_5905" data-name="Path 5905" d="M-25.952-57.861l-1.171-16.693-14.045-.984.647,14.279c-.324,3.375-2.558,4.693-2.951,6.614s11.507,19.967,17.556,23.6,14.615-2.683,15.3-4.8c.921-3.366-8.947-3.422-9.273-3.561a4.584,4.584,0,0,1-.648-.359c-2.259-5.243-5.416-18.1-5.416-18.1" transform="translate(43.482 75.538)" fill="#ffa8a7"/>
      </g>
      <g id="Group_6364" data-name="Group 6364" transform="translate(97.213 513.308)">
        <path id="Path_5906" data-name="Path 5906" d="M-8.945-78.771c1.975,1.33,3.746,5,6.765,9.968S4.541-56.867,9.567-55.665c4.621,1.105,10.539-2.374,7.072-3.178-1.211-.281-3.775-.578-4.111-.761a2.1,2.1,0,0,1-.553-.543s2.565.445,6.575.721a6.517,6.517,0,0,1,5.906,3.761c.754,1.524-.277,5.787-10.114,7.45-7.106,1.2-12.07,1.146-15.246-3.63-3.857-5.794-10.244-11.71-12.9-14.917-3.21-3.879.655-10.46,4.855-12.009" transform="translate(14.987 78.771)" fill="#263238"/>
      </g>
      <g id="Group_6365" data-name="Group 6365" transform="translate(7.813 476.169)">
        <path id="Path_5907" data-name="Path 5907" d="M-26.993-48.848l8.08-17.984L-31.067-73.15l-6.852,14.166c-2.142,2.873-5.261,1.93-6.667,3.452s-.531,24.341,2.945,30.938c2.016,3.825,6.632,5.088,10.5,5.176,2.8.062,1.759-4.24-.292-6.745a2.736,2.736,0,0,1-.714-1.718c.02-4.589,5.155-20.966,5.155-20.966" transform="translate(45.227 73.15)" fill="#ffa8a7"/>
      </g>
      <g id="Group_6366" data-name="Group 6366" transform="translate(0 491.318)">
        <path id="Path_5908" data-name="Path 5908" d="M-18.24-111.174c1.055,2.283,2.414,7.746,3.61,13.768,1.315,6.627,2.936,15.5,4.079,17.642,1.078,2.014.916-.2.882-1.5-.02.744,1.514,2.32,1.925,2.862C-6.3-76.5-4.6-74.918-3.4-72.83c.7,1.22,1.881,3.4,1.174,4.613-.6,1.026-2.493,1.443-3.677,1.537-1.288.1-6.385,1.1-14.326-3.763a14.64,14.64,0,0,1-3.03-3.064c-3.02-4.41-2.441-8.455-2.946-13.405-.682-6.684-2.873-8.391-4.023-12.943a16.194,16.194,0,0,1-.171-5.512c1.245-4.625,7.521-6.706,12.164-5.807" transform="translate(30.562 111.379)" fill="#263238"/>
      </g>
      <g id="Group_6367" data-name="Group 6367" transform="translate(0 496.691)">
        <path id="Path_5909" data-name="Path 5909" d="M-6.444-30.107c.506,4.95-.074,8.994,2.945,13.405A14.68,14.68,0,0,0-.467-13.639C7.472-8.771,12.57-9.772,13.857-9.875a9.149,9.149,0,0,0,1.524-.277c-9.273-.323-11.9-8.712-13.027-13.812S-.964-43.6-3.525-47.149s-7.116-1.413-7.116-1.413a16.193,16.193,0,0,0,.173,5.512c1.151,4.551,3.34,6.259,4.023,12.943" transform="translate(10.797 49.2)" fill="#37474f"/>
      </g>
      <g id="Group_6368" data-name="Group 6368" transform="translate(17.751 309.441)">
        <path id="Path_5910" data-name="Path 5910" d="M-131.73-395.856s-28.628,73.836-30.934,81.714a64.01,64.01,0,0,1-8.927,19.041c-3.051,4.628-37.506,65.747-37.506,65.747-9.4-2.831-11.616-8.9-11.616-8.9S-209.747-287.42-205.9-295c4.668-9.2,13.82-15.858,13.82-15.858l9.409-59.624c1.01-9.861-4.285-28.411,11.643-42.508l-.249,4.2Z" transform="translate(220.713 412.992)" fill="#949dc2"/>
      </g>
      <g id="Group_6369" data-name="Group 6369" transform="translate(80.459 314.309)">
        <path id="Path_5911" data-name="Path 5911" d="M-18.254-456.416c-5.9,10.4-11.541,19.589-12.221,30.949-1.44,23.99,11.737,49.4,14.64,66.915,0,0-4.512,11.964-3.988,21.267C-19.415-330-7.73-273.5-7.73-273.5s8.325,4,15.09-.124c0,0,4.243-82.289,3.778-113.92S6.46-463.621,6.46-463.621Z" transform="translate(30.584 463.621)" fill="#949dc2"/>
      </g>
      <g id="Group_6370" data-name="Group 6370" transform="translate(59.18 309.441)">
        <path id="Path_5912" data-name="Path 5912" d="M-84.791-110.719l-49.021-4.868c-2.873,5.963-10.368,20.6-7.684,29.649,3.254,10.968,10.067,18.215,29.026,21.819" transform="translate(142.066 115.588)" fill="#949dc2"/>
      </g>
      <g id="Group_6371" data-name="Group 6371" transform="translate(60.266 346.589)">
        <path id="Path_5913" data-name="Path 5913" d="M-36.417,22.211-43.205-5.166s-12.044-3.25-17.811-9.58c0,0,3.193,7.811,13.106,13.311.907.926,9.251,29.59,9.251,29.59Z" transform="translate(61.017 14.746)" fill="#37474f"/>
      </g>
      <g id="Group_6372" data-name="Group 6372" transform="matrix(-0.113, 0.994, -0.994, -0.113, 106.451, 236.958)">
        <path id="Path_5914" data-name="Path 5914" d="M1.838,0H19.72l3.986,17.168L0,17.322Z" transform="translate(0 0)" fill="#ffa8a7"/>
      </g>
      <g id="Group_6373" data-name="Group 6373" transform="translate(62.676 156.019)">
        <path id="Path_5915" data-name="Path 5915" d="M-.659-47.786c.306,1.524,1.063,4.878,2.469,9.94,2.577,9.3,7,21.957,8.663,26.385.094.188.141.351.212.492L3.773.277s4.64,5.74,18.416,9.746C35.989,14.03,52.716,5.9,52.716,5.9l5.693-32.614c1.9-4.856,5.365-11.4,9.162-13.682,1.9-1.137,27.143-19.266,33.516-23.155,5.177-3.14,7.217-5.4,8.083-7.858.89-2.461,9.859-39.6,11.312-43.626s2.789-5.271,6-8.693c3.187-3.42,4.31-4.193,5.295-7.262.983-3.163-.257-3.82-.749-5.342-.68-2.11.092-3.585-.376-5.177-.586-1.992-1.8-2.508-2.108-3.4-.469-1.406.094-2.179-.82-4.732a6.774,6.774,0,0,0-3.088-3.689l-.527,5.866c-1.757,7.191-9.271,9.772-10.279,9.256s-2.483-4.616-4.685-6.42c-2.133-1.757-5.248-1.569-4.124.61.633,1.265,2.085,5.975,2.836,8.06s2.975,6.466,2.483,9.817c-.633,4.475-16.412,44.954-16.412,44.954S85.413-75.7,65.744-66.192c-11.252,5.438-17.722,7.242-17.722,7.242-1.241-.21-6.293-.282-8.66-.7-.655-.141-1.359-.259-2.085-.376C28.023-61.741,14.035-64.318,10.24-65c-.353-.071-.68-.118-.984-.188a10.21,10.21,0,0,0-2.671.094A9.242,9.242,0,0,0,.868-60.217,18.365,18.365,0,0,0-.659-47.786" transform="translate(1.104 153.329)" fill="#ffa8a7"/>
      </g>
      <g id="Group_6374" data-name="Group 6374" transform="translate(57.461 244.76)">
        <path id="Path_5916" data-name="Path 5916" d="M-80.446-217.788c-1.241-.21-6.293-.282-8.66-.7-.655-.118-1.359-.235-2.085-.376-8.083-1.428-17.469-3.128-24.778-4.557-.353-.071-14.217,6.6-13.088,23.056.655,9.516,7.247,24.306,8.826,28.509a83.239,83.239,0,0,0-14.558,26.568s4.972,12.676,29.785,15.139c25.29,2.513,32.3-9.142,32.3-9.142l-1.241-23.313c1.1-5.9,3.43-15.974,3.889-22.943-13.884-5.6-10.388-32.236-10.388-32.236" transform="translate(134.788 223.427)" fill="#687dcc"/>
      </g>
      <g id="Group_6376" data-name="Group 6376" transform="translate(70.112 291.552)" opacity="0.15">
        <g id="Group_6375" data-name="Group 6375" transform="translate(0 0)">
          <path id="Path_5917" data-name="Path 5917" d="M0-26.1s5.139,7.692,17.134,10.523C10.714-15.9,5.166-17,1.907-21.328Z" transform="translate(0 26.1)"/>
        </g>
      </g>
      <g id="Group_6377" data-name="Group 6377" transform="translate(76.277 194.528)">
        <path id="Path_5918" data-name="Path 5918" d="M-42.5-109.617c4.258,1.851,12.169.519,14.939,20.276,2.18,15.559-.628,20.885-2.614,23.068-1.341,1.472-10,2.829-13.933,1.89-4.924-1.174-15.718-5.639-21.154-13.345-6.4-9.064-8.428-21.581-2.107-26.963,8.9-7.578,21.263-6.493,24.868-4.925" transform="translate(71.207 110.746)" fill="#ffa8a7"/>
      </g>
      <g id="Group_6378" data-name="Group 6378" transform="translate(119.634 215.175)">
        <path id="Path_5919" data-name="Path 5919" d="M0-20.95s4.662,6.118,4.156,6.832S1-12.5,1-12.5Z" transform="translate(0 20.95)" fill="#f28f8f"/>
      </g>
      <g id="Group_6379" data-name="Group 6379" transform="translate(65.052 184.217)">
        <path id="Path_5920" data-name="Path 5920" d="M-74.63-177.571c-6.031-5.359-18.478-7.593-29.33-.655-2,.521-4.065,1.176-6.165,1.949a17.819,17.819,0,0,0-5.779,3.595,3.636,3.636,0,0,0-.2-2.217,3.826,3.826,0,0,0-5.006-2.016l1.949,4.6a3.483,3.483,0,0,0-1.176-.571,3.806,3.806,0,0,0-4.7,2.637l5.695,1.6a28.413,28.413,0,0,0-4.519,14.85c-.118,1.176-.168,2.352-.168,3.544l-.017-.017v25.584a18.247,18.247,0,0,0,14.48,17.857l25.718,5.459-.571-35.932a11.09,11.09,0,0,1-3.914-.336,7.409,7.409,0,0,1-3.679-2.184c-3.36-3.7-2.251-10.163,1.058-11.053a4.957,4.957,0,0,1,5.292,1.478l1.092,1.713.773,3.595.286,1.361a3.788,3.788,0,0,0,2.923-4.519,3.48,3.48,0,0,0-.336-.941l.437-.622c13.926-6.988,12.095-23.215,5.863-28.759" transform="translate(125.042 182.572)" fill="#37474f"/>
      </g>
    </g>
  </g>
</svg>
