<svg xmlns="http://www.w3.org/2000/svg" width="630.96" height="777.648" viewBox="0 0 630.96 777.648">
  <g id="cooperative-illustration-aboutus" transform="translate(-64.778 0)">
    <g id="Window" transform="translate(64.763 0)">
      <g id="Group_5748" data-name="Group 5748" transform="translate(0.024)">
        <path id="Path_5391" data-name="Path 5391" d="M-4.911,659.659a8.938,8.938,0,0,1-3.908-7.067l0-384.92a9.206,9.206,0,0,1,4.167-7.215L448.186-.974a8.935,8.935,0,0,1,8.075-.148,8.933,8.933,0,0,1,3.908,7.067l0,384.919A9.2,9.2,0,0,1,456,398.08L3.163,659.509a8.925,8.925,0,0,1-8.073.15" transform="translate(8.821 2.015)" fill="#d5dbf1"/>
      </g>
      <g id="Group_5749" data-name="Group 5749" transform="translate(0.016 319.034)">
        <path id="Path_5392" data-name="Path 5392" d="M-14.064,341.031a.618.618,0,0,1-.174.057,1.723,1.723,0,0,1-.4.155,1.628,1.628,0,0,1-.308.1,2.63,2.63,0,0,1-.578.135,1.279,1.279,0,0,1-.384.076,5.968,5.968,0,0,1-.635.1,8.04,8.04,0,0,1-4.791-.827,8.887,8.887,0,0,1-3.906-7.061L-25.263-1.821-17.431,2.7V338.261c0,1.886.944,2.983,2.309,2.983a1.874,1.874,0,0,0,.558-.078.162.162,0,0,0,.1-.02,1.586,1.586,0,0,0,.4-.115" transform="translate(25.263 1.821)" fill="#8193d5"/>
      </g>
      <g id="Group_5751" data-name="Group 5751" transform="translate(0.016 391.817)" opacity="0.81">
        <g id="Group_5750" data-name="Group 5750" transform="translate(0)">
          <path id="Path_5393" data-name="Path 5393" d="M-14.064,268.391a.741.741,0,0,1-.174.045,2.024,2.024,0,0,1-.4.122,1.969,1.969,0,0,1-.308.076,3.24,3.24,0,0,1-.578.106,1.586,1.586,0,0,1-.384.06c-.192.031-.423.061-.635.076a9.94,9.94,0,0,1-4.791-.652,6.824,6.824,0,0,1-3.906-5.565L-25.263-1.821l7.831,3.565V266.207a2.173,2.173,0,0,0,2.309,2.351,2.348,2.348,0,0,0,.558-.061.2.2,0,0,0,.1-.016,1.928,1.928,0,0,0,.4-.09" transform="translate(25.263 1.821)" fill="#e1e1e1"/>
        </g>
      </g>
      <g id="Group_5755" data-name="Group 5755" transform="translate(0.016 265.576)">
        <path id="Path_5396" data-name="Path 5396" d="M-11.357-116.07a8.469,8.469,0,0,0-1.212,4.1v49.359L-20.4-67.135v-49.34a4.552,4.552,0,0,1,.018-.5,9.66,9.66,0,0,1,.174-1.038,10.149,10.149,0,0,1,1.04-2.578Z" transform="translate(20.4 120.592)" fill="#8193d5"/>
      </g>
      <g id="Group_5756" data-name="Group 5756" transform="translate(7.848 4.981)">
        <path id="Path_5397" data-name="Path 5397" d="M-579.148-646.147v22.264L-911.086-432.244c-2.29,1.326-4.156.249-4.156-2.407v-8.428c0-2.656-1.867-3.733-4.176-2.4L-1020.5-387.119a9.2,9.2,0,0,0-4.174,7.216v8.428a9.229,9.229,0,0,1-4.158,7.216l-11.468,6.62V-379.9a9.228,9.228,0,0,1,4.156-7.216L-583.3-648.552c2.288-1.328,4.156-.249,4.156,2.4" transform="translate(1040.305 649.12)" fill="#949dc2"/>
      </g>
      <g id="Group_5757" data-name="Group 5757" transform="translate(7.848 30.219)">
        <path id="Path_5398" data-name="Path 5398" d="M-579.173-246.377a9.2,9.2,0,0,1-4.176,7.216L-1036.2,22.272c-2.288,1.328-4.156.249-4.156-2.4V-342.785l11.468-6.62c2.29-1.328,6.025-21.533,8.334-22.863l99.4-57.39c2.309-1.326,7.734,13.592,10.022,12.264L-579.194-609.03v27.094Z" transform="translate(1040.351 609.03)" fill="#687dcc"/>
      </g>
      <g id="Group_5759" data-name="Group 5759" transform="translate(7.848 30.219)" opacity="0.9">
        <g id="Group_5758" data-name="Group 5758">
          <path id="Path_5399" data-name="Path 5399" d="M-579.173-246.377a9.2,9.2,0,0,1-4.176,7.216L-1036.2,22.272c-2.288,1.328-4.156.249-4.156-2.4V-342.785l11.468-6.62c2.29-1.328,6.025-21.533,8.334-22.863l99.4-57.39c2.309-1.326,7.734,13.592,10.022,12.264L-579.194-609.03v27.094Z" transform="translate(1040.351 609.03)" fill="#fff"/>
        </g>
      </g>
      <g id="Group_5761" data-name="Group 5761" transform="translate(7.848 30.218)" opacity="0.4">
        <g id="Group_5760" data-name="Group 5760">
          <path id="Path_5400" data-name="Path 5400" d="M-579.148-1425.409l-331.938,191.636a.6.6,0,0,1-.31.085c-2.329,0-7.056-12.432-9.4-12.432a.614.614,0,0,0-.312.085l-99.4,57.39c-2.309,1.328-6.042,21.533-8.332,22.861l-11.468,6.62v362.652c0,1.884.939,2.974,2.3,2.974a3.748,3.748,0,0,0,1.852-.569L-583.3-1055.541a9.2,9.2,0,0,0,4.176-7.216l-.02-335.558Zm-1.847,3.2v23.9l.02,335.558a7.393,7.393,0,0,1-3.252,5.617l-452.847,261.434a1.947,1.947,0,0,1-.927.319c-.434,0-.457-.938-.457-1.127V-1158.1l10.549-6.088c1.636-.949,2.671-4.178,5-12.49,1.047-3.736,2.619-9.348,3.465-10.449l98.571-56.913a40.268,40.268,0,0,1,3.186,5.063c2.663,4.688,4.154,7.135,6.291,7.135a2.466,2.466,0,0,0,1.234-.333l329.167-190.037" transform="translate(1040.305 1425.409)" fill="#687dcc"/>
        </g>
      </g>
      <g id="Group_5762" data-name="Group 5762" transform="translate(469.003 57.311) rotate(90)">
        <path id="Path_5401" data-name="Path 5401" d="M263.2,453.3h71.885L74.6,0H0Z" transform="translate(3 7.846)" fill="#4a63c2"/>
      </g>
      <g id="Group_5763" data-name="Group 5763" transform="translate(7.848 30.219)">
        <path id="Path_5402" data-name="Path 5402" d="M-579.148-661.729v27.094L-1040.3-368.391v-27.094l8.565-4.961c2.291-1.328,3.061-3.347,4.156-7.216l2.905-10.087c.916-3.5,1.866-5.888,4.174-7.216l99.4-57.39c2.309-1.328,4.111-1.474,5.868,1.43l3.563,6.466c1.307,2.259,1.961,3.587,4.252,2.259Z" transform="translate(1040.305 661.729)" fill="#f0f0f0"/>
      </g>
      <g id="Group_5764" data-name="Group 5764" transform="translate(444.229 21.201)">
        <path id="Path_5403" data-name="Path 5403" d="M5.244.716C8.138-.956,10.486.4,10.486,3.743a11.59,11.59,0,0,1-5.242,9.08C2.348,14.495,0,13.139,0,9.8A11.587,11.587,0,0,1,5.244.716" transform="translate(0 0)" fill="#eb6608"/>
      </g>
      <g id="Group_5765" data-name="Group 5765" transform="translate(425.354 32.083)">
        <path id="Path_5404" data-name="Path 5404" d="M5.242.716C8.138-.956,10.486.4,10.486,3.743a11.587,11.587,0,0,1-5.244,9.08C2.348,14.495,0,13.141,0,9.8A11.59,11.59,0,0,1,5.242.716" transform="translate(0 0)" fill="#eb6608"/>
      </g>
      <g id="Group_5766" data-name="Group 5766" transform="translate(406.481 42.965)">
        <path id="Path_5405" data-name="Path 5405" d="M5.242.716C8.136-.956,10.486.4,10.486,3.743a11.592,11.592,0,0,1-5.244,9.08C2.348,14.495,0,13.141,0,9.8A11.59,11.59,0,0,1,5.242.716" transform="translate(0 0)" fill="#eb6608"/>
      </g>
      <g id="Group_5768" data-name="Group 5768" transform="translate(18.492 296.118)" opacity="0.5">
        <g id="Group_5767" data-name="Group 5767" transform="translate(0 0)">
          <path id="Path_5406" data-name="Path 5406" d="M-10.633-17.747l-6.54,3.775,2.494-4.795a1.2,1.2,0,0,0,.05-1.173c-.192-.229-.525-.066-.743.351l-3.548,6.827c-.006.007-.006.017-.011.026a1.788,1.788,0,0,0-.094.253c-.009.028-.022.054-.03.083a1.522,1.522,0,0,0-.044.351.967.967,0,0,0,.044.3c.007.018.02.03.03.048a.464.464,0,0,0,.094.144c.006,0,.006.009.011.013l3.548,2.728a.3.3,0,0,0,.347,0,1.06,1.06,0,0,0,.4-.506c.192-.447.17-.946-.05-1.114l-2.494-1.917,6.54-3.775a1.385,1.385,0,0,0,.526-1.114c0-.447-.235-.674-.526-.506" transform="translate(19.1 20.043)" fill="#375a64"/>
        </g>
      </g>
      <g id="Group_5770" data-name="Group 5770" transform="translate(31.896 287.893)" opacity="0.5">
        <g id="Group_5769" data-name="Group 5769" transform="translate(0)">
          <path id="Path_5407" data-name="Path 5407" d="M-.661-1.282l6.54-3.775L3.386-6.974c-.22-.168-.242-.667-.05-1.116s.525-.67.743-.5L7.627-5.866s.006.011.009.015a.41.41,0,0,1,.1.142c.007.018.022.03.03.05a.946.946,0,0,1,.044.3,1.551,1.551,0,0,1-.044.353c-.007.028-.022.054-.03.083a1.571,1.571,0,0,1-.1.251c0,.007-.006.018-.009.026L4.078,2.18a.958.958,0,0,1-.347.4.289.289,0,0,1-.4-.048,1.193,1.193,0,0,1,.05-1.171l2.494-4.8L-.661.338c-.292.168-.526-.057-.526-.506A1.385,1.385,0,0,1-.661-1.282" transform="translate(1.187 8.649)" fill="#375a64"/>
        </g>
      </g>
      <g id="Group_5772" data-name="Group 5772" transform="translate(46.581 276.158)" opacity="0.5">
        <g id="Group_5771" data-name="Group 5771" transform="translate(0 0)">
          <path id="Path_5408" data-name="Path 5408" d="M-9.164-35.728c-.041-.393-.384-.344-.558.083l-.9,2.191c-1.526-.164-3.378,1.326-4.627,3.973-1.62,3.43-1.62,7.488,0,9.047a2.311,2.311,0,0,0,2.937.174,8,8,0,0,0,2.937-3.567,1.112,1.112,0,0,0,0-1.145c-.205-.2-.537-.006-.744.43-1.208,2.556-3.177,3.7-4.387,2.532s-1.208-4.195,0-6.755c.861-1.821,2.1-2.9,3.181-2.966L-12-30.08c-.174.429-.015.827.26.648l2.667-1.742a.858.858,0,0,0,.3-.731Z" transform="translate(16.461 35.996)" fill="#375a64"/>
        </g>
      </g>
      <g id="Group_5774" data-name="Group 5774" transform="translate(119.541 215.234)" opacity="0.5">
        <g id="Group_5773" data-name="Group 5773" transform="translate(0 0)">
          <path id="Path_5409" data-name="Path 5409" d="M-5.822-10.8l2.385-5.046a1.541,1.541,0,0,0,0-1.572c-.283-.272-.739-.007-1.021.589l-2.385,5.046L-9.226-14.08c-.283-.27-.739-.007-1.021.589a1.542,1.542,0,0,0,0,1.572l2.385,2.294-2.385,5.048a1.538,1.538,0,0,0,0,1.57.4.4,0,0,0,.51.031A1.4,1.4,0,0,0-9.226-3.6l2.383-5.048,2.385,2.3a.4.4,0,0,0,.51.031,1.414,1.414,0,0,0,.512-.621,1.538,1.538,0,0,0,0-1.57Z" transform="translate(10.458 17.528)" fill="#375a64"/>
        </g>
      </g>
      <g id="Group_5775" data-name="Group 5775" transform="translate(62.557 50.21)">
        <path id="Path_5410" data-name="Path 5410" d="M0,225.709v-8.43a9.21,9.21,0,0,1,4.165-7.216L378.838-6.143c2.3-1.328,4.167-.251,4.167,2.4v8.43a9.218,9.218,0,0,1-4.167,7.218L4.165,228.115c-2.3,1.328-4.165.251-4.165-2.407" transform="translate(0 6.712)" fill="#fff"/>
      </g>
      <g id="Group_5776" data-name="Group 5776" transform="translate(433.265 54.52)">
        <path id="Path_5411" data-name="Path 5411" d="M-1.378-7,.31-5.784a1.029,1.029,0,0,1,.358.992L.323-1.913,2.15-4.234A1.049,1.049,0,0,1,3.088-4.7l2.191.272c-.035-.037.1-.288.078-.443L4.937-7.875a1.672,1.672,0,0,1,.194-.972L6.9-12.164l-2.024.776a.8.8,0,0,1-1.053-.421l-.911-1.936c0,.009-.007.02-.011.031L1.81-10.125a1.675,1.675,0,0,1-.549.826L-1.186-7.413A.651.651,0,0,0-1.378-7M-.013-.293A.817.817,0,0,1-.32-.352.964.964,0,0,1-.839-1.432l.417-3.491a.114.114,0,0,1,.006-.03l-1.69-1.219a.961.961,0,0,1-.369-.791,1.7,1.7,0,0,1,.619-1.319L.591-10.167a.6.6,0,0,0,.168-.279l1.093-3.587a1.355,1.355,0,0,1,1.081-1.042.8.8,0,0,1,.792.477v0l.986,2.1,2.216-.851a.808.808,0,0,1,.912.209,1.331,1.331,0,0,1,.031,1.489L6.1-8.331a.576.576,0,0,0-.078.307l.417,3.005a1.718,1.718,0,0,1-.473,1.356.983.983,0,0,1-.826.327l-2.189-.27L.825-.76a1.069,1.069,0,0,1-.839.467" transform="translate(2.476 15.078)" fill="#e1e1e1"/>
      </g>
      <g id="Group_5780" data-name="Group 5780" transform="translate(449.031 40.094)" opacity="0.5">
        <g id="Group_5777" data-name="Group 5777" transform="translate(0)">
          <path id="Path_5412" data-name="Path 5412" d="M-1.816,10.119A1.444,1.444,0,0,1-3.069,9.4a1.445,1.445,0,0,1,.526-1.973L9.185.657a1.443,1.443,0,0,1,1.443,2.5L-1.1,9.927a1.438,1.438,0,0,1-.72.192" transform="translate(3.263 -0.464)" fill="#8193d5"/>
        </g>
        <g id="Group_5778" data-name="Group 5778" transform="translate(0 6.771)">
          <path id="Path_5413" data-name="Path 5413" d="M-1.816,10.126A1.442,1.442,0,0,1-3.069,9.4a1.443,1.443,0,0,1,.526-1.971L9.185.663a1.443,1.443,0,0,1,1.443,2.5L-1.1,9.934a1.458,1.458,0,0,1-.72.192" transform="translate(3.263 -0.468)" fill="#8193d5"/>
        </g>
        <g id="Group_5779" data-name="Group 5779" transform="translate(0 13.542)">
          <path id="Path_5414" data-name="Path 5414" d="M-1.816,10.125A1.442,1.442,0,0,1-3.069,9.4a1.443,1.443,0,0,1,.526-1.971L9.185.663a1.443,1.443,0,0,1,1.443,2.5L-1.1,9.931a1.441,1.441,0,0,1-.72.194" transform="translate(3.263 -0.467)" fill="#8193d5"/>
        </g>
      </g>
      <g id="Group_5781" data-name="Group 5781" transform="translate(7.846 291.958) rotate(90)">
        <path id="Path_5415" data-name="Path 5415" d="M4.5,0H31.6L27.076,7.831H0Z" transform="translate(0 0)" fill="#e1e1e1"/>
      </g>
      <g id="Group_5789" data-name="Group 5789" transform="translate(323.43 98.244)">
        <g id="Group_5782" data-name="Group 5782" transform="translate(0 59.13)">
          <path id="Path_5416" data-name="Path 5416" d="M1129.021,516.394l3.7-2.137,1.457-7.573,8.89-5.133,1.487,5.873,3.76-2.171-7.782-27.549-3.7,2.137Zm6.238-15.18,3.381-17.39,3.381,13.486Z" transform="translate(-1129.021 -477.704)" fill="#fff"/>
        </g>
        <g id="Group_5783" data-name="Group 5783" transform="translate(23.088 48.532)">
          <path id="Path_5417" data-name="Path 5417" d="M1181.1,489.754l2.915-1.683.321-2.878c.67,1.049,2.128,1.958,5.13.224,4.431-2.558,6.3-8.212,6.3-16.156s-1.807-11.657-6.179-9.133a12.765,12.765,0,0,0-4.809,5.514V453.8l-3.381,1.952v27.2Zm7.579-24.525c2.623-1.515,3.7.78,3.7,5.986,0,5.116-1.079,8.431-3.673,9.929-2.1,1.212-3.265.494-3.935-.555V470.356C1185.39,468.836,1186.672,466.39,1188.683,465.228Z" transform="translate(-1181.105 -453.796)" fill="#fff"/>
        </g>
        <g id="Group_5784" data-name="Group 5784" transform="translate(42.126 43.18)">
          <path id="Path_5418" data-name="Path 5418" d="M1238.857,451.421c0-8.033-1.807-11.791-7.4-8.515-5.626,3.248-7.4,9.032-7.4,17.065s1.778,11.674,7.4,8.426C1237.05,465.164,1238.857,459.454,1238.857,451.421Zm-11.368,6.563c0-5.744.962-9.037,3.964-10.77,2.973-1.717,3.935.466,3.935,6.21s-.962,8.947-3.935,10.664C1228.451,465.821,1227.489,463.728,1227.489,457.984Z" transform="translate(-1224.05 -441.723)" fill="#fff"/>
        </g>
        <g id="Group_5785" data-name="Group 5785" transform="translate(61.63 29.943)">
          <path id="Path_5419" data-name="Path 5419" d="M1279.417,437.593l2.915-1.683-.321-6.5V411.862l-3.381,1.952v15.931c-.553,1.8-1.778,4.841-4.022,6.137-2.478,1.43-3.177-.185-3.177-3.865V417.971l-3.352,1.935-.029,13.974c0,7.674,1.545,9.744,5.218,7.623a13.058,13.058,0,0,0,5.713-7.427Z" transform="translate(-1268.049 -411.862)" fill="#fff"/>
        </g>
        <g id="Group_5786" data-name="Group 5786" transform="translate(79.822 16.607)">
          <path id="Path_5420" data-name="Path 5420" d="M1318.328,411.7v-4.757l-1.137.656c-2.274,1.313-2.682-.2-2.682-4.151v-9.559l3.731-2.154v-4.353l-3.731,2.154v-7.764l-3.381,2.8v6.911l-2.04,1.178v4.353l2.04-1.178v9.783c0,6.058.437,9.98,5.8,6.883Z" transform="translate(-1309.088 -381.777)" fill="#fff"/>
        </g>
        <g id="Group_5787" data-name="Group 5787" transform="translate(98.724 8.526)">
          <path id="Path_5421" data-name="Path 5421" d="M1363.1,389.281l2.915-1.683-.32-6.5V363.549l-3.381,1.952v15.931c-.554,1.8-1.778,4.841-4.022,6.137-2.478,1.43-3.177-.185-3.177-3.865V369.658l-3.352,1.935-.029,13.974c0,7.674,1.545,9.744,5.218,7.624a13.056,13.056,0,0,0,5.713-7.427Z" transform="translate(-1351.728 -363.549)" fill="#fff"/>
        </g>
        <g id="Group_5788" data-name="Group 5788" transform="translate(117.412)">
          <path id="Path_5422" data-name="Path 5422" d="M1407.789,359.632c0-10.232-10.231.163-10.231-4.908,0-1.705.7-3.59,3.381-5.049,2.361-1.318,3.148-.247,3.148,2.177l3.323-1.919c0-5.161-2.011-7.051-6.558-4.471-4.577,2.6-6.7,6.518-6.675,10.989.058,9.884,10.26-.628,10.2,4.88-.029,2.081-.991,3.8-3.585,5.256-2.244,1.251-3.556.482-3.556-2.39l-3.352,1.935c0,5.475,2.39,7.416,6.937,4.836C1405.836,368.12,1407.789,364.255,1407.789,359.632Z" transform="translate(-1393.885 -344.315)" fill="#fff"/>
        </g>
      </g>
      <g id="Group_5791" data-name="Group 5791" transform="translate(27.486 343.111)" opacity="0.1">
        <path id="Path_5925" data-name="Path 5925" d="M93.308,433.35l126.458-77.031V569.155L93.308,637.726Z" transform="translate(-93.308 -356.319)" fill="#687dcc"/>
      </g>
      <g id="Group_5793" data-name="Group 5793" transform="translate(177.909 240.048)" opacity="0.15">
        <g id="Group_5792" data-name="Group 5792" transform="translate(0 0)">
          <path id="Path_5424" data-name="Path 5424" d="M-7.033,57.253,146.831-31.58c3.092-1.786,5.6-.43,5.6,3.027a12.267,12.267,0,0,1-5.582,9.52L-7.052,70.8c-3.083,1.8-5.582.366-5.582-3.2V66.95a12.375,12.375,0,0,1,5.6-9.7" transform="translate(12.633 32.368)" fill="#687dcc"/>
        </g>
      </g>
      <g id="Group_5795" data-name="Group 5795" transform="translate(177.907 209.015)" opacity="0.1">
        <g id="Group_5794" data-name="Group 5794">
          <path id="Path_5425" data-name="Path 5425" d="M-5.022,126.72l254.6-146.992c2.211-1.274,4-.369,4,2.023a8.57,8.57,0,0,1-4,6.64L-5.022,135.383c-2.209,1.276-4,.371-4-2.023a8.577,8.577,0,0,1,4-6.64" transform="translate(9.021 20.849)" fill="#687dcc"/>
        </g>
      </g>
      <g id="Group_5797" data-name="Group 5797" transform="translate(177.907 226.407)" opacity="0.1">
        <g id="Group_5796" data-name="Group 5796">
          <path id="Path_5426" data-name="Path 5426" d="M-5.022,126.72l254.6-146.992c2.211-1.274,4-.369,4,2.023a8.576,8.576,0,0,1-4,6.642l-254.6,146.99c-2.209,1.276-4,.371-4-2.023a8.577,8.577,0,0,1,4-6.64" transform="translate(9.021 20.849)" fill="#687dcc"/>
        </g>
      </g>
      <g id="Group_5799" data-name="Group 5799" transform="translate(177.907 243.799)" opacity="0.1">
        <g id="Group_5798" data-name="Group 5798" transform="translate(0 0)">
          <path id="Path_5427" data-name="Path 5427" d="M-5.022,126.723l254.6-146.993c2.211-1.274,4-.368,4,2.024a8.573,8.573,0,0,1-4,6.64L-5.022,135.385c-2.209,1.276-4,.369-4-2.023a8.577,8.577,0,0,1,4-6.64" transform="translate(9.021 20.848)" fill="#687dcc"/>
        </g>
      </g>
      <g id="Group_5801" data-name="Group 5801" transform="translate(177.907 261.194)" opacity="0.1">
        <g id="Group_5800" data-name="Group 5800" transform="translate(0 0)">
          <path id="Path_5428" data-name="Path 5428" d="M-5.022,126.72l254.6-146.992c2.211-1.274,4-.369,4,2.023a8.57,8.57,0,0,1-4,6.64L-5.022,135.383c-2.209,1.276-4,.371-4-2.023a8.577,8.577,0,0,1,4-6.64" transform="translate(9.021 20.849)" fill="#687dcc"/>
        </g>
      </g>
      <g id="Group_5803" data-name="Group 5803" transform="translate(177.907 322.205)" opacity="0.1">
        <g id="Group_5802" data-name="Group 5802" transform="translate(0 0)">
          <path id="Path_5429" data-name="Path 5429" d="M-5.022,83.1,172.612-20.268c2.209-1.276,4-.369,4,2.023a8.576,8.576,0,0,1-4,6.642L-5.022,91.766c-2.209,1.276-4,.371-4-2.023a8.577,8.577,0,0,1,4-6.64" transform="translate(9.021 20.846)" fill="#687dcc"/>
        </g>
      </g>
      <g id="Group_5805" data-name="Group 5805" transform="translate(177.907 313.371)" opacity="0.1">
        <g id="Group_5804" data-name="Group 5804" transform="translate(0 0)">
          <path id="Path_5430" data-name="Path 5430" d="M-5.022,126.72l254.6-146.992c2.211-1.274,4-.369,4,2.023a8.57,8.57,0,0,1-4,6.64L-5.022,135.383c-2.209,1.276-4,.371-4-2.023a8.577,8.577,0,0,1,4-6.64" transform="translate(9.021 20.849)" fill="#687dcc"/>
        </g>
      </g>
      <g id="Group_5807" data-name="Group 5807" transform="translate(177.907 330.765)" opacity="0.1">
        <g id="Group_5806" data-name="Group 5806" transform="translate(0 0)">
          <path id="Path_5431" data-name="Path 5431" d="M-5.022,126.72l254.6-146.992c2.211-1.274,4-.369,4,2.023a8.576,8.576,0,0,1-4,6.642l-254.6,146.99c-2.209,1.276-4,.371-4-2.023a8.577,8.577,0,0,1,4-6.64" transform="translate(9.021 20.849)" fill="#687dcc"/>
        </g>
      </g>
      <g id="Group_5809" data-name="Group 5809" transform="translate(177.907 348.157)" opacity="0.1">
        <g id="Group_5808" data-name="Group 5808" transform="translate(0 0)">
          <path id="Path_5432" data-name="Path 5432" d="M-5.022,126.723l254.6-146.993c2.211-1.274,4-.368,4,2.024a8.573,8.573,0,0,1-4,6.64L-5.022,135.385c-2.209,1.276-4,.369-4-2.023a8.577,8.577,0,0,1,4-6.64" transform="translate(9.021 20.848)" fill="#687dcc"/>
        </g>
      </g>
      <g id="Group_5811" data-name="Group 5811" transform="translate(177.907 457.945)" opacity="0.1">
        <g id="Group_5810" data-name="Group 5810" transform="translate(0 0)">
          <path id="Path_5433" data-name="Path 5433" d="M-5.022,34.328l93.54-54.6c2.209-1.274,4-.369,4,2.024a8.577,8.577,0,0,1-4,6.64l-93.54,54.6c-2.209,1.276-4,.371-4-2.023a8.577,8.577,0,0,1,4-6.64" transform="translate(9.021 20.849)" fill="#687dcc"/>
        </g>
      </g>
    </g>
    <g id="Character-3" transform="translate(535.816 226.334)">
      <g id="Group_5812" data-name="Group 5812" transform="translate(0 105.135)">
        <path id="Path_5434" data-name="Path 5434" d="M-64.139-70.408c13.533-43.93,26.706-72.859,13.288-81.817-12.5,2.316-18.1,8.5-20.752,24.974-2.787,17.283-8.58,41.355-11.96,55.258A164.006,164.006,0,0,1-96.039-38.445,7.091,7.091,0,0,1-99.728-35.2C-103.9-33.565-105.9-31.434-109.3-29c-2.665,1.9-4.627,2.115-4.5,2.913.155,1.027,1.359,2.88,4.182,2.575a25.55,25.55,0,0,0,5.82-1.871s-2.464,6.611-7.29,10.648c-6.542,5.471-5.565,10.944,4.97,11.583,3.772.227,12.514-3.212,20.615-17.011,2.331-3.975,5.041-10.482,7.216-15.907C-72.63-50.2-66.847-61.618-64.139-70.408" transform="translate(115.211 152.225)" fill="#ffaaa8"/>
      </g>
      <g id="Group_5813" data-name="Group 5813" transform="translate(57.484 172.424) rotate(-151.054)">
        <path id="Path_5435" data-name="Path 5435" d="M24.71,63.824s9.377-4.566,11.531-13.711S24.71,1,24.71,1,14.063-3.968,0,8.254Z" transform="translate(0 0)" fill="#4a63c2"/>
      </g>
      <g id="Group_5815" data-name="Group 5815" transform="translate(25.57 98.922)" opacity="0.3">
        <g id="Group_5814" data-name="Group 5814" transform="translate(31.915 73.502) rotate(-151.054)">
          <path id="Path_5436" data-name="Path 5436" d="M24.71,63.824s9.377-4.566,11.531-13.711S24.71,1,24.71,1,14.063-3.968,0,8.254Z" transform="translate(0 0)"/>
        </g>
      </g>
      <g id="Group_5816" data-name="Group 5816" transform="translate(101.496 399.7)">
        <rect id="Rectangle_517" data-name="Rectangle 517" width="13.986" height="24.935" transform="translate(0 0)" fill="#ffaaa8"/>
      </g>
      <g id="Group_5817" data-name="Group 5817" transform="translate(67.936 398.336) rotate(177.949)">
        <path id="Path_5437" data-name="Path 5437" d="M.944,0H14.93l-.244,26.4L0,26.372Z" transform="translate(0 0)" fill="#ffaaa8"/>
      </g>
      <g id="Group_5818" data-name="Group 5818" transform="translate(43.609 183.661)">
        <path id="Path_5438" data-name="Path 5438" d="M-92.736-524.317c0,13.908-2.047,125.848-2.047,125.848.323,4,3.929,11.381,3.147,26.754-1.06,20.881-2.471,75.757-2.471,75.757a17.752,17.752,0,0,1-15.572.32s-13.227-76-15.733-96.7c-2.187-18.062-5.9-78.869-5.9-78.869l-7.58,70.7a86.162,86.162,0,0,1,1.733,23.147c-.654,9.573-5.151,59.423-5.151,59.423s-6.583,4.651-16.147,1.287c0,0-7.955-75.077-8.118-83.86-.183-10.013,4.651-123.964,4.651-123.964Z" transform="translate(166.578 524.467)" fill="#2e4088"/>
      </g>
      <g id="Group_5819" data-name="Group 5819" transform="translate(79.37 415.349)">
        <path id="Path_5439" data-name="Path 5439" d="M-27.788-81.747v-2.083c-1.339.608-4.446,12.963-10,18.234-4.411,4.191-10.43,9.03-11.96,13.7-1.592,4.858,8.38,7.541,12.5,6.78,4.789-.883,13.088-4.394,15.172-7.65s3.059-8.059,4.752-10.443,5.595-5.05,6.511-7.811c.5-1.518-.094-4.841-.8-7.649-.65-2.575-1.352-5.406-2.2-5.164,0,.314,0,1.588,0,1.588-1.016,1.171-3.825,2.335-6.993,2.46-2.045.083-7.01-.34-6.993-1.965" transform="translate(49.914 83.845)" fill="#1a2e35"/>
      </g>
      <g id="Group_5820" data-name="Group 5820" transform="translate(19.615 393.423)">
        <path id="Path_5440" data-name="Path 5440" d="M-41.76-63.255c-.726.026-1.317,1.093-2.918,2.9a30.641,30.641,0,0,1-8.227,6.165c-5.236,2.73-15.419,6.932-20.026,9.093-2.88,1.35-2.743,4.972.231,7.034s10.161,3.546,18.786,1.537c4.7-1.1,10.814-5.615,14.688-5.371s11.117.185,13.975-1.867,1.714-6.433.907-10.2c-.881-4.11-1.984-10.519-3.291-10.238v1.417c-1.681,2.651-10.356,3.731-14.05,1.779Z" transform="translate(75.013 64.212)" fill="#1a2e35"/>
      </g>
      <g id="Group_5821" data-name="Group 5821" transform="translate(71.944 302.578) rotate(-118.999)">
        <path id="Path_5441" data-name="Path 5441" d="M54.063,37.894s8.286-8.188,19.612-11.4c0,0-8.229-.266-19.612,6.2L0,0Z" transform="translate(0 0)" fill="#1a2e35"/>
      </g>
      <g id="Group_5822" data-name="Group 5822" transform="translate(46.504 104.195)">
        <path id="Path_5442" data-name="Path 5442" d="M-79.96-259.185s10.946,1,10.168,21.851l-2.42,33.212.067,49.839c-10.284,11.653-55.875,10.8-71.484-.933,0,0,1.769-58.982,2.824-81.678.748-16.134,4.462-24.257,20.319-26.034l19.5.857Z" transform="translate(143.629 262.929)" fill="#8193d5"/>
      </g>
      <g id="Group_5824" data-name="Group 5824" transform="translate(70.723 118.05)" opacity="0.3">
        <g id="Group_5823" data-name="Group 5823" transform="matrix(-0.142, 0.99, -0.99, -0.142, 9.239, 0.948)">
          <path id="Path_5443" data-name="Path 5443" d="M0,.874H17.687l.722,5.807L18.506,0Z" transform="translate(0 0)"/>
        </g>
      </g>
      <g id="Group_5825" data-name="Group 5825" transform="translate(51.983 82.64) rotate(-90)">
        <path id="Path_5444" data-name="Path 5444" d="M21.686,41.7C9.71,41.7,0,32.377,0,20.879S9.719.576,21.686.057C42.863-.859,43.37,9.379,43.37,20.879S33.662,41.7,21.686,41.7" transform="translate(0 0)" fill="#1a2e35"/>
      </g>
      <g id="Group_5826" data-name="Group 5826" transform="translate(99.452 94.101) rotate(-158.65)">
        <path id="Path_5445" data-name="Path 5445" d="M2.474,23.075S-.241,7.359.017,4.5A6.816,6.816,0,0,1,2.474,0L6.268,10.319Z" transform="translate(0 0)" fill="#1a2e35"/>
      </g>
      <g id="Group_5827" data-name="Group 5827" transform="matrix(-0.984, 0.176, -0.176, -0.984, 110.221, 70.874)">
        <path id="Path_5446" data-name="Path 5446" d="M4.747,22.743S2.39,22.9.666,18.735C-.813,15.159.013,7.87,4.747,0l6.047.353Z" transform="translate(0 0)" fill="#1a2e35"/>
      </g>
      <g id="Group_5828" data-name="Group 5828" transform="translate(54.849 39.684)">
        <path id="Path_5447" data-name="Path 5447" d="M-53.853-69.15c1.206.75,2.928-1.662,4.416-3.284s6.341-3.834,8.764,1.479c2.47,5.419-2.137,12.577-5.962,13.827-6.587,2.154-7.575-2.248-7.575-2.248l-.5,24.75c-8.746,13.53-28.559,13.04-21.435-.654l.018-7.532s-5.97.944-8.881.475c-4.845-.781-7.894-4.764-9.363-10.225-2.362-8.773-3.258-15.857-1.254-33.112,2.194-18.912,23.315-19.11,34.719-11.633s7.056,28.156,7.056,28.156" transform="translate(96.735 101.9)" fill="#ffaaa8"/>
      </g>
      <g id="Group_5829" data-name="Group 5829" transform="translate(78.052 96.881)">
        <path id="Path_5448" data-name="Path 5448" d="M-23.772-58.994s-3.077,6.653-8.567,10.733a24.239,24.239,0,0,1-10.362,4.4s5.129,3.4,7.312,8.212,17.571-8.435,17.431-17.833c0,0-2.414-9.44-5.722-10.046Z" transform="translate(42.7 63.525)" fill="#2e4088"/>
      </g>
      <g id="Group_5830" data-name="Group 5830" transform="translate(67.615 98.772)">
        <path id="Path_5449" data-name="Path 5449" d="M-13.11-1.166s-4.745-2.357-2.619-10.244l.02-7.532-2.08.277a18.244,18.244,0,0,0-5,8.663c-.477,2.157-1.648,13.086.438,15.258,1.9,1.974,4.987-5.835,9.241-6.422" transform="translate(23.548 18.942)" fill="#2e4088"/>
      </g>
      <g id="Group_5831" data-name="Group 5831" transform="translate(48.829 32.211)">
        <path id="Path_5450" data-name="Path 5450" d="M-51.246-31.671a3.064,3.064,0,0,1,1.631.107c1.79.813,2.174,6.378,2.488,7.987,1.06,5.417,1.938,14.6,3.977,14.642.608.011,2.913-3.975,4.414-5.4,2.08-1.971-.6-19.826-.6-19.826s2-4.437-2.008-9.03c-3.742-4.293-9.629-5.24-15.007-5.537-6.334-.349-12.769.131-19.01-1.256a52.99,52.99,0,0,0-5.955-1.276.721.721,0,0,0-.543.091c-.205.166-.175.48-.122.739a19.264,19.264,0,0,0,1.976,5.355,48.8,48.8,0,0,1-10.947-2.152,1.063,1.063,0,0,0-.624-.068c-.417.133-.491.687-.467,1.125.253,4.485,2.377,11.232,6.016,13.868A20.984,20.984,0,0,0-75.222-28.9c9.793.253,15.874-1.814,23.976-2.774" transform="translate(92.051 51.273)" fill="#1a2e35"/>
      </g>
      <g id="Group_5832" data-name="Group 5832" transform="translate(101.075 43.789)">
        <path id="Path_5451" data-name="Path 5451" d="M-.571,7.9,6.721,3.817A3.946,3.946,0,0,0,1.2,1.917,4.626,4.626,0,0,0-.571,7.9" transform="translate(1.026 -1.419)" fill="#1a2e35"/>
      </g>
      <g id="Group_5833" data-name="Group 5833" transform="translate(75.451 89.024)">
        <path id="Path_5452" data-name="Path 5452" d="M0,2.986S10.816.716,14.6-1.377a12.762,12.762,0,0,0,5.227-5.386,18.073,18.073,0,0,1-2.97,6.352C14.089,3.272,0,5.984,0,5.984Z" transform="translate(0 6.763)" fill="#ff9090"/>
      </g>
      <g id="Group_5834" data-name="Group 5834" transform="matrix(0.003, 1, -1, 0.003, 82.383, 67.261)">
        <path id="Path_5453" data-name="Path 5453" d="M2.344,4.337A2.253,2.253,0,0,0,4.69,2.176,2.272,2.272,0,0,0,2.344,0,2.254,2.254,0,0,0,0,2.163,2.27,2.27,0,0,0,2.344,4.337" transform="translate(0 0)" fill="#1a2e35"/>
      </g>
      <g id="Group_5835" data-name="Group 5835" transform="translate(81.532 58.76)">
        <path id="Path_5454" data-name="Path 5454" d="M0-3.587,4.638-.922A2.961,2.961,0,0,0,3.557-4.767,2.537,2.537,0,0,0,0-3.587" transform="translate(0 5.1)" fill="#1a2e35"/>
      </g>
      <g id="Group_5836" data-name="Group 5836" transform="translate(71.484 85.211)">
        <path id="Path_5455" data-name="Path 5455" d="M-6.214-9.417l-4.948,1.934A2.574,2.574,0,0,0-7.8-5.774,2.923,2.923,0,0,0-6.214-9.417" transform="translate(11.163 9.417)" fill="#ff9090"/>
      </g>
      <g id="Group_5837" data-name="Group 5837" transform="translate(57.656 57.718)">
        <path id="Path_5456" data-name="Path 5456" d="M-.646,5.386,3.582,2A2.5,2.5,0,0,0-.094,1.408,3,3,0,0,0-.646,5.386" transform="translate(1.161 -0.847)" fill="#1a2e35"/>
      </g>
      <g id="Group_5838" data-name="Group 5838" transform="matrix(0.003, 1, -1, 0.003, 64.354, 66.618)">
        <path id="Path_5457" data-name="Path 5457" d="M2.346,4.335A2.253,2.253,0,0,0,4.69,2.174,2.27,2.27,0,0,0,2.346,0,2.253,2.253,0,0,0,0,2.159,2.269,2.269,0,0,0,2.346,4.335" transform="translate(0 0)" fill="#1a2e35"/>
      </g>
      <g id="Group_5839" data-name="Group 5839" transform="translate(63.604 67.162)">
        <path id="Path_5458" data-name="Path 5458" d="M-10.072-30.883l-.251,13.69-7.769-1.782Z" transform="translate(18.092 30.883)" fill="#ff9090"/>
      </g>
      <g id="Group_5840" data-name="Group 5840" transform="matrix(-0.879, 0.477, -0.477, -0.879, 149.33, 102.274)">
        <path id="Path_5459" data-name="Path 5459" d="M5.519,27.294C.8,29.442-.364,18.352.091,11.391S2.22,1.258,5.519.189s6.555,2.434,7.676,9.871-4.651,15.4-7.676,17.235" transform="translate(0 0)" fill="#00dfbf"/>
      </g>
      <g id="Group_5842" data-name="Group 5842" transform="translate(124.453 78.051)" opacity="0.5">
        <g id="Group_5841" data-name="Group 5841" transform="matrix(-0.879, 0.477, -0.477, -0.879, 24.877, 24.223)">
          <path id="Path_5460" data-name="Path 5460" d="M5.519,27.294C.8,29.442-.364,18.352.091,11.391S2.22,1.258,5.519.189s6.555,2.434,7.676,9.871-4.651,15.4-7.676,17.235" transform="translate(0 0)"/>
        </g>
      </g>
      <g id="Group_5843" data-name="Group 5843" transform="translate(107.917)">
        <path id="Path_5461" data-name="Path 5461" d="M-57.151-42.758c-11.014,25.929-26.5,40.428-33.43,57.066-9.084-.617-16.152-22.525-9.392-31.9,0,0,26.566-28.757,28.973-40.059,2.133-10.033,5-26.583,4.751-35.055a5.812,5.812,0,0,0-1.635-3.759c-2.785-3-2.789-5.408-4.579-8.722-1.4-2.582-2.924-3.548-2.49-4.13.562-.746,2.327-1.72,4.527-.332A17.069,17.069,0,0,1-67-106.357a19,19,0,0,0-1.568-9.715c-3.09-6.974-2.338-10.534,7.076-8.049,5.9,1.557,9.606,6.47,10.488,20.65a139.813,139.813,0,0,1,.1,17.709c-1.021,10.914-1.677,22.29-3.02,31.326a47.7,47.7,0,0,1-3.231,11.679" transform="translate(102.658 124.912)" fill="#ffaaa8"/>
      </g>
      <g id="Group_5844" data-name="Group 5844" transform="translate(106.165 80.851)">
        <path id="Path_5462" data-name="Path 5462" d="M-2.2-60.98,21.24-87.758s-2.782,6.533,3.312,16.031,9.723,7.861,9.723,7.861S20.445-43.679,16.735-36.92,9.178-24.464,9.178-24.464s-.925,2.386-4.37,2.386S-7.75-37.334-2.2-60.98" transform="translate(3.951 87.758)" fill="#4a63c2"/>
      </g>
      <g id="Group_5846" data-name="Group 5846" transform="translate(106.165 80.851)" opacity="0.3">
        <g id="Group_5845" data-name="Group 5845" transform="translate(0)">
          <path id="Path_5463" data-name="Path 5463" d="M-2.2-60.98,21.24-87.758s-2.782,6.533,3.312,16.031,9.723,7.861,9.723,7.861S20.445-43.679,16.735-36.92,9.178-24.464,9.178-24.464s-.925,2.386-4.37,2.386S-7.75-37.334-2.2-60.98" transform="translate(3.951 87.758)"/>
        </g>
      </g>
    </g>
    <g id="Character-2" transform="translate(330.984 289.085)">
      <g id="Group_5847" data-name="Group 5847" transform="matrix(0.601, 0.8, -0.8, 0.601, 121.884, 104.007)">
        <path id="Path_5464" data-name="Path 5464" d="M1.335,0H19.71l3.744,17.634L0,19.119Z" transform="translate(0 0)" fill="#ff9090"/>
      </g>
      <g id="Group_5848" data-name="Group 5848" transform="translate(86.589 71.682)">
        <path id="Path_5465" data-name="Path 5465" d="M0-141.508c9.623.451,14.209,1.938,19.246,7.872,4.917,5.792,30.234,42.373,30.234,42.373s-4.453,12.484-14.2,11.422L17.562-98.108Z" transform="translate(0 141.508)" fill="#687dcc"/>
      </g>
      <g id="Group_5849" data-name="Group 5849" transform="translate(36.653 376.678)">
        <path id="Path_5466" data-name="Path 5466" d="M-3.418-105.417a71.021,71.021,0,0,0-1.1,11.587c-.133,7.034-1.424,9.531-1.6,15.3-.194,6.594.944,9.063,3.62,12.77s9.7,7.07,12.669.8c3.005-6.341,2.588-10.371,1.638-16.84-.981-6.69-1.1-10.384-1.673-15.486-.5-4.5-1.1-7.911-1.1-7.911Z" transform="translate(6.139 105.417)" fill="#1a2e35"/>
      </g>
      <g id="Group_5850" data-name="Group 5850" transform="translate(36.17 320.952)">
        <path id="Path_5467" data-name="Path 5467" d="M-29.1-203.946l-23.169-.421c.345,15.467,2.8,41.213,3.2,55.725.076,2.732-.068,21.226.962,26.847,1.55,8.443,11.574,7.3,12.1,2.25s-.646-26.644-.613-28.871c-.089-9.305,4.272-33.6,6.561-50.3.113-.82.846-4.427.953-5.227" transform="translate(52.267 204.367)" fill="#ffbea8"/>
      </g>
      <g id="Group_5851" data-name="Group 5851" transform="translate(90.285 364.642)">
        <path id="Path_5468" data-name="Path 5468" d="M-3.9-75.275s-1.2.068-1.387,1.044c-.223,1.162-.273,3-.757,4.9-.67,2.651-1.228,7.015-.826,9.174s5.331,5.377,8.7,5.942,8.129,3.9,10.772,6.383c3.236,3.048,10.222,5.923,14.978,5.89,5.628-.041,9.551-1.875,11.406-4.887,1.938-3.147-1.688-3.38-8.123-7.553-1.461-.948-3.122-2.021-4.993-3.242C15.682-64.278,11.951-67.844,9.068-74.5Z" transform="translate(7.006 75.275)" fill="#1a2e35"/>
      </g>
      <g id="Group_5852" data-name="Group 5852" transform="translate(88.792 320.952)">
        <path id="Path_5469" data-name="Path 5469" d="M-22.162-20.307c-.172-4.788,2.283-40.068,2.283-40.068l-19.93,2.244c4.712,28.123,5.094,37.706,4.557,41.8a4.085,4.085,0,0,0-.124,1.178c.018,5.464,6.184,8.41,11,12.052,1.9,1.439,6.782,5.874,12.5,7.822,3.7,1.26,10.548,1.738,11.428-.512C-6.3-.261-14.267-6.1-18.922-11.207c-2.222-2.436-3.068-4.311-3.24-9.1" transform="translate(39.808 60.375)" fill="#ffbea8"/>
      </g>
      <g id="Group_5853" data-name="Group 5853" transform="translate(35.149 157.96)">
        <path id="Path_5470" data-name="Path 5470" d="M-8.032-477.993C-18.906-454.247-7.64-370.6-7.64-370.6c-.327,3.853-4.734,11.435-6.374,28.395-1.939,20.039,3.58,73.684,3.58,73.684s5.294,3.958,12.974.277c0,0,14.026-78.823,16.54-98.747,2.192-17.388,6.4-55.622,6.4-55.622l11.963,55.528s-3.07,9.741-3.79,17.161c-1.134,11.721,10.277,70.537,10.277,70.537s5.34,2.819,12.927-.251c0,0,5.057-75.987,6.114-90.106,1.779-23.709-4.518-97.688-8.866-111.722Z" transform="translate(14.428 481.467)" fill="#4a63c2"/>
      </g>
      <g id="Group_5857" data-name="Group 5857" transform="translate(75.059 185.3)" opacity="0.2">
        <g id="Group_5856" data-name="Group 5856" transform="translate(0 0)">
          <path id="Path_5472" data-name="Path 5472" d="M0-78.148,3.53-100.2s14.933-3.094,21.7-9.461c0,0-7.106,8.838-17.658,11.732L3.613-80.95l6.93,51.414Z" transform="translate(0 109.663)"/>
        </g>
      </g>
      <g id="Group_5858" data-name="Group 5858" transform="translate(50.212 57.219) rotate(14.592)">
        <path id="Path_5473" data-name="Path 5473" d="M4.681,30.253H19.967L12.091,0C3.648,0-1.574,6.226.427,13.908Z" transform="translate(0 0)" fill="#4a63c2"/>
      </g>
      <g id="Group_5860" data-name="Group 5860" transform="translate(42.591 57.219)" opacity="0.6">
        <g id="Group_5859" data-name="Group 5859" transform="translate(7.622 0) rotate(14.592)">
          <path id="Path_5474" data-name="Path 5474" d="M4.681,30.253H19.967L12.091,0C3.648,0-1.574,6.226.427,13.908Z" transform="translate(0 0)"/>
        </g>
      </g>
      <g id="Group_5861" data-name="Group 5861" transform="translate(42.422)">
        <path id="Path_5475" data-name="Path 5475" d="M-42.644,64.086l-5.308-.122c-16.175-.371-29-14.328-28.64-31.173C-76.685,14.432-62.381-.525-44.755-.621s31.993,14.71,32.085,33.069l-.046,1.9c-.4,16.812-13.788,30.114-29.928,29.743" transform="translate(76.6 0.622)" fill="#4a63c2"/>
      </g>
      <g id="Group_5863" data-name="Group 5863" transform="translate(42.422)" opacity="0.6">
        <g id="Group_5862" data-name="Group 5862">
          <path id="Path_5476" data-name="Path 5476" d="M-42.644,64.086l-5.308-.122c-16.175-.371-29-14.328-28.64-31.173C-76.685,14.432-62.381-.525-44.755-.621s31.993,14.71,32.085,33.069l-.046,1.9c-.4,16.812-13.788,30.114-29.928,29.743" transform="translate(76.6 0.622)"/>
        </g>
      </g>
      <g id="Group_5864" data-name="Group 5864" transform="translate(41.284 4.619)">
        <path id="Path_5477" data-name="Path 5477" d="M-12.969-13.077a4,4,0,0,0-5.118-2.876l1.417,5.46a4.089,4.089,0,0,0-1.066-.929A3.941,3.941,0,0,0-23.3-9.649L-16.091-5.4a4.688,4.688,0,0,0,.478-2.362,4.553,4.553,0,0,0,2.643-5.31" transform="translate(23.296 16.148)" fill="#4a63c2"/>
      </g>
      <g id="Group_5866" data-name="Group 5866" transform="translate(41.284 4.619)" opacity="0.6">
        <g id="Group_5865" data-name="Group 5865" transform="translate(0)">
          <path id="Path_5478" data-name="Path 5478" d="M-12.969-13.077a4,4,0,0,0-5.118-2.876l1.417,5.46a4.089,4.089,0,0,0-1.066-.929A3.941,3.941,0,0,0-23.3-9.649L-16.091-5.4a4.688,4.688,0,0,0,.478-2.362,4.553,4.553,0,0,0,2.643-5.31" transform="translate(23.296 16.148)"/>
        </g>
      </g>
      <g id="Group_5867" data-name="Group 5867" transform="translate(38.111 71.095)">
        <path id="Path_5479" data-name="Path 5479" d="M-27.924-252.907s-10.7,1.515-14.793,2.843c5.726,14.045-3.256,35.737-3.256,35.737l8.472,26.091c-5.844,11.991-10.678,17.94-12.658,27.684,5.388,10.532,43.457,20.583,68.239,1.387,0,0-.8-26.658-3.958-42.19,8.118-15.833,6.793-20.478,5.137-26-3.855-12.839-11.647-17.78-20.94-26.827l-5.6-.589Z" transform="translate(50.158 254.771)" fill="#eb6608"/>
      </g>
      <g id="Group_5868" data-name="Group 5868" transform="translate(38.111 84.726)">
        <path id="Path_5480" data-name="Path 5480" d="M-17.133-7.506c4.592-4.719,14.344-6.062,14.344-6.062l-8.943-5.1L-21.765-42.864a55.36,55.36,0,0,0,6.029-26.623l-5.75-1.38c.7,12.794-5.1,26.812-5.1,26.812l8.474,26.091C-23.959-5.973-28.793-.023-30.775,9.72c3.687,7.209,22.691,14.189,42.264,11.719C-14.737,19.688-21.56-2.956-17.133-7.506" transform="translate(30.775 70.867)" fill="#eb6608"/>
      </g>
      <g id="Group_5869" data-name="Group 5869" transform="translate(78.244 177.149)">
        <path id="Path_5481" data-name="Path 5481" d="M0,.116C.356.083.715.039,1.071,0A7.166,7.166,0,0,0,0,.116" transform="translate(0)" fill="#e7e7e7"/>
      </g>
      <g id="Group_5870" data-name="Group 5870" transform="translate(50.771 16.391)">
        <path id="Path_5482" data-name="Path 5482" d="M-54.855-162.117c3.181,2.92,7.154,9.257,6.834,27.774-.268,15.693-5.133,19.6-7.578,20.726s-7.179.477-11.78-.3l-.057,6.5s6.069,6.729,5.691,11.049-8.631,6.114-14.6,1.928S-87.39-105.614-87.39-105.614l-.063-19.743s-2.691,2.752-7.3-1.4c-3.8-3.428-5.109-9.237-2.174-12.375s8.4-2.316,10.51,2.122a59.84,59.84,0,0,0,20.17-5.938c8.58-4.485,12.013-12.589,11.394-19.169" transform="translate(98.534 162.117)" fill="#ffbea8"/>
      </g>
      <g id="Group_5871" data-name="Group 5871" transform="translate(78.249 42.826) rotate(-93.13)">
        <path id="Path_5483" data-name="Path 5483" d="M2.052,3.79A1.985,1.985,0,0,1,0,1.891,1.976,1.976,0,0,1,2.052,0,1.985,1.985,0,0,1,4.1,1.9,1.974,1.974,0,0,1,2.052,3.79" transform="translate(0 0)" fill="#1a2e35"/>
      </g>
      <g id="Group_5872" data-name="Group 5872" transform="translate(82.523 53.72)">
        <path id="Path_5484" data-name="Path 5484" d="M-.132-8.817,4.8-7.208A2.525,2.525,0,0,1,1.606-5.353,2.84,2.84,0,0,1-.132-8.817" transform="translate(0.238 8.817)" fill="#ff9875"/>
      </g>
      <g id="Group_5873" data-name="Group 5873" transform="translate(95.201 30.257)">
        <path id="Path_5485" data-name="Path 5485" d="M-5.618,3.906l-4.474-1.528A2.188,2.188,0,0,1-7.245.8,2.622,2.622,0,0,1-5.618,3.906" transform="translate(10.092 -0.676)" fill="#1a2e35"/>
      </g>
      <g id="Group_5874" data-name="Group 5874" transform="translate(62.862 39.633)">
        <path id="Path_5486" data-name="Path 5486" d="M-.063-15.167l-.05,6.638A3.115,3.115,0,0,0,3.124-11.7,3.429,3.429,0,0,0-.063-15.167" transform="translate(0.112 15.167)" fill="#687dcc"/>
      </g>
      <g id="Group_5876" data-name="Group 5876" transform="translate(62.862 39.633)" opacity="0.6">
        <g id="Group_5875" data-name="Group 5875">
          <path id="Path_5487" data-name="Path 5487" d="M-.063-15.167l-.05,6.638A3.115,3.115,0,0,0,3.124-11.7,3.429,3.429,0,0,0-.063-15.167" transform="translate(0.112 15.167)"/>
        </g>
      </g>
      <g id="Group_5877" data-name="Group 5877" transform="translate(94.455 42.174) rotate(-93.13)">
        <path id="Path_5488" data-name="Path 5488" d="M2.05,3.79A1.981,1.981,0,0,1,0,1.891,1.973,1.973,0,0,1,2.05,0,1.983,1.983,0,0,1,4.1,1.9,1.975,1.975,0,0,1,2.05,3.79" transform="translate(0 0)" fill="#1a2e35"/>
      </g>
      <g id="Group_5878" data-name="Group 5878" transform="translate(87.558 37.231)">
        <path id="Path_5489" data-name="Path 5489" d="M-.06-29.008-.108-16.149l5.992-1.969Z" transform="translate(0.108 29.008)" fill="#ff9875"/>
      </g>
      <g id="Group_5879" data-name="Group 5879" transform="translate(64.109 64.392) rotate(-79.277)">
        <path id="Path_5490" data-name="Path 5490" d="M3.114,17.543C2.837,12.663,3.857,2.309,7.59,0A10.7,10.7,0,0,0,3.114,4.429C1.079,7.861,0,18.1,0,18.1Z" transform="translate(0 0)" fill="#ff9875"/>
      </g>
      <g id="Group_5880" data-name="Group 5880" transform="translate(5.374 138.66)">
        <path id="Path_5491" data-name="Path 5491" d="M-21.918-105.283S-10.066-88.446-8.027-86.242s3.426,1.468,5.628.489a64.832,64.832,0,0,1,8.24-2.693c3.624-.9,4.405,2.447.816,4.834-2.6,1.725-5.567,2.479-4.324,3.9s5.079,3.9,8.648,5.3c8.748,3.45,8.072,5.183,6.461,8.016-1.4,2.468-5.491,7.787-21.139,1.5-6.455-2.591-15.548-9.959-19.835-14.712-6.188-6.854-15.838-19.137-15.838-19.137Z" transform="translate(39.371 105.283)" fill="#ffbea8"/>
      </g>
      <g id="Group_5881" data-name="Group 5881" transform="translate(0 75.196)">
        <path id="Path_5492" data-name="Path 5492" d="M-60.075-169.338c-4.293.286-12.359,1.321-22.48,18.125-8.877,14.739-22.636,34.745-25.194,41.9-1.031,2.883,3,8.9,8.182,15.044,7.085-.31,13.53-5.2,16.875-9.119a33.519,33.519,0,0,0-3.269-5.936l20.768-23.679s7.885-7.224,9.538-16.681c1.769-10.129,1.217-18.153-4.42-19.651" transform="translate(107.911 169.338)" fill="#687dcc"/>
      </g>
      <g id="Group_5882" data-name="Group 5882" transform="translate(177.42 157.764) rotate(165.245)">
        <path id="Path_5493" data-name="Path 5493" d="M0,52.419H52.932L81.31,0,30.648,1.274Z" transform="translate(0 0)" fill="#4a63c2"/>
      </g>
      <g id="Group_5884" data-name="Group 5884" transform="translate(85.441 107.073)" opacity="0.25">
        <g id="Group_5883" data-name="Group 5883" transform="translate(91.98 50.69) rotate(165.245)">
          <path id="Path_5494" data-name="Path 5494" d="M0,52.419H52.932L81.31,0,30.648,1.274Z" transform="translate(0 0)"/>
        </g>
      </g>
      <g id="Group_5886" data-name="Group 5886" transform="translate(140.942 148.087)" opacity="0.1">
        <g id="Group_5885" data-name="Group 5885" transform="translate(0 0)">
          <path id="Path_5495" data-name="Path 5495" d="M0-13.542a10.141,10.141,0,0,0,9.571,5.72L9.943-9.1Z" transform="translate(0 13.542)"/>
        </g>
      </g>
      <g id="Group_5888" data-name="Group 5888" transform="translate(126.845 113.479)" opacity="0.1">
        <g id="Group_5887" data-name="Group 5887" transform="translate(0 0)">
          <path id="Path_5496" data-name="Path 5496" d="M-27.385-9.324s.188-.874.423-1.952-2.771-1.125-6.71-.1l-7.541,1.956c-3.94,1.021-7.322,2.724-7.554,3.8l-.423,1.954Z" transform="translate(49.192 12.116)"/>
        </g>
      </g>
      <g id="Group_5889" data-name="Group 5889" transform="translate(125.934 106.305)">
        <path id="Path_5497" data-name="Path 5497" d="M-33.465-13.235c.15-.674-1.068-.85-2.719-.393l-2.987.824s.892-4.222-5.735-2.747-8.075,6.271-8.075,6.271-1.43.4-3.19.905-3.356,1.45-3.565,2.12l-.377,1.215,26.368-6.943s.131-.578.279-1.252" transform="translate(60.113 15.864)" fill="#2b454e"/>
      </g>
      <g id="Group_5890" data-name="Group 5890" transform="translate(131.431 110.208)">
        <path id="Path_5498" data-name="Path 5498" d="M-22-19.364c-2.418.584-3.421.9-3.781,2.566-.414,1.9-.58,3.291-.58,3.291l-11.671,3.085s.565-2.4.744-3.339-.218-1.5-2.072-1.01l-.159-.744,18.286-4.655Z" transform="translate(39.521 20.171)" fill="#2b454e"/>
      </g>
      <g id="Group_5891" data-name="Group 5891" transform="translate(127.547 113.664)">
        <path id="Path_5499" data-name="Path 5499" d="M-27.385-9.324s.188-.874.423-1.952-2.771-1.125-6.71-.1l-7.541,1.956c-3.94,1.021-7.322,2.724-7.554,3.8l-.423,1.954Z" transform="translate(49.192 12.116)" fill="#2b454e"/>
      </g>
      <g id="Group_5892" data-name="Group 5892" transform="translate(139.862 124.526)">
        <path id="Path_5500" data-name="Path 5500" d="M-23.627-57.447s-1.914,6.548-2.351,8.109-6.173,4.366-9.935,5.4-7.879,2.261-6.1,7.521c1.642,4.85,7.833,5.959,10.986,5.822s7.468-3.151,9.167-8.007c2.17-6.195,1-12.813,1.862-16.431s-1.744-4.57-3.629-2.412" transform="translate(42.44 58.589)" fill="#ffbea8"/>
      </g>
    </g>
    <g id="Character-1" transform="translate(118.067 351.503)">
      <g id="Group_5893" data-name="Group 5893" transform="translate(76.169 60.706)">
        <path id="Path_5501" data-name="Path 5501" d="M-127.524-164.013c-7.021-7.074-9.529-4.324-10.417,3.434a34.989,34.989,0,0,1-2.342,9.481,17.459,17.459,0,0,0-1.321-4.68c-1.219-2.362-3.282-2.42-4.163-2.05-.687.286.161,1.93.054,4.933-.139,3.849-1.382,5.975-.482,10.061a6.545,6.545,0,0,1-.689,4.507c-3.788,7.008-15.874,19.987-24.39,29.32-7.527-6.8-24.368-22.017-32.429-29.279-11.06-9.965-14.667-14.459-25.364-13.727a28.763,28.763,0,0,1,9.1,5.454c4.956,4.191,3.777,28.188,3.777,28.188s36.795,26.389,40.58,28.9c.556.369,1.123.7,1.686,1A9.052,9.052,0,0,0-162.9-90.59c7.857-8.98,19.3-26.649,25.921-35.835a112.053,112.053,0,0,0,8-13.929c6.572-12.972,5.851-19.228,1.454-23.661" transform="translate(229.067 168.095)" fill="#a54e4d"/>
      </g>
      <g id="Group_5894" data-name="Group 5894" transform="translate(77.258 75.801)">
        <path id="Path_5502" data-name="Path 5502" d="M0-117.877a18.412,18.412,0,0,1,14.8,3.626c6.315,4.793,33.178,29.5,33.178,29.5s.73,13.086-12.922,20.9L2.034-87.148Z" transform="translate(0 118.207)" fill="#4a63c2"/>
      </g>
      <g id="Group_5896" data-name="Group 5896" transform="translate(77.258 75.801)" opacity="0.3">
        <g id="Group_5895" data-name="Group 5895" transform="translate(0)">
          <path id="Path_5503" data-name="Path 5503" d="M0-117.877a18.412,18.412,0,0,1,14.8,3.626c6.315,4.793,33.178,29.5,33.178,29.5s.73,13.086-12.922,20.9L2.034-87.148Z" transform="translate(0 118.207)"/>
        </g>
      </g>
      <g id="Group_5897" data-name="Group 5897" transform="translate(31.424 371.636)">
        <rect id="Rectangle_518" data-name="Rectangle 518" width="13.984" height="24.935" transform="translate(0)" fill="#a54e4d"/>
      </g>
      <g id="Group_5898" data-name="Group 5898" transform="translate(79.914 343.891) rotate(2.051)">
        <path id="Path_5504" data-name="Path 5504" d="M.944,26.4H14.93L14.686,0,0,.026Z" transform="translate(0 0)" fill="#a54e4d"/>
      </g>
      <g id="Group_5899" data-name="Group 5899" transform="translate(28.245 155.594)">
        <path id="Path_5505" data-name="Path 5505" d="M-1.521-524.317c0,13.908,2.048,125.848,2.048,125.848-.327,4-3.931,11.381-3.149,26.754,1.06,20.881,2.471,75.757,2.471,75.757a17.748,17.748,0,0,0,15.571.32s13.229-76,15.735-96.7c2.187-18.06,5.9-78.867,5.9-78.867l7.58,70.7A86.086,86.086,0,0,0,42.9-377.354c.654,9.573,5.151,59.423,5.151,59.423s6.583,4.651,16.147,1.287c0,0,7.955-75.077,8.118-83.858.185-10.015-4.651-123.966-4.651-123.966Z" transform="translate(2.733 524.467)" fill="#2e4088"/>
      </g>
      <g id="Group_5900" data-name="Group 5900" transform="translate(28.242 387.284)">
        <path id="Path_5506" data-name="Path 5506" d="M-21.56-81.747v-2.083c1.339.608,4.448,12.963,10,18.234,4.413,4.191,10.43,9.03,11.96,13.7,1.592,4.858-8.38,7.541-12.5,6.78-4.789-.883-13.088-4.394-15.172-7.65s-3.059-8.057-4.752-10.443-5.6-5.05-6.511-7.811c-.5-1.518.092-4.841.8-7.647.648-2.577,1.352-5.408,2.2-5.166,0,.314,0,1.588,0,1.588,1.016,1.171,3.823,2.335,6.991,2.46,2.047.083,7.01-.34,6.993-1.965" transform="translate(38.727 83.845)" fill="#1a2e35"/>
      </g>
      <g id="Group_5901" data-name="Group 5901" transform="translate(75.701 365.358)">
        <path id="Path_5507" data-name="Path 5507" d="M-23.03-63.255c.728.026,1.317,1.093,2.92,2.9a30.689,30.689,0,0,0,8.227,6.165C-6.647-51.46,3.534-47.26,8.141-45.1c2.88,1.352,2.745,4.972-.231,7.034s-10.161,3.546-18.784,1.537c-4.7-1.1-10.816-5.615-14.69-5.371s-11.117.185-13.975-1.867-1.714-6.433-.907-10.2c.881-4.11,1.986-10.519,3.291-10.238v1.417c1.681,2.652,10.356,3.731,14.05,1.779Z" transform="translate(41.368 64.212)" fill="#1a2e35"/>
      </g>
      <g id="Group_5902" data-name="Group 5902" transform="translate(110.681 210.072) rotate(118.999)">
        <path id="Path_5508" data-name="Path 5508" d="M19.614,37.892S11.326,29.706,0,26.5c0,0,8.232-.266,19.614,6.2L73.679,0Z" transform="translate(0 0)" fill="#1a2e35"/>
      </g>
      <g id="Group_5903" data-name="Group 5903" transform="translate(26.525 76.131)">
        <path id="Path_5509" data-name="Path 5509" d="M-12.817-259.185s-10.944,1-10.166,21.851l2.418,33.212-.227,49.839c10.284,11.653,55.877,10.8,71.484-.933,0,0-1.607-58.982-2.662-81.678-.75-16.134-4.462-24.257-20.321-26.034l-19.5.857Z" transform="translate(23.023 262.929)" fill="#4a63c2"/>
      </g>
      <g id="Group_5905" data-name="Group 5905" transform="translate(66.944 89.985)" opacity="0.3">
        <g id="Group_5904" data-name="Group 5904" transform="matrix(0.142, 0.99, -0.99, 0.142, 6.611, 0)">
          <path id="Path_5510" data-name="Path 5510" d="M0,5.807H17.687L18.41,0l.1,6.679Z" transform="translate(0 0)"/>
        </g>
      </g>
      <g id="Group_5906" data-name="Group 5906" transform="translate(0 80.51)">
        <path id="Path_5511" data-name="Path 5511" d="M-2.538-123.921c5.674-45.616,18.723-68.293,34.634-70.958l-1.127,29.187S20.282-141.326,15.826-117.4c-2.091,11.23-4.514,30.753-3.886,40.351a7.1,7.1,0,0,0,2.032,4.475c3.136,3.2,4.088,5.966,6.195,9.577,1.649,2.826,3.351,3.827,2.913,4.5-.565.874-2.42,2.069-4.871.634a25.614,25.614,0,0,1-4.542-4.095s-.464,7.039,2.283,12.7c3.722,7.674,3.1,11.721-7.205,9.461C2.285-41.211-2.373-48.023-4.1-63.931a138.709,138.709,0,0,1-.32-17.831c.626-15.207.748-33.031,1.884-42.159" transform="translate(4.559 194.879)" fill="#a54e4d"/>
      </g>
      <g id="Group_5907" data-name="Group 5907" transform="translate(3.369 79.756)">
        <path id="Path_5512" data-name="Path 5512" d="M-42.943-140.413c-8.264-.031-15.8,1.42-21.793,12.964-5.748,11.073-10.168,34.525-12.4,42.181,0,0,12.065,7.13,23.156,6.958l7.82-27.124s5.275-12.661,3.218-34.979" transform="translate(77.138 140.414)" fill="#4a63c2"/>
      </g>
      <g id="Group_5909" data-name="Group 5909" transform="translate(3.369 79.756)" opacity="0.3">
        <g id="Group_5908" data-name="Group 5908" transform="translate(0)">
          <path id="Path_5513" data-name="Path 5513" d="M-42.943-140.413c-8.264-.031-15.8,1.42-21.793,12.964-5.748,11.073-10.168,34.525-12.4,42.181,0,0,12.065,7.13,23.156,6.958l7.82-27.124s5.275-12.661,3.218-34.979" transform="translate(77.138 140.414)"/>
        </g>
      </g>
      <g id="Group_5910" data-name="Group 5910" transform="translate(96.24 11.109) rotate(90)">
        <path id="Path_5514" data-name="Path 5514" d="M21.686,41.64c11.976,0,21.686-9.322,21.686-20.82S33.662,0,21.686,0,0,9.32,0,20.82,9.71,41.64,21.686,41.64" transform="translate(0 0)" fill="#1a2e35"/>
      </g>
      <g id="Group_5911" data-name="Group 5911" transform="translate(53.29 63.755) rotate(158.65)">
        <path id="Path_5515" data-name="Path 5515" d="M3.794,23.075S6.509,7.359,6.25,4.5A6.818,6.818,0,0,0,3.794,0L0,10.319Z" transform="translate(0 0)" fill="#1a2e35"/>
      </g>
      <g id="Group_5912" data-name="Group 5912" transform="matrix(-0.984, -0.176, 0.176, -0.984, 47.309, 44.711)">
        <path id="Path_5516" data-name="Path 5516" d="M6.047,22.743s2.357.163,4.08-4.008C11.607,15.159,10.781,7.872,6.047,0L0,.353Z" transform="translate(0 0)" fill="#1a2e35"/>
      </g>
      <g id="Group_5913" data-name="Group 5913" transform="translate(35.3 11.619)">
        <path id="Path_5517" data-name="Path 5517" d="M-17.425-69.15c-1.206.75-2.926-1.664-4.414-3.284s-6.343-3.836-8.766,1.479c-2.468,5.417,2.139,12.577,5.962,13.825,6.588,2.155,7.577-2.246,7.577-2.246l.5,24.75c8.748,13.53,28.559,13.04,21.435-.654l-.018-7.534s5.97.944,8.882.477c4.845-.781,7.892-4.764,9.363-10.225,2.361-8.773,3.256-15.857,1.254-33.112-2.2-18.914-23.315-19.11-34.721-11.633S-17.425-69.15-17.425-69.15" transform="translate(31.301 101.901)" fill="#a54e4d"/>
      </g>
      <g id="Group_5914" data-name="Group 5914" transform="translate(44.108 68.814)">
        <path id="Path_5518" data-name="Path 5518" d="M-7.3-58.994s3.077,6.653,8.567,10.733a24.269,24.269,0,0,0,10.364,4.405s-5.131,3.4-7.312,8.21-17.571-8.435-17.432-17.833c0,0,2.416-9.44,5.722-10.046Z" transform="translate(13.119 63.525)" fill="#1a2e35"/>
      </g>
      <g id="Group_5915" data-name="Group 5915" transform="translate(68.854 70.706)">
        <path id="Path_5519" data-name="Path 5519" d="M0-1.164S4.745-3.523,2.617-11.408L2.6-18.942l2.08.279a18.235,18.235,0,0,1,5,8.663c.477,2.156,1.646,13.086-.44,15.257C7.342,7.233,4.252-.577,0-1.164" transform="translate(0 18.942)" fill="#1a2e35"/>
      </g>
      <g id="Group_5916" data-name="Group 5916" transform="translate(43.97)">
        <path id="Path_5520" data-name="Path 5520" d="M-6.538,46.93c-.608.013-2.915-3.975-4.414-5.4-2.082-1.973.6-19.826.6-19.826s-2-4.438,2.008-9.032C-5.492,9.409-.729,9.045,7.4,7.715a88.147,88.147,0,0,0,9.64-1.738c3.308-.938,6.561-3.131,9.64-4.693a4.746,4.746,0,0,1,3.262-.75,3.188,3.188,0,0,1,2.074,2.359,9.447,9.447,0,0,1,.061,3.273c1.884-2.08,5.565-1.775,7.49.268a7.647,7.647,0,0,1,1.169,7.892,14.05,14.05,0,0,1-5.456,6.241C25.062,27.466,13,25.55,1.558,24.194A3.063,3.063,0,0,0-.073,24.3c-1.79.813-2.174,6.378-2.488,7.985-1.06,5.417-1.938,14.6-3.977,14.642" transform="translate(11.743 -0.448)" fill="#1a2e35"/>
      </g>
      <g id="Group_5917" data-name="Group 5917" transform="translate(38.084 15.724)">
        <path id="Path_5521" data-name="Path 5521" d="M-9.158,7.9-16.45,3.817a3.946,3.946,0,0,1,5.521-1.9A4.626,4.626,0,0,1-9.158,7.9" transform="translate(16.45 -1.419)" fill="#1a2e35"/>
      </g>
      <g id="Group_5918" data-name="Group 5918" transform="translate(51.629 60.959)">
        <path id="Path_5522" data-name="Path 5522" d="M-24.9,2.986s-10.816-2.27-14.6-4.363a12.762,12.762,0,0,1-5.227-5.386,18.128,18.128,0,0,0,2.97,6.354C-38.986,3.272-24.9,5.984-24.9,5.984Z" transform="translate(44.721 6.763)" fill="#8a3433"/>
      </g>
      <g id="Group_5919" data-name="Group 5919" transform="matrix(0.003, -1, 1, 0.003, 63.198, 43.241)">
        <path id="Path_5523" data-name="Path 5523" d="M2.344,4.335A2.253,2.253,0,0,1,0,2.176,2.27,2.27,0,0,1,2.344,0,2.255,2.255,0,0,1,4.69,2.161,2.27,2.27,0,0,1,2.344,4.335" transform="translate(0 0)" fill="#1a2e35"/>
      </g>
      <g id="Group_5920" data-name="Group 5920" transform="translate(58.873 30.017)">
        <path id="Path_5524" data-name="Path 5524" d="M-6.212-3.589-10.848-.924A2.958,2.958,0,0,1-9.767-4.768,2.535,2.535,0,0,1-6.212-3.589" transform="translate(11.158 5.101)" fill="#1a2e35"/>
      </g>
      <g id="Group_5921" data-name="Group 5921" transform="translate(70.319 57.147)">
        <path id="Path_5525" data-name="Path 5525" d="M-.194-9.421,4.754-7.487A2.573,2.573,0,0,1,1.392-5.778,2.92,2.92,0,0,1-.194-9.421" transform="translate(0.349 9.421)" fill="#8a3433"/>
      </g>
      <g id="Group_5922" data-name="Group 5922" transform="translate(84.32 30.094)">
        <path id="Path_5526" data-name="Path 5526" d="M-6.119,4.91l-4.873-2.373A2.5,2.5,0,0,1-7.538,1.151,3,3,0,0,1-6.119,4.91" transform="translate(10.992 -0.89)" fill="#1a2e35"/>
      </g>
      <g id="Group_5923" data-name="Group 5923" transform="matrix(0.003, -1, 1, 0.003, 81.637, 43.241)">
        <path id="Path_5527" data-name="Path 5527" d="M2.344,4.337A2.251,2.251,0,0,1,0,2.174,2.267,2.267,0,0,1,2.344,0,2.252,2.252,0,0,1,4.688,2.161,2.27,2.27,0,0,1,2.344,4.337" transform="translate(0 0)" fill="#1a2e35"/>
      </g>
      <g id="Group_5924" data-name="Group 5924" transform="translate(73.699 39.234)">
        <path id="Path_5528" data-name="Path 5528" d="M0-30.879.251-17.191l7.771-1.782Z" transform="translate(0 30.879)" fill="#8a3433"/>
      </g>
      <g id="Group_5925" data-name="Group 5925" transform="translate(57.794 34.155)">
        <path id="Path_5529" data-name="Path 5529" d="M0-8.177a6.458,6.458,0,0,1,6.391-6.511h.988A6.46,6.46,0,0,1,13.77-8.177,6.46,6.46,0,0,1,7.379-1.666H6.391A6.458,6.458,0,0,1,0-8.177M6.391-13.59A5.371,5.371,0,0,0,1.077-8.177,5.371,5.371,0,0,0,6.391-2.763h.988a5.37,5.37,0,0,0,5.312-5.414A5.37,5.37,0,0,0,7.379-13.59Z" transform="translate(0 14.688)" fill="#1a2e35"/>
      </g>
      <g id="Group_5926" data-name="Group 5926" transform="translate(77.282 34.155)">
        <path id="Path_5530" data-name="Path 5530" d="M0-8.177a6.458,6.458,0,0,1,6.391-6.511h.988a6.458,6.458,0,0,1,6.389,6.511A6.458,6.458,0,0,1,7.379-1.666H6.391A6.458,6.458,0,0,1,0-8.177M6.391-13.59A5.371,5.371,0,0,0,1.077-8.177,5.371,5.371,0,0,0,6.391-2.763h.988a5.371,5.371,0,0,0,5.312-5.414A5.371,5.371,0,0,0,7.379-13.59Z" transform="translate(0 14.688)" fill="#1a2e35"/>
      </g>
      <g id="Group_5927" data-name="Group 5927" transform="translate(70.565 36.523)">
        <path id="Path_5531" data-name="Path 5531" d="M-1.155,3.033A4.2,4.2,0,0,1,2.221,1.28,3.407,3.407,0,0,1,5.167,2.414l.859-.665A4.382,4.382,0,0,0,2.166.185,5.208,5.208,0,0,0-2.075,2.461Z" transform="translate(2.075 -0.176)" fill="#1a2e35"/>
      </g>
      <g id="Group_5928" data-name="Group 5928" transform="translate(47.371 39.328)">
        <rect id="Rectangle_519" data-name="Rectangle 519" width="11.016" height="1.097" transform="translate(0)" fill="#1a2e35"/>
      </g>
    </g>
  </g>
</svg>
