<svg xmlns="http://www.w3.org/2000/svg" xmlns:xlink="http://www.w3.org/1999/xlink" width="546.624" height="583.943" viewBox="0 0 546.624 583.943">
  <defs>
    <clipPath id="clip-path">
      <path id="Tracé_4156" data-name="Tracé 4156" d="M674.738,170.631s22.23,160.946,22.23,167.557,4.971,13.127,13.995,18.338c10.219,5.9,23.952,9.148,38.67,9.148s28.644-2.905,38.864-8.805c9.022-5.208,14.6-12.065,14.6-18.681s30.792-172.963,30.792-172.963L728.038,126.8Z" transform="translate(-674.738 -126.8)" clip-rule="evenodd"/>
    </clipPath>
  </defs>
  <g id="drawing-rocket" transform="translate(-280.218 -126.8)">
    <g id="Draw" transform="translate(384.806 516.073)">
      <g id="Groupe_4113" data-name="Groupe 4113" transform="translate(0 0)">
        <path id="Tracé_4037" data-name="Tracé 4037" d="M-284.362,193.072-429.356,109.36a3.746,3.746,0,0,1-1.694-2.935v-2.206a3.746,3.746,0,0,1,1.694-2.935L-252.566-.785a3.746,3.746,0,0,1,3.389,0l144.994,83.712a3.746,3.746,0,0,1,1.694,2.935v2.206A3.746,3.746,0,0,1-104.184,91L-280.972,193.072a3.749,3.749,0,0,1-3.39,0" transform="translate(431.05 1.191)" fill="#ececec"/>
      </g>
      <g id="Groupe_4114" data-name="Groupe 4114" transform="translate(0.993 0)">
        <path id="Tracé_4038" data-name="Tracé 4038" d="M-631.722-215.05-808.513-112.982a3.746,3.746,0,0,1-3.389,0l-144.992-83.712a1.033,1.033,0,0,1,0-1.957l176.79-102.069a3.746,3.746,0,0,1,3.389,0l144.994,83.712a1.033,1.033,0,0,1,0,1.957" transform="translate(957.597 301.124)" fill="#fafafa"/>
      </g>
      <g id="Groupe_4115" data-name="Groupe 4115" transform="translate(-0.007 0)">
        <path id="Tracé_4039" data-name="Tracé 4039" d="M-631.722-215.05-808.513-112.982a3.746,3.746,0,0,1-3.389,0l-144.992-83.712a1.033,1.033,0,0,1,0-1.957l176.79-102.069a3.746,3.746,0,0,1,3.389,0l144.994,83.712a1.033,1.033,0,0,1,0,1.957" transform="translate(957.597 301.124)" fill="#fafafa"/>
      </g>
      <g id="Groupe_4116" data-name="Groupe 4116" transform="translate(0.001 102.695)">
        <path id="Tracé_4040" data-name="Tracé 4040" d="M-287.652,70.139v5.544a3.58,3.58,0,0,1-1.7-.4L-434.342-8.438a3.727,3.727,0,0,1-1.7-2.935v-2.2a3.743,3.743,0,0,1,1.383-2.714c-.614.535-.509,1.265.313,1.736L-289.348,69.16a1.69,1.69,0,0,0,.444.183Z" transform="translate(436.038 16.292)" fill="#e1e1e1"/>
      </g>
      <g id="Groupe_4117" data-name="Groupe 4117" transform="translate(38.336 95.705)">
        <path id="Tracé_4041" data-name="Tracé 4041" d="M-43.9-16.076a.489.489,0,0,1-.064.218.886.886,0,0,1-.153.208l-.8.333-18.856.964a2,2,0,0,0-1.453.951c-.3.512-.136.926.357.95l17.777.909.417.333a.594.594,0,0,1-.085.207,1.036,1.036,0,0,1-.811.482L-65.5-11.436c-1.017-.052-1.343-.913-.739-1.962a4.136,4.136,0,0,1,3-1.968l19.02-.973c.208-.01.325.1.32.262" transform="translate(66.544 16.339)" fill="#375a64"/>
      </g>
      <g id="Groupe_4118" data-name="Groupe 4118" transform="translate(212.611 82.99)">
        <path id="Tracé_4042" data-name="Tracé 4042" d="M-28.095-.673a.576.576,0,0,1-.115.3,1,1,0,0,1-.818.448c-.047,0-4.709-.556-13.309-1.292-.265-.026-.329-.272-.149-.549a1.027,1.027,0,0,1,.817-.464c8.615.737,13.289,1.29,13.336,1.3a.242.242,0,0,1,.238.259" transform="translate(42.587 2.23)" fill="#375a64"/>
      </g>
      <g id="Groupe_4119" data-name="Groupe 4119" transform="translate(195.441 111.463)">
        <path id="Tracé_4043" data-name="Tracé 4043" d="M-31.035-5.88a.481.481,0,0,1-.048.187,1.077,1.077,0,0,1-.771.563c-.052.006-5.371.573-14.853,1.337-.294.024-.418-.189-.282-.464a1.071,1.071,0,0,1,.78-.549c9.463-.763,14.769-1.329,14.823-1.334.223-.024.356.085.352.259" transform="translate(47.045 6.143)" fill="#375a64"/>
      </g>
      <g id="Groupe_4120" data-name="Groupe 4120" transform="translate(54.943 79.446)">
        <path id="Tracé_4044" data-name="Tracé 4044" d="M-264.462-103.592a.537.537,0,0,1-.1.275,1.032,1.032,0,0,1-.811.476c-7.879-.484-16.118-.9-24.492-1.244-38.22-1.558-50.934-.15-62.538,1.706-12.581,2.012-44.614,13.676-47.359,15.784.32,2.1,18.962,13.692,29.246,15.67,9.485,1.825,20.6,3.2,60.676,1.526,8.759-.364,17.494-.808,25.965-1.317.291-.016.406.2.264.475a1.07,1.07,0,0,1-.786.539c-8.478.509-17.221.951-25.985,1.319-40.181,1.677-51.346.294-60.886-1.54C-380.485-71.7-402.306-84-400.813-86.592s37.531-14.982,48.815-16.787c11.667-1.865,24.442-3.283,62.762-1.72,8.379.343,16.625.761,24.509,1.246a.246.246,0,0,1,.264.261" transform="translate(400.885 105.769)" fill="#375a64"/>
      </g>
      <g id="Groupe_4121" data-name="Groupe 4121" transform="translate(92.834 86.685)">
        <path id="Tracé_4045" data-name="Tracé 4045" d="M-47.62-23.08a23.059,23.059,0,0,1-7.606,7.671,18.588,18.588,0,0,1-9.5,3.2c-3.509,0-5.832-1.7-6.223-4.54a6.035,6.035,0,0,1-.065-1.1,11.3,11.3,0,0,1,1.67-5.205,23.254,23.254,0,0,1,7.593-7.671,18.526,18.526,0,0,1,9.51-3.183c2.883,0,4.944,1.109,5.819,3.118.9,2.049.482,4.788-1.2,7.711m2.323-8.428c-.94-2.2-3.21-3.417-6.354-3.417a20.322,20.322,0,0,0-10.4,3.482,27.985,27.985,0,0,0-4.8,3.848,23.1,23.1,0,0,0-3.509,4.54,11.171,11.171,0,0,0-1.761,6.888c.444,3.118,2.988,4.971,6.81,4.959a20.2,20.2,0,0,0,10.4-3.484A25.34,25.34,0,0,0-46.6-23.08a12.22,12.22,0,0,0,1.814-5.675,6.346,6.346,0,0,0-.509-2.754" transform="translate(72.185 34.925)" fill="#375a64"/>
      </g>
      <g id="Groupe_4122" data-name="Groupe 4122" transform="translate(94.004 87.702)">
        <path id="Tracé_4046" data-name="Tracé 4046" d="M-40.421-21.1c-2.649,4.579-8.519,8.323-13.112,8.323h-.026c-4.553,0-6.131-3.731-3.5-8.3s8.519-8.309,13.1-8.323c3.144,0,4.879,1.748,4.8,4.319A8.579,8.579,0,0,1-40.421-21.1m3.745-7.711c-.875-2.009-2.935-3.118-5.819-3.118a18.534,18.534,0,0,0-9.51,3.183A23.268,23.268,0,0,0-59.6-21.079a11.321,11.321,0,0,0-1.67,5.205,6.035,6.035,0,0,0,.065,1.1c.391,2.844,2.714,4.54,6.223,4.54a18.58,18.58,0,0,0,9.5-3.2A23.046,23.046,0,0,0-37.877-21.1c1.683-2.922,2.1-5.662,1.2-7.711" transform="translate(61.272 31.933)" fill="#949dc2"/>
      </g>
      <g id="Groupe_4123" data-name="Groupe 4123" transform="translate(54.933 86.72)">
        <path id="Tracé_4047" data-name="Tracé 4047" d="M-59.666-69.547a.471.471,0,0,0-.39-.013c-8.99,2.842-29.1,9.775-30.306,11.87S-79.428-48.716-73.7-45.9a.537.537,0,0,0,.407-.014,1.16,1.16,0,0,0,.437-.3c7.015-7.691,11.484-15.443,13.286-23.04a.347.347,0,0,0,.011-.082.237.237,0,0,0-.1-.216" transform="translate(90.445 69.594)" fill="#375a64"/>
      </g>
      <g id="Groupe_4124" data-name="Groupe 4124" transform="translate(56.069 87.897)">
        <path id="Tracé_4048" data-name="Tracé 4048" d="M-55.184-62.833c-1.788,7.058-5.935,14.246-12.342,21.382-8.689-4.318-15.942-9.341-16.125-10.659,1.709-1.317,14.768-6.367,28.466-10.724" transform="translate(83.65 62.833)" fill="#eb6608"/>
      </g>
      <g id="Groupe_4125" data-name="Groupe 4125" transform="translate(212.731 83.273)">
        <path id="Tracé_4049" data-name="Tracé 4049" d="M-28.212-21.467A17.568,17.568,0,0,1-29.8-15.458a1.071,1.071,0,0,1-.756.583c-.3.044-.457-.143-.339-.42,1.866-4.508,1.531-6.365,1.4-6.8-.739-.085-3.85-.434-9.055-.91-.184,1.788-.917,4.692-3.1,9.183a1.071,1.071,0,0,1-.777.552c-.295.026-.418-.183-.288-.458,2.474-5.093,2.988-8.058,3.043-9.612v0a.777.777,0,0,1,.318-.519.9.9,0,0,1,.6-.231c6.548.59,10.084,1.008,10.118,1.012a.253.253,0,0,1,.208.125,3.14,3.14,0,0,1,.211,1.5" transform="translate(42.765 24.102)" fill="#375a64"/>
      </g>
      <g id="Groupe_4126" data-name="Groupe 4126" transform="translate(198.988 102.718)">
        <path id="Tracé_4050" data-name="Tracé 4050" d="M-37.539-24.475a.606.606,0,0,1-.132.326c-4.15,5.615-7.112,7.393-7.237,7.465a.934.934,0,0,1-.353.126c-.04,0-4.062.432-11.3,1.044-.2.017-.328-.072-.339-.23a.721.721,0,0,1,.285-.525,48.5,48.5,0,0,0,8.01-9.584,1.02,1.02,0,0,1,.817-.461c.267.024.329.272.143.552a54.091,54.091,0,0,1-7.458,9.154c5.764-.493,9.283-.852,10.118-.939a29.709,29.709,0,0,0,6.409-6.766.984.984,0,0,1,.824-.42.239.239,0,0,1,.216.257" transform="translate(56.903 26.315)" fill="#375a64"/>
      </g>
      <g id="Groupe_4127" data-name="Groupe 4127" transform="translate(171.115 111.747)">
        <path id="Tracé_4051" data-name="Tracé 4051" d="M-44.945,24.058l-13.839-.227L-66.767,2.8C-57.976.137-50.234-.345-43.754,1.371l3.616,13.811c.028.113.156.184.326.17l32.485-2.184ZM-2.861,11.892l-36.172,2.439L-42.634.577a.213.213,0,0,0-.184-.156C-49.71-1.451-58-.87-67.462,2.136a1.279,1.279,0,0,0-.525.354.533.533,0,0,0-.128.468l8.252,21.723a.243.243,0,0,0,.255.156l14.151.241a.976.976,0,0,0,.184-.028L-3.23,12.884a1.059,1.059,0,0,0,.666-.581.764.764,0,0,0,.043-.142c0-.17-.128-.284-.34-.269" transform="translate(68.13 0.652)" fill="#375a64"/>
      </g>
      <g id="Groupe_4128" data-name="Groupe 4128" transform="translate(172.478 112.764)">
        <path id="Tracé_4052" data-name="Tracé 4052" d="M-115.227-17.11-152.845-6.22l-13.839-.227-7.983-21.028c8.791-2.666,16.533-3.148,23.013-1.432l3.616,13.811c.028.113.156.184.326.17Z" transform="translate(174.667 29.913)" fill="#d5dbf1"/>
      </g>
      <g id="Groupe_4129" data-name="Groupe 4129" transform="translate(190.191 59.292)">
        <path id="Tracé_4053" data-name="Tracé 4053" d="M-83.472-39.815A.818.818,0,0,0-84-39.63L-103.55-25.791c-8.465,1.73-15.64,1.276-21.382-1.375L-92.7-48.251l14.137-.269L-53.44-37.73Zm33.8,2.368L-77.758-49.513a.51.51,0,0,0-.156-.028l-14.449.284a.829.829,0,0,0-.44.156l-33.307,21.779a1.025,1.025,0,0,0-.4.468.279.279,0,0,0,.113.369c6.012,2.978,13.641,3.531,22.7,1.645a1.209,1.209,0,0,0,.369-.17l19.454-13.782,33.435,2.34a1.021,1.021,0,0,0,.766-.411.567.567,0,0,0,.142-.34.22.22,0,0,0-.142-.241" transform="translate(126.531 49.542)" fill="#375a64"/>
      </g>
      <g id="Groupe_4130" data-name="Groupe 4130" transform="translate(191.79 60.313)">
        <path id="Tracé_4054" data-name="Tracé 4054" d="M-138.591-29.376l-30.032-2.084a.818.818,0,0,0-.525.184L-188.7-17.437c-8.465,1.73-15.64,1.276-21.382-1.375l32.23-21.085,14.137-.269Z" transform="translate(210.083 40.167)" fill="#d5dbf1"/>
      </g>
      <g id="Groupe_4131" data-name="Groupe 4131" transform="translate(176.946 90.831)">
        <path id="Tracé_4055" data-name="Tracé 4055" d="M-87.764,11.144l-41.177-6.565,48.72-6.537,32.7,6.352ZM-44.29,3.87-79.54-2.979a.29.29,0,0,0-.156,0l-52.535,7.061a1.131,1.131,0,0,0-.723.5c-.156.255-.085.468.142.51l44.4,7.075h.17l43.389-7.288a1.075,1.075,0,0,0,.709-.51.575.575,0,0,0,.071-.241.245.245,0,0,0-.213-.255" transform="translate(133.037 2.99)" fill="#375a64"/>
      </g>
      <g id="Groupe_4132" data-name="Groupe 4132" transform="matrix(-0.986, 0.165, -0.165, -0.986, 262.46, 98.215)">
        <path id="Tracé_4056" data-name="Tracé 4056" d="M0,0H40.8L80.327,13.286,31.2,11.674Z" transform="translate(0 0)" fill="#d5dbf1"/>
      </g>
      <g id="Groupe_4133" data-name="Groupe 4133" transform="translate(199.708 128.919)">
        <path id="Tracé_4057" data-name="Tracé 4057" d="M-39.707-22.03c-.752,2.694-2.169,5.076-3.119,5.317l-2.822.6L-47-15.833l-2.808.6-1.29.284-4.183.879c-2.3.482-3.786-.468-3.743-2.212a3.694,3.694,0,0,1,.156-.907c.652-2.311,3.3-4.736,6.026-5.53l4.3-1.262,1.319-.383,2.878-.837,1.375-.411,2.878-.837c.964-.227,1.149,1.758.383,4.424m-.113-5.388h-.028l-4.069,1.191-4.112,1.205-4.594,1.333c-3.332.978-6.579,3.956-7.387,6.792s1.134,4.495,4.41,3.8l4.339-.922a.393.393,0,0,0,.128-.014l4.013-.851c.014,0,.043-.014.057-.014l3.942-.837c2.141-.539,3.8-3.885,4.566-6.579a12.6,12.6,0,0,0,.5-2.921c.043-1.489-.411-2.524-1.758-2.184" transform="translate(60.19 27.483)" fill="#375a64"/>
      </g>
      <g id="Groupe_4134" data-name="Groupe 4134" transform="translate(208.336 130.145)">
        <path id="Tracé_4058" data-name="Tracé 4058" d="M-13.966-14.642A11.474,11.474,0,0,1-16.6-9.622l-2.808.6a15.165,15.165,0,0,0,2.255-4.807,8.385,8.385,0,0,0,.326-4.325l2.878-.837c.6.4.6,2.169-.014,4.353m1.39-4.764a1.145,1.145,0,0,0-.638-.624.6.6,0,0,0-.312.014l-4.112,1.205a1.106,1.106,0,0,0-.6.44c-.142.2-.142.4-.014.482a.382.382,0,0,1,.1.113c.482.581.425,2.226-.142,4.225A12.138,12.138,0,0,1-20.7-8.743a1.133,1.133,0,0,1-.184.184.727.727,0,0,0-.284.553.273.273,0,0,0,.3.2.393.393,0,0,0,.128-.014l4.013-.851c.014,0,.043-.014.057-.014a.922.922,0,0,0,.312-.156,5.194,5.194,0,0,0,1.106-1.063,14.462,14.462,0,0,0,2.425-5.019,11.571,11.571,0,0,0,.5-2.907,3.679,3.679,0,0,0-.241-1.574" transform="translate(21.171 20.045)" fill="#375a64"/>
      </g>
      <g id="Groupe_4135" data-name="Groupe 4135" transform="translate(210.096 131.196)">
        <path id="Tracé_4059" data-name="Tracé 4059" d="M-10.555-12.147a11.474,11.474,0,0,1-2.637,5.019l-2.808.6a15.165,15.165,0,0,0,2.255-4.807,8.385,8.385,0,0,0,.326-4.325l2.878-.837c.6.4.6,2.169-.014,4.353" transform="translate(16 16.5)" fill="#2e4088"/>
      </g>
      <g id="Groupe_4136" data-name="Groupe 4136" transform="translate(245.279 53.271)">
        <path id="Tracé_4060" data-name="Tracé 4060" d="M-37.016-20.282A22.541,22.541,0,0,1-39.7-16.6a27.362,27.362,0,0,1-3.474,3.389c-.964.766-1.7,1.134-2.013,1.035l-1.9-.822-.936-.411-1.9-.822h-.014l-.865-.383-2.864-1.248c-1.815-.794-1.673-3.219.34-5.53s5.161-3.687,7.189-3.119l3.19.879.95.255,2.141.581,1.021.284,2.113.581c.312.113.2.709-.3,1.645m1.12-2.623-3.006-.822-3.049-.837-3.389-.936c-2.467-.681-6.338,1.007-8.791,3.828s-2.652,5.8-.425,6.778l3.049,1.319,2.737,1.191,2.708,1.177a.014.014,0,0,1,.014.014c.5.17,1.489.057,3.389-1.432a30.262,30.262,0,0,0,3.772-3.687,24.689,24.689,0,0,0,2.907-4,4.4,4.4,0,0,0,.61-1.758.754.754,0,0,0-.525-.837" transform="translate(56.11 25.651)" fill="#375a64"/>
      </g>
      <g id="Groupe_4137" data-name="Groupe 4137" transform="translate(249.74 54.34)">
        <path id="Tracé_4061" data-name="Tracé 4061" d="M-16.77-9.034c-1.9,2.2-3.956,3.97-5.019,4.367l-1.9-.822a27.142,27.142,0,0,0,4.651-4.339,19.841,19.841,0,0,0,3.275-4.807l2.141.581c.057.752-1.262,2.836-3.148,5.019m4.268-5.8a.214.214,0,0,0-.17-.156l-3.049-.837a.762.762,0,0,0-.624.184.769.769,0,0,0-.354.553v.014c0,.057-.014.113-.014.184-.184.907-1.4,2.779-3.134,4.778a20.284,20.284,0,0,1-4.722,4.24c-.085.043-.17.085-.241.113a1.1,1.1,0,0,0-.553.482c-.1.2-.071.369.085.44l2.737,1.191a.463.463,0,0,0,.312.014,5.216,5.216,0,0,0,1.375-.624A25.56,25.56,0,0,0-15.961-8.75,18.4,18.4,0,0,0-12.6-13.77a2.5,2.5,0,0,0,.142-.723.864.864,0,0,0-.043-.34" transform="translate(25.42 15.843)" fill="#375a64"/>
      </g>
      <g id="Groupe_4138" data-name="Groupe 4138" transform="translate(251.471 55.549)">
        <path id="Tracé_4062" data-name="Tracé 4062" d="M-19.516-27c.057.752-1.262,2.836-3.148,5.019s-3.956,3.97-5.019,4.367l-1.9-.822a27.142,27.142,0,0,0,4.651-4.339,19.841,19.841,0,0,0,3.275-4.807Z" transform="translate(29.583 27.583)" fill="#2e4088"/>
      </g>
      <g id="Groupe_4139" data-name="Groupe 4139" transform="translate(96.944 90.233)">
        <path id="Tracé_4063" data-name="Tracé 4063" d="M-32.748-16.161c-2.323,4.031-7.475,7.305-11.507,7.305s-5.414-3.261-3.093-7.28,7.475-7.292,11.494-7.305,5.415,3.261,3.105,7.28m-2.518-8.3c-4.579.014-10.463,3.745-13.1,8.323s-1.058,8.3,3.5,8.3h.027c4.593,0,10.463-3.745,13.112-8.323a8.575,8.575,0,0,0,1.265-3.979c.078-2.571-1.656-4.319-4.8-4.319" transform="translate(49.641 24.458)" fill="#375a64"/>
      </g>
    </g>
    <g id="Character-2" transform="translate(611.422 244.073)">
      <g id="Groupe_4140" data-name="Groupe 4140" transform="translate(110.437 88.426)">
        <path id="Tracé_4064" data-name="Tracé 4064" d="M-55.429-138.628c-5.926,7.872-17.859,21.984-23.784,29.422a21.635,21.635,0,0,0-4.807,13.74c.054,3.705,1.061,6.8,4.683,5.219,2.615-1.14,4.279-2.5,8.1-6.263C-67.8-99.9-47.943-125-47.943-125s1.631-14.059,6.764-15.617-1.853-5.787-1.853-5.787c-2.167.289-6.439-.136-12.4,7.78" transform="translate(84.023 146.408)" fill="#b0494c"/>
      </g>
      <g id="Groupe_4141" data-name="Groupe 4141" transform="matrix(-0.659, 0.752, -0.752, -0.659, 66.397, 284.393)">
        <path id="Tracé_4065" data-name="Tracé 4065" d="M0,0H56.251a1.712,1.712,0,0,1,1.042,3.07L12.39,37.49Z" transform="translate(0 0)" fill="#ffaaa8"/>
      </g>
      <g id="Groupe_4142" data-name="Groupe 4142" transform="translate(26.33 313.389)">
        <path id="Tracé_4066" data-name="Tracé 4066" d="M-.008,4.818A1.711,1.711,0,0,0,2.987,6.057L10.224-2.2A9.478,9.478,0,0,1,1.311-6.45L.783-7.258Z" transform="translate(0.012 7.258)" fill="#2e4088"/>
      </g>
      <g id="Groupe_4143" data-name="Groupe 4143" transform="translate(30.031 49.733)">
        <path id="Tracé_4067" data-name="Tracé 4067" d="M-175.8-699.9l-1.987,4.813-2.422,5.8L-266.488-480.63c2.049,6,6.85,10.583,12.413,13.547,8.455,4.542,18.7,5.361,23.929,1.831l85.64-207.122,4.587-11.1c-3.369,7.02-39.165-9.34-35.882-16.428" transform="translate(266.488 699.901)" fill="#8193d5"/>
      </g>
      <g id="Groupe_4144" data-name="Groupe 4144" transform="translate(108.456 68.026)">
        <path id="Tracé_4068" data-name="Tracé 4068" d="M-8.974-91.475-13.4-80.723c-1.385,3.076,4.431,7.813,11.81,11.664,9.788,5.14,22.327,8.713,24.17,4.644l3.275-7.921,1.12-2.851c-1.843,4.071-14.388.5-24.174-4.637-7.066-3.7-12.713-8.245-11.887-11.3l.011-.033a.707.707,0,0,1,.1-.315" transform="translate(13.603 91.475)" fill="#ececec"/>
      </g>
      <g id="Groupe_4145" data-name="Groupe 4145" transform="translate(153.954 65.113) rotate(97.812)">
        <path id="Tracé_4069" data-name="Tracé 4069" d="M11.256,40.8C18.764,43.032,30.019,5.192,22.513,2.959L11.256,0C18.764,2.233,7.508,40.065,0,37.832Z" transform="translate(0 0)" fill="#8193d5"/>
      </g>
      <g id="Groupe_4146" data-name="Groupe 4146" transform="translate(116.097 49.733)">
        <path id="Tracé_4070" data-name="Tracé 4070" d="M-8.957-98.917l-4.408,10.61c-3.224,6.98,31.329,23.051,35.7,16.916a1.589,1.589,0,0,0,.23-.377l4.357-10.721c-3.369,7.02-39.165-9.34-35.882-16.428" transform="translate(13.577 98.917)" fill="#ececec"/>
      </g>
      <g id="Groupe_4148" data-name="Groupe 4148" transform="translate(29.329 64.361)" opacity="0.1">
        <g id="Groupe_4147" data-name="Groupe 4147" transform="translate(0)">
          <path id="Tracé_4071" data-name="Tracé 4071" d="M-237.829-720.106l4.587-11.1c-1.523,3.172-9.669,1.564-17.838-1.8h0L-340.53-512.036l-19.983,41.375,37.066-42.311-.024-.01a0,0,0,0,1,0,0Z" transform="translate(360.513 733.005)"/>
        </g>
      </g>
      <g id="Groupe_4149" data-name="Groupe 4149" transform="translate(120.504 0)">
        <path id="Tracé_4072" data-name="Tracé 4072" d="M-36.618-186.964l-18.676,45.032c-1.407,3.03,4.323,7.753,11.626,11.614,9.775,5.173,22.338,8.838,24.257,4.814.023-.01.023-.01.035-.043l17.954-43.321C3.6-178.625-13.712-190.9-26.155-191.623c-4.654-.3-8.587,1.007-10.463,4.659" transform="translate(55.507 191.665)" fill="#ffaaa8"/>
      </g>
      <g id="Groupe_4150" data-name="Groupe 4150" transform="translate(138.766 19.548)">
        <path id="Tracé_4073" data-name="Tracé 4073" d="M-34.571-145.142l-17.833,44.8c7.273,2.995,14.5,4.591,17.073,2.67a4.321,4.321,0,0,0,.506-.508,2.216,2.216,0,0,0,.254-.352l18.5-44.648c-2.354,5.357-18.5-1.964-18.5-1.964" transform="translate(52.404 145.142)" fill="#ff9090"/>
      </g>
      <g id="Groupe_4151" data-name="Groupe 4151" transform="translate(212.845 316.259) rotate(163.453)">
        <path id="Tracé_4074" data-name="Tracé 4074" d="M.37,0H11.04V15.536L0,16Z" transform="translate(0 0)" fill="#c76668"/>
      </g>
      <g id="Groupe_4152" data-name="Groupe 4152" transform="translate(190.032 309.808)">
        <path id="Tracé_4075" data-name="Tracé 4075" d="M-20.8-85.888l-.434-1.462c-.852.716-1.12,9.765-3.507,14.975-2.613,5.7-5.384,9.764-6.544,12.326-1.551,3.426,4.508,5.245,11.213,1.94,3.328-1.642,8.655-5.931,9.5-8.669s.556-6.323,1.3-8.366,3.039-4.763,3.132-6.9c.051-1.174-1.078-3.378-2.181-5.2-1.011-1.667-2.116-3.5-2.684-3.151.065.221.332,1.116.332,1.116A10.528,10.528,0,0,1-14.96-85.1c-1.571.79-5.3.993-5.839-.787" transform="translate(31.529 90.434)" fill="#1a2e35"/>
      </g>
      <g id="Groupe_4153" data-name="Groupe 4153" transform="translate(158.504 143.91)">
        <path id="Tracé_4076" data-name="Tracé 4076" d="M-55.533-478.621c6.164,7.911,7.275,16.082,5.93,39.214s-1.768,42.476-1.429,43.773,7.6,10.591,9.954,19.047,8.691,56.42,8.691,56.42-3.592,5.275-11.624,5.275c0,0-25.731-70.074-27.46-75.282s-12.708-60.011-12.708-60.011l1.667-30.939Z" transform="translate(84.179 481.125)" fill="#949dc2"/>
      </g>
      <g id="Groupe_4154" data-name="Groupe 4154" transform="translate(140.132 33.653)">
        <path id="Tracé_4077" data-name="Tracé 4077" d="M-39.123,44.637h8.549A20.182,20.182,0,0,0-10.393,24.455,24.456,24.456,0,0,0-34.849,0,24.456,24.456,0,0,0-59.3,24.455,20.181,20.181,0,0,0-39.123,44.637" transform="translate(59.304)" fill="#1a2e35"/>
      </g>
      <g id="Groupe_4155" data-name="Groupe 4155" transform="translate(147.324 312.287) rotate(-179.246)">
        <rect id="Rectangle_511" data-name="Rectangle 511" width="10.669" height="15.539" transform="translate(0 0)" fill="#c76668"/>
      </g>
      <g id="Groupe_4156" data-name="Groupe 4156" transform="translate(135.158 142.235)">
        <path id="Tracé_4078" data-name="Tracé 4078" d="M-9.486-353.17c.939-10.677,3.224-29.185,3.224-29.185l27.311-1.6c4.425,6.893,2.5,18.362,1.3,28.72L6.728-294.086c.316,2.925,3.013,9.136,0,24.876-3.365,17.581-8.35,42.778-8.35,42.778s-7.783,3.925-11.624-.347c0,0-2.065-57.15-.62-72.359,1.564-16.458,3.738-46.724,4.38-54.032" transform="translate(14.379 383.959)" fill="#949dc2"/>
      </g>
      <g id="Groupe_4157" data-name="Groupe 4157" transform="translate(118.4 305.353)">
        <path id="Tracé_4079" data-name="Tracé 4079" d="M-35.526-80.379l.02-1.526c-1.027.431-3.973,8.991-7.8,13.255-4.193,4.668-8.044,7.721-9.913,9.821-2.5,2.81,2.744,6.35,10.128,5.188,3.665-.577,10.028-3.087,11.648-5.451s2.41-5.872,3.725-7.6,4.318-3.643,5.044-5.655c.4-1.106-.026-3.545-.537-5.608-.469-1.894-.978-3.974-1.625-3.807,0,.231-.014,1.164-.014,1.164a10.549,10.549,0,0,1-5.333,2.71c-1.734.286-5.354-.628-5.341-2.488" transform="translate(53.852 81.904)" fill="#1a2e35"/>
      </g>
      <g id="Groupe_4158" data-name="Groupe 4158" transform="translate(141.819 87.838)">
        <path id="Tracé_4080" data-name="Tracé 4080" d="M-9.109-95.616c-.672,6.233-4.7,33.33-4.7,33.33C6.779-51.3,32.31-58.58,36.219-63.107,32.679-74.758,28.87-81.391,25.958-84.493l4.435-17.124s-9.916-10.582-1.08-27.243L18.4-129.75l-16.03-.471c-3.834.214-6.565.584-6.565.584a101.606,101.606,0,0,0-7.507,15.247c-1.618,4.142-3.331,10.194,2.6,18.773" transform="translate(13.808 130.221)" fill="#f0f0f0"/>
      </g>
      <g id="Groupe_4159" data-name="Groupe 4159" transform="translate(143.384 44.304)">
        <path id="Tracé_4081" data-name="Tracé 4081" d="M-10.627-165.388c-2.583,1.526-5.775,8.024-5.46,21.643.267,11.543,4.009,14.395,5.887,15.217s5.5.322,9.025-.265v6.928s-4.869,5.653-4.563,8.831,7.03,3.928,11.586.824,8.394-9.151,8.394-9.151l-.081-15.929s2.074,2.013,5.59-1.061c2.9-2.537,3.879-6.816,1.618-9.112a5.055,5.055,0,0,0-8.044,1.6s-5.618.2-13.1-3.9a21.029,21.029,0,0,1-10.853-15.624" transform="translate(16.109 165.388)" fill="#c76668"/>
      </g>
      <g id="Groupe_4160" data-name="Groupe 4160" transform="translate(159.265 61.678) rotate(92.716)">
        <path id="Tracé_4082" data-name="Tracé 4082" d="M1.507,2.9A1.475,1.475,0,0,0,3.016,1.456,1.484,1.484,0,0,0,1.507,0,1.475,1.475,0,0,0,0,1.446,1.485,1.485,0,0,0,1.507,2.9" transform="translate(0 0)" fill="#1a2e35"/>
      </g>
      <g id="Groupe_4161" data-name="Groupe 4161" transform="translate(152.534 72.833)">
        <path id="Tracé_4083" data-name="Tracé 4083" d="M-6.536-7.588-9.908-6.511A1.738,1.738,0,0,0-7.716-5.3a1.852,1.852,0,0,0,1.18-2.284" transform="translate(9.908 7.588)" fill="#b0494c"/>
      </g>
      <g id="Groupe_4162" data-name="Groupe 4162" transform="translate(144.099 55.744)">
        <path id="Tracé_4084" data-name="Tracé 4084" d="M-.566,3.587,2.37,1.551a1.716,1.716,0,0,0-2.439-.5,1.878,1.878,0,0,0-.5,2.537" transform="translate(0.858 -0.741)" fill="#1a2e35"/>
      </g>
      <g id="Groupe_4163" data-name="Groupe 4163" transform="translate(148.041 60.629) rotate(92.716)">
        <path id="Tracé_4085" data-name="Tracé 4085" d="M1.509,2.9A1.475,1.475,0,0,0,3.017,1.456,1.486,1.486,0,0,0,1.509,0,1.475,1.475,0,0,0,0,1.448,1.488,1.488,0,0,0,1.509,2.9" transform="translate(0 0)" fill="#1a2e35"/>
      </g>
      <g id="Groupe_4164" data-name="Groupe 4164" transform="translate(147.088 61.168)">
        <path id="Tracé_4086" data-name="Tracé 4086" d="M-9.362-25.679l-.231,8.739-4.6-1.425Z" transform="translate(14.192 25.679)" fill="#b0494c"/>
      </g>
      <g id="Groupe_4165" data-name="Groupe 4165" transform="translate(170.859 75.2) rotate(79.389)">
        <path id="Tracé_4087" data-name="Tracé 4087" d="M3.292,13.375C3.5,9.638,2.748,1.727,0,0A7.823,7.823,0,0,1,3.292,3.342c1.5,2.6,2.272,10.46,2.272,10.46Z" transform="translate(0 0)" fill="#b0494c"/>
      </g>
      <g id="Groupe_4166" data-name="Groupe 4166" transform="translate(188.275 56.688)">
        <path id="Tracé_4088" data-name="Tracé 4088" d="M-1.151,6.534,4.04,2.73A3.124,3.124,0,0,0-.408,1.922a3.382,3.382,0,0,0-.743,4.613" transform="translate(1.745 -1.32)" fill="#1a2e35"/>
      </g>
      <g id="Groupe_4167" data-name="Groupe 4167" transform="translate(153.659 200.877) rotate(-101.239)">
        <path id="Tracé_4089" data-name="Tracé 4089" d="M0,9.822H22.873A48.351,48.351,0,0,1,30.619,0a33.71,33.71,0,0,0-8.571,6.25Z" transform="translate(0 0)" fill="#2e4088"/>
      </g>
      <g id="Groupe_4168" data-name="Groupe 4168" transform="matrix(0.893, 0.45, -0.45, 0.893, 188.593, 58.169)">
        <path id="Tracé_4090" data-name="Tracé 4090" d="M6.748,19.237C1.436,19.237,0,14.931,0,9.618S1.436,0,6.748,0a9.619,9.619,0,1,1,0,19.237" transform="translate(0 0)" fill="#1a2e35"/>
      </g>
      <g id="Groupe_4169" data-name="Groupe 4169" transform="translate(96.939 89.199)">
        <path id="Tracé_4091" data-name="Tracé 4091" d="M-24.523.662c2.384.613,4.688.418,7.974,1.55,2.9,1,4.108,1.354,6.955,1.18C-6.506,3.2,1.567-.625,8.731-4.967c8.452-5.123,17.208-14.447,20.4-18.966,6.48-9.175,13.659-23.643,17.089-29.175s4.608-6.345,4.608-6.345c4.478.19,8.926,4.284,5.95,15.229-2.463,9.055-9.092,20.783-17.245,30.642A87.1,87.1,0,0,1,17.774,4.907c-7.569,4.628-14.218,6.922-22.63,9.74-2.293.767-3.8,1.9-8,3.885a19.516,19.516,0,0,1-5.378,1.979,24.8,24.8,0,0,1-7.105.024,16.786,16.786,0,0,1-8.166-3.5,10.574,10.574,0,0,1-3.026-3.854A7.035,7.035,0,0,1-36.9,8.357a1.937,1.937,0,0,1,.476-.871,2.333,2.333,0,0,1,1.716-.4c3.372.115,6.99.743,10.341.5,2.832-.2,4.8-.736,4.4-1.136s-2.06-.166-4.335-1.144c-2.174-.934-3.749-3.145-3.128-4.323s.525-.942,2.908-.329" transform="translate(37.173 59.454)" fill="#c76668"/>
      </g>
      <g id="Groupe_4170" data-name="Groupe 4170" transform="translate(83.548 105.965)">
        <path id="Tracé_4092" data-name="Tracé 4092" d="M-20.137-41.168a18.662,18.662,0,0,1,10.43-1.307c2.839.468,2.853,9.947-6.283,12.94-5.944,1.948-9.512,1.089-11.43,5.979,0,0-3.85-.513-2.976-5.979a30.551,30.551,0,0,1,7.243-15.152c2.62-3.093,2.795-5.7,4.079-4.815,1.453,1,.783,3.871.783,3.871Z" transform="translate(30.525 49.677)" fill="#c76668"/>
      </g>
    </g>
    <g id="Character-1" transform="translate(280.218 268.456)">
      <g id="Groupe_4171" data-name="Groupe 4171" transform="translate(34.085 91.015)">
        <path id="Tracé_4093" data-name="Tracé 4093" d="M-44.472-130.213c6.324,7.558,17.859,21.984,23.784,29.422a21.627,21.627,0,0,1,4.807,13.74c-.054,3.705-1.059,6.8-4.683,5.219-2.615-1.14-4.279-2.5-8.1-6.263-3.436-3.386-15.6-18.011-15.6-18.011s-9.327-24.543-14.46-26.1a23.755,23.755,0,0,0-8.691-1.158c6.195-2.114,14.917-6.437,22.941,3.152" transform="translate(67.413 136.189)" fill="#ff9090"/>
      </g>
      <g id="Groupe_4172" data-name="Groupe 4172" transform="translate(73.552 102.568) rotate(119.98)">
        <path id="Tracé_4094" data-name="Tracé 4094" d="M9.43,43.658C2.139,40.552-2.15,30.635,1.1,21.908,3.485,15.517,9.43.143,9.43.143s8.618-1.553,17,5.58Z" transform="translate(0 0)" fill="#e1e1e1"/>
      </g>
      <g id="Groupe_4173" data-name="Groupe 4173" transform="translate(30.705 0)">
        <path id="Tracé_4095" data-name="Tracé 4095" d="M-235.762,221.576l.009,0S-253.561,157.02-278.68,96.221c-24.906-60.286-63.326-121.438-69.753-130.671l-.077-.112-.1-.145-.014.007a4.854,4.854,0,0,0-3.882-1.954,4.877,4.877,0,0,0-4.875,4.876,4.849,4.849,0,0,0,.136,1.1l-.008,0s17.085,83.485,41.6,142.772S-257.589,230.7-257.589,230.7l0,0c.8,1.361,2.439,2.338,4.811,2.65,5.307.7,12.251-2.178,15.509-6.425,1.48-1.93,1.935-3.807,1.5-5.351" transform="translate(357.379 36.654)" fill="#687dcc"/>
      </g>
      <g id="Groupe_4175" data-name="Groupe 4175" transform="translate(30.705 0.001)" opacity="0.1">
        <g id="Groupe_4174" data-name="Groupe 4174">
          <path id="Tracé_4096" data-name="Tracé 4096" d="M0-716.521a4.849,4.849,0,0,0,.136,1.1l-.009,0s17.085,83.484,41.6,142.771C58.215-532.767,78.792-492.873,90.5-471.027l12.842-8.142S1.065-719.557,4.875-721.4A4.875,4.875,0,0,0,0-716.521" transform="translate(0 721.396)"/>
        </g>
      </g>
      <g id="Groupe_4176" data-name="Groupe 4176" transform="translate(127.648 258.232)">
        <path id="Tracé_4097" data-name="Tracé 4097" d="M-5.522-186.028c-2.056,10.42-5.635,23.794.881,41.185,7.395,19.738,29.709,25.177,40.527,25.2,14.995.03,24.478-5.565,24.478-5.565S52.6-128.179,49.4-139.385a37.464,37.464,0,0,1-1.17-7.465c-.688-9.066-.988-18.946-8.913-29.914-10.125-14.015-23.006-18.4-23.006-18.4Z" transform="translate(8.371 195.163)" fill="#ececec"/>
      </g>
      <g id="Groupe_4177" data-name="Groupe 4177" transform="translate(134.044 306.543)">
        <path id="Tracé_4098" data-name="Tracé 4098" d="M-99.6-50.64a37.553,37.553,0,0,1-1.168-7.464c-.017.071-2.708,11.833-9.326,11.141-6.637-.692-8.515-7.745-17.306-7.746-10.71,0-14.4,8.994-23.577,4.147,9.2,15.44,28.126,19.644,37.862,19.664,14.993.031,24.476-5.564,24.476-5.564S-96.395-39.433-99.6-50.64" transform="translate(150.975 58.104)" fill="#687dcc"/>
      </g>
      <g id="Groupe_4179" data-name="Groupe 4179" transform="translate(127.648 267.366)" opacity="0.1">
        <g id="Groupe_4178" data-name="Groupe 4178" transform="translate(0 0)">
          <path id="Tracé_4099" data-name="Tracé 4099" d="M-57.735,3.472C-75.067-8.548-71.8-40.548-71.3-45.7l-13.371-1.266c-2.056,10.422-5.635,23.794.881,41.185C-76.393,13.96-54.079,19.4-43.26,19.422c14.995.031,24.478-5.565,24.478-5.565S-37.445,17.541-57.735,3.472" transform="translate(87.517 46.963)"/>
        </g>
      </g>
      <g id="Groupe_4180" data-name="Groupe 4180" transform="translate(116.027 229.348)">
        <path id="Tracé_4100" data-name="Tracé 4100" d="M-28.051,28.205c.8,1.357,2.445,2.328,4.814,2.64,5.306.7,12.25-2.178,15.508-6.425,1.48-1.927,1.945-3.807,1.514-5.35C-8.726,10.111-11.633.392-14.793-9.813c.622,1.978.055,4.415-1.866,6.918C-20.774,2.468-29.541,6.1-36.242,5.218c-3.2-.421-5.356-1.8-6.279-3.706,5.534,10.393,10.745,20.106,14.47,26.694" transform="translate(42.521 9.813)" fill="#375a64"/>
      </g>
      <g id="Groupe_4181" data-name="Groupe 4181" transform="translate(116.027 240.672)">
        <path id="Tracé_4101" data-name="Tracé 4101" d="M-34.928-81.1a22.161,22.161,0,0,1-11.739,2.151c-3.2-.423-5.356-1.8-6.279-3.706C-47.41-72.265-42.2-62.552-38.476-55.964c.8,1.357,2.446,2.328,4.814,2.64A17.189,17.189,0,0,0-25.1-54.7l.162-.267Z" transform="translate(52.946 82.658)" fill="#2b454e"/>
      </g>
      <g id="Groupe_4182" data-name="Groupe 4182" transform="translate(55.358 36.06) rotate(90)">
        <path id="Tracé_4102" data-name="Tracé 4102" d="M15.379,30.758A15.379,15.379,0,1,0,0,15.379,15.379,15.379,0,0,0,15.379,30.758" transform="translate(0 0)" fill="#1a2e35"/>
      </g>
      <g id="Groupe_4183" data-name="Groupe 4183" transform="translate(3.152 311.661)">
        <rect id="Rectangle_512" data-name="Rectangle 512" width="10.833" height="18.545" transform="translate(0 0)" fill="#ffaaa8"/>
      </g>
      <g id="Groupe_4184" data-name="Groupe 4184" transform="matrix(0.999, 0.034, -0.034, 0.999, 41.252, 291.047)">
        <path id="Tracé_4103" data-name="Tracé 4103" d="M.135,19.633H10.968L10.834,0H0Z" transform="translate(0 0)" fill="#ffaaa8"/>
      </g>
      <g id="Groupe_4185" data-name="Groupe 4185" transform="translate(0 164.659)">
        <path id="Tracé_4104" data-name="Tracé 4104" d="M-7.488-452.146c0,10.344-1.337,73.031-1.337,73.031-.252,2.978-3.044,8.465-2.44,19.9.821,15.529,2.164,55.9,2.164,55.9s5.079,5.035,12.251,0c0,0,9.808-55.85,11.749-71.24,1.694-13.432,4.569-49.921,4.569-49.921L29.5-381.523s-1.767,10.1-2.155,17.222,1.839,44.427,1.839,44.427a11.839,11.839,0,0,0,11.789.449s8.7-56.278,9.819-62.715-7.617-70.006-7.617-70.006Z" transform="translate(11.351 452.146)" fill="#687dcc"/>
      </g>
      <g id="Groupe_4186" data-name="Groupe 4186" transform="translate(3.862 86.347)">
        <path id="Tracé_4105" data-name="Tracé 4105" d="M-20.176-250.545a11.846,11.846,0,0,0-9.517,9.1,38.169,38.169,0,0,0-.89,8.225v57.511c7.6,8.264,34.08,12.115,50.667,0,0,0-.325-50.8-1.567-59.145-2.16-14.5-9.1-19.67-16.071-19.129l-16.72,2.392Z" transform="translate(30.583 254.024)" fill="#f0f0f0"/>
      </g>
      <g id="Groupe_4187" data-name="Groupe 4187" transform="matrix(-0.926, 0.377, -0.377, -0.926, 22.679, 77.366)">
        <path id="Tracé_4106" data-name="Tracé 4106" d="M2.944,17.387S5.052,5.6,4.851,3.444A5.3,5.3,0,0,0,2.944,0L0,7.694Z" transform="translate(0 0)" fill="#1a2e35"/>
      </g>
      <g id="Groupe_4188" data-name="Groupe 4188" transform="translate(18.03 63.238) rotate(-169.436)">
        <path id="Tracé_4107" data-name="Tracé 4107" d="M4.715,17.062A5.769,5.769,0,0,0,9.1,14.537C10.734,12.1,8.4,5.853,4.715,0L0,.332Z" transform="translate(0 0)" fill="#1a2e35"/>
      </g>
      <g id="Groupe_4189" data-name="Groupe 4189" transform="translate(8.67 38.379)">
        <path id="Tracé_4108" data-name="Tracé 4108" d="M-20.99-76.6c-.942.562-2.284-1.246-3.446-2.46s-4.95-2.874-6.84,1.109c-1.926,4.058,1.669,9.422,4.652,10.358,5.141,1.614,5.913-1.683,5.913-1.683l.393,18.545s3.366,8.237,12.482,9.472S-.6-47.535-3.591-51.219l-.014-5.645a32.389,32.389,0,0,0,6.931.356c3.78-.584,6.16-3.568,7.307-7.66,1.842-6.574,2.541-11.882.978-24.81C9.9-103.148-6.584-103.3-15.485-97.693S-20.99-76.6-20.99-76.6" transform="translate(31.818 101.135)" fill="#ffaaa8"/>
      </g>
      <g id="Groupe_4190" data-name="Groupe 4190" transform="translate(15.435 32.312)">
        <path id="Tracé_4109" data-name="Tracé 4109" d="M-7.875,34.476c-.474.009-2.273-2.978-3.446-4.044-1.624-1.477.471-14.856.471-14.856s-1.56-3.325,1.567-6.766C-7.059,6.362-3.342,6.09,3,5.093c3.329-.523,8.377-1.456,11.7-2.074,3.97-.737,7.257-1.519,10.06.917a7.046,7.046,0,0,1,1.947,7.888,6.481,6.481,0,0,1-1.127,1.683,6.559,6.559,0,0,1-2.857,1.968S21,17.011,14.975,17.744s-15.4-.14-16.686-.316c-1.747-.238-2.118,1.453-3.06,6.079-.827,4.058-1.513,10.938-3.1,10.969" transform="translate(11.938 -2.287)" fill="#1a2e35"/>
      </g>
      <g id="Groupe_4191" data-name="Groupe 4191" transform="translate(10.841 41.788)">
        <path id="Tracé_4110" data-name="Tracé 4110" d="M-11.033,6.238l-5.692-3.056a3.137,3.137,0,0,1,4.309-1.425,3.4,3.4,0,0,1,1.382,4.481" transform="translate(16.725 -1.385)" fill="#1a2e35"/>
      </g>
      <g id="Groupe_4192" data-name="Groupe 4192" transform="translate(21.413 75.345)">
        <path id="Tracé_4111" data-name="Tracé 4111" d="M-29.989.705s-8.44-1.7-11.39-3.268A9.727,9.727,0,0,1-45.458-6.6a13.3,13.3,0,0,0,2.317,4.761c2.158,2.758,13.153,4.79,13.153,4.79Z" transform="translate(45.458 6.6)" fill="#ff9090"/>
      </g>
      <g id="Groupe_4193" data-name="Groupe 4193" transform="translate(31.465 62.553) rotate(-89.832)">
        <path id="Tracé_4112" data-name="Tracé 4112" d="M1.757,3.385A1.718,1.718,0,0,1,0,1.7,1.732,1.732,0,0,1,1.757,0,1.719,1.719,0,0,1,3.514,1.687a1.733,1.733,0,0,1-1.757,1.7" transform="translate(0 0)" fill="#1a2e35"/>
      </g>
      <g id="Groupe_4194" data-name="Groupe 4194" transform="translate(29.2 53.288)">
        <path id="Tracé_4113" data-name="Tracé 4113" d="M-7.484-3.845l-3.619,2a2.168,2.168,0,0,1,.844-2.88,2.016,2.016,0,0,1,2.775.883" transform="translate(11.344 4.977)" fill="#1a2e35"/>
      </g>
      <g id="Groupe_4195" data-name="Groupe 4195" transform="translate(35.997 72.491)">
        <path id="Tracé_4114" data-name="Tracé 4114" d="M-.235-9.192,3.626-7.743A2.026,2.026,0,0,1,1-6.464,2.158,2.158,0,0,1-.235-9.192" transform="translate(0.356 9.192)" fill="#ff9090"/>
      </g>
      <g id="Groupe_4196" data-name="Groupe 4196" transform="translate(46.637 52.427)">
        <path id="Tracé_4115" data-name="Tracé 4115" d="M-6.4,4.226-9.7,1.686a2,2,0,0,1,2.868-.441A2.189,2.189,0,0,1-6.4,4.226" transform="translate(9.696 -0.825)" fill="#1a2e35"/>
      </g>
      <g id="Groupe_4197" data-name="Groupe 4197" transform="translate(45.532 62.072) rotate(-89.832)">
        <path id="Tracé_4116" data-name="Tracé 4116" d="M1.757,3.385A1.718,1.718,0,0,1,0,1.7,1.732,1.732,0,0,1,1.757,0,1.719,1.719,0,0,1,3.514,1.687a1.732,1.732,0,0,1-1.757,1.7" transform="translate(0 0)" fill="#1a2e35"/>
      </g>
      <g id="Groupe_4198" data-name="Groupe 4198" transform="translate(40.304 58.721)">
        <path id="Tracé_4117" data-name="Tracé 4117" d="M0-29.892.556-19.719l5.31-1.811Z" transform="translate(0 29.892)" fill="#ff9090"/>
      </g>
      <g id="Groupe_4199" data-name="Groupe 4199" transform="translate(0.687 323.298)">
        <path id="Tracé_4118" data-name="Tracé 4118" d="M-25.778-79.667v-1.55c1.037.452,3.446,9.641,7.743,13.561,3.417,3.117,8.078,6.717,9.263,10.191,1.234,3.613-6.491,5.608-9.683,5.044-3.709-.657-10.138-3.268-11.753-5.69s-2.369-5.992-3.68-7.767-4.335-3.755-5.044-5.809c-.39-1.127.072-3.6.62-5.686.5-1.916,1.046-4.021,1.7-3.843,0,.234,0,1.181,0,1.181.787.872,2.962,1.737,5.417,1.832,1.585.06,5.429-.254,5.417-1.463" transform="translate(39.076 81.227)" fill="#1a2e35"/>
      </g>
      <g id="Groupe_4200" data-name="Groupe 4200" transform="translate(37.447 307.081)">
        <path id="Tracé_4119" data-name="Tracé 4119" d="M-27.537-61.585c.562.02,1.019.812,2.262,2.157A23.663,23.663,0,0,0-18.9-54.844c4.055,2.03,11.942,5.154,15.511,6.762,2.23,1,2.125,3.7-.179,5.231s-7.87,2.637-14.552,1.143c-3.64-.815-8.377-4.176-11.376-3.994s-8.611.138-10.826-1.388-1.327-4.786-.7-7.586c.682-3.056,1.66-7.732,2.671-7.524l-.033.961c1.3,1.972,7.933,2.778,10.793,1.326Z" transform="translate(41.742 62.207)" fill="#1a2e35"/>
      </g>
      <g id="Groupe_4201" data-name="Groupe 4201" transform="matrix(-0.47, 0.883, -0.883, -0.47, 55.28, 188.674)">
        <path id="Tracé_4120" data-name="Tracé 4120" d="M14.724,19.874A40.121,40.121,0,0,0,0,10.625s6.179.007,14.724,5.263L37.643,0Z" transform="translate(0 0)" fill="#1a2e35"/>
      </g>
      <g id="Groupe_4202" data-name="Groupe 4202" transform="translate(4.952 92.175)">
        <path id="Tracé_4121" data-name="Tracé 4121" d="M-167.7.7c-2.384.613-4.688.418-7.974,1.548-2.9,1-4.108,1.356-6.955,1.181-3.087-.19-11.161-4.017-18.324-8.359-8.452-5.123-17.208-14.447-20.4-18.966-6.48-9.175-13.659-23.643-17.089-29.175s-6.684-6.114-10.5-5.954c-4.476.189-7.344,4.291-3.409,12.81a173.965,173.965,0,0,0,20.593,32.669A87.128,87.128,0,0,0-210,4.944c7.569,4.628,14.218,6.922,22.63,9.74,2.293.767,3.8,1.9,8,3.884a19.466,19.466,0,0,0,5.38,1.981,24.792,24.792,0,0,0,7.1.024,16.786,16.786,0,0,0,8.166-3.5,10.574,10.574,0,0,0,3.026-3.854,7.039,7.039,0,0,0,.366-4.829,1.94,1.94,0,0,0-.476-.869,2.333,2.333,0,0,0-1.716-.4c-3.37.115-6.99.743-10.341.5-2.832-.2-4.8-.736-4.4-1.136s2.06-.166,4.335-1.144c2.174-.934,3.749-3.145,3.128-4.323S-165.316.086-167.7.7" transform="translate(254.207 59.049)" fill="#ffaaa8"/>
      </g>
      <g id="Groupe_4203" data-name="Groupe 4203" transform="translate(3.861 90.602)">
        <path id="Tracé_4122" data-name="Tracé 4122" d="M-15.164-119.422c-3.456.169-7.9,2.272-7.821,8.153S-13.867-88.3-6.9-78.541c0,0,10.864-.7,16.577-8.888,0,0-10.157-16.152-12.915-21.309-2.47-4.621-6.9-10.929-11.931-10.684" transform="translate(22.987 119.429)" fill="#e1e1e1"/>
      </g>
      <g id="Groupe_4204" data-name="Groupe 4204" transform="translate(90.019 106.754)">
        <path id="Tracé_4123" data-name="Tracé 4123" d="M-22.6-41.946a17.535,17.535,0,0,0-9.984-1.109c-2.839.466-2.853,9.947,6.283,12.94,5.943,1.947,9.512,1.088,11.43,5.978,0,0,3.848-.512,2.976-5.978a30.552,30.552,0,0,0-7.244-15.153c-2.619-3.093-2.793-5.694-4.079-4.814-1.453,1-1.242,4.043-1.242,4.043Z" transform="translate(34.252 50.256)" fill="#ffaaa8"/>
      </g>
    </g>
    <g id="Paint-Pot" transform="translate(571.742 394.434)">
      <g id="Groupe_4205" data-name="Groupe 4205" transform="translate(6.702 27.651)">
        <path id="Tracé_4124" data-name="Tracé 4124" d="M-101.769-171.672l-52.045-.708-.452,42.5h0c-.043,3.847,2.456,7.721,7.505,10.711,10.1,5.977,26.576,6.155,36.805.4,5.16-2.905,7.735-6.766,7.731-10.647Z" transform="translate(154.267 172.379)" fill="#949dc2"/>
      </g>
      <g id="Groupe_4206" data-name="Groupe 4206" transform="matrix(-0.509, 0.861, -0.861, -0.509, 63.014, 24.208)">
        <path id="Tracé_4125" data-name="Tracé 4125" d="M18.4,45.015c10.165,5.865,18.4,1.106,18.406-10.627S28.57,8.381,18.4,2.514,0,1.4,0,13.141,8.241,39.15,18.4,45.015" transform="translate(0 0)" fill="#2e4088"/>
      </g>
      <g id="Groupe_4207" data-name="Groupe 4207" transform="translate(9.422 15.189)">
        <path id="Tracé_4126" data-name="Tracé 4126" d="M-92.162-23.706a6.458,6.458,0,0,1-.369,2.039c-.793,2.435-2.915,4.7-6.229,6.569-4.615,2.576-10.759,3.965-17.329,3.908-6.541-.085-12.658-1.587-17.217-4.276-3.2-1.9-5.3-4.19-6.032-6.569a6.433,6.433,0,0,1-.367-2.179c.057-3.172,2.378-6.23,6.6-8.58,4.587-2.606,10.759-3.993,17.3-3.908,6.569.057,12.686,1.585,17.245,4.275,4.162,2.464,6.427,5.55,6.4,8.722" transform="translate(139.704 36.707)" fill="#1a2e35"/>
      </g>
      <g id="Groupe_4208" data-name="Groupe 4208" transform="translate(9.789 19.383)">
        <path id="Tracé_4127" data-name="Tracé 4127" d="M-90.736-19.942c-.793,2.435-2.917,4.7-6.229,6.569-4.615,2.576-10.761,3.965-17.33,3.908-6.541-.085-12.656-1.587-17.217-4.276-3.2-1.9-5.295-4.19-6.03-6.569.793-2.435,2.917-4.7,6.229-6.541,4.587-2.6,10.761-3.993,17.3-3.935,6.569.084,12.685,1.614,17.244,4.3,3.2,1.9,5.268,4.162,6.032,6.541" transform="translate(137.542 30.789)" fill="#687dcc"/>
      </g>
      <g id="Groupe_4209" data-name="Groupe 4209" transform="matrix(-1, -0.011, 0.011, -1, 46.269, 49.331)">
        <path id="Tracé_4128" data-name="Tracé 4128" d="M2.053,5.025C.92,5.68,0,5.149,0,3.841A4.544,4.544,0,0,1,2.053.282C3.186-.375,4.108.155,4.106,1.466A4.553,4.553,0,0,1,2.053,5.025" transform="translate(0 0)" fill="#1a2e35"/>
      </g>
      <g id="Groupe_4210" data-name="Groupe 4210" transform="translate(0 30.935)">
        <path id="Tracé_4129" data-name="Tracé 4129" d="M-13.707-77.684c-2.86,5.635-8.552,19.057-1.161,24.522.312.227.6.425.906.622l-.028,2.718c-.736-.452-1.5-.963-2.236-1.5-11.044-8.183,1.415-29.194,1.954-30.072a1.047,1.047,0,0,1,.622-.482Z" transform="translate(20.778 81.875)" fill="#e1e1e1"/>
      </g>
      <g id="Groupe_4211" data-name="Groupe 4211" transform="translate(6.787 45.532)">
        <path id="Tracé_4130" data-name="Tracé 4130" d="M-74.543-55.633c-.312.651-8.353,16.027-21.577,19.114a19.324,19.324,0,0,1-4.559.537A23,23,0,0,1-113-39.832l.028-2.718c5.465,3.794,10.958,5.1,16.337,3.851,12.2-2.86,20.02-17.839,20.077-17.981a1.132,1.132,0,0,1,1.529-.481,1.1,1.1,0,0,1,.482,1.529" transform="translate(112.996 57.289)" fill="#e1e1e1"/>
      </g>
    </g>
    <g id="Pencils" transform="translate(414.475 126.8)">
      <g id="Groupe_4212" data-name="Groupe 4212" transform="translate(16.115 211.392)">
        <path id="Tracé_4131" data-name="Tracé 4131" d="M-230.792-403.959H-349.846l13.312,109.588h.052c.608,6.344,5.056,12.587,13.449,17.432,18.1,10.449,47.437,10.449,65.534,0,8.394-4.845,12.842-11.088,13.451-17.432H-244Z" transform="translate(349.846 403.959)" fill="#2e4088"/>
      </g>
      <g id="Groupe_4213" data-name="Groupe 4213" transform="translate(143.871 202.107) rotate(120)">
        <path id="Tracé_4132" data-name="Tracé 4132" d="M42.128,103.046C18.861,89.613,0,56.945,0,30.077S18.861-7.68,42.128,5.754s42.129,46.1,42.129,72.969S65.4,116.48,42.128,103.046" transform="translate(0 0)" fill="#949dc2"/>
      </g>
      <g id="Groupe_4214" data-name="Groupe 4214" transform="translate(23.029 183.906)">
        <path id="Tracé_4133" data-name="Tracé 4133" d="M-102.093,54.969c-14.718,0-28.452-3.25-38.67-9.15-9.024-5.209-14-11.721-14-18.337s4.97-13.123,13.994-18.334C-130.547,3.25-116.813,0-102.093,0S-73.64,3.25-63.421,9.149c9.022,5.211,13.994,11.722,13.994,18.334S-54.4,40.61-63.421,45.818c-10.219,5.9-23.953,9.151-38.673,9.151" transform="translate(154.758 0)" fill="#1a2e35"/>
      </g>
      <g id="Groupe_4243" data-name="Groupe 4243" transform="translate(0 0)">
        <g id="Groupe_4242" data-name="Groupe 4242" clip-path="url(#clip-path)">
          <g id="Groupe_4215" data-name="Groupe 4215" transform="translate(75.953 99.027)">
            <path id="Tracé_4134" data-name="Tracé 4134" d="M-60.2-609.984l-.679,4.32-.839,5.211L-91.254-413.084c2.85,4.5,7.671,7.3,12.8,8.63,7.8,2.05,16.328.71,19.9-3.2l29.316-185.986,1.57-9.965c-1.374,6.395-33.825.055-32.533-6.379" transform="translate(91.254 609.984)" fill="#8193d5"/>
          </g>
          <g id="Groupe_4216" data-name="Groupe 4216" transform="translate(102.826 115.467)">
            <path id="Tracé_4135" data-name="Tracé 4135" d="M-2.98-57.592l-1.5,9.65c-.53,2.783,5.151,5.512,11.935,7.21,9,2.279,19.946,2.738,20.654-.949l1.122-7.112.356-2.549c-.708,3.687-11.654,3.234-20.656.956-6.5-1.635-12-4.24-11.928-6.9l0-.03a.563.563,0,0,1,.017-.276" transform="translate(4.518 57.592)" fill="#ececec"/>
          </g>
          <g id="Groupe_4217" data-name="Groupe 4217" transform="translate(137.175 105.068) rotate(84.306)">
            <path id="Tracé_4136" data-name="Tracé 4136" d="M9.456,34.273c6.306,1.876,15.762-29.911,9.456-31.787L9.456,0C15.763,1.876,6.307,33.659,0,31.783Z" transform="translate(0 0)" fill="#4a63c2"/>
          </g>
          <g id="Groupe_4218" data-name="Groupe 4218" transform="translate(105.452 99.027)">
            <path id="Tracé_4137" data-name="Tracé 4137" d="M-3.016-65.275l-1.519,9.531C-5.8-49.408,25.578-43.062,27.947-48.931a1.358,1.358,0,0,0,.115-.353L29.517-58.9C28.143-52.5-4.308-58.84-3.016-65.275" transform="translate(4.572 65.275)" fill="#ececec"/>
          </g>
          <g id="Groupe_4220" data-name="Groupe 4220" transform="translate(86.701 105.405)" opacity="0.1">
            <g id="Groupe_4219" data-name="Groupe 4219">
              <path id="Tracé_4138" data-name="Tracé 4138" d="M-99.389-659.506l1.57-9.965c-.621,2.89-7.592,3.175-14.924,2.029h0L-142.453-469.4l-8.206,37.717,21.975-41.833-.023,0h0Z" transform="translate(150.658 669.471)"/>
            </g>
          </g>
          <g id="Groupe_4221" data-name="Groupe 4221" transform="translate(106.969 52.409)">
            <path id="Tracé_4139" data-name="Tracé 4139" d="M-12.517-137.67l-6.419,40.448c-.554,2.751,5.052,5.485,11.775,7.2,9,2.308,19.98,2.837,20.759-.827.016-.013.016-.013.02-.041l6.167-38.908c2.185-8.956-14.364-15.587-24.668-13.736-3.861.666-6.817,2.507-7.633,5.859" transform="translate(18.974 143.841)" fill="#ffaaa8"/>
          </g>
          <g id="Groupe_4222" data-name="Groupe 4222" transform="translate(10.09 89.913)">
            <path id="Tracé_4140" data-name="Tracé 4140" d="M-53.573,202.271l-.6-4.332-.75-5.225L-81.208,4.862c2.429,2.5,8.749,3.844,15.628,3.1C-57.563,7.1-50.178,3.813-48.417,0L-22.33,186.466l1.4,9.992c-1.262-6.419-33.818-.642-32.638,5.814" transform="translate(81.208)" fill="#2e4088"/>
          </g>
          <g id="Groupe_4223" data-name="Groupe 4223" transform="translate(10.093 57.825)">
            <path id="Tracé_4141" data-name="Tracé 4141" d="M-26.017-127.942c-4.757,1.235-6.452.241-6.452.241l-6.969,36.706c3.8,5.452,13.061,6.592,20.9,4.316l-.242-1.831Z" transform="translate(39.438 127.942)" fill="#ffaaa8"/>
          </g>
          <g id="Groupe_4224" data-name="Groupe 4224" transform="translate(25.804 55.94)">
            <path id="Tracé_4142" data-name="Tracé 4142" d="M-33.147,33.864l-.023,0h0l0,.031a.273.273,0,0,0,.017-.035L-50.246-.1Z" transform="translate(50.246 0.104)" fill="#fafafa"/>
          </g>
          <g id="Groupe_4225" data-name="Groupe 4225" transform="translate(21.655 47.701)">
            <path id="Tracé_4143" data-name="Tracé 4143" d="M-8.043,8.24-12.192,0Z" transform="translate(12.192)" fill="#e1e1e1"/>
          </g>
          <g id="Groupe_4226" data-name="Groupe 4226" transform="translate(17.063 46.908)">
            <path id="Tracé_4144" data-name="Tracé 4144" d="M-3.675-31.043l-1.9,9.988S-3.949-19.918.881-21.3L-.978-31.422a1.432,1.432,0,0,0-1.894-.658,1.4,1.4,0,0,0-.8,1.037" transform="translate(5.571 32.213)" fill="#375a64"/>
          </g>
          <g id="Groupe_4228" data-name="Groupe 4228" transform="translate(30.996 89.945)" opacity="0.1">
            <g id="Groupe_4227" data-name="Groupe 4227" transform="translate(0 0)">
              <path id="Tracé_4145" data-name="Tracé 4145" d="M-73.611,157.072-99.694-29.363c-1.846,4.447-6.537,7.59-11.889,9.143L-87.1,164.774h0c7.352-1.018,14.315-.613,14.887,2.289Z" transform="translate(111.583 29.363)"/>
            </g>
          </g>
          <g id="Groupe_4229" data-name="Groupe 4229" transform="translate(23.515 55.941)">
            <path id="Tracé_4146" data-name="Tracé 4146" d="M-37.55,7.133l0-.031h0l.023,0-17.1-33.968a4.528,4.528,0,0,1-2.289,1.884l7.239,39.433.242,1.831c5.353-1.553,10.042-4.7,11.889-9.144" transform="translate(56.921 26.871)" fill="#ff9090"/>
          </g>
          <g id="Groupe_4230" data-name="Groupe 4230" transform="translate(21.655 47.7)">
            <path id="Tracé_4147" data-name="Tracé 4147" d="M-3.6,10.125A3.463,3.463,0,0,0-1.315,8.241L-5.463,0Z" transform="translate(5.463)" fill="#2b454e"/>
          </g>
          <g id="Groupe_4231" data-name="Groupe 4231" transform="translate(58.721 72.931)">
            <path id="Tracé_4148" data-name="Tracé 4148" d="M-12.4-632.921h-.007s-6.328,50.854-6.389,101.2C-18.856-481.8-9.617-427.313-7.78-418.9c.007.034.014.067.023.1s.02.1.028.132h.011a3.717,3.717,0,0,0,2.171,2.52,3.733,3.733,0,0,0,4.876-2.018,3.74,3.74,0,0,0,.225-.818h.007S11.95-483.014,12-532.112,5.707-632.978,5.707-632.978h0a4.776,4.776,0,0,0-2.625-3.283,14.2,14.2,0,0,0-12.846,0,4.726,4.726,0,0,0-2.632,3.342" transform="translate(18.797 637.798)" fill="#eb6608"/>
          </g>
          <g id="Groupe_4233" data-name="Groupe 4233" transform="translate(71.97 92.485)" opacity="0.1">
            <g id="Groupe_4232" data-name="Groupe 4232" transform="translate(0 0)">
              <path id="Tracé_4149" data-name="Tracé 4149" d="M-9.45,191.824a3.8,3.8,0,0,0,.227-.818h.007S3.172,126.978,3.216,77.882C3.247,44.857.392,10.624-1.481-8.25L-12.947-6.258s1.855,199.915-1.378,200.1a3.731,3.731,0,0,0,4.875-2.018" transform="translate(14.325 8.25)"/>
            </g>
          </g>
          <g id="Groupe_4234" data-name="Groupe 4234" transform="translate(53.3 28.669)">
            <path id="Tracé_4150" data-name="Tracé 4150" d="M-40.4,35.653C-38.813,32.687-30.143,16.6-32.932,3.5a14.269,14.269,0,0,1-5.085-1.075c-6.215-2.576-5.476-8.113-9.965-10.548-4.469-2.425-9.811,5.078-9.856,5.141h0c-2.172,6.612-4.855,13.684-2.467,23.762,3.051,12.875,10.873,19.748,10.873,19.748l18.114-.058c1.127-1.69,2.375-3.485,3.621-5.446-1.246,1.961-2.494,3.756-3.621,5.446Z" transform="translate(61.241 8.609)" fill="#f0f0f0"/>
          </g>
          <g id="Groupe_4236" data-name="Groupe 4236" transform="translate(74.141 40.53)">
            <g id="Groupe_4235" data-name="Groupe 4235" transform="translate(0)">
              <path id="Tracé_4151" data-name="Tracé 4151" d="M-39.282-92.582c-3.847-4.639-7.8-2.72-12.794-2.9,2.788,13.1-5.882,29.191-7.47,32.157l9.082,4.814c1.127-1.69,2.375-3.484,3.621-5.446q.468-.736.933-1.5c.618-1.024,1.229-2.094,1.816-3.219a46.8,46.8,0,0,0,2.428-5.453,42.059,42.059,0,0,0,1.287-4.122,44.536,44.536,0,0,0,1.361-9.631,25.892,25.892,0,0,0-.265-4.7" transform="translate(59.546 95.726)" fill="#949dc2"/>
            </g>
          </g>
          <g id="Groupe_4237" data-name="Groupe 4237" transform="translate(54.47 15.298)">
            <path id="Tracé_4152" data-name="Tracé 4152" d="M-77.393,28.113q-.179-1.212-.462-2.371c-.02-.078-.044-.153-.064-.231-.147-.584-.323-1.153-.508-1.717-.072-.217-.139-.438-.217-.652-.061-.17-.13-.333-.194-.5q-.172-.457-.359-.9c-.152-.359-.308-.715-.474-1.065-.377-.8-.79-1.572-1.231-2.323s-.912-1.476-1.407-2.178-1.012-1.378-1.548-2.029A40.578,40.578,0,0,0-95.92,4.36c-.342-.179-.682-.354-1.01-.513-.1-.047-.19-.089-.285-.133-.4-.189-.8-.369-1.167-.523A44.846,44.846,0,0,0-105.809.821c-1.136-.255-2.213-.449-3.219-.6s-1.941-.245-2.795-.311c-.425-.031-.831-.055-1.214-.072s-.746-.026-1.083-.03c-.675-.009-1.255,0-1.728.024-.949.041-1.469.115-1.469.115s4.614,4.374,3.593,13.235a28.623,28.623,0,0,1-1.36,5.618c.045-.064,5.387-7.566,9.856-5.141,4.489,2.435,3.75,7.97,9.965,10.548a14.3,14.3,0,0,0,5.086,1.075c4.993.179,8.947-1.74,12.794,2.9,0-.024-.007-.047-.011-.071" transform="translate(117.317 0.192)" fill="#eb6608"/>
          </g>
          <g id="Groupe_4239" data-name="Groupe 4239" transform="translate(54.47 15.298)" opacity="0.1">
            <g id="Groupe_4238" data-name="Groupe 4238" transform="translate(0 0)">
              <path id="Tracé_4153" data-name="Tracé 4153" d="M0-82.808S14.273-79.943,24.493-64.05a19.62,19.62,0,0,1,2.647,6.576c4.994.179,8.947-1.741,12.794,2.9,0-.024-.007-.047-.011-.071q-.179-1.212-.462-2.371c-.018-.078-.043-.153-.064-.231-.147-.584-.323-1.153-.508-1.717-.072-.217-.139-.438-.216-.652-.061-.17-.13-.333-.194-.5-.116-.3-.235-.605-.36-.9-.152-.359-.308-.715-.474-1.065-.377-.8-.79-1.572-1.231-2.323s-.912-1.476-1.407-2.178S34-67.964,33.46-68.615A40.578,40.578,0,0,0,21.4-78.4c-.342-.179-.682-.354-1.01-.513-.1-.047-.19-.089-.285-.133-.4-.189-.8-.369-1.167-.523a44.846,44.846,0,0,0-7.427-2.369c-1.136-.255-2.212-.449-3.219-.6S6.348-82.78,5.5-82.845q-.64-.047-1.215-.072c-.384-.017-.744-.026-1.082-.03-.675-.009-1.256,0-1.73.024C.522-82.882,0-82.808,0-82.808" transform="translate(0 82.95)"/>
            </g>
          </g>
          <g id="Groupe_4240" data-name="Groupe 4240" transform="translate(62.71 72.93)">
            <path id="Tracé_4154" data-name="Tracé 4154" d="M-39.766-61.593a4.787,4.787,0,0,0-2.629-3.277,14.2,14.2,0,0,0-12.846,0,4.744,4.744,0,0,0-2.639,3.339c-.851,7.07-1.643,14.792-2.4,22.934.139-1.581,1.253-3.138,3.345-4.345,4.481-2.585,11.745-2.583,16.223,0,2.141,1.238,3.258,2.842,3.352,4.461-.866-8.97-1.7-17.363-2.406-23.112" transform="translate(60.279 66.408)" fill="#375a64"/>
          </g>
          <g id="Groupe_4241" data-name="Groupe 4241" transform="translate(73.348 72.932)">
            <path id="Tracé_4155" data-name="Tracé 4155" d="M0,2.808a16.969,16.969,0,0,1,8.93,1.92c2.14,1.236,3.258,2.842,3.351,4.461-.866-8.97-1.7-17.364-2.406-23.112A4.783,4.783,0,0,0,7.246-17.2,13.133,13.133,0,0,0,.793-18.738L.6-18.6Z" transform="translate(0 18.738)" fill="#2b454e"/>
          </g>
        </g>
      </g>
      <g id="Groupe_4244" data-name="Groupe 4244" transform="translate(124.615 65.244)">
        <path id="Tracé_4157" data-name="Tracé 4157" d="M-28.933,30.862c.016-.013.016-.013.02-.041l6.167-38.908A6.857,6.857,0,0,0-22.575-9.3C-25.112-2.6-37.892-6-37.892-6l-5.967,38.885c7.338,1.146,14.311.873,14.925-2.019" transform="translate(43.858 9.3)" fill="#ff9090"/>
      </g>
    </g>
  </g>
</svg>
