<svg xmlns="http://www.w3.org/2000/svg" xmlns:xlink="http://www.w3.org/1999/xlink" width="217.937" height="202.548" viewBox="0 0 217.937 202.548">
  <defs>
    <filter id="e-commerce-hand-shadow" x="0" y="0" width="217.937" height="195.301" filterUnits="userSpaceOnUse">
      <feOffset dx="4" dy="-2" input="SourceAlpha"/>
      <feGaussianBlur stdDeviation="5" result="blur"/>
      <feFlood flood-opacity="0.161"/>
      <feComposite operator="in" in2="blur"/>
      <feComposite in="SourceGraphic"/>
    </filter>
    <clipPath id="clip-path">
      <path id="Path_2397" data-name="Path 2397" d="M1192.162,634.794c.088.038.175.08.262.123.308.152.623.318.938.5.369.214.738.444,1.1.692a20.4,20.4,0,0,1,2.23,1.762c5.052,4.561,9.028,12.157,10.261,19.6a29.448,29.448,0,0,1,.356,3.179c.029.5.043,1,.043,1.493q0,.809-.053,1.568a15.331,15.331,0,0,1-1.811,6.67,7.406,7.406,0,0,1-7.729,3.936,12.144,12.144,0,0,1-4.4-1.6c-.252-.145-.5-.3-.747-.46l-.191-.126c-7.046-4.691-12.662-15.5-13.031-25.138-.016-.339-.021-.674-.021-1.006a19.712,19.712,0,0,1,.7-5.457c1.086-3.75,3.355-6.1,6.3-6.665a7.522,7.522,0,0,1,1.43-.134A10.37,10.37,0,0,1,1192.162,634.794Z" transform="translate(-1179.372 -633.738)" clip-rule="evenodd"/>
    </clipPath>
  </defs>
  <g id="E-Commerce_ERP" data-name="E-Commerce / ERP" transform="translate(-560.003 -751.768)">
    <path id="e-commerce-erp-alveole" d="M199.735,0,121.754,44.945v89.892l77.981,44.945,77.981-44.945V44.946Z" transform="translate(466.677 774.534)" fill="#eaebf1"/>
    <g id="e-commerce-erp-logo" transform="translate(571.003 768.768)">
      <g transform="matrix(1, 0, 0, 1, -11, -17)" filter="url(#e-commerce-hand-shadow)">
        <path id="e-commerce-hand-shadow-2" data-name="e-commerce-hand-shadow" d="M99.1,152.9l-14.422,8.327a4.524,4.524,0,0,1-4.1,0L2.049,115.892a3.849,3.849,0,0,1,0-6.8L51.97,80.267a7.655,7.655,0,0,0-1.453-.547c-1.052-.074-2.03.723-5.094,3.007a11.853,11.853,0,0,1-9.233,1.926c-2.5-.476-2.2-2.234.7-4.411s7.164-7.426,8.728-8.449A58.549,58.549,0,0,1,55,67.579a20.255,20.255,0,0,1,6.49-1.153V3.914A4.393,4.393,0,0,1,63.414.438a4.393,4.393,0,0,1,3.97.074l76.765,44.319V35L132.359,28.2,157.621,1.945h0L160.989,0l26.947,56.4-3.367,1.944-10.107-5.835v60.287c0,12.113-3.369,23.337-16.842,31.115L120.569,165.3h0Zm21.47,8.506h0l-18.1-10.451h0Z" transform="translate(11 17)" fill="none"/>
      </g>
      <g id="e-commerce-ERP" transform="translate(0 0)">
        <g id="e-commerce-hand" transform="translate(0 0)">
          <g id="Device" transform="translate(0 0)">
            <g id="Group_2109" data-name="Group 2109" transform="translate(0 75.463)">
              <path id="Path_2309" data-name="Path 2309" d="M144.119-335.079a4.393,4.393,0,0,1-2.049,3.4L84.676-298.541a4.527,4.527,0,0,1-4.1,0L2.049-343.881A4.394,4.394,0,0,1,0-347.282a4.393,4.393,0,0,1,2.048-3.4L59.443-383.82a4.528,4.528,0,0,1,4.1,0l78.532,45.34a4.392,4.392,0,0,1,2.048,3.4" transform="translate(0 384.31)" fill="#2e4088"/>
            </g>
            <g id="Group_2110" data-name="Group 2110" transform="translate(82.627 121.425)">
              <path id="Path_2310" data-name="Path 2310" d="M-638.23-10.142v4.432a4.179,4.179,0,0,0,2.048-.487l57.4-33.138a4.392,4.392,0,0,0,2.048-3.4A4.415,4.415,0,0,0-578.577-46c.917.658.847,1.623-.208,2.233l-57.4,33.137a4.181,4.181,0,0,1-2.048.492" transform="translate(638.23 46.004)" fill="#576087"/>
            </g>
            <g id="Group_2111" data-name="Group 2111" transform="translate(61.491)">
              <path id="Path_2311" data-name="Path 2311" d="M64.6,116.812a4.391,4.391,0,0,0,1.921-3.475V44.846A4.528,4.528,0,0,0,64.477,41.3L-14.054-4.042a4.393,4.393,0,0,0-3.97-.073A4.393,4.393,0,0,0-19.946-.64V67.851A4.528,4.528,0,0,0-17.9,71.4l78.532,45.34a4.392,4.392,0,0,0,3.97.073" transform="translate(19.946 4.554)" fill="#79819f"/>
            </g>
            <g id="Group_2112" data-name="Group 2112" transform="translate(142.313 47.383)">
              <path id="Path_2312" data-name="Path 2312" d="M-58.621,68.533a4.4,4.4,0,0,0,3.728-.052,4.388,4.388,0,0,0,1.921-3.473V-3.485a4.133,4.133,0,0,0-.6-2.015l-3.842,2.214v0a4.2,4.2,0,0,1,.6,2.015V67.228c0,1.211-.79,1.755-1.807,1.306" transform="translate(58.621 5.5)" fill="#61667a"/>
            </g>
            <g id="Group_2113" data-name="Group 2113" transform="translate(61.491 2.451)">
              <path id="Path_2313" data-name="Path 2313" d="M82.629-676.883v68.491c0,1.306-.917,1.836-2.049,1.183L2.049-652.548A4.526,4.526,0,0,1,0-656.1v-68.491c0-1.306.917-1.836,2.049-1.182L80.58-680.43a4.528,4.528,0,0,1,2.049,3.548" transform="translate(0 726.05)" fill="#2e4088"/>
            </g>
            <g id="Group_2114" data-name="Group 2114" transform="translate(1.2 75.463)">
              <path id="Path_2314" data-name="Path 2314" d="M132.065-300.811,74.67-267.674a4.527,4.527,0,0,1-4.1,0l-78.532-45.34a1.249,1.249,0,0,1,0-2.366l57.394-33.136a4.527,4.527,0,0,1,4.1,0l78.532,45.34a1.249,1.249,0,0,1,0,2.365" transform="translate(8.806 349.005)" fill="#d5dbf1"/>
            </g>
            <g id="Group_2115" data-name="Group 2115" transform="translate(64.026 8.002)">
              <path id="Path_2315" data-name="Path 2315" d="M64.185-602.693l-75.715-43.7c-.678-.392-1.229-.074-1.229.71v59.29a2.717,2.717,0,0,0,1.229,2.129l75.715,43.7c.679.392,1.229.074,1.229-.71v-59.289a2.716,2.716,0,0,0-1.229-2.128" transform="translate(12.758 646.563)" fill="#d5dbf1"/>
            </g>
            <g id="Group_2117" data-name="Group 2117" transform="translate(64.026 8.002)" opacity="0.9">
              <g id="Group_2116" data-name="Group 2116">
                <path id="Path_2316" data-name="Path 2316" d="M64.185-602.693l-75.715-43.7c-.678-.392-1.229-.074-1.229.71v59.29a2.717,2.717,0,0,0,1.229,2.129l75.715,43.7c.679.392,1.229.074,1.229-.71v-59.289a2.716,2.716,0,0,0-1.229-2.128" transform="translate(12.758 646.563)" fill="#fff"/>
              </g>
            </g>
            <g id="Group_2118" data-name="Group 2118" transform="translate(56.314 79.554)">
              <path id="Path_2317" data-name="Path 2317" d="M74.692,5.244,1.8-36.84a2.262,2.262,0,0,0-2.048,0l-3.728,2.153a.624.624,0,0,0,0,1.183l72.9,42.078a2.266,2.266,0,0,0,2.049,0l3.717-2.146a.624.624,0,0,0,0-1.183" transform="translate(4.403 37.085)" fill="#3c466b"/>
            </g>
            <g id="Group_2119" data-name="Group 2119" transform="translate(28.046 85.426)">
              <path id="Path_2318" data-name="Path 2318" d="M93.356-109.644,21.008-151.4a2.266,2.266,0,0,0-2.049,0l-22.932,13.24a.624.624,0,0,0,0,1.183l72.265,41.7a2.275,2.275,0,0,0,2.051,0l23.011-13.189a.622.622,0,0,0,0-1.179" transform="translate(4.397 151.649)" fill="#d5dbf1"/>
            </g>
            <g id="Group_2120" data-name="Group 2120" transform="translate(29.416 86.888)">
              <path id="Path_2319" data-name="Path 2319" d="M-333.315-304.793a.4.4,0,0,1-.364.008l-2.282-1.318c-.1-.056-.091-.15.013-.21l2.639-1.524a.4.4,0,0,1,.364-.008l2.282,1.318c.1.056.091.15-.013.21Zm-27.157-16.8a.4.4,0,0,1-.364.008l-2.282-1.317c-.1-.056-.091-.151.013-.211l.7-.405a.4.4,0,0,1,.364-.008l2.283,1.318c.1.056.091.151-.013.21Zm-20.554,7.813-2.282-1.318c-.1-.056-.092-.15.012-.21l2.639-1.523a.4.4,0,0,1,.364-.008l2.282,1.318c.1.056.092.15-.013.21l-2.639,1.523a.4.4,0,0,1-.364.008m8.339-8.463a.4.4,0,0,1-.364.008l-2.282-1.318c-.1-.056-.092-.15.012-.21l2.639-1.524a.4.4,0,0,1,.365-.007l2.282,1.318c.1.056.092.15-.013.21Zm5.544-3.2a.4.4,0,0,1-.364.007l-2.282-1.318c-.1-.056-.091-.15.013-.21l.7-.406a.4.4,0,0,1,.364-.007l2.283,1.318c.1.056.091.15-.013.21Zm10.007,5.778a.4.4,0,0,1-.364.007l-2.282-1.318c-.1-.055-.091-.15.013-.21l.7-.406a.4.4,0,0,1,.364-.008l2.282,1.318c.1.056.092.15-.013.21Zm17.15,11.02a.4.4,0,0,1-.364.007l-2.282-1.317c-.1-.056-.091-.15.013-.21l2.639-1.523a.4.4,0,0,1,.364-.008l2.282,1.318c.1.056.091.15-.013.21Zm3.336,1.926a.4.4,0,0,1-.364.007l-2.282-1.318c-.1-.056-.091-.15.013-.21l2.639-1.523a.4.4,0,0,1,.364-.007l2.282,1.318c.1.056.091.15-.013.21Zm-14.08-8.129a.4.4,0,0,1-.364.007l-2.282-1.318c-.1-.056-.091-.15.013-.21l2.639-1.524a.4.4,0,0,1,.364-.008l2.282,1.318c.1.056.091.15-.013.21Zm7.409,4.277a.4.4,0,0,1-.364.008l-2.283-1.318c-.1-.056-.091-.15.014-.21l2.639-1.524a.4.4,0,0,1,.364-.007l2.282,1.318c.1.056.091.15-.013.21Zm-10.745-6.2a.4.4,0,0,1-.364.008l-2.282-1.318c-.1-.056-.092-.15.013-.21l2.639-1.524a.4.4,0,0,1,.364-.007l2.283,1.318c.1.056.091.15-.013.21Zm6.671,3.852a.4.4,0,0,1-.364.008l-2.283-1.318c-.1-.056-.091-.15.013-.21l2.639-1.523a.4.4,0,0,1,.364-.008l2.282,1.318c.1.056.092.15-.013.21Zm-16.412-10.594a.4.4,0,0,1-.364.008l-2.282-1.318c-.1-.056-.091-.15.013-.21l.7-.406a.405.405,0,0,1,.364-.007l2.282,1.318c.1.056.091.15-.013.21Zm15.261,28.49-2.283-1.318c-.1-.056-.091-.15.013-.21l2.639-1.524a.406.406,0,0,1,.365-.008l2.282,1.318c.1.056.092.15-.013.21l-2.639,1.524a.4.4,0,0,1-.364.007m6.671,3.852-2.283-1.318c-.1-.056-.091-.15.013-.21l2.64-1.524a.4.4,0,0,1,.364-.007l2.282,1.318c.1.056.092.15-.013.21l-2.639,1.523a.4.4,0,0,1-.364.007m-3.336-1.926-2.282-1.317c-.1-.056-.092-.15.013-.21l2.639-1.524a.4.4,0,0,1,.364-.008l2.282,1.318c.1.056.091.15-.013.21l-2.639,1.524a.4.4,0,0,1-.364.007m13.343,7.7-2.282-1.318c-.1-.056-.091-.15.013-.21l2.639-1.523a.4.4,0,0,1,.364-.008l2.282,1.318c.1.056.091.15-.013.21L-331.5-285.4a.4.4,0,0,1-.364.007m-6.671-3.852-2.282-1.318c-.1-.056-.091-.15.013-.21l2.639-1.524a.4.4,0,0,1,.364-.007l2.282,1.318c.1.056.091.15-.013.21l-2.639,1.523a.4.4,0,0,1-.364.008m3.336,1.926-2.282-1.318c-.1-.056-.091-.15.013-.21l2.639-1.524a.4.4,0,0,1,.364-.008l2.282,1.318c.1.056.091.15-.013.21l-2.639,1.524a.4.4,0,0,1-.364.007m-31.412-18.354a.4.4,0,0,1-.364.008l-2.283-1.318c-.1-.056-.091-.15.013-.21l2.639-1.524a.4.4,0,0,1,.364-.007l2.282,1.317c.1.057.092.15-.013.21Zm14.734,8.724-2.283-1.318c-.1-.056-.091-.15.013-.21l2.639-1.523a.4.4,0,0,1,.364-.008l2.283,1.318c.1.056.091.15-.014.21l-2.639,1.523a.4.4,0,0,1-.364.008m-18.7-15.151-2.282-1.318c-.1-.056-.091-.15.013-.21l2.639-1.524a.4.4,0,0,1,.364-.008l2.282,1.318c.1.056.091.15-.013.21l-2.639,1.523a.4.4,0,0,1-.364.008m-3.406,2.169a.4.4,0,0,1-.364.008l-2.282-1.318c-.1-.056-.091-.15.013-.21l2.639-1.523a.4.4,0,0,1,.364-.008l2.282,1.318c.1.056.091.15-.013.21Zm18.772,11.056-6.671-3.852c-.1-.056-.091-.15.013-.21l2.64-1.524a.4.4,0,0,1,.364-.007l6.671,3.852c.1.056.091.15-.013.21l-2.639,1.524a.4.4,0,0,1-.365.008m-7.558-13.071-2.282-1.318c-.1-.056-.092-.15.013-.21l2.639-1.524a.4.4,0,0,1,.364-.007l2.283,1.318c.1.056.091.15-.013.21l-2.639,1.524a.4.4,0,0,1-.364.008m-14.913.1-2.283-1.318c-.1-.056-.091-.15.013-.21l2.639-1.523a.4.4,0,0,1,.364-.008l2.283,1.318c.1.056.091.15-.013.21l-2.639,1.524a.4.4,0,0,1-.364.008m7.309,5.308a.4.4,0,0,1,.364-.007l2.283,1.318c.1.056.091.15-.014.21l-2.639,1.524a.4.4,0,0,1-.364.007l-2.282-1.318c-.1-.056-.091-.15.013-.21Zm11.938,6.893a.4.4,0,0,1,.364-.008l2.809,1.621c.1.056.091.15-.013.21l-2.639,1.523a.4.4,0,0,1-.364.008l-2.809-1.622c-.1-.056-.092-.15.013-.21Zm35.288,20.373a.4.4,0,0,1,.364-.007l2.809,1.621c.1.056.091.15-.013.21l-2.639,1.523a.4.4,0,0,1-.364.008l-2.809-1.622c-.1-.056-.091-.15.013-.21Zm-27.563-15.914a.406.406,0,0,1,.365-.008l2.808,1.622c.1.056.091.15-.013.21l-2.639,1.523a.4.4,0,0,1-.364.008l-2.809-1.622c-.1-.056-.092-.15.013-.21Zm23.7,13.684a.4.4,0,0,1,.364-.008l2.809,1.621c.1.056.091.15-.013.21l-2.639,1.524a.4.4,0,0,1-.364.007l-2.809-1.622c-.1-.056-.091-.15.013-.21Zm-19.838-11.454a.4.4,0,0,1,.364-.008l18.785,10.846c.1.056.092.15-.013.21l-2.639,1.524a.4.4,0,0,1-.364.008l-18.785-10.846c-.1-.056-.091-.15.013-.21Zm-16.152-9.325a.4.4,0,0,1,.364-.007l3.511,2.027c.1.056.091.15-.013.21l-2.639,1.524a.4.4,0,0,1-.364.007l-3.511-2.027c-.1-.056-.092-.15.013-.21Zm8.427,4.866a.4.4,0,0,1,.365-.008l2.809,1.622c.1.056.091.15-.013.21l-2.639,1.524a.4.4,0,0,1-.364.007l-2.809-1.622c-.1-.056-.092-.15.013-.21Zm-35.82-17.633,6.41-3.7a.4.4,0,0,1,.364-.008l2.282,1.318c.1.056.091.15-.013.21l-6.409,3.7a.4.4,0,0,1-.364.008l-2.282-1.318c-.1-.056-.092-.15.013-.21m5.975.4a.4.4,0,0,1,.364-.008l2.282,1.318c.1.056.091.15-.013.21l-2.639,1.523a.4.4,0,0,1-.364.008l-2.283-1.318c-.1-.056-.091-.15.013-.21Zm17.381,10.035a.4.4,0,0,1,.364-.008l2.282,1.318c.1.056.092.15-.013.21l-2.639,1.523a.4.4,0,0,1-.364.008l-2.283-1.318c-.1-.056-.091-.15.013-.21Zm38.513,21.146-2.282-1.317c-.1-.057-.091-.151.013-.21l2.639-1.524a.4.4,0,0,1,.364-.007l2.282,1.318c.1.056.091.15-.013.21l-2.639,1.524a.4.4,0,0,1-.364.007m-45.184-25a.4.4,0,0,1,.364-.007l2.282,1.317c.1.056.091.15-.013.21l-2.639,1.524a.4.4,0,0,1-.365.007l-2.282-1.318c-.1-.056-.091-.15.013-.21Zm-7.373-4.257a.4.4,0,0,1,.364-.008l5.618,3.243c.1.056.091.15-.013.21l-2.64,1.523a.4.4,0,0,1-.364.008l-5.618-3.244c-.1-.056-.091-.15.013-.21Zm70.692,21.165a.4.4,0,0,1-.364.008l-2.282-1.318c-.1-.056-.091-.15.013-.21l2.639-1.524a.4.4,0,0,1,.364-.008l2.282,1.318c.1.056.091.15-.013.21Zm-3.336-1.926a.4.4,0,0,1-.364.008l-2.282-1.318c-.1-.056-.091-.15.013-.21l2.639-1.524a.4.4,0,0,1,.364-.008l2.282,1.318c.1.056.091.15-.013.21Zm-5.559,16.44a.4.4,0,0,1,.364-.008l3.511,2.027c.1.056.091.15-.013.21l-2.639,1.523a.4.4,0,0,1-.364.008l-3.511-2.027c-.1-.056-.091-.15.013-.21Zm.772-19.2a.4.4,0,0,1-.364.007l-2.282-1.317c-.1-.056-.091-.15.013-.21l2.639-1.523a.4.4,0,0,1,.364-.007l2.283,1.318c.1.056.091.15-.013.21Zm-6.671-3.852a.4.4,0,0,1-.364.008l-2.282-1.318c-.1-.056-.091-.15.013-.21l2.639-1.523a.4.4,0,0,1,.364-.008l2.282,1.318c.1.056.091.15-.013.21Zm18.13,10.467a.4.4,0,0,1-.364.008l-2.282-1.318c-.1-.056-.091-.15.013-.21l2.639-1.524a.4.4,0,0,1,.364-.007l2.282,1.318c.1.056.091.15-.013.21Zm-14.794-8.541a.4.4,0,0,1-.364.007l-2.282-1.317c-.1-.056-.091-.15.013-.21l2.639-1.523a.4.4,0,0,1,.364-.008l2.282,1.318c.1.056.091.15-.013.21Zm-6.671-3.852a.4.4,0,0,1-.364.008l-2.282-1.318c-.1-.056-.091-.15.012-.21l2.639-1.523a.4.4,0,0,1,.364-.008l2.282,1.318c.1.056.091.15-.013.21ZM-317.46-277.3l2.639-1.523a.4.4,0,0,1,.364-.008l2.809,1.622c.1.056.091.15-.013.21l-2.639,1.523a.4.4,0,0,1-.364.008l-2.809-1.622c-.1-.056-.091-.15.013-.21m2.19-3.089,2.639-1.524a.4.4,0,0,1,.364-.007l4.389,2.534c.1.056.091.15-.013.21l-2.639,1.523a.4.4,0,0,1-.364.008l-4.389-2.534c-.1-.056-.091-.15.013-.21m11.542-7.326a.4.4,0,0,1-.364.008l-2.282-1.318c-.1-.056-.091-.15.013-.21l2.639-1.524a.406.406,0,0,1,.364-.008l2.282,1.318c.1.057.091.15-.013.21Zm2.153,1.243,2.639-1.523a.4.4,0,0,1,.364-.008l2.809,1.622c.1.056.091.15-.013.21l-2.639,1.524a.4.4,0,0,1-.364.007l-2.809-1.622c-.1-.056-.091-.15.013-.21m-9.048,4.413,2.64-1.524a.4.4,0,0,1,.364-.007l3.511,2.027c.1.056.091.15-.013.21l-2.639,1.523a.4.4,0,0,1-.364.008l-3.512-2.027c-.1-.056-.091-.15.013-.21m5-1.467,2.64-1.524a.4.4,0,0,1,.364-.007l2.282,1.318c.1.056.091.15-.013.21L-302.989-282a.4.4,0,0,1-.364.007l-2.282-1.317c-.1-.056-.091-.15.013-.21m-19.575,1.976-2.282-1.318c-.1-.056-.091-.15.013-.21l2.639-1.524a.4.4,0,0,1,.364-.007l2.282,1.318c.1.056.091.15-.013.21l-2.639,1.523a.4.4,0,0,1-.364.008m-2.435-13.6,2.282,1.318c.1.056.092.15-.013.21L-328-292.089a.4.4,0,0,1-.364.008l-2.282-1.318c-.1-.056-.092-.15.012-.21l2.64-1.523a.4.4,0,0,1,.364-.008m3.336,1.926,2.282,1.318c.1.056.091.15-.013.21l-2.639,1.524a.4.4,0,0,1-.364.008l-2.282-1.318c-.1-.056-.091-.15.013-.21l2.64-1.524a.4.4,0,0,1,.364-.008m-13.343-7.7,2.282,1.318c.1.056.091.15-.013.21l-2.639,1.524a.4.4,0,0,1-.365.008l-2.282-1.318c-.1-.056-.091-.15.013-.21l2.639-1.524a.4.4,0,0,1,.364-.008m6.671,3.852,2.282,1.318c.1.056.091.151-.013.21l-2.639,1.523a.4.4,0,0,1-.364.008l-2.283-1.318c-.1-.056-.091-.15.013-.21l2.639-1.523a.4.4,0,0,1,.364-.008m-3.336-1.926,2.282,1.317c.1.056.091.15-.013.21l-2.639,1.523a.4.4,0,0,1-.364.007l-2.282-1.317c-.1-.056-.091-.151.013-.21l2.639-1.523a.4.4,0,0,1,.364-.008m13.343,7.7,2.282,1.318c.1.056.091.15-.013.21l-2.639,1.524a.4.4,0,0,1-.364.008l-2.282-1.318c-.1-.056-.091-.15.013-.21l2.639-1.524a.4.4,0,0,1,.364-.007m3.336,1.926,2.282,1.318c.1.056.091.15-.013.21L-318-286.312a.4.4,0,0,1-.364.008l-2.282-1.318c-.1-.056-.091-.15.013-.21l2.639-1.524a.4.4,0,0,1,.364-.008m-12.053.877-2.282-1.317c-.1-.056-.091-.15.013-.21l2.639-1.523a.4.4,0,0,1,.365-.008l2.282,1.318c.1.056.091.151-.013.21l-2.639,1.523a.4.4,0,0,1-.364.008m3.336,1.926-2.282-1.318c-.1-.056-.092-.15.012-.21l2.64-1.524a.4.4,0,0,1,.364-.008l2.282,1.318c.1.056.091.15-.013.21l-2.639,1.524a.4.4,0,0,1-.364.008m3.336,1.926-2.282-1.318c-.1-.056-.092-.15.012-.21l2.64-1.524a.4.4,0,0,1,.364-.007l2.282,1.318c.1.056.091.15-.013.21l-2.639,1.523a.4.4,0,0,1-.364.008m8.717-2.8,2.282,1.318c.1.056.091.15-.013.21l-2.639,1.523a.4.4,0,0,1-.364.008l-2.282-1.318c-.1-.056-.091-.15.013-.21l2.639-1.524a.405.405,0,0,1,.364-.007m-5.017,4.721a.4.4,0,0,1-.365.007l-2.282-1.318c-.1-.056-.091-.15.013-.21l2.639-1.524a.4.4,0,0,1,.364-.008l2.282,1.318c.1.056.091.15-.013.21Zm-25-22.054,2.282,1.318c.1.056.091.15-.013.21l-2.639,1.524a.4.4,0,0,1-.364.008l-2.282-1.318c-.1-.056-.092-.15.013-.21l2.639-1.524a.4.4,0,0,1,.364-.007m-29.245-9.267a.4.4,0,0,1-.365.008l-2.282-1.318c-.1-.056-.092-.15.013-.21l2.639-1.524a.4.4,0,0,1,.364-.008l2.282,1.318c.1.055.091.15-.013.21Zm32.581,11.192,2.282,1.318c.1.056.092.15-.013.21l-2.639,1.524a.4.4,0,0,1-.364.007l-2.283-1.318c-.1-.056-.091-.15.013-.21l2.639-1.523a.4.4,0,0,1,.364-.008m-25.105-14.494,2.282,1.318c.1.056.092.15-.013.21l-2.639,1.523a.4.4,0,0,1-.364.008L-369.1-315.6c-.1-.056-.091-.15.013-.21l2.639-1.523a.4.4,0,0,1,.364-.008m-7.738-4.249-6.409,3.7a.4.4,0,0,1-.365.008l-2.282-1.318c-.1-.056-.092-.15.012-.21l6.41-3.7a.4.4,0,0,1,.364-.007l2.282,1.318c.1.056.091.15-.013.21m.7.405a.4.4,0,0,1,.365-.007l2.282,1.318c.1.056.091.15-.013.21l-2.639,1.524a.4.4,0,0,1-.364.008l-2.282-1.318c-.1-.056-.092-.15.012-.21Zm2.966,4.978-2.282-1.318c-.1-.056-.091-.15.013-.21l2.639-1.524a.4.4,0,0,1,.364-.008l2.282,1.318c.1.056.091.15-.012.21l-2.64,1.524a.4.4,0,0,1-.364.008m-7.106.25-2.282-1.317c-.1-.056-.091-.15.013-.21l2.639-1.523a.4.4,0,0,1,.364-.008l2.283,1.318c.1.056.091.15-.013.21l-2.639,1.523a.4.4,0,0,1-.364.007m40.906,23.617-2.282-1.318c-.1-.056-.091-.15.013-.21l2.639-1.524a.4.4,0,0,1,.365-.008l2.282,1.318c.1.056.091.15-.013.21l-2.639,1.524a.4.4,0,0,1-.365.007m-33-31.022a.4.4,0,0,1,.364-.007l2.282,1.318c.1.056.091.15-.013.21l-2.639,1.523a.4.4,0,0,1-.364.008L-372-321.626c-.1-.056-.092-.15.013-.21Zm20.966,19.723-2.283-1.318c-.1-.056-.091-.15.013-.21l2.639-1.524a.4.4,0,0,1,.364-.007l2.282,1.318c.1.056.091.15-.013.21l-2.639,1.523a.4.4,0,0,1-.364.008m-17.266-17.8,2.282,1.317c.1.056.091.15-.013.21l-2.639,1.523a.4.4,0,0,1-.364.008l-2.283-1.318c-.1-.056-.091-.15.013-.21l2.64-1.524a.4.4,0,0,1,.364-.007m7.373,4.257,2.282,1.318c.1.056.091.15-.013.21l-2.639,1.524a.4.4,0,0,1-.364.007l-2.283-1.318c-.1-.056-.091-.15.013-.21l2.639-1.524a.4.4,0,0,1,.364-.008m-4.038-2.331,2.282,1.318c.1.056.092.15-.012.21l-2.639,1.524a.4.4,0,0,1-.365.007l-2.282-1.317c-.1-.057-.092-.151.013-.21l2.639-1.524a.4.4,0,0,1,.364-.007m29.3,29.1-2.283-1.318c-.1-.056-.091-.151.013-.21l2.639-1.524a.4.4,0,0,1,.364-.008l2.283,1.318c.1.056.091.15-.013.21l-2.639,1.524a.4.4,0,0,1-.364.008m17.052-2.345,2.282,1.318c.1.056.091.151-.013.21l-2.639,1.524a.4.4,0,0,1-.364.008l-2.282-1.318c-.1-.056-.091-.151.013-.21l2.639-1.524a.4.4,0,0,1,.364-.008m-3.336-1.926,2.282,1.318c.1.056.092.15-.013.21l-2.639,1.524a.4.4,0,0,1-.364.008l-2.282-1.318c-.1-.056-.091-.151.013-.21l2.639-1.524a.4.4,0,0,1,.364-.008m-3.336-1.926,2.282,1.318c.1.056.092.15-.013.21L-323-293.556a.4.4,0,0,1-.364.007l-2.282-1.318c-.1-.056-.092-.15.013-.21L-323-296.6a.4.4,0,0,1,.364-.008m-6.671-3.852,2.282,1.318c.1.056.091.15-.013.21l-2.639,1.523a.4.4,0,0,1-.364.008l-2.282-1.318c-.1-.056-.091-.15.013-.21l2.639-1.524a.4.4,0,0,1,.364-.007m16.678,9.63,2.282,1.317c.1.056.091.151-.013.21L-313-287.779a.4.4,0,0,1-.364.008l-2.283-1.317c-.1-.056-.091-.15.013-.21l2.639-1.524a.4.4,0,0,1,.364-.007m-13.343-7.7,2.283,1.318c.1.056.091.15-.013.21l-2.639,1.524a.4.4,0,0,1-.364.007l-2.282-1.318c-.1-.056-.091-.15.013-.21l2.639-1.524a.4.4,0,0,1,.364-.008m16.678,9.63,2.282,1.318c.1.056.091.15-.013.21l-2.639,1.524a.4.4,0,0,1-.364.008l-2.282-1.318c-.1-.056-.092-.15.013-.21l2.639-1.524a.4.4,0,0,1,.364-.007m-8.871,11.2a.4.4,0,0,1-.364.008l-2.282-1.318c-.1-.056-.091-.15.013-.21l2.639-1.523a.4.4,0,0,1,.364-.008l2.282,1.318c.1.056.092.15-.013.21Zm-3.7-1.918-2.282-1.318c-.1-.056-.091-.15.013-.21l2.639-1.524a.4.4,0,0,1,.364-.007l2.282,1.318c.1.055.091.15-.013.21l-2.639,1.523a.4.4,0,0,1-.364.008m10.538-2.84a.4.4,0,0,1-.364.007l-2.283-1.318c-.1-.056-.091-.15.013-.21l2.639-1.524a.4.4,0,0,1,.364-.008l2.282,1.318c.1.056.091.15-.013.21Zm5.369-4.519,2.282,1.318c.1.056.091.15-.013.21l-2.639,1.523a.4.4,0,0,1-.364.008l-2.283-1.318c-.1-.056-.091-.15.013-.21l2.639-1.523a.4.4,0,0,1,.364-.008m-10.017,6.189a.4.4,0,0,1-.364.007l-2.282-1.318c-.1-.056-.091-.15.013-.21l2.639-1.524a.4.4,0,0,1,.364-.007l2.282,1.318c.1.056.091.15-.013.21Zm-16.668-21.6,2.282,1.318c.1.056.091.15-.013.21l-2.639,1.524a.4.4,0,0,1-.364.007l-2.283-1.318c-.1-.056-.091-.151.013-.21l2.639-1.524a.4.4,0,0,1,.364-.008m-3.336-1.926,2.282,1.318c.1.056.091.15-.013.21l-2.639,1.524a.4.4,0,0,1-.364.008l-2.283-1.318c-.1-.056-.091-.15.013-.21l2.639-1.524a.406.406,0,0,1,.365-.007m-17.052,2.345-5.091-2.939c-.1-.056-.092-.15.013-.21l6.409-3.7a.4.4,0,0,1,.364-.008l2.634,1.52c.1.056.091.15-.013.21l-3.394,1.959c-.1.06-.11.154-.013.21l2.106,1.216c.1.056.092.15-.013.21l-2.639,1.524a.4.4,0,0,1-.364.008m-3.077-6.13-2.282-1.318c-.1-.056-.092-.15.013-.21l2.639-1.524a.405.405,0,0,1,.364-.007l2.282,1.318c.1.056.092.15-.013.21l-2.639,1.523a.4.4,0,0,1-.365.008m16.42,13.833-2.283-1.318c-.1-.056-.091-.15.013-.21l2.639-1.523a.4.4,0,0,1,.364-.008l2.283,1.318c.1.056.091.15-.013.21l-2.639,1.523a.4.4,0,0,1-.364.008m-3.336-1.926-2.282-1.318c-.1-.056-.092-.15.013-.21l2.639-1.523a.4.4,0,0,1,.364-.008l2.282,1.318c.1.056.092.15-.013.21l-2.639,1.524a.4.4,0,0,1-.364.007m-3.336-1.926-2.283-1.318c-.1-.056-.091-.15.013-.21l2.639-1.524a.4.4,0,0,1,.364-.008l2.282,1.318c.1.056.091.15-.013.21l-2.639,1.523a.4.4,0,0,1-.364.008m-3.336-1.926-2.282-1.318c-.1-.056-.091-.15.013-.21l2.639-1.524a.4.4,0,0,1,.364-.008l2.282,1.318c.1.056.092.15-.012.21l-2.639,1.523a.4.4,0,0,1-.364.008m10.381-6.2,2.283,1.318c.1.056.091.15-.013.21l-2.639,1.524a.4.4,0,0,1-.364.007l-2.283-1.318c-.1-.056-.091-.15.013-.21l2.639-1.524a.4.4,0,0,1,.364-.007m-3.336-1.926,2.282,1.318c.1.056.092.15-.012.21l-2.64,1.524a.4.4,0,0,1-.364.008l-2.283-1.318c-.1-.056-.091-.15.013-.21l2.639-1.524a.4.4,0,0,1,.364-.008m-8.954-5.17,2.283,1.318c.1.056.091.15-.013.21l-2.64,1.523a.4.4,0,0,1-.364.008l-2.283-1.318c-.1-.056-.091-.15.013-.21l2.639-1.523a.4.4,0,0,1,.364-.008m4.038,2.332,3.862,2.23c.1.056.091.15-.013.21l-2.64,1.524a.4.4,0,0,1-.364.007l-3.862-2.23c-.1-.056-.091-.151.013-.21l2.639-1.524a.4.4,0,0,1,.364-.007m-7.374-4.257,2.282,1.318c.1.056.091.15-.013.21l-2.639,1.524a.4.4,0,0,1-.365.008l-2.282-1.318c-.1-.056-.092-.15.013-.21l2.639-1.524a.4.4,0,0,1,.364-.007m-4.5,5.236-2.283-1.318c-.1-.056-.091-.15.013-.21l2.639-1.524a.4.4,0,0,1,.364-.008l2.282,1.318c.1.056.091.15-.013.21l-2.639,1.523a.4.4,0,0,1-.364.008" transform="translate(390.483 327.415)" fill="#8193d5"/>
            </g>
            <g id="Group_2121" data-name="Group 2121" transform="translate(33.387 116.234)">
              <path id="Path_2320" data-name="Path 2320" d="M33.12-81.869l-22.522-13a2.717,2.717,0,0,0-2.458,0L-4.776-87.416a.749.749,0,0,0,0,1.419l22.523,13a2.717,2.717,0,0,0,2.458,0L33.12-80.45a.749.749,0,0,0,0-1.419" transform="translate(5.284 95.167)" fill="#949dc2"/>
            </g>
          </g>
          <g id="Hand" transform="translate(23.956 45.828)">
            <g id="Group_2122" data-name="Group 2122" transform="translate(56.865 0)">
              <path id="Path_2321" data-name="Path 2321" d="M-313.922-228.589l-3.52-6.15,13.2-7.667.012-.007.015-.008h0c2.214-1.266,5.265-1.077,8.634.868,6.76,3.9,12.24,13.395,12.24,21.2,0,3.911-1.376,6.656-3.6,7.931h0l-13.311,7.728-3.615-6.318a28.111,28.111,0,0,1-10.06-17.579" transform="translate(317.442 243.223)" fill="#2e4088"/>
            </g>
            <g id="Group_2123" data-name="Group 2123" transform="translate(53.199 7.715)">
              <path id="Path_2322" data-name="Path 2322" d="M12.24,1.672c6.76,3.9,12.24,13.395,12.24,21.2S19,33.842,12.24,29.939,0,16.544,0,8.739,5.48-2.231,12.24,1.672" transform="translate(0 0)" fill="#1a2e35"/>
            </g>
            <g id="Group_2124" data-name="Group 2124" transform="translate(49.669 8.177)">
              <path id="Path_2323" data-name="Path 2323" d="M-236.028-220.074l-3.335-5.828,6.591-3.807.012-.007.014-.008h0c2.1-1.2,4.988-1.02,8.182.823,6.406,3.7,11.6,12.693,11.6,20.09,0,3.706-1.3,6.308-3.41,7.516h0l-6.693,3.865-3.426-5.988a26.64,26.64,0,0,1-9.533-16.658" transform="translate(239.363 230.483)" fill="#f5f5f5"/>
            </g>
            <g id="Group_2125" data-name="Group 2125" transform="translate(61.555 26.268)">
              <path id="Path_2324" data-name="Path 2324" d="M10.3-155.3a18.428,18.428,0,0,1,.37,3.582c0,3.706-1.3,6.308-3.41,7.516h0L.566-140.337l-3.426-5.988c-.333-.256-.66-.529-.982-.811Z" transform="translate(3.842 155.3)" fill="#ececec"/>
            </g>
            <g id="Group_2126" data-name="Group 2126" transform="translate(46.195 12.029)">
              <path id="Path_2325" data-name="Path 2325" d="M11.6,1.584C18,5.282,23.2,14.277,23.2,21.674s-5.193,10.4-11.6,6.7S0,15.678,0,8.281s5.193-10.4,11.6-6.7" transform="translate(0 0)" fill="#e1e1e1"/>
            </g>
            <g id="Group_2127" data-name="Group 2127" transform="translate(0 12.309)">
              <path id="Path_2326" data-name="Path 2326" d="M-710.994-73.239c1.409,1.039,4.543.214,4.74.164a5.949,5.949,0,0,0-3.2,3.648,2.637,2.637,0,0,0,1.146,2.452c2.165,1.483,5.36-.049,7.089-.986a6.522,6.522,0,0,0-1.569,2.4,2.364,2.364,0,0,0,.69,2.711c1.762,1.146,4.186,1.24,12.027-3.463a2.988,2.988,0,0,0-.542,1.413.661.661,0,0,0-.008.127,1.536,1.536,0,0,0,.164.711,1.6,1.6,0,0,0,.234.341,2.629,2.629,0,0,0,1.084.669c2.658.965,9.767-3.635,14.59-6.629a119.849,119.849,0,0,0,15.012-11c4.937-4.564,4.174-6.724,8.942-10.527a40.631,40.631,0,0,1,4.51-3.06c.139-.066,1.873-1.142,3.343-2.066a12.606,12.606,0,0,0,.324-2.953,14.917,14.917,0,0,0-.094-1.7c-.7-7.024-5.582-14.972-11.505-18.389a12.484,12.484,0,0,0-3.105-1.306c-1.553.982-3.725,2.353-3.869,2.452a23.427,23.427,0,0,1-4.248,2.374c-.723.3-1.425.55-2.152.78-2.156.682-9.3,2.333-13.373,3.836a58.536,58.536,0,0,0-9.385,4.214c-1.565,1.023-5.829,6.268-8.729,8.449s-3.2,3.935-.7,4.411a11.856,11.856,0,0,0,9.233-1.927c3.064-2.283,4.042-3.08,5.094-3.006s-1.257,2.1-2.65,3.393a26.726,26.726,0,0,0-2.529,2.893,21.067,21.067,0,0,1-2.263,2.472,48.839,48.839,0,0,1-6.989,5.557c-4.037,2.489-8.724,5.1-10.432,6.691s-2.346,3.787-.887,4.859" transform="translate(711.805 120.688)" fill="#ffaaa8"/>
            </g>
            <g id="Group_2128" data-name="Group 2128" transform="translate(0.002 48.133)">
              <path id="Path_2327" data-name="Path 2327" d="M-240.968-12.431c.978.564,2.333.358,4.546-.434a90.355,90.355,0,0,0,9.517-4.7c1.111-.641,5.437-3.169,8.961-5.229a.21.21,0,0,1,.224.354c-3.089,2.116-6.874,4.684-8.557,5.721-3.764,2.321-6.885,3.853-10.437,5.679,0,0-3.293.911-4.748-.161a2.319,2.319,0,0,1-.475-3.017,2.179,2.179,0,0,0,.969,1.785" transform="translate(242.27 22.825)" fill="#ff9090"/>
            </g>
            <g id="Group_2129" data-name="Group 2129" transform="translate(2.314 52.713)">
              <path id="Path_2328" data-name="Path 2328" d="M-264.414-9.278c1.8.513,4.8-1.037,6.022-1.656s9.558-5.1,10.954-5.941l8.016-4.82a.42.42,0,0,1,.455.705c-4.125,2.8-9.092,5.566-11.49,6.9a61.718,61.718,0,0,0-7.33,4.652c-1.729.939-4.925,2.471-7.091.988a2.638,2.638,0,0,1-1.145-2.456s.032,1.178,1.609,1.628" transform="translate(266.066 21.761)" fill="#ff9090"/>
            </g>
            <g id="Group_2130" data-name="Group 2130" transform="translate(8.881 56.288)">
              <path id="Path_2329" data-name="Path 2329" d="M-267.726,2.328a2.254,2.254,0,0,1-.762-2.41,1.622,1.622,0,0,0,1.428,1.547,8.7,8.7,0,0,0,4.405-.709c1.768-.624,7.052-3.972,8.762-4.911,1.066-.586,7.279-4.48,11.8-7.328.28-.176.331.21.055.393-3.353,2.219-5.186,3.554-6.707,4.622-2.834,1.988-5.571,3.736-6.958,5.334-7.842,4.7-10.266,4.612-12.028,3.462" transform="translate(268.556 11.527)" fill="#ff9090"/>
            </g>
            <g id="Group_2131" data-name="Group 2131" transform="translate(21.188 32.004)">
              <path id="Path_2330" data-name="Path 2330" d="M-500.317,8.34a1.537,1.537,0,0,0,.164.711,1.609,1.609,0,0,0,.234.341,2.629,2.629,0,0,0,1.084.669c2.658.965,9.767-3.635,14.59-6.629a119.873,119.873,0,0,0,15.013-11c4.937-4.563,4.173-6.724,8.942-10.527a40.606,40.606,0,0,1,4.51-3.06c.14-.066,1.873-1.142,3.343-2.066a12.61,12.61,0,0,0,.325-2.953,14.933,14.933,0,0,0-.095-1.7c-4.6,2.85-10.207,6.038-12.018,7.787-.062.062-.123.119-.181.181-2.337,2.333-3.2,4.728-4.822,8.486-1.672,3.853-8.342,7.94-15.017,12.643s-11.205,7.34-13.349,7.96a3.642,3.642,0,0,1-1.027.16,1.6,1.6,0,0,1-1.688-1.125.014.014,0,0,1,0-.012c0,.045,0,.095,0,.14" transform="translate(500.317 27.879)" fill="#ff9090"/>
            </g>
            <g id="Group_2132" data-name="Group 2132" transform="translate(53.698 12.309)">
              <path id="Path_2331" data-name="Path 2331" d="M-162.892-277.208l.99-.626a12.5,12.5,0,0,1,3.105,1.306c5.923,3.418,10.807,11.365,11.5,18.389a15.012,15.012,0,0,1,.094,1.7,12.6,12.6,0,0,1-.324,2.953c-1.471.924-3.2,2-3.343,2.066-.567.34-1.088.665-1.578.98-.091-1.4-.166-2.875-.218-4.43-.59-17.366-10.231-22.339-10.231-22.339" transform="translate(162.892 277.834)" fill="#ff9090"/>
            </g>
            <g id="Group_2134" data-name="Group 2134" transform="translate(20.908 33.894)" opacity="0.5">
              <g id="Group_2133" data-name="Group 2133" transform="translate(0 0)">
                <path id="Path_2332" data-name="Path 2332" d="M-274.073-130.506c1.395-1.293,3.7-3.314,2.648-3.389,2.358.116,4.968,2.935,11.484,3.459a27.653,27.653,0,0,0,12.564-2.379s-5.842,3.373-6.674,8.67c-.5,3.151.466,6.312-2.786,6.425-3.369.116-6.458-1.566-10.364-7.274-3.166-4.628-7.4-4.665-9.874-2.028.123-.162.305-.371.473-.587a27.191,27.191,0,0,1,2.529-2.9" transform="translate(277.075 133.896)" fill="#ff9090"/>
              </g>
            </g>
            <g id="Group_2135" data-name="Group 2135" transform="translate(22.243 44.607)">
              <path id="Path_2333" data-name="Path 2333" d="M-171.075-134.5c1.689,3.165,9.143,11.1,16.483,12.639a16.267,16.267,0,0,1-10.45-3.853,17.776,17.776,0,0,1-6.033-8.786" transform="translate(171.075 134.504)" fill="#ff9090"/>
            </g>
          </g>
          <g id="Coin" transform="translate(29.887 29.481)">
            <g id="Group_2136" data-name="Group 2136" transform="translate(6.673 0)">
              <path id="Path_2334" data-name="Path 2334" d="M-391.638-523.424l-1.427-2.976,6.788-3.918,0,.01a9.806,9.806,0,0,1,2.352-.988c.286-.076.578-.138.874-.191a11.6,11.6,0,0,1,4.392.12,14.4,14.4,0,0,1,1.584.427,16.143,16.143,0,0,1,1.636.628,20.3,20.3,0,0,1,2.1,1.076,25.392,25.392,0,0,1,2.191,1.439q.811.593,1.6,1.263c7.747,6.538,13.841,18.193,15.389,29.4q.16,1.147.251,2.28c.091,1.083.137,2.159.133,3.221q-.006,1.3-.1,2.525-.085,1.056-.238,2.042t-.368,1.9v0a18.442,18.442,0,0,1-1.811,4.807c-.167.3-.341.587-.521.864a11.621,11.621,0,0,1-2.766,2.988,10.018,10.018,0,0,1-1.019.663l0,.006-6.449,3.718-1.306-2.724c-.346-.077-.7-.167-1.049-.273a19.038,19.038,0,0,1-4.106-1.82,25.461,25.461,0,0,1-2.411-1.6,30.861,30.861,0,0,1-2.962-2.525c-6.467-6.221-11.559-15.956-13.423-25.647a43.183,43.183,0,0,1-.611-4.3c-.107-1.188-.161-2.368-.158-3.531a30.227,30.227,0,0,1,.413-5.01,21.721,21.721,0,0,1,1.014-3.871" transform="translate(393.065 531.643)" fill="#4a63c2"/>
            </g>
            <g id="Group_2138" data-name="Group 2138" transform="translate(28.452 23.057)" opacity="0.25">
              <g id="Group_2137" data-name="Group 2137" transform="translate(16.559 4.335) rotate(150)">
                <path id="Path_2335" data-name="Path 2335" d="M.98,0H16.231l-.963,5H0C.246,3.319.573,1.645.98,0" transform="translate(0 0)" fill="#fff"/>
              </g>
            </g>
            <g id="Group_2140" data-name="Group 2140" transform="translate(6.673 0)" opacity="0.25">
              <g id="Group_2139" data-name="Group 2139" transform="translate(0 0)">
                <path id="Path_2336" data-name="Path 2336" d="M-78.35-69.711l0,.01a9.778,9.778,0,0,1,2.352-.988c.286-.076.579-.138.874-.191a11.6,11.6,0,0,1,4.392.12c.192.04.387.089.581.139l-13.575,7.837c0-.01.008-.022.011-.033l-1.427-2.976Z" transform="translate(85.138 71.035)" fill="#fff"/>
              </g>
            </g>
            <g id="Group_2142" data-name="Group 2142" transform="translate(12.603 3.824)" opacity="0.25">
              <g id="Group_2141" data-name="Group 2141" transform="translate(4.11 19.243) rotate(-129.755)">
                <path id="Path_2337" data-name="Path 2337" d="M3.818,0H6.426L2.578,22.207q-1.267.123-2.578.158Z" transform="translate(0 0)" fill="#fff"/>
              </g>
            </g>
            <g id="Group_2144" data-name="Group 2144" transform="translate(18.442 9.802)" opacity="0.25">
              <g id="Group_2143" data-name="Group 2143" transform="translate(19.496 4.335) rotate(150)">
                <path id="Path_2338" data-name="Path 2338" d="M0,0H19.622l-.8,5.006H.507A46.021,46.021,0,0,1,0,0" transform="translate(0 0)" fill="#fff"/>
              </g>
            </g>
            <g id="Group_2146" data-name="Group 2146" transform="translate(6.673 0)" opacity="0.4">
              <g id="Group_2145" data-name="Group 2145">
                <path id="Path_2339" data-name="Path 2339" d="M-322.68-479.845l0,.01a9.8,9.8,0,0,1,2.352-.988c.286-.076.579-.138.874-.191a11.6,11.6,0,0,1,4.392.12,14.437,14.437,0,0,1,1.584.427,16.05,16.05,0,0,1,1.636.628,20.294,20.294,0,0,1,2.1,1.076,25.3,25.3,0,0,1,2.191,1.439q.811.593,1.6,1.263c7.216,6.089,13,16.618,15.005,27.092L-317.9-433.4a51.516,51.516,0,0,1-10.8-22.834,43.125,43.125,0,0,1-.611-4.3c-.107-1.188-.161-2.369-.157-3.532a30.239,30.239,0,0,1,.412-5.011,21.755,21.755,0,0,1,1.014-3.87l-1.427-2.976Z" transform="translate(329.467 481.169)" fill="#fff"/>
              </g>
            </g>
            <g id="Group_2148" data-name="Group 2148" transform="translate(18.241 32.2)" opacity="0.1">
              <g id="Group_2147" data-name="Group 2147">
                <path id="Path_2340" data-name="Path 2340" d="M-123.294,27.324-124.6,24.6c-.346-.077-.7-.167-1.049-.273a19.044,19.044,0,0,1-4.106-1.821,25.4,25.4,0,0,1-2.411-1.6,30.778,30.778,0,0,1-2.962-2.525,37.96,37.96,0,0,1-2.623-2.813L-110.789,0q.222,1.156.383,2.31t.251,2.28c.092,1.083.137,2.159.133,3.221q-.006,1.3-.1,2.524-.086,1.056-.238,2.043t-.368,1.9v0a18.442,18.442,0,0,1-1.812,4.807c-.167.3-.34.587-.522.864a11.622,11.622,0,0,1-2.765,2.988,9.992,9.992,0,0,1-1.019.664l0,.005Z" transform="translate(137.752 0)"/>
              </g>
            </g>
            <g id="Group_2150" data-name="Group 2150" transform="translate(31.247 47.78)" opacity="0.1">
              <g id="Group_2149" data-name="Group 2149" transform="translate(0 0)">
                <path id="Path_2341" data-name="Path 2341" d="M-2.987-82.007c-.167.3-.341.587-.521.864a11.616,11.616,0,0,1-2.766,2.988,9.9,9.9,0,0,1-1.019.664l0,.005-6.448,3.718-1.306-2.724L-15.1-76.5l-.095-1.116,13.668-7.891a17.538,17.538,0,0,1-1.464,3.505" transform="translate(15.192 85.513)"/>
              </g>
            </g>
            <g id="Group_2151" data-name="Group 2151" transform="translate(0 3.852)">
              <path id="Path_2342" data-name="Path 2342" d="M-403.173-454.948a20.77,20.77,0,0,1,1.461-4.976,12.8,12.8,0,0,1,3.831-5.066,9.834,9.834,0,0,1,3.439-1.7c.286-.076.578-.139.874-.191a11.6,11.6,0,0,1,4.391.12,14.428,14.428,0,0,1,1.584.427,16.257,16.257,0,0,1,1.637.628,20.483,20.483,0,0,1,2.1,1.076,25.328,25.328,0,0,1,2.191,1.439q.812.593,1.6,1.263c7.747,6.538,13.841,18.193,15.388,29.4q.161,1.148.251,2.28c.092,1.083.136,2.159.133,3.221q-.005,1.3-.1,2.524-.085,1.057-.238,2.043t-.368,1.9v0a18.424,18.424,0,0,1-1.812,4.807c-.167.3-.34.587-.521.864A11.613,11.613,0,0,1-370.1-411.9a9.817,9.817,0,0,1-5.458,1.958,12.714,12.714,0,0,1-4.363-.568,19.035,19.035,0,0,1-4.106-1.821,25.369,25.369,0,0,1-2.411-1.6,30.774,30.774,0,0,1-2.962-2.525c-6.466-6.221-11.559-15.956-13.423-25.646a43.187,43.187,0,0,1-.611-4.3c-.106-1.188-.161-2.369-.157-3.531a30.239,30.239,0,0,1,.413-5.01" transform="translate(403.586 467.038)" fill="#2e4088"/>
            </g>
            <g id="Group_2153" data-name="Group 2153" transform="translate(17.42 36.036)" opacity="0.05">
              <g id="Group_2152" data-name="Group 2152" transform="translate(0 0)">
                <path id="Path_2343" data-name="Path 2343" d="M13.114-259.329c.149.776.28,1.552.387,2.326s.191,1.524.251,2.28c.092,1.083.136,2.159.132,3.221,0,.87-.037,1.712-.1,2.524q-.084,1.057-.238,2.043t-.368,1.9v0a18.422,18.422,0,0,1-1.811,4.807c-.167.3-.34.587-.521.864a11.624,11.624,0,0,1-2.765,2.988,9.819,9.819,0,0,1-5.459,1.957,12.722,12.722,0,0,1-4.363-.568,19.052,19.052,0,0,1-4.106-1.821,25.365,25.365,0,0,1-2.145-1.414Z" transform="translate(7.994 259.329)"/>
              </g>
            </g>
            <g id="Group_2155" data-name="Group 2155" transform="translate(29.076 51.685)" opacity="0.05">
              <g id="Group_2154" data-name="Group 2154" transform="translate(0 0)">
                <path id="Path_2344" data-name="Path 2344" d="M9.149-94.958A17.494,17.494,0,0,1,7.7-91.507c-.167.3-.34.587-.521.864a11.629,11.629,0,0,1-2.765,2.988A9.761,9.761,0,0,1,0-85.809Z" transform="translate(0 94.958)"/>
              </g>
            </g>
            <g id="Group_2157" data-name="Group 2157" transform="translate(11.375 26.917)" opacity="0.25">
              <g id="Group_2156" data-name="Group 2156">
                <path id="Path_2345" data-name="Path 2345" d="M7.347-288.608c.629,1.581,1.18,3.193,1.65,4.819L-13.991-260.8c-.1-.1-.209-.193-.313-.293a38.307,38.307,0,0,1-2.817-3.046Z" transform="translate(17.121 288.608)" fill="#fff"/>
              </g>
            </g>
            <g id="Group_2159" data-name="Group 2159" transform="translate(2.239 11.072)" opacity="0.25">
              <g id="Group_2158" data-name="Group 2158" transform="translate(22.362 0) rotate(37.271)">
                <path id="Path_2346" data-name="Path 2346" d="M4.681,0A46.005,46.005,0,0,1,9.493,1.468L4.681,36.927C3.09,36.2,1.526,35.382,0,34.489Z" transform="translate(0 0)" fill="#fff"/>
              </g>
            </g>
            <g id="Group_2161" data-name="Group 2161" transform="translate(1.152 9.101)" opacity="0.25">
              <g id="Group_2160" data-name="Group 2160" transform="matrix(0.759, 0.652, -0.652, 0.759, 22.407, 0)">
                <path id="Path_2347" data-name="Path 2347" d="M2.5,0q1.28.09,2.589.274L2.5,34.389c-.846-.467-1.682-.951-2.5-1.463Z" transform="translate(0 0)" fill="#fff"/>
              </g>
            </g>
            <g id="Group_2163" data-name="Group 2163" transform="translate(0.056 3.852)" opacity="0.25">
              <g id="Group_2162" data-name="Group 2162" transform="translate(0 0)">
                <path id="Path_2348" data-name="Path 2348" d="M-155.025,16.21c.026-.468.063-.925.108-1.375.015-.15.029-.3.047-.448s.037-.305.056-.456c.045-.332.091-.662.146-.983a20.766,20.766,0,0,1,1.461-4.976,12.8,12.8,0,0,1,3.832-5.066,9.83,9.83,0,0,1,3.439-1.7c.286-.076.578-.139.874-.191a11.6,11.6,0,0,1,4.392.12c.193.04.388.09.583.139Z" transform="translate(155.025 -0.858)" fill="#fff"/>
              </g>
            </g>
            <g id="Group_2164" data-name="Group 2164" transform="translate(5.008 11.13)">
              <path id="Path_2349" data-name="Path 2349" d="M-303.921-300.042c0,10.343,6.03,22.283,13.66,27.362.324.215.653.422.983.612,8.086,4.668,14.639-.285,14.639-11.068s-6.553-23.307-14.639-27.976c-.33-.19-.66-.364-.983-.523-7.63-3.732-13.66,1.25-13.66,11.593" transform="translate(303.921 312.869)" fill="#8193d5"/>
            </g>
            <g id="Group_2166" data-name="Group 2166" transform="translate(5.008 11.13)" opacity="0.4">
              <g id="Group_2165" data-name="Group 2165">
                <path id="Path_2350" data-name="Path 2350" d="M-303.921-300.042c0,10.343,6.03,22.283,13.66,27.362.324.215.653.422.983.612,8.086,4.668,14.639-.285,14.639-11.068s-6.553-23.307-14.639-27.976c-.33-.19-.66-.364-.983-.523-7.63-3.732-13.66,1.25-13.66,11.593" transform="translate(303.921 312.869)"/>
              </g>
            </g>
            <g id="Group_2167" data-name="Group 2167" transform="translate(5.659 12.077)">
              <path id="Path_2351" data-name="Path 2351" d="M-290.4-284.341c0,.332.006.668.022,1.006.37,9.64,5.986,20.447,13.032,25.138l.191.126c.247.161.5.315.748.46a12.141,12.141,0,0,0,4.4,1.6,7.4,7.4,0,0,0,7.729-3.936,15.328,15.328,0,0,0,1.811-6.67q.053-.76.053-1.568c0-.5-.014-.991-.043-1.493a29.39,29.39,0,0,0-.356-3.179c-1.234-7.448-5.209-15.043-10.261-19.6a20.562,20.562,0,0,0-2.23-1.763c-.362-.248-.73-.478-1.1-.692-.316-.182-.631-.348-.938-.5-.088-.043-.175-.086-.263-.123a9.457,9.457,0,0,0-5.785-.922c-2.946.566-5.215,2.915-6.3,6.665a19.7,19.7,0,0,0-.7,5.457" transform="translate(290.404 296.597)" fill="#8193d5"/>
            </g>
            <g id="Group_2169" data-name="Group 2169" transform="translate(5.659 12.077)" opacity="0.7">
              <g id="Group_2168" data-name="Group 2168">
                <path id="Path_2352" data-name="Path 2352" d="M-290.4-284.341c0,.332.006.668.022,1.006.37,9.64,5.986,20.447,13.032,25.138l.191.126c.247.161.5.315.748.46a12.141,12.141,0,0,0,4.4,1.6,7.4,7.4,0,0,0,7.729-3.936,15.328,15.328,0,0,0,1.811-6.67q.053-.76.053-1.568c0-.5-.014-.991-.043-1.493a29.39,29.39,0,0,0-.356-3.179c-1.234-7.448-5.209-15.043-10.261-19.6a20.562,20.562,0,0,0-2.23-1.763c-.362-.248-.73-.478-1.1-.692-.316-.182-.631-.348-.938-.5-.088-.043-.175-.086-.263-.123a9.457,9.457,0,0,0-5.785-.922c-2.946.566-5.215,2.915-6.3,6.665a19.7,19.7,0,0,0-.7,5.457" transform="translate(290.404 296.597)"/>
              </g>
            </g>
            <g id="Group_2170" data-name="Group 2170" transform="translate(7.98 12.077)">
              <path id="Path_2353" data-name="Path 2353" d="M-266.062-271.412c-.016-.338-.022-.674-.022-1.006a19.7,19.7,0,0,1,.7-5.457,10.349,10.349,0,0,1,3.011-5.053,6.983,6.983,0,0,1,.968-.262,9.461,9.461,0,0,1,5.785.922c.088.037.175.08.263.123.307.152.623.318.938.5.37.214.737.444,1.1.692a20.581,20.581,0,0,1,2.23,1.762c5.051,4.561,9.027,12.157,10.261,19.6a29.38,29.38,0,0,1,.356,3.179c.029.5.043,1,.043,1.493q0,.809-.053,1.568a15.338,15.338,0,0,1-1.811,6.67,8.813,8.813,0,0,1-1.841,2.267,7.637,7.637,0,0,1-3.567.319,12.144,12.144,0,0,1-4.4-1.6c-.251-.145-.5-.3-.747-.46l-.191-.126c-7.046-4.691-12.662-15.5-13.032-25.138" transform="translate(266.083 283.324)" fill="#eaebf1"/>
            </g>
            <g id="Group_2172" data-name="Group 2172" transform="translate(7.98 12.077)" opacity="0.6">
              <g id="Group_2171" data-name="Group 2171">
                <path id="Path_2354" data-name="Path 2354" d="M-266.062-271.412c-.016-.338-.022-.674-.022-1.006a19.7,19.7,0,0,1,.7-5.457,10.349,10.349,0,0,1,3.011-5.053,6.983,6.983,0,0,1,.968-.262,9.461,9.461,0,0,1,5.785.922c.088.037.175.08.263.123.307.152.623.318.938.5.37.214.737.444,1.1.692a20.581,20.581,0,0,1,2.23,1.762c5.051,4.561,9.027,12.157,10.261,19.6a29.38,29.38,0,0,1,.356,3.179c.029.5.043,1,.043,1.493q0,.809-.053,1.568a15.338,15.338,0,0,1-1.811,6.67,8.813,8.813,0,0,1-1.841,2.267,7.637,7.637,0,0,1-3.567.319,12.144,12.144,0,0,1-4.4-1.6c-.251-.145-.5-.3-.747-.46l-.191-.126c-7.046-4.691-12.662-15.5-13.032-25.138" transform="translate(266.083 283.324)" fill="#eaebf1"/>
              </g>
            </g>
            <g id="Group_2173" data-name="Group 2173" transform="translate(10.018 3.831)">
              <path id="Path_2355" data-name="Path 2355" d="M-305.485-569.917a11.4,11.4,0,0,1,3.771.048,17.718,17.718,0,0,1,1.834.465,4.29,4.29,0,0,1,.446.137l.441.175.882.35a21.065,21.065,0,0,1,3.306,1.81,18.3,18.3,0,0,1,1.527,1.107c.485.4,1.01.778,1.462,1.195s.951.839,1.391,1.288.889.887,1.312,1.354l1.249,1.419,1.186,1.472,1.116,1.526c.364.514.7,1.047,1.053,1.57.676,1.063,1.334,2.14,1.925,3.254l.454.829.419.847c.278.566.568,1.126.813,1.707.528,1.145,1,2.315,1.456,3.489l.631,1.782c.2.6.375,1.2.564,1.8s.329,1.217.5,1.824.3,1.224.427,1.841l.2.925.157.932c.1.627.218,1.234.274,1.867s.147,1.262.206,1.882.09,1.256.111,1.885q.016.472.019.945c0,.3-.019.629-.028.942-.028.628-.03,1.275-.079,1.886l-.208,1.877-.35,1.866,0,.011v.013l0-.025a18.841,18.841,0,0,1-1.742,4.781c-.217.362-.424.744-.657,1.1s-.489.7-.759,1.027a11.038,11.038,0,0,1-1.833,1.78,11.075,11.075,0,0,0,1.877-1.743q.419-.488.787-1.017c.247-.355.456-.722.686-1.088a18.3,18.3,0,0,0,1.856-4.787l0-.012v-.016l0,.021.373-1.861.235-1.893c.06-.649.068-1.269.1-1.9.012-.319.035-.625.039-.954s0-.635-.007-.953q-.019-.953-.088-1.9c-.051-.641-.131-1.261-.2-1.893s-.172-1.265-.269-1.888l-.154-.94-.195-.932c-.128-.622-.254-1.245-.423-1.858s-.3-1.236-.493-1.84-.36-1.218-.56-1.821l-.628-1.8-.7-1.772c-.228-.593-.512-1.162-.765-1.745s-.544-1.147-.827-1.716l-.426-.852-.461-.834c-.6-1.119-1.267-2.2-1.953-3.27-.357-.525-.7-1.061-1.068-1.577l-1.131-1.533-1.2-1.479c-.414-.482-.85-.946-1.273-1.419s-.9-.9-1.347-1.354-.941-.847-1.41-1.273c-.485-.434-.995-.789-1.491-1.188a18.643,18.643,0,0,0-1.559-1.1,19.612,19.612,0,0,0-3.373-1.773l-.889-.331-.445-.165a4.3,4.3,0,0,0-.463-.131,17.626,17.626,0,0,0-1.853-.426,11.438,11.438,0,0,0-3.785.036" transform="translate(305.485 570.093)" fill="#f5f5f5"/>
            </g>
            <g id="Group_2234" data-name="Group 2234" transform="translate(5.659 12.077)">
              <g id="Group_2233" data-name="Group 2233" clip-path="url(#clip-path)">
                <g id="Group_2174" data-name="Group 2174" transform="translate(17.243 5.353) rotate(149.939)">
                  <path id="Path_2356" data-name="Path 2356" d="M0,0H2.794l2,3.475H2Z" transform="translate(0 0)" fill="#8193d5"/>
                </g>
                <g id="Group_2176" data-name="Group 2176" transform="translate(11.351 2.345)" opacity="0.2">
                  <g id="Group_2175" data-name="Group 2175" transform="translate(5.891 3.008) rotate(149.939)">
                    <path id="Path_2357" data-name="Path 2357" d="M0,0H2.794l2,3.475H2Z" transform="translate(0 0)"/>
                  </g>
                </g>
                <g id="Group_2177" data-name="Group 2177" transform="translate(16.032 7.449) rotate(-30.061)">
                  <path id="Path_2358" data-name="Path 2358" d="M0,0H2.794l2,3.475H2Z" transform="translate(0 0)" fill="#8193d5"/>
                </g>
                <g id="Group_2179" data-name="Group 2179" transform="translate(16.032 5.047)" opacity="0.2">
                  <g id="Group_2178" data-name="Group 2178" transform="translate(0 2.402) rotate(-30.061)">
                    <path id="Path_2359" data-name="Path 2359" d="M0,0H2.794l2,3.475H2Z" transform="translate(0 0)"/>
                  </g>
                </g>
                <g id="Group_2180" data-name="Group 2180" transform="translate(24.345 11.945) rotate(149.939)">
                  <path id="Path_2360" data-name="Path 2360" d="M1.4,2.424H4.19L2.794,0H0Z" transform="translate(0 0)" fill="#8193d5"/>
                </g>
                <g id="Group_2182" data-name="Group 2182" transform="translate(19.505 9.847)" opacity="0.2">
                  <g id="Group_2181" data-name="Group 2181" transform="translate(4.84 2.098) rotate(149.939)">
                    <path id="Path_2361" data-name="Path 2361" d="M1.4,2.424H4.19L2.794,0H0Z" transform="translate(0 0)"/>
                  </g>
                </g>
                <g id="Group_2183" data-name="Group 2183" transform="translate(26.353 15.413) rotate(149.939)">
                  <path id="Path_2362" data-name="Path 2362" d="M2.32,0H5.113L2.794,4.007H0Z" transform="translate(0 0)" fill="#8193d5"/>
                </g>
                <g id="Group_2185" data-name="Group 2185" transform="translate(19.92 11.945)" opacity="0.35">
                  <g id="Group_2184" data-name="Group 2184" transform="translate(6.433 3.468) rotate(149.939)">
                    <path id="Path_2363" data-name="Path 2363" d="M2.32,0H5.113L2.794,4.007H0Z" transform="translate(0 0)"/>
                  </g>
                </g>
                <g id="Group_2186" data-name="Group 2186" transform="translate(21.924 8.055) rotate(90)">
                  <path id="Path_2364" data-name="Path 2364" d="M0,0H2.492l1.4,2.418H1.4Z" transform="translate(0 0)" fill="#8193d5"/>
                </g>
                <g id="Group_2188" data-name="Group 2188" transform="translate(19.506 8.055)" opacity="0.35">
                  <g id="Group_2187" data-name="Group 2187" transform="translate(2.418 0) rotate(90)">
                    <path id="Path_2365" data-name="Path 2365" d="M0,0H2.492l1.4,2.418H1.4Z" transform="translate(0 0)"/>
                  </g>
                </g>
                <g id="Group_2189" data-name="Group 2189" transform="translate(14.825 5.353)">
                  <path id="Path_2366" data-name="Path 2366" d="M2.418-47.625v1.4l-1.21.7v2.491L0-43.734v-2.491Z" transform="translate(0 47.625)" fill="#8193d5"/>
                </g>
                <g id="Group_2191" data-name="Group 2191" transform="translate(14.825 5.353)" opacity="0.35">
                  <g id="Group_2190" data-name="Group 2190" transform="translate(0 0)">
                    <path id="Path_2367" data-name="Path 2367" d="M2.418-47.625v1.4l-1.21.7v2.491L0-43.734v-2.491Z" transform="translate(0 47.625)"/>
                  </g>
                </g>
                <g id="Group_2192" data-name="Group 2192" transform="translate(24.346 30.911) rotate(149.939)">
                  <path id="Path_2368" data-name="Path 2368" d="M0,0H2.794l.949,1.648H.949Z" transform="translate(0 0)" fill="#8193d5"/>
                </g>
                <g id="Group_2194" data-name="Group 2194" transform="translate(20.281 29.484)" opacity="0.2">
                  <g id="Group_2193" data-name="Group 2193" transform="translate(4.065 1.426) rotate(149.939)">
                    <path id="Path_2369" data-name="Path 2369" d="M0,0H2.794l.949,1.648H.949Z" transform="translate(0 0)"/>
                  </g>
                </g>
                <g id="Group_2195" data-name="Group 2195" transform="translate(20.281 17.024)">
                  <path id="Path_2370" data-name="Path 2370" d="M2.418-1.589,0-.189V-14.525l1.647.951.771-.446Z" transform="translate(0 14.525)" fill="#8193d5"/>
                </g>
                <g id="Group_2197" data-name="Group 2197" transform="translate(20.281 17.024)" opacity="0.45">
                  <g id="Group_2196" data-name="Group 2196" transform="translate(0 0)">
                    <path id="Path_2371" data-name="Path 2371" d="M2.418-1.589,0-.189V-14.525l1.647.951.771-.446Z" transform="translate(0 14.525)"/>
                  </g>
                </g>
                <g id="Group_2198" data-name="Group 2198" transform="translate(26.353 34.379) rotate(149.939)">
                  <path id="Path_2372" data-name="Path 2372" d="M0,4.008H2.794L5.113,0H2.32Z" transform="translate(0 0)" fill="#8193d5"/>
                </g>
                <g id="Group_2200" data-name="Group 2200" transform="translate(19.92 30.911)" opacity="0.35">
                  <g id="Group_2199" data-name="Group 2199" transform="translate(6.433 3.469) rotate(149.939)">
                    <path id="Path_2373" data-name="Path 2373" d="M0,4.008H2.794L5.113,0H2.32Z" transform="translate(0 0)"/>
                  </g>
                </g>
                <g id="Group_2201" data-name="Group 2201" transform="translate(19.506 35.542)">
                  <path id="Path_2374" data-name="Path 2374" d="M-18.3-21.121v2.035l1.763-1.017Z" transform="translate(18.296 21.121)" fill="#8193d5"/>
                </g>
                <g id="Group_2203" data-name="Group 2203" transform="translate(19.506 35.542)" opacity="0.45">
                  <g id="Group_2202" data-name="Group 2202" transform="translate(0 0)">
                    <path id="Path_2375" data-name="Path 2375" d="M-18.3-21.121v2.035l1.763-1.017Z" transform="translate(18.296 21.121)"/>
                  </g>
                </g>
                <g id="Group_2204" data-name="Group 2204" transform="translate(16.033 32.839) rotate(90)">
                  <path id="Path_2376" data-name="Path 2376" d="M0,1.208H2.035L1.336,0H.7Z" transform="translate(0 0)" fill="#8193d5"/>
                </g>
                <g id="Group_2206" data-name="Group 2206" transform="translate(14.825 32.839)" opacity="0.45">
                  <g id="Group_2205" data-name="Group 2205" transform="translate(1.208 0) rotate(90)">
                    <path id="Path_2377" data-name="Path 2377" d="M0,1.208H2.035L1.336,0H.7Z" transform="translate(0 0)"/>
                  </g>
                </g>
                <g id="Group_2207" data-name="Group 2207" transform="translate(8.484 5.575)">
                  <path id="Path_2378" data-name="Path 2378" d="M-9.937-2.419a2.993,2.993,0,0,0-.432-.042,2.6,2.6,0,0,0-1.31.3l2.35-1.364a2.471,2.471,0,0,1,.517-.226v1.688a4.494,4.494,0,0,0-.663-.253c-.112-.033-.222-.06-.33-.082-.044-.009-.088-.019-.132-.026" transform="translate(11.679 3.746)" fill="#8193d5"/>
                </g>
                <g id="Group_2209" data-name="Group 2209" transform="translate(8.484 5.575)" opacity="0.2">
                  <g id="Group_2208" data-name="Group 2208" transform="translate(0 0)">
                    <path id="Path_2379" data-name="Path 2379" d="M-9.937-2.419a2.993,2.993,0,0,0-.432-.042,2.6,2.6,0,0,0-1.31.3l2.35-1.364a2.471,2.471,0,0,1,.517-.226v1.688a4.494,4.494,0,0,0-.663-.253c-.112-.033-.222-.06-.33-.082-.044-.009-.088-.019-.132-.026" transform="translate(11.679 3.746)"/>
                  </g>
                </g>
                <g id="Group_2210" data-name="Group 2210" transform="translate(9.527 20.845)">
                  <path id="Path_2380" data-name="Path 2380" d="M-75.542-66.966v.386a4.245,4.245,0,0,0,1.774,3.389l4.875,2.817.629.362v-2.793l-3.088-1.782a4.261,4.261,0,0,1-1.774-3.348l-.214-.123-.427-.251c-.982-.563-1.774.041-1.774,1.343" transform="translate(75.542 68.52)" fill="#8193d5"/>
                </g>
                <g id="Group_2212" data-name="Group 2212" transform="translate(9.527 20.845)" opacity="0.45">
                  <g id="Group_2211" data-name="Group 2211" transform="translate(0 0)">
                    <path id="Path_2381" data-name="Path 2381" d="M-75.542-66.966v.386a4.245,4.245,0,0,0,1.774,3.389l4.875,2.817.629.362v-2.793l-3.088-1.782a4.261,4.261,0,0,1-1.774-3.348l-.214-.123-.427-.251c-.982-.563-1.774.041-1.774,1.343" transform="translate(75.542 68.52)"/>
                  </g>
                </g>
                <g id="Group_2213" data-name="Group 2213" transform="translate(10.144 11.897)">
                  <path id="Path_2382" data-name="Path 2382" d="M-69.146-60.971v.361a3.8,3.8,0,0,0,1.585,3.027l5.077,2.933v-2.8l-2.657-1.532a3.763,3.763,0,0,1-1.565-2.7l-.854-.493c-.875-.5-1.585.033-1.585,1.2" transform="translate(69.146 62.358)" fill="#8193d5"/>
                </g>
                <g id="Group_2215" data-name="Group 2215" transform="translate(10.144 11.897)" opacity="0.45">
                  <g id="Group_2214" data-name="Group 2214">
                    <path id="Path_2383" data-name="Path 2383" d="M-69.146-60.971v.361a3.8,3.8,0,0,0,1.585,3.027l5.077,2.933v-2.8l-2.657-1.532a3.763,3.763,0,0,1-1.565-2.7l-.854-.493c-.875-.5-1.585.033-1.585,1.2" transform="translate(69.146 62.358)"/>
                  </g>
                </g>
                <g id="Group_2216" data-name="Group 2216" transform="translate(6.053 4.747)">
                  <path id="Path_2384" data-name="Path 2384" d="M-42.392-118.968-47.47-121.9l-.428-.247c-.979-.565-1.775.037-1.775,1.342v.384A4.257,4.257,0,0,0-47.9-117.03l4.878,2.816.629.363Zm-6.662-10.952v.363a3.8,3.8,0,0,0,1.584,3.027l5.078,2.932v-4.587l-.629-.363-4.449-2.569c-.874-.5-1.584.033-1.584,1.2m-2.453,2.992a11.99,11.99,0,0,1-1.02-4.634v-.363c0-3.524,2.05-5.271,4.68-4.014v-2.519l3.473,2.005v2.491l1.208.7v-2.491l3.473,2.005v2.491l2.422,1.4v4.63l-1.647-.951v14.335l1.647.951v4.631l-2.422-1.4v2.035l-3.473-2.005v-2.035l-1.208-.7v2.035l-3.473-2.005v-2.035l-.051-.029c-2.893-1.67-5.248-6.168-5.248-10.027v-.384c0-1.9.6-3.4,1.639-4.118" transform="translate(53.146 138.458)" fill="#8193d5"/>
                </g>
                <g id="Group_2218" data-name="Group 2218" transform="translate(6.671 5.188)" opacity="0.3">
                  <g id="Group_2217" data-name="Group 2217" transform="translate(0)">
                    <path id="Path_2385" data-name="Path 2385" d="M-27.466-68.1v-1.313l.764-.764,2.334,1.347-7.492,7.491a10.724,10.724,0,0,1-.285-2.384v-.363c0-.234.01-.458.028-.676l3.674-3.674a4.265,4.265,0,0,1,.978.336" transform="translate(32.146 70.175)" fill="#fff"/>
                  </g>
                </g>
                <g id="Group_2220" data-name="Group 2220" transform="translate(6.053 13.203)" opacity="0.3">
                  <g id="Group_2219" data-name="Group 2219" transform="translate(0)">
                    <path id="Path_2386" data-name="Path 2386" d="M-25.284-110.7c0,.027,0,.053,0,.081v.363a3.8,3.8,0,0,0,1.584,3.027l1.25.721-6.473,6.473a11.584,11.584,0,0,1-.452-3.091v-.384c0-1.9.6-3.4,1.639-4.118-.062-.147-.119-.293-.177-.44Z" transform="translate(29.379 110.7)" fill="#fff"/>
                  </g>
                </g>
                <g id="Group_2222" data-name="Group 2222" transform="translate(11.352 23.598)" opacity="0.3">
                  <g id="Group_2221" data-name="Group 2221">
                    <path id="Path_2387" data-name="Path 2387" d="M-47.062-61.05l.818.473.629.363V-62.5l3.474-3.473V-59.5l-4.248,4.248v-.777l-1.208-.7v2.035L-51.071-56.7v-.342Z" transform="translate(51.071 65.971)" fill="#fff"/>
                  </g>
                </g>
                <g id="Group_2224" data-name="Group 2224" transform="translate(11.407 7.45)" opacity="0.25">
                  <g id="Group_2223" data-name="Group 2223" transform="translate(0 0)">
                    <path id="Path_2388" data-name="Path 2388" d="M-33.074,7.038l-4.158-2.4a1.526,1.526,0,0,0-.322-.142l3.418-3.418v.716l1.208.7V0l3.473,2.005V3.42Z" transform="translate(37.554 0)" fill="#fff"/>
                  </g>
                </g>
                <g id="Group_2225" data-name="Group 2225" transform="translate(20.076 16.853)">
                  <path id="Path_2389" data-name="Path 2389" d="M-16.891-148.613v14.335c-.041-.6-.06-1.194-.09-1.791s-.036-1.195-.055-1.792c-.037-1.195-.053-2.389-.057-3.584s0-2.389.015-3.584q.008-.9.038-1.792l.053-1.792,0-.171.137.088c.533.344,1.072.678,1.6,1.033Z" transform="translate(17.096 148.783)" fill="#f5f5f5"/>
                </g>
                <g id="Group_2226" data-name="Group 2226" transform="translate(16.032 7.449)">
                  <path id="Path_2390" data-name="Path 2390" d="M-7.07-7.6c-.3-.142-.6-.293-.9-.447s-.59-.315-.88-.481c-.2-.108-.393-.224-.587-.341-.011.3-.021.607-.043.91-.018.208-.031.415-.057.623s-.044.416-.079.623V-9.2L-6.143-7.2c-.159-.059-.313-.126-.466-.194s-.31-.132-.46-.206" transform="translate(9.617 9.204)" fill="#f5f5f5"/>
                </g>
                <g id="Group_2227" data-name="Group 2227" transform="translate(11.351 4.747)">
                  <path id="Path_2391" data-name="Path 2391" d="M-7.07-7.862c-.3-.142-.6-.293-.9-.447-.5-.258-.984-.538-1.467-.823-.011.308-.021.616-.043.925-.018.21-.031.42-.058.629s-.044.42-.079.629V-9.467l3.473,2.006c-.159-.06-.313-.127-.466-.195s-.31-.132-.46-.206" transform="translate(9.617 9.467)" fill="#f5f5f5"/>
                </g>
                <g id="Group_2228" data-name="Group 2228" transform="translate(9.991 11.849)">
                  <path id="Path_2392" data-name="Path 2392" d="M-68.979-61.476v.363A3.8,3.8,0,0,0-67.4-58.087l5.072,2.928.005,0-.479-.23c-.3-.154-.737-.36-1.246-.633s-1.11-.58-1.742-.931l-.972-.542-.5-.283-.251-.143a2.416,2.416,0,0,1-.261-.179,3.424,3.424,0,0,1-.788-.925A4.215,4.215,0,0,1-69-60.088a3.413,3.413,0,0,1-.126-1.076,3.283,3.283,0,0,1,.119-.957,1.155,1.155,0,0,1,.5-.672.882.882,0,0,1,.628-.1,1.246,1.246,0,0,1,.371.145l.118.072-.014-.006c-.867-.491-1.57.046-1.57,1.2" transform="translate(69.133 62.912)" fill="#f5f5f5"/>
                </g>
                <g id="Group_2229" data-name="Group 2229" transform="translate(9.375 20.795)">
                  <path id="Path_2393" data-name="Path 2393" d="M-77.025-64.16a3.278,3.278,0,0,1,.14-1.051,1.25,1.25,0,0,1,.557-.725.973.973,0,0,1,.688-.1,1.425,1.425,0,0,1,.408.159l.131.079-.029-.012c-.966-.538-1.748.063-1.748,1.356v.384A4.255,4.255,0,0,0-75.1-60.681l4.877,2.816.622.359-.519-.253c-.33-.171-.809-.4-1.369-.7s-1.219-.644-1.913-1.031l-1.07-.6a9.389,9.389,0,0,1-1.107-.68A4.434,4.434,0,0,1-76.9-62.98a3.848,3.848,0,0,1-.127-1.18" transform="translate(77.029 66.06)" fill="#f5f5f5"/>
                </g>
                <g id="Group_2230" data-name="Group 2230" transform="translate(6.053 16.276)">
                  <path id="Path_2394" data-name="Path 2394" d="M-54.467-99.565v-.384c0-1.9.6-3.4,1.639-4.118l-.143.122a3.664,3.664,0,0,0-.361.383,4.385,4.385,0,0,0-.775,1.68,6.613,6.613,0,0,0-.18,1.228,13.691,13.691,0,0,0,.013,1.395,6.8,6.8,0,0,0,.06.731c.027.246.06.495.11.744s.091.5.157.749.123.5.2.744.149.493.239.734.175.482.277.715.2.466.307.689.213.447.332.658.23.421.353.619.234.4.363.578a11.958,11.958,0,0,0,.748,1c.257.291.49.56.72.778a8.173,8.173,0,0,0,.609.547c.363.278.578.429.578.429-2.893-1.67-5.248-6.168-5.248-10.027" transform="translate(54.467 104.067)" fill="#f5f5f5"/>
                </g>
                <g id="Group_2231" data-name="Group 2231" transform="translate(16.032 33.537)">
                  <path id="Path_2395" data-name="Path 2395" d="M-15.242-9.18A16.521,16.521,0,0,1-13.6-8.018l-3.473-2.005v-2.035a15.881,15.881,0,0,1,.181,1.923c.56.3,1.111.616,1.648.956" transform="translate(17.071 12.058)" fill="#f5f5f5"/>
                </g>
                <g id="Group_2232" data-name="Group 2232" transform="translate(11.351 30.835)">
                  <path id="Path_2396" data-name="Path 2396" d="M-36.046-41.933c.092.643.134,1.285.166,1.928.568.292,1.122.609,1.665.945a14.562,14.562,0,0,1,1.642,1.167L-36.046-39.9Z" transform="translate(36.046 41.933)" fill="#f5f5f5"/>
                </g>
              </g>
            </g>
          </g>
        </g>
      </g>
    </g>
  </g>
</svg>
