<svg xmlns="http://www.w3.org/2000/svg" xmlns:xlink="http://www.w3.org/1999/xlink" width="401.688" height="516.616" viewBox="0 0 401.688 516.616">
  <defs>
    <filter id="Union_3" x="0" y="0" width="401.688" height="458.618" filterUnits="userSpaceOnUse">
      <feOffset dx="4" dy="-2" input="SourceAlpha"/>
      <feGaussianBlur stdDeviation="3.5" result="blur"/>
      <feFlood flood-color="#9194a2" flood-opacity="0.549"/>
      <feComposite operator="in" in2="blur"/>
      <feComposite in="SourceGraphic"/>
    </filter>
  </defs>
  <g id="identite-digitale" transform="translate(-332.991 -1670.31)">
    <path id="Polygone_102" data-name="Polygone 102" d="M299.128,0l99.709,172.808L299.128,345.616H99.709L0,172.808,99.709,0Z" transform="translate(733.345 1788.09) rotate(90)" fill="#eaebf1"/>
    <g id="identite-digitale-img" transform="translate(339.488 1682.811)">
      <g transform="matrix(1, 0, 0, 1, -6.5, -12.5)" filter="url(#Union_3)">
        <path id="Union_3-2" data-name="Union 3" d="M120.439,437.555c-2.47-.437-6.752-2.177-7.827-3.79s-1.577-3.992-2.451-5.172-2.886-2.5-3.359-3.868a8.708,8.708,0,0,1,.413-3.787c.334-1.276.7-2.678,1.132-2.559v-1.427c-.2-.094-.309-.156-.309-.156s-1.187-31.843-1.732-42.186a33.591,33.591,0,0,1,1.213-11.3l-2.12-1.224a6.1,6.1,0,0,1-2.759-5.893l2.288-13.213L19.341,392.4l-1.634.943-.052.03-.018.01-.04.022a9.929,9.929,0,0,1-4.7,1.088,9.828,9.828,0,0,1-4.81-1.15l-3.273-1.889A10.633,10.633,0,0,1,0,383.121V163.5H0a10.593,10.593,0,0,1,4.816-8.318L273.127,1.141a10.665,10.665,0,0,1,9.626.012l2.5,1.441a10.678,10.678,0,0,1,4.806,8.129c0,.017,0,.036,0,.054v.014c0,.019,0,.037,0,.055v.013c0,.022,0,.043,0,.065V189.854l5.768-3.33.374-.216a2.522,2.522,0,0,1,.447-2.608,8.4,8.4,0,0,1,4.346-3.057,10.8,10.8,0,0,1,4.676-.354q.371.051.739.126l16.981-9.8q.124-.072.259-.132a3.778,3.778,0,0,1,.856-.262,4.323,4.323,0,0,1,2.825.394l.68.392a4.355,4.355,0,0,1,1.97,3.412v23.477l11.552-.44V176.477h-1.588v-1.735a13.39,13.39,0,0,1,11.445-13.248,15.893,15.893,0,0,1,6.089-1.2,16.131,16.131,0,0,1,2.087.135,2.137,2.137,0,0,1-.456-1.509,2.036,2.036,0,0,1,2.309-1.832l-.191,2.165a2.085,2.085,0,0,1,.532-.569,2.037,2.037,0,0,1,2.9.527l-2.452,1.8a15.954,15.954,0,0,1,11.218,15.233v22.171a3.625,3.625,0,0,1,.649.184l-.022.024c.062.017.124.036.186.058,2.549.871,4.618,4.435,2.872,8.988l-6.076,21.746c3.65,5.571,5.982,9.882,7.357,15.37l-.006.01c3.824,14.756-1.162,51.778-1.162,51.778.167,1.958,2.406,5.813,3.24,14.433.986,10.185-1.547,35.759-1.547,35.759l-.075.046v4.932c.429-.115.787,1.269,1.118,2.529a8.619,8.619,0,0,1,.409,3.742c-.467,1.351-2.455,2.654-3.319,3.821s-1.632,2.928-2.84,4.413a12.973,12.973,0,0,1-7.317,3.929,6.88,6.88,0,0,1-1.154.086c-2.376,0-5.9-.881-5.215-2.892.558-1.636,2.287-3.315,4.049-4.889l.012-.013h0c.7-.622,1.4-1.231,2.036-1.811a20.7,20.7,0,0,0,4.347-6.945,9.771,9.771,0,0,0,.748-3.75v-2.913s-6.793-38.516-8.071-48.643c-1.114-8.838-3.254-29.611-3.254-29.611l-6.413,29.621a37.845,37.845,0,0,1,1.249,8.776c-.1,5.984-2.887,32.2-2.887,32.2s-.061.035-.181.093l.493,4.159c.661-.153.89,1.362,1.389,3.36.455,1.832.683,3.312-.191,4.423-1.255,1.6-3.2,1.911-4.749,3.134-2.1,1.65-2.194,4.543-4.417,5.933a10.049,10.049,0,0,1-8.346.8c-2.706-.943-2.263-2.413-1.977-3.005a2.574,2.574,0,0,1,.84-.869c1.454-1.09,2.843-2.172,4.153-3.37l.022-.022v-.015c.643-.589,1.273-1.2,1.877-1.858.157-.172.349-.414.565-.707l.006-.008.006-.01c.9-1.22,2.206-3.285,3.058-4.663a5.653,5.653,0,0,0,.835-3.447c-.078-.725-.221-2.045-.339-3.136l-.193-.027s-4.5-34.447-4.362-42.476c.071-4.3,1.946-50.048,1.946-50.048.378-5.192,1-9.625,1.431-13.118-2.205-.425-4.554-.872-6.5-1.131a23.381,23.381,0,0,0-7.717.451v10.72a4.355,4.355,0,0,1-1.97,3.412l-90.078,52a4.353,4.353,0,0,1-3.939,0l-.414-.239-.271-.153a3.735,3.735,0,0,1-1.094-1.022,4.252,4.252,0,0,1-.87-2.389V270l-28.933,16.7v33.307a3.558,3.558,0,0,1-.23,1.2l13.541,7.818.044.026a7.439,7.439,0,0,1,3.389,5.508v.005c0,.015,0,.031,0,.046v.013c0,.014,0,.028,0,.041v.013c0,.018,0,.036,0,.053a7.39,7.39,0,0,1-2.864,5.323l-.006.005h0a5.525,5.525,0,0,1-.563.375l-70.476,40.69a5.453,5.453,0,0,1-.944.425,6.936,6.936,0,0,1-.962.254c-1.006,12.107-2.106,24.745-2.106,24.745q-.288.1-.567.176L140.6,409.1l.007,0,.039-1.113c.373.013.679.541,1.506,1.436a15.764,15.764,0,0,0,4.243,3.054c2.7,1.352,7.953,3.433,10.33,4.5,1.484.669,1.415,2.462-.12,3.483s-5.241,1.757-9.69.761c-2.425-.543-5.58-2.781-7.576-2.66s-5.735.092-7.21-.923-.884-3.188-.467-5.052c.455-2.035,1.022-5.209,1.7-5.07v-1.344a4.723,4.723,0,0,1-.457-.259s-1.876-19.826-2.732-29.523l-7.489-4.324c-2.231,15.777-6.61,44.887-6.61,44.887q-.258.107-.51.2v1.226c.69.3,2.294,6.42,5.156,9.031,2.276,2.075,5.38,4.473,6.17,6.787.729,2.135-3.239,3.422-5.628,3.422A4.787,4.787,0,0,1,120.439,437.555ZM331.874,221.138c.836,2.212.37,4.443,2.453,4.666,2.523.268,6.358.587,10.136.879-2.74-11.879-2.631-14.456-2.259-17.24a10.318,10.318,0,0,1,.3-1.445c-4-.25-9.217-.577-12.523-.782v12.145a.643.643,0,0,1,.222-.034C330.558,219.326,331.273,219.551,331.874,221.138Z" transform="translate(6.5 12.5)" fill="#eaebf1"/>
      </g>
    </g>
    <g id="identite-digitale-img-2" data-name="identite-digitale-img" transform="translate(339.491 1682.811)">
      <g id="Device" transform="translate(0 0)">
        <path id="Tracé_1720" data-name="Tracé 1720" d="M217.1,245.208l-51.14,29.526a9.6,9.6,0,0,0-4.113,5.892L149.137,354A6.1,6.1,0,0,0,151.9,359.9l32.975,19.038a7.6,7.6,0,0,0,6.871,0l70.477-40.69a6.455,6.455,0,0,0,0-11.41l-25.357-14.64a8.706,8.706,0,0,1-3.837-5.931l-5.643-55.371a8.448,8.448,0,0,0-3.624-5.807,7.369,7.369,0,0,0-6.659.123" transform="translate(-46.5 2.196)" fill="#484d5f"/>
        <path id="Tracé_1721" data-name="Tracé 1721" d="M179.457,346.981V360.7a7.027,7.027,0,0,0,3.436-.821l70.477-40.69a7.37,7.37,0,0,0,3.435-5.7,6.791,6.791,0,0,0-1.352-3.723H243.915Z" transform="translate(-37.651 21.246)" fill="#60667e"/>
        <path id="Tracé_1722" data-name="Tracé 1722" d="M221.826,248l-51.14,29.526a9.6,9.6,0,0,0-4.112,5.892l-11.538,66.611a6.1,6.1,0,0,0,2.759,5.892l25.358,14.641a7.6,7.6,0,0,0,6.87,0l70.477-40.69c1.9-1.1,1.9-2.872,0-3.968l-25.357-14.64a8.706,8.706,0,0,1-3.837-5.93l-5.643-55.371c-.222-2.18-1.941-3.058-3.837-1.963" transform="translate(-44.782 3.122)" fill="#1a2e35"/>
        <path id="Tracé_1723" data-name="Tracé 1723" d="M260.376,312.1l-25.358-14.64a7.959,7.959,0,0,1-2.515-2.515l-77.1,44.517a5.776,5.776,0,0,0,2.273,2.655l25.357,14.64a7.591,7.591,0,0,0,6.872,0l70.477-40.69c1.9-1.095,1.9-2.872,0-3.967" transform="translate(-44.658 16.929)" fill="#54596e"/>
        <path id="Tracé_1724" data-name="Tracé 1724" d="M77.717,446.749l-3.273-1.89a10.628,10.628,0,0,1-4.81-8.331V216.908a10.6,10.6,0,0,1,4.816-8.318L342.757,54.55a10.663,10.663,0,0,1,9.626.012l2.5,1.441a10.628,10.628,0,0,1,4.81,8.331V283.952a10.63,10.63,0,0,1-4.81,8.331L87.337,446.749a10.629,10.629,0,0,1-9.62,0" transform="translate(-69.633 -53.407)" fill="#9498a7"/>
        <path id="Tracé_1725" data-name="Tracé 1725" d="M88.97,186.714,71.044,176.365a9.81,9.81,0,0,0-1.411,4.739v219.62a10.634,10.634,0,0,0,4.81,8.331l3.273,1.889a10.629,10.629,0,0,0,9.62,0L88.971,410Z" transform="translate(-69.633 -17.601)" fill="#3f4147"/>
        <path id="Tracé_1726" data-name="Tracé 1726" d="M79.619,442.283V222.664a10.632,10.632,0,0,1,4.81-8.331L351.971,59.866c2.657-1.534,4.81-.291,4.81,2.776v219.62a10.626,10.626,0,0,1-4.81,8.33L84.429,445.06c-2.656,1.533-4.81.29-4.81-2.777" transform="translate(-66.725 -51.718)" fill="#696c77"/>
        <path id="Tracé_1727" data-name="Tracé 1727" d="M177.691,295.9l25.357-14.64c1.9-1.1,3.436-.318,3.436,1.738a7.364,7.364,0,0,1-3.436,5.7l-25.357,14.64c-1.9,1.1-3.436.318-3.436-1.738a7.371,7.371,0,0,1,3.436-5.7" transform="translate(-39.166 12.801)" fill="#e1e1e1"/>
        <path id="Tracé_1728" data-name="Tracé 1728" d="M89.783,217.537,341.754,71.65c1.517-.877,2.746-.168,2.746,1.584v191.41a6.076,6.076,0,0,1-2.749,4.762L89.786,414.878c-1.518.875-2.749.165-2.749-1.587V222.3a6.083,6.083,0,0,1,2.746-4.762" transform="translate(-64.565 -48.205)" fill="#fff"/>
        <path id="Tracé_1729" data-name="Tracé 1729" d="M97.545,217.724,328.732,84.266c4.2-2.424,7.63-.442,7.63,4.4V254.864A7.861,7.861,0,0,1,332.817,261L96.178,397.6c-1.947,1.126-3.542.205-3.542-2.045V226.227a10.892,10.892,0,0,1,4.909-8.5" transform="translate(-62.934 -44.722)" fill="#e7e7e7"/>
        <path id="Tracé_1730" data-name="Tracé 1730" d="M169.854,181.5l127.4-73.555v25.584l-127.4,73.555V181.5Z" transform="translate(-40.448 -37.526)" fill="#f5f5f5"/>
        <path id="Tracé_1731" data-name="Tracé 1731" d="M169.854,209.161l127.4-73.555V199.7l-127.4,73.555V209.161Z" transform="translate(-40.448 -29.471)" fill="#f0f0f0"/>
        <path id="Tracé_1732" data-name="Tracé 1732" d="M336.36,92.651V88.671c0-4.845-3.433-6.828-7.63-4.4L97.545,217.724a10.894,10.894,0,0,0-4.909,8.5v7.122Z" transform="translate(-62.934 -44.722)" fill="#4a63c2"/>
        <path id="Tracé_1733" data-name="Tracé 1733" d="M257.206,97.635a5.808,5.808,0,0,0-2.628,4.551c0,1.676,1.176,2.355,2.628,1.517a5.808,5.808,0,0,0,2.628-4.551c0-1.676-1.176-2.355-2.628-1.517" transform="translate(-15.776 -40.633)" fill="#fff"/>
        <path id="Tracé_1734" data-name="Tracé 1734" d="M265.282,92.973a5.808,5.808,0,0,0-2.628,4.551c0,1.675,1.176,2.355,2.628,1.517a5.808,5.808,0,0,0,2.628-4.552c0-1.676-1.176-2.355-2.628-1.517" transform="translate(-13.424 -41.99)" fill="#fff"/>
        <path id="Tracé_1735" data-name="Tracé 1735" d="M273.358,88.31a5.808,5.808,0,0,0-2.628,4.552c0,1.676,1.176,2.355,2.628,1.517a5.808,5.808,0,0,0,2.628-4.552c0-1.676-1.176-2.355-2.628-1.517" transform="translate(-11.072 -43.348)" fill="#fff"/>
        <path id="Tracé_1736" data-name="Tracé 1736" d="M102.885,215.025v80l69.166-40V174.961Zm-1.364,83.726a1.362,1.362,0,0,1-1.364-1.364V214.238a1.362,1.362,0,0,1,.68-1.18l71.893-41.643a1.364,1.364,0,0,1,2.048,1.18v83.217a1.363,1.363,0,0,1-.682,1.18L102.2,298.567a1.359,1.359,0,0,1-.683.183" transform="translate(-60.744 -19.096)" fill="#fafafa"/>
        <path id="Tracé_1737" data-name="Tracé 1737" d="M146.174,197.223a21.357,21.357,0,0,0-10.488,3.254c-13.416,7.77-24.329,26.715-24.329,42.231,0,7.224,2.363,12.566,6.654,15.041s10.074,1.845,16.309-1.76c13.416-7.758,24.329-26.7,24.329-42.23,0-7.233-2.364-12.58-6.657-15.054a11.485,11.485,0,0,0-5.817-1.482m-22.344,64.742a14.179,14.179,0,0,1-7.183-1.854c-5.17-2.983-8.018-9.164-8.018-17.4,0-16.383,11.525-36.386,25.69-44.592,7.113-4.12,13.873-4.749,19.035-1.774s8.022,9.168,8.022,17.417c0,16.4-11.525,36.4-25.691,44.59a24.037,24.037,0,0,1-11.855,3.615" transform="translate(-58.277 -12.323)" fill="#fafafa"/>
      </g>
      <g id="Gear" transform="translate(193.656 145.296)" opacity="0.6">
        <path id="Tracé_1738" data-name="Tracé 1738" d="M286.439,281.283c-2.856,1.649-4.631.479-4.631-2.819a11.531,11.531,0,0,1,5.216-8.987c2.856-1.649,4.586-.449,4.586,2.848a11.431,11.431,0,0,1-5.171,8.957m13.367-14.01L298.3,266.4h0a.257.257,0,0,0-.237,0l-2.725,1.228a.323.323,0,0,1-.454-.21,6.111,6.111,0,0,0-.607-1.351.752.752,0,0,1-.042-.66l1.816-3.661a.412.412,0,0,0-.161-.533l-1.971-1.138a.412.412,0,0,0-.542.127l-2.263,3.4a.752.752,0,0,1-.593.294,5.752,5.752,0,0,0-.79.037v-2.489l-1.512-.872h0a.252.252,0,0,0-.248.022l-3.061,1.767a.827.827,0,0,0-.365.571l-.307,3.406a1.139,1.139,0,0,1-.318.636,18.426,18.426,0,0,0-1.7,1.8.586.586,0,0,1-.6.17l-1.965-.686a.48.48,0,0,0-.552.2l-2.251,3.9a.479.479,0,0,0,.1.58l1.577,1.359a.587.587,0,0,1,.153.607,18.4,18.4,0,0,0-.708,2.373,1.139,1.139,0,0,1-.392.593l-2.8,1.969a.824.824,0,0,0-.312.6v3.534a.25.25,0,0,0,.109.227h0l1.508.869,2.239-1.06a5.818,5.818,0,0,0,.279.521.752.752,0,0,1,.041.66l-1.816,3.661a.412.412,0,0,0,.161.533l1.971,1.138a.413.413,0,0,0,.542-.127l2.263-3.4a.753.753,0,0,1,.593-.294,6.093,6.093,0,0,0,1.474-.15.323.323,0,0,1,.409.288l.3,2.974a.255.255,0,0,0,.118.208h0l1.505.868,1.808-2.655a.826.826,0,0,0,.365-.571l.307-3.406a.682.682,0,0,1,.391-.515,7.212,7.212,0,0,0,2.378-1.668.616.616,0,0,1,.61-.162l1.206.425a.478.478,0,0,0,.551-.2l2.251-3.9a.479.479,0,0,0-.1-.58l-1.036-.893a.634.634,0,0,1-.168-.612,10.182,10.182,0,0,0,.281-2.825.785.785,0,0,1,.294-.6l2.8-1.968a.826.826,0,0,0,.312-.6l1.336-1.6Z" transform="translate(-274.469 -260.03)" fill="#d5dbf1"/>
        <g id="Groupe_1661" data-name="Groupe 1661" opacity="0.1">
          <path id="Tracé_1739" data-name="Tracé 1739" d="M286.439,281.283c-2.856,1.649-4.631.479-4.631-2.819a11.531,11.531,0,0,1,5.216-8.987c2.856-1.649,4.586-.449,4.586,2.848a11.431,11.431,0,0,1-5.171,8.957m13.367-14.01L298.3,266.4h0a.257.257,0,0,0-.237,0l-2.725,1.228a.323.323,0,0,1-.454-.21,6.111,6.111,0,0,0-.607-1.351.752.752,0,0,1-.042-.66l1.816-3.661a.412.412,0,0,0-.161-.533l-1.971-1.138a.412.412,0,0,0-.542.127l-2.263,3.4a.752.752,0,0,1-.593.294,5.752,5.752,0,0,0-.79.037v-2.489l-1.512-.872h0a.252.252,0,0,0-.248.022l-3.061,1.767a.827.827,0,0,0-.365.571l-.307,3.406a1.139,1.139,0,0,1-.318.636,18.426,18.426,0,0,0-1.7,1.8.586.586,0,0,1-.6.17l-1.965-.686a.48.48,0,0,0-.552.2l-2.251,3.9a.479.479,0,0,0,.1.58l1.577,1.359a.587.587,0,0,1,.153.607,18.4,18.4,0,0,0-.708,2.373,1.139,1.139,0,0,1-.392.593l-2.8,1.969a.824.824,0,0,0-.312.6v3.534a.25.25,0,0,0,.109.227h0l1.508.869,2.239-1.06a5.818,5.818,0,0,0,.279.521.752.752,0,0,1,.041.66l-1.816,3.661a.412.412,0,0,0,.161.533l1.971,1.138a.413.413,0,0,0,.542-.127l2.263-3.4a.753.753,0,0,1,.593-.294,6.093,6.093,0,0,0,1.474-.15.323.323,0,0,1,.409.288l.3,2.974a.255.255,0,0,0,.118.208h0l1.505.868,1.808-2.655a.826.826,0,0,0,.365-.571l.307-3.406a.682.682,0,0,1,.391-.515,7.212,7.212,0,0,0,2.378-1.668.616.616,0,0,1,.61-.162l1.206.425a.478.478,0,0,0,.551-.2l2.251-3.9a.479.479,0,0,0-.1-.58l-1.036-.893a.634.634,0,0,1-.168-.612,10.182,10.182,0,0,0,.281-2.825.785.785,0,0,1,.294-.6l2.8-1.968a.826.826,0,0,0,.312-.6l1.336-1.6Z" transform="translate(-274.469 -260.03)"/>
        </g>
        <path id="Tracé_1740" data-name="Tracé 1740" d="M321.3,262.965l.6-1.211a.411.411,0,0,0-.161-.533l-1.971-1.138a.413.413,0,0,0-.543.127l-2.263,3.4a.587.587,0,0,1-.15.145l2.533,1.463Z" transform="translate(-300.319 -260.03)" fill="#949dc2"/>
        <path id="Tracé_1741" data-name="Tracé 1741" d="M277.995,305.28a.97.97,0,0,1-.216.23l-2.8,1.969a.716.716,0,0,0-.184.211l1.706.985,3.712-2.112Z" transform="translate(-274.67 -287.654)" fill="#949dc2"/>
        <path id="Tracé_1742" data-name="Tracé 1742" d="M283.139,281.13a.48.48,0,0,0-.394.227l-2.25,3.9a.457.457,0,0,0-.051.285l1.94,1.12,3.08-4.167Z" transform="translate(-278.114 -272.911)" fill="#949dc2"/>
        <path id="Tracé_1743" data-name="Tracé 1743" d="M300.486,263.575l2.4,1.386,2.726-1.574v-1.1l-1.512-.872h0a.252.252,0,0,0-.247.022l-3.061,1.767a.818.818,0,0,0-.306.369" transform="translate(-290.352 -260.863)" fill="#949dc2"/>
        <path id="Tracé_1744" data-name="Tracé 1744" d="M333.549,277.224v0a.245.245,0,0,0-.242,0l-2.725,1.227a.323.323,0,0,1-.453-.209,5.907,5.907,0,0,0-.39-.958l2.062-.929a.258.258,0,0,1,.237,0v0Z" transform="translate(-308.211 -269.98)" fill="#949dc2"/>
        <g id="Groupe_1662" data-name="Groupe 1662" transform="translate(0.128 0)" opacity="0.4">
          <path id="Tracé_1745" data-name="Tracé 1745" d="M321.3,262.965l.6-1.211a.411.411,0,0,0-.161-.533l-1.971-1.138a.413.413,0,0,0-.543.127l-2.263,3.4a.587.587,0,0,1-.15.145l2.533,1.463Z" transform="translate(-300.447 -260.03)" fill="#fff"/>
          <path id="Tracé_1746" data-name="Tracé 1746" d="M277.995,305.28a.97.97,0,0,1-.216.23l-2.8,1.969a.716.716,0,0,0-.184.211l1.706.985,3.712-2.112Z" transform="translate(-274.798 -287.655)" fill="#fff"/>
          <path id="Tracé_1747" data-name="Tracé 1747" d="M283.139,281.13a.48.48,0,0,0-.394.227l-2.25,3.9a.457.457,0,0,0-.051.285l1.94,1.12,3.08-4.167Z" transform="translate(-278.243 -272.911)" fill="#fff"/>
          <path id="Tracé_1748" data-name="Tracé 1748" d="M300.486,263.575l2.4,1.386,2.726-1.574v-1.1l-1.512-.872h0a.252.252,0,0,0-.247.022l-3.061,1.767a.818.818,0,0,0-.306.369" transform="translate(-290.48 -260.863)" fill="#fff"/>
          <path id="Tracé_1749" data-name="Tracé 1749" d="M333.549,277.224v0a.245.245,0,0,0-.242,0l-2.725,1.227a.323.323,0,0,1-.453-.209,5.907,5.907,0,0,0-.39-.958l2.062-.929a.258.258,0,0,1,.237,0v0Z" transform="translate(-308.34 -269.98)" fill="#fff"/>
        </g>
        <path id="Tracé_1750" data-name="Tracé 1750" d="M290.3,283.512c-2.856,1.649-5.172.312-5.172-2.986a11.432,11.432,0,0,1,5.172-8.957c2.856-1.649,5.171-.312,5.171,2.986a11.431,11.431,0,0,1-5.171,8.957m11.97-11.115v-3.535a.228.228,0,0,0-.348-.225l-2.725,1.228a.323.323,0,0,1-.454-.21,6.113,6.113,0,0,0-.608-1.351.752.752,0,0,1-.041-.66l1.816-3.661a.412.412,0,0,0-.161-.533l-1.971-1.138a.412.412,0,0,0-.542.127l-2.263,3.4a.753.753,0,0,1-.592.294,6.1,6.1,0,0,0-1.474.15A.323.323,0,0,1,292.5,266l-.3-2.973a.228.228,0,0,0-.369-.189l-3.061,1.767a.826.826,0,0,0-.365.571l-.307,3.406a1.139,1.139,0,0,1-.318.636,18.379,18.379,0,0,0-1.7,1.8.585.585,0,0,1-.6.17l-1.965-.686a.48.48,0,0,0-.552.2l-2.25,3.9a.479.479,0,0,0,.1.58l1.577,1.359a.586.586,0,0,1,.153.606,18.45,18.45,0,0,0-.709,2.373,1.136,1.136,0,0,1-.391.593l-2.8,1.969a.825.825,0,0,0-.312.6v3.535a.228.228,0,0,0,.348.225l2.725-1.228a.323.323,0,0,1,.454.21,6.114,6.114,0,0,0,.607,1.351.752.752,0,0,1,.041.66l-1.816,3.662a.412.412,0,0,0,.161.533l1.971,1.138a.413.413,0,0,0,.543-.127l2.263-3.4a.754.754,0,0,1,.593-.294,6.091,6.091,0,0,0,1.474-.15.323.323,0,0,1,.409.288l.3,2.974a.228.228,0,0,0,.369.189l3.061-1.767a.826.826,0,0,0,.365-.571l.307-3.406a1.139,1.139,0,0,1,.318-.636,18.373,18.373,0,0,0,1.7-1.8.585.585,0,0,1,.6-.171l1.965.686a.48.48,0,0,0,.552-.2l2.251-3.9a.479.479,0,0,0-.1-.58l-1.577-1.359a.587.587,0,0,1-.153-.606,18.471,18.471,0,0,0,.709-2.372,1.136,1.136,0,0,1,.391-.594l2.8-1.968a.825.825,0,0,0,.312-.6" transform="translate(-276.829 -261.39)" fill="#d5dbf1"/>
      </g>
      <g id="Gear-2" data-name="Gear" transform="translate(172.622 169.057)" opacity="0.6">
        <path id="Tracé_1738-2" data-name="Tracé 1738" d="M284.611,278.037c-2.42,1.4-3.924.406-3.924-2.388a9.77,9.77,0,0,1,4.42-7.614c2.42-1.4,3.886-.38,3.886,2.413a9.685,9.685,0,0,1-4.381,7.589m11.325-11.87-1.278-.737h0a.218.218,0,0,0-.2,0l-2.308,1.041a.274.274,0,0,1-.385-.178,5.174,5.174,0,0,0-.514-1.145.638.638,0,0,1-.035-.559l1.539-3.1a.35.35,0,0,0-.137-.452l-1.67-.964a.349.349,0,0,0-.459.108l-1.917,2.884a.637.637,0,0,1-.5.249,4.869,4.869,0,0,0-.67.031v-2.109l-1.281-.739h0a.214.214,0,0,0-.21.019l-2.593,1.5a.7.7,0,0,0-.31.484l-.26,2.886a.964.964,0,0,1-.27.539,15.614,15.614,0,0,0-1.441,1.525.5.5,0,0,1-.51.144l-1.665-.582a.406.406,0,0,0-.467.174l-1.907,3.3a.406.406,0,0,0,.083.491l1.336,1.151a.5.5,0,0,1,.13.514,15.589,15.589,0,0,0-.6,2.01.965.965,0,0,1-.332.5l-2.369,1.668a.7.7,0,0,0-.265.51v2.995a.212.212,0,0,0,.092.193h0l1.277.737,1.9-.9a4.907,4.907,0,0,0,.237.441.638.638,0,0,1,.035.559l-1.539,3.1a.349.349,0,0,0,.136.452l1.67.964a.35.35,0,0,0,.459-.108l1.917-2.884a.638.638,0,0,1,.5-.249,5.168,5.168,0,0,0,1.248-.127.274.274,0,0,1,.346.244l.253,2.52a.216.216,0,0,0,.1.177h0l1.275.735,1.532-2.25a.7.7,0,0,0,.31-.484l.26-2.886a.577.577,0,0,1,.332-.436,6.111,6.111,0,0,0,2.015-1.413.522.522,0,0,1,.517-.138l1.022.36a.405.405,0,0,0,.467-.173l1.907-3.3a.406.406,0,0,0-.083-.491l-.878-.757a.537.537,0,0,1-.143-.518,8.628,8.628,0,0,0,.238-2.393.666.666,0,0,1,.249-.51l2.369-1.668a.7.7,0,0,0,.265-.51l1.132-1.357Z" transform="translate(-274.469 -260.03)" fill="#d5dbf1"/>
        <g id="Groupe_1661-2" data-name="Groupe 1661" transform="translate(0 0)" opacity="0.1">
          <path id="Tracé_1739-2" data-name="Tracé 1739" d="M284.611,278.037c-2.42,1.4-3.924.406-3.924-2.388a9.77,9.77,0,0,1,4.42-7.614c2.42-1.4,3.886-.38,3.886,2.413a9.685,9.685,0,0,1-4.381,7.589m11.325-11.87-1.278-.737h0a.218.218,0,0,0-.2,0l-2.308,1.041a.274.274,0,0,1-.385-.178,5.174,5.174,0,0,0-.514-1.145.638.638,0,0,1-.035-.559l1.539-3.1a.35.35,0,0,0-.137-.452l-1.67-.964a.349.349,0,0,0-.459.108l-1.917,2.884a.637.637,0,0,1-.5.249,4.869,4.869,0,0,0-.67.031v-2.109l-1.281-.739h0a.214.214,0,0,0-.21.019l-2.593,1.5a.7.7,0,0,0-.31.484l-.26,2.886a.964.964,0,0,1-.27.539,15.614,15.614,0,0,0-1.441,1.525.5.5,0,0,1-.51.144l-1.665-.582a.406.406,0,0,0-.467.174l-1.907,3.3a.406.406,0,0,0,.083.491l1.336,1.151a.5.5,0,0,1,.13.514,15.589,15.589,0,0,0-.6,2.01.965.965,0,0,1-.332.5l-2.369,1.668a.7.7,0,0,0-.265.51v2.995a.212.212,0,0,0,.092.193h0l1.277.737,1.9-.9a4.907,4.907,0,0,0,.237.441.638.638,0,0,1,.035.559l-1.539,3.1a.349.349,0,0,0,.136.452l1.67.964a.35.35,0,0,0,.459-.108l1.917-2.884a.638.638,0,0,1,.5-.249,5.168,5.168,0,0,0,1.248-.127.274.274,0,0,1,.346.244l.253,2.52a.216.216,0,0,0,.1.177h0l1.275.735,1.532-2.25a.7.7,0,0,0,.31-.484l.26-2.886a.577.577,0,0,1,.332-.436,6.111,6.111,0,0,0,2.015-1.413.522.522,0,0,1,.517-.138l1.022.36a.405.405,0,0,0,.467-.173l1.907-3.3a.406.406,0,0,0-.083-.491l-.878-.757a.537.537,0,0,1-.143-.518,8.628,8.628,0,0,0,.238-2.393.666.666,0,0,1,.249-.51l2.369-1.668a.7.7,0,0,0,.265-.51l1.132-1.357Z" transform="translate(-274.469 -260.03)"/>
        </g>
        <path id="Tracé_1740-2" data-name="Tracé 1740" d="M320.614,262.517l.509-1.026a.348.348,0,0,0-.136-.452l-1.67-.964a.349.349,0,0,0-.46.108l-1.917,2.884a.5.5,0,0,1-.127.123l2.146,1.239Z" transform="translate(-302.838 -260.03)" fill="#949dc2"/>
        <path id="Tracé_1741-2" data-name="Tracé 1741" d="M277.507,305.28a.82.82,0,0,1-.183.195l-2.369,1.668a.608.608,0,0,0-.156.179l1.446.835,3.145-1.789-1.883-1.087Z" transform="translate(-274.689 -290.346)" fill="#949dc2"/>
        <path id="Tracé_1742-2" data-name="Tracé 1742" d="M282.727,281.13a.407.407,0,0,0-.334.193l-1.906,3.3a.388.388,0,0,0-.043.241l1.643.949,2.61-3.531Z" transform="translate(-278.47 -274.166)" fill="#949dc2"/>
        <path id="Tracé_1743-2" data-name="Tracé 1743" d="M300.486,263.242l2.034,1.174,2.31-1.334v-.93l-1.281-.739h0a.214.214,0,0,0-.21.019l-2.594,1.5a.693.693,0,0,0-.259.313" transform="translate(-291.9 -260.944)" fill="#949dc2"/>
        <path id="Tracé_1744-2" data-name="Tracé 1744" d="M332.968,277.087v0a.207.207,0,0,0-.2,0l-2.309,1.04a.274.274,0,0,1-.384-.177,5.012,5.012,0,0,0-.33-.812l1.747-.787a.219.219,0,0,1,.2,0v0l1.28.738Z" transform="translate(-311.5 -270.95)" fill="#949dc2"/>
        <g id="Groupe_1662-2" data-name="Groupe 1662" transform="translate(0.109 0)" opacity="0.4">
          <path id="Tracé_1745-2" data-name="Tracé 1745" d="M320.614,262.517l.509-1.026a.348.348,0,0,0-.136-.452l-1.67-.964a.349.349,0,0,0-.46.108l-1.917,2.884a.5.5,0,0,1-.127.123l2.146,1.239Z" transform="translate(-302.947 -260.03)" fill="#fff"/>
          <path id="Tracé_1746-2" data-name="Tracé 1746" d="M277.507,305.28a.82.82,0,0,1-.183.195l-2.369,1.668a.608.608,0,0,0-.156.179l1.446.835,3.145-1.789-1.883-1.087Z" transform="translate(-274.798 -290.347)" fill="#fff"/>
          <path id="Tracé_1747-2" data-name="Tracé 1747" d="M282.727,281.13a.407.407,0,0,0-.334.193l-1.906,3.3a.388.388,0,0,0-.043.241l1.643.949,2.61-3.531Z" transform="translate(-278.578 -274.167)" fill="#fff"/>
          <path id="Tracé_1748-2" data-name="Tracé 1748" d="M300.486,263.242l2.034,1.174,2.31-1.334v-.93l-1.281-.739h0a.214.214,0,0,0-.21.019l-2.594,1.5a.693.693,0,0,0-.259.313" transform="translate(-292.008 -260.944)" fill="#fff"/>
          <path id="Tracé_1749-2" data-name="Tracé 1749" d="M332.968,277.087v0a.207.207,0,0,0-.2,0l-2.309,1.04a.274.274,0,0,1-.384-.177,5.012,5.012,0,0,0-.33-.812l1.747-.787a.219.219,0,0,1,.2,0v0l1.28.738Z" transform="translate(-311.608 -270.95)" fill="#fff"/>
        </g>
        <path id="Tracé_1750-2" data-name="Tracé 1750" d="M288.476,280.266c-2.42,1.4-4.382.264-4.382-2.53a9.686,9.686,0,0,1,4.382-7.589c2.42-1.4,4.381-.264,4.381,2.53a9.685,9.685,0,0,1-4.381,7.589m10.142-9.417v-2.995a.193.193,0,0,0-.3-.191l-2.308,1.041a.274.274,0,0,1-.385-.178,5.182,5.182,0,0,0-.515-1.145.637.637,0,0,1-.035-.559l1.539-3.1a.349.349,0,0,0-.136-.452l-1.67-.964a.349.349,0,0,0-.459.108l-1.918,2.884a.638.638,0,0,1-.5.249,5.165,5.165,0,0,0-1.248.127.274.274,0,0,1-.346-.244l-.253-2.519a.193.193,0,0,0-.313-.16l-2.593,1.5a.7.7,0,0,0-.31.484l-.26,2.886a.965.965,0,0,1-.27.539,15.584,15.584,0,0,0-1.441,1.525.5.5,0,0,1-.51.144l-1.665-.581a.406.406,0,0,0-.467.174l-1.906,3.3a.406.406,0,0,0,.083.491l1.336,1.151a.5.5,0,0,1,.13.513,15.643,15.643,0,0,0-.6,2.01.963.963,0,0,1-.332.5l-2.369,1.668a.7.7,0,0,0-.265.51v2.995a.193.193,0,0,0,.3.19l2.308-1.041a.274.274,0,0,1,.384.178,5.18,5.18,0,0,0,.515,1.145.637.637,0,0,1,.035.559l-1.539,3.1a.349.349,0,0,0,.137.452l1.67.964a.35.35,0,0,0,.46-.108l1.917-2.883a.639.639,0,0,1,.5-.25,5.162,5.162,0,0,0,1.249-.127.274.274,0,0,1,.346.244l.253,2.52a.193.193,0,0,0,.313.16l2.594-1.5a.7.7,0,0,0,.31-.484l.26-2.886a.965.965,0,0,1,.27-.539,15.568,15.568,0,0,0,1.441-1.524.5.5,0,0,1,.51-.145l1.665.581a.406.406,0,0,0,.467-.174l1.907-3.3a.406.406,0,0,0-.083-.491l-1.336-1.151a.5.5,0,0,1-.13-.514,15.654,15.654,0,0,0,.6-2.01.962.962,0,0,1,.332-.5l2.369-1.668a.7.7,0,0,0,.265-.51" transform="translate(-277.059 -261.523)" fill="#d5dbf1"/>
      </g>
      <g id="Gear-3" data-name="Gear" transform="translate(190.747 178.088)" opacity="0.6">
        <path id="Tracé_1738-3" data-name="Tracé 1738" d="M281.765,272.984c-1.741,1.005-2.823.292-2.823-1.718a7.028,7.028,0,0,1,3.179-5.478c1.741-1.005,2.8-.274,2.8,1.736a6.967,6.967,0,0,1-3.152,5.459m8.147-8.539-.919-.53h0a.157.157,0,0,0-.144,0l-1.661.749a.2.2,0,0,1-.277-.128,3.726,3.726,0,0,0-.37-.824.458.458,0,0,1-.025-.4l1.107-2.232a.251.251,0,0,0-.1-.325l-1.2-.694a.251.251,0,0,0-.331.078l-1.379,2.075a.459.459,0,0,1-.361.179,3.5,3.5,0,0,0-.482.023V260.9l-.922-.531h0a.154.154,0,0,0-.151.014l-1.866,1.077a.5.5,0,0,0-.223.348l-.187,2.076a.694.694,0,0,1-.194.388,11.244,11.244,0,0,0-1.037,1.1.357.357,0,0,1-.367.1l-1.2-.418a.292.292,0,0,0-.336.125l-1.372,2.376a.292.292,0,0,0,.06.354l.961.828a.358.358,0,0,1,.093.37,11.205,11.205,0,0,0-.432,1.446.694.694,0,0,1-.239.362l-1.7,1.2a.5.5,0,0,0-.19.367v2.154a.152.152,0,0,0,.066.139h0l.919.53,1.365-.646a3.516,3.516,0,0,0,.17.317.459.459,0,0,1,.025.4l-1.107,2.232a.251.251,0,0,0,.1.325l1.2.694a.251.251,0,0,0,.33-.078l1.379-2.075a.459.459,0,0,1,.361-.179,3.713,3.713,0,0,0,.9-.091.2.2,0,0,1,.249.175l.182,1.813a.156.156,0,0,0,.072.127h0l.917.529,1.1-1.618a.5.5,0,0,0,.223-.348l.187-2.076a.415.415,0,0,1,.239-.314,4.4,4.4,0,0,0,1.449-1.017.376.376,0,0,1,.372-.1l.735.259a.291.291,0,0,0,.336-.124l1.372-2.376a.292.292,0,0,0-.06-.354l-.632-.544a.386.386,0,0,1-.1-.373,6.209,6.209,0,0,0,.171-1.722.479.479,0,0,1,.179-.367l1.7-1.2a.5.5,0,0,0,.19-.367l.815-.976.037-.788Z" transform="translate(-274.469 -260.03)" fill="#d5dbf1"/>
        <g id="Groupe_1661-3" data-name="Groupe 1661" transform="translate(0 0)" opacity="0.1">
          <path id="Tracé_1739-3" data-name="Tracé 1739" d="M281.765,272.984c-1.741,1.005-2.823.292-2.823-1.718a7.028,7.028,0,0,1,3.179-5.478c1.741-1.005,2.8-.274,2.8,1.736a6.967,6.967,0,0,1-3.152,5.459m8.147-8.539-.919-.53h0a.157.157,0,0,0-.144,0l-1.661.749a.2.2,0,0,1-.277-.128,3.726,3.726,0,0,0-.37-.824.458.458,0,0,1-.025-.4l1.107-2.232a.251.251,0,0,0-.1-.325l-1.2-.694a.251.251,0,0,0-.331.078l-1.379,2.075a.459.459,0,0,1-.361.179,3.5,3.5,0,0,0-.482.023V260.9l-.922-.531h0a.154.154,0,0,0-.151.014l-1.866,1.077a.5.5,0,0,0-.223.348l-.187,2.076a.694.694,0,0,1-.194.388,11.244,11.244,0,0,0-1.037,1.1.357.357,0,0,1-.367.1l-1.2-.418a.292.292,0,0,0-.336.125l-1.372,2.376a.292.292,0,0,0,.06.354l.961.828a.358.358,0,0,1,.093.37,11.205,11.205,0,0,0-.432,1.446.694.694,0,0,1-.239.362l-1.7,1.2a.5.5,0,0,0-.19.367v2.154a.152.152,0,0,0,.066.139h0l.919.53,1.365-.646a3.516,3.516,0,0,0,.17.317.459.459,0,0,1,.025.4l-1.107,2.232a.251.251,0,0,0,.1.325l1.2.694a.251.251,0,0,0,.33-.078l1.379-2.075a.459.459,0,0,1,.361-.179,3.713,3.713,0,0,0,.9-.091.2.2,0,0,1,.249.175l.182,1.813a.156.156,0,0,0,.072.127h0l.917.529,1.1-1.618a.5.5,0,0,0,.223-.348l.187-2.076a.415.415,0,0,1,.239-.314,4.4,4.4,0,0,0,1.449-1.017.376.376,0,0,1,.372-.1l.735.259a.291.291,0,0,0,.336-.124l1.372-2.376a.292.292,0,0,0-.06-.354l-.632-.544a.386.386,0,0,1-.1-.373,6.209,6.209,0,0,0,.171-1.722.479.479,0,0,1,.179-.367l1.7-1.2a.5.5,0,0,0,.19-.367l.815-.976.037-.788Z" transform="translate(-274.469 -260.03)"/>
        </g>
        <path id="Tracé_1740-3" data-name="Tracé 1740" d="M319.547,261.819l.366-.738a.251.251,0,0,0-.1-.325l-1.2-.694a.251.251,0,0,0-.331.077l-1.379,2.074a.358.358,0,0,1-.092.089l1.544.891Z" transform="translate(-306.759 -260.03)" fill="#949dc2"/>
        <path id="Tracé_1741-3" data-name="Tracé 1741" d="M276.746,305.28a.591.591,0,0,1-.132.14l-1.7,1.2a.437.437,0,0,0-.112.129l1.04.6,2.263-1.287Z" transform="translate(-274.72 -294.537)" fill="#949dc2"/>
        <path id="Tracé_1742-3" data-name="Tracé 1742" d="M282.085,281.13a.293.293,0,0,0-.24.139l-1.372,2.376a.279.279,0,0,0-.031.174l1.182.683,1.877-2.54Z" transform="translate(-279.023 -276.121)" fill="#949dc2"/>
        <path id="Tracé_1743-3" data-name="Tracé 1743" d="M300.486,262.724l1.463.845,1.662-.96v-.669l-.922-.532h0a.154.154,0,0,0-.151.014l-1.866,1.077a.5.5,0,0,0-.186.225" transform="translate(-294.309 -261.07)" fill="#949dc2"/>
        <path id="Tracé_1744-3" data-name="Tracé 1744" d="M332.062,276.874v0a.149.149,0,0,0-.147,0l-1.661.748a.2.2,0,0,1-.276-.127,3.6,3.6,0,0,0-.237-.584l1.257-.566a.157.157,0,0,1,.144,0v0l.92.531Z" transform="translate(-316.618 -272.459)" fill="#949dc2"/>
        <g id="Groupe_1662-3" data-name="Groupe 1662" transform="translate(0.078 0)" opacity="0.4">
          <path id="Tracé_1745-3" data-name="Tracé 1745" d="M319.547,261.819l.366-.738a.251.251,0,0,0-.1-.325l-1.2-.694a.251.251,0,0,0-.331.077l-1.379,2.074a.358.358,0,0,1-.092.089l1.544.891Z" transform="translate(-306.837 -260.03)" fill="#fff"/>
          <path id="Tracé_1746-3" data-name="Tracé 1746" d="M276.746,305.28a.591.591,0,0,1-.132.14l-1.7,1.2a.437.437,0,0,0-.112.129l1.04.6,2.263-1.287Z" transform="translate(-274.798 -294.537)" fill="#fff"/>
          <path id="Tracé_1747-3" data-name="Tracé 1747" d="M282.085,281.13a.293.293,0,0,0-.24.139l-1.372,2.376a.279.279,0,0,0-.031.174l1.182.683,1.877-2.54Z" transform="translate(-279.101 -276.121)" fill="#fff"/>
          <path id="Tracé_1748-3" data-name="Tracé 1748" d="M300.486,262.724l1.463.845,1.662-.96v-.669l-.922-.532h0a.154.154,0,0,0-.151.014l-1.866,1.077a.5.5,0,0,0-.186.225" transform="translate(-294.387 -261.07)" fill="#fff"/>
          <path id="Tracé_1749-3" data-name="Tracé 1749" d="M332.062,276.874v0a.149.149,0,0,0-.147,0l-1.661.748a.2.2,0,0,1-.276-.127,3.6,3.6,0,0,0-.237-.584l1.257-.566a.157.157,0,0,1,.144,0v0l.92.531Z" transform="translate(-316.696 -272.459)" fill="#fff"/>
        </g>
        <path id="Tracé_1750-3" data-name="Tracé 1750" d="M285.63,275.212c-1.741,1.005-3.152.19-3.152-1.82a6.968,6.968,0,0,1,3.152-5.46c1.741-1,3.152-.19,3.152,1.82a6.967,6.967,0,0,1-3.152,5.46m7.3-6.775v-2.154a.139.139,0,0,0-.212-.137l-1.661.749a.2.2,0,0,1-.277-.128,3.725,3.725,0,0,0-.37-.824.459.459,0,0,1-.025-.4l1.107-2.232a.251.251,0,0,0-.1-.325l-1.2-.694a.251.251,0,0,0-.331.078l-1.38,2.075a.459.459,0,0,1-.361.179,3.717,3.717,0,0,0-.9.091.2.2,0,0,1-.249-.175l-.182-1.812a.139.139,0,0,0-.225-.115l-1.866,1.077a.5.5,0,0,0-.223.348l-.187,2.076a.694.694,0,0,1-.194.388,11.2,11.2,0,0,0-1.037,1.1.357.357,0,0,1-.367.1l-1.2-.418a.292.292,0,0,0-.336.125l-1.372,2.376a.292.292,0,0,0,.06.354l.961.828a.357.357,0,0,1,.093.369,11.243,11.243,0,0,0-.432,1.446.693.693,0,0,1-.239.362l-1.7,1.2a.5.5,0,0,0-.19.367v2.155a.139.139,0,0,0,.212.137l1.661-.749a.2.2,0,0,1,.277.128,3.725,3.725,0,0,0,.37.824.459.459,0,0,1,.025.4l-1.107,2.232a.251.251,0,0,0,.1.325l1.2.693a.252.252,0,0,0,.331-.078l1.379-2.074a.46.46,0,0,1,.361-.18,3.713,3.713,0,0,0,.9-.091.2.2,0,0,1,.249.175l.182,1.813a.139.139,0,0,0,.225.115l1.866-1.077a.5.5,0,0,0,.223-.348l.187-2.076a.694.694,0,0,1,.194-.388,11.21,11.21,0,0,0,1.036-1.1.356.356,0,0,1,.367-.1l1.2.418a.292.292,0,0,0,.336-.125l1.372-2.376a.292.292,0,0,0-.06-.353l-.961-.828a.358.358,0,0,1-.093-.37,11.253,11.253,0,0,0,.432-1.446.692.692,0,0,1,.239-.362l1.7-1.2a.5.5,0,0,0,.19-.367" transform="translate(-277.416 -261.729)" fill="#d5dbf1"/>
      </g>
      <g id="Character-2" transform="translate(231.341 157.068)">
        <path id="Tracé_1777" data-name="Tracé 1777" d="M359.437,181.694h31.892V153.108a15.946,15.946,0,1,0-31.892,0Z" transform="translate(-249.248 -133.938)" fill="#1a2e35"/>
        <path id="Tracé_1778" data-name="Tracé 1778" d="M368.744,174.662l-22.824.87c-.8-.681-5.314-6.07-5.314-6.07s-12.4-1.59-12.478-1.14,12.2,13.578,13.415,14.9a3.653,3.653,0,0,0,2.9,1.416c3.21.192,20.894,1.3,20.894,1.3Z" transform="translate(-248.52 -134.66)" fill="#ffaaa8"/>
        <path id="Tracé_1779" data-name="Tracé 1779" d="M249.277,277.062l-.681-.393a4.355,4.355,0,0,1-1.969-3.412v-70.13a4.354,4.354,0,0,1,1.97-3.412l90.078-52a4.353,4.353,0,0,1,3.939,0l.68.393a4.354,4.354,0,0,1,1.97,3.412v70.13a4.354,4.354,0,0,1-1.97,3.412l-90.078,52a4.353,4.353,0,0,1-3.939,0" transform="translate(-246.627 -134.172)" fill="#dbdfef"/>
        <g id="Groupe_1667" data-name="Groupe 1667" transform="translate(0.582 13.073)" opacity="0.4">
          <path id="Tracé_1780" data-name="Tracé 1780" d="M345.258,151.2c-.134-1.022-.959-1.393-1.95-.825l-90.083,52.008a4.043,4.043,0,0,0-1.392,1.465l-4.611-2.662a4,4,0,0,1,1.392-1.475l90.073-52a4.35,4.35,0,0,1,3.94,0l.681.393a4.413,4.413,0,0,1,1.95,3.094" transform="translate(-247.223 -147.245)" fill="#fff"/>
        </g>
        <g id="Groupe_1668" data-name="Groupe 1668" transform="translate(0.004 67.017)" opacity="0.1">
          <path id="Tracé_1781" data-name="Tracé 1781" d="M252.882,278.5a4.376,4.376,0,0,1-3.6-.155l-.691-.392a4.359,4.359,0,0,1-1.96-3.414V204.412a3.945,3.945,0,0,1,.577-1.939l4.611,2.661a4.121,4.121,0,0,0-.577,1.94V277.21c0,1.124.711,1.651,1.64,1.289" transform="translate(-246.631 -202.473)"/>
        </g>
        <path id="Tracé_1782" data-name="Tracé 1782" d="M260.652,207.556l6.775-3.912c.494-.284.894-.054.894.516v7.614a1.949,1.949,0,0,1-.9,1.539l-6.765,3.824c-.5.28-.9.046-.9-.524V209.1a1.976,1.976,0,0,1,.894-1.547" transform="translate(-246.932 -135.48)" fill="#fafafa"/>
        <path id="Tracé_1783" data-name="Tracé 1783" d="M266.642,212.154a.522.522,0,0,1-.585.029l-2.094-1.584c-.279-.212-.244-.8.079-1.306s.812-.751,1.091-.539l1.459,1.1,4.054-8.713c.253-.544.737-.908,1.081-.816s.419.609.166,1.153l-4.628,9.946a1.67,1.67,0,0,1-.593.706l-.03.019" transform="translate(-247.025 -135.405)" fill="#4a63c2"/>
        <path id="Tracé_1784" data-name="Tracé 1784" d="M260.652,224.55l6.775-3.912c.494-.284.894-.054.894.516v7.614a1.949,1.949,0,0,1-.9,1.539l-6.765,3.824c-.5.28-.9.046-.9-.524V226.1a1.976,1.976,0,0,1,.894-1.547" transform="translate(-246.932 -135.875)" fill="#fafafa"/>
        <path id="Tracé_1785" data-name="Tracé 1785" d="M266.642,229.148a.522.522,0,0,1-.585.029l-2.094-1.584c-.279-.212-.244-.8.079-1.306s.812-.751,1.091-.539l1.459,1.1,4.054-8.713c.253-.544.737-.908,1.081-.816s.419.609.166,1.153l-4.628,9.946a1.67,1.67,0,0,1-.593.706l-.03.019" transform="translate(-247.025 -135.8)" fill="#4a63c2"/>
        <path id="Tracé_1786" data-name="Tracé 1786" d="M260.652,241.544l6.775-3.912c.494-.284.894-.054.894.516v7.614a1.949,1.949,0,0,1-.9,1.539l-6.765,3.824c-.5.28-.9.046-.9-.524v-7.51a1.976,1.976,0,0,1,.894-1.547" transform="translate(-246.932 -136.27)" fill="#fafafa"/>
        <path id="Tracé_1787" data-name="Tracé 1787" d="M266.642,246.142a.522.522,0,0,1-.585.029l-2.094-1.584c-.279-.212-.244-.8.079-1.306s.812-.751,1.091-.539l1.459,1.1,4.054-8.713c.253-.544.737-.908,1.081-.816s.419.609.166,1.153l-4.628,9.946a1.67,1.67,0,0,1-.593.706l-.03.019" transform="translate(-247.025 -136.195)" fill="#4a63c2"/>
        <path id="Tracé_1788" data-name="Tracé 1788" d="M260.652,258.583l6.775-3.912c.494-.285.894-.054.894.516V262.8a1.949,1.949,0,0,1-.9,1.539l-6.765,3.824c-.5.28-.9.046-.9-.524v-7.51a1.976,1.976,0,0,1,.894-1.547" transform="translate(-246.932 -136.665)" fill="#fafafa"/>
        <path id="Tracé_1789" data-name="Tracé 1789" d="M266.642,263.182a.522.522,0,0,1-.585.029l-2.094-1.584c-.279-.212-.244-.8.079-1.306s.812-.751,1.091-.539l1.459,1.1,4.054-8.713c.253-.544.737-.908,1.081-.816s.419.609.166,1.153l-4.628,9.946a1.67,1.67,0,0,1-.593.706l-.03.019" transform="translate(-247.025 -136.591)" fill="#4a63c2"/>
        <path id="Tracé_1790" data-name="Tracé 1790" d="M277.1,199.912c0,.921.8,1.206,1.787.637l25.759-14.871a3.616,3.616,0,0,0,1.787-2.7c0-.921-.8-1.207-1.787-.637l-25.758,14.872a3.615,3.615,0,0,0-1.788,2.7" transform="translate(-247.335 -134.981)" fill="#2e4088"/>
        <path id="Tracé_1791" data-name="Tracé 1791" d="M277.1,205.237c0,.921.8,1.206,1.787.637l55.091-31.762a3.615,3.615,0,0,0,1.788-2.7c0-.922-.8-1.207-1.788-.638l-55.09,31.763a3.615,3.615,0,0,0-1.788,2.7" transform="translate(-247.335 -134.712)" fill="#f0f0f0"/>
        <path id="Tracé_1792" data-name="Tracé 1792" d="M277.1,216.536c0,.921.8,1.206,1.787.637L304.65,202.3a3.616,3.616,0,0,0,1.787-2.7c0-.922-.8-1.207-1.787-.637l-25.758,14.872a3.615,3.615,0,0,0-1.788,2.7" transform="translate(-247.335 -135.367)" fill="#2e4088"/>
        <path id="Tracé_1793" data-name="Tracé 1793" d="M277.1,221.861c0,.921.8,1.206,1.787.637l55.091-31.762a3.615,3.615,0,0,0,1.788-2.7c0-.922-.8-1.207-1.788-.638l-55.09,31.763a3.615,3.615,0,0,0-1.788,2.7" transform="translate(-247.335 -135.099)" fill="#f0f0f0"/>
        <path id="Tracé_1794" data-name="Tracé 1794" d="M277.1,234.217c0,.921.8,1.206,1.787.637l25.759-14.871a3.616,3.616,0,0,0,1.787-2.7c0-.922-.8-1.207-1.787-.637l-25.758,14.872a3.615,3.615,0,0,0-1.788,2.7" transform="translate(-247.335 -135.778)" fill="#2e4088"/>
        <path id="Tracé_1795" data-name="Tracé 1795" d="M277.1,239.542c0,.921.8,1.206,1.787.637l55.091-31.762a3.615,3.615,0,0,0,1.788-2.7c0-.922-.8-1.207-1.788-.638l-55.09,31.763a3.615,3.615,0,0,0-1.788,2.7" transform="translate(-247.335 -135.509)" fill="#f0f0f0"/>
        <path id="Tracé_1796" data-name="Tracé 1796" d="M277.1,251.9c0,.921.8,1.206,1.787.637l25.759-14.871a3.616,3.616,0,0,0,1.787-2.7c0-.921-.8-1.207-1.787-.637L278.892,249.2a3.615,3.615,0,0,0-1.788,2.7" transform="translate(-247.335 -136.189)" fill="#2e4088"/>
        <path id="Tracé_1797" data-name="Tracé 1797" d="M277.1,257.223c0,.921.8,1.206,1.787.637L333.981,226.1a3.615,3.615,0,0,0,1.788-2.7c0-.922-.8-1.207-1.788-.638l-55.09,31.763a3.615,3.615,0,0,0-1.788,2.7" transform="translate(-247.335 -135.92)" fill="#f0f0f0"/>
        <path id="Tracé_1798" data-name="Tracé 1798" d="M358.975,333.381a42,42,0,0,1-6.05,5.262,2.578,2.578,0,0,0-.84.869c-.285.593-.729,2.062,1.977,3.005a10.053,10.053,0,0,0,8.347-.8c2.222-1.39,2.322-4.283,4.417-5.933,1.554-1.223,3.494-1.537,4.749-3.133.874-1.112.647-2.592.19-4.424-.5-2-.727-3.513-1.389-3.359l.108.919c-.825,1.319-5.106,1.707-7.011.8a78.328,78.328,0,0,1-4.5,6.8" transform="translate(-249.072 -138.299)" fill="#1a2e35"/>
        <path id="Tracé_1799" data-name="Tracé 1799" d="M357.181,335.116V335.1c.643-.589,1.273-1.2,1.877-1.858a52.145,52.145,0,0,0,3.493-5.149,5.8,5.8,0,0,0,.979-3.686L363,319.48l6.783-.48.788,6.65c.164,1.507-1.081,2.845-3.289,4.747s-5.01,6.337-7.007,7.453-3.427,1.074-4.279.5c-.877-.588-.964-1.038,1.189-3.238" transform="translate(-249.154 -138.163)" fill="#ffaaa8"/>
        <path id="Tracé_1800" data-name="Tracé 1800" d="M390.066,334.181v-1.02c-.4,1.2-2.267,6.343-5.095,8.923-2.249,2.051-5.316,4.42-6.1,6.705-.812,2.378,4.268,3.176,6.369,2.805a12.97,12.97,0,0,0,7.317-3.93c1.208-1.485,1.978-3.244,2.84-4.412s2.852-2.471,3.319-3.822a8.62,8.62,0,0,0-.408-3.742c-.33-1.26-.689-2.646-1.119-2.528,0,.154,0,.777,0,.777a5.632,5.632,0,0,1-3.563,1.2c-1.043.04-3.573-.167-3.564-.962" transform="translate(-249.697 -138.492)" fill="#1a2e35"/>
        <path id="Tracé_1801" data-name="Tracé 1801" d="M383.017,343.749c.7-.622,1.4-1.231,2.036-1.811a20.69,20.69,0,0,0,4.347-6.945,9.769,9.769,0,0,0,.748-3.751V327.18h7.127v6.79l-.036.019c-.343,1.481-3.613,5.421-5.472,7.99-1.246,1.722-3.613,3.913-6.442,4.291-2.68.358-4.05-.487-2.308-2.52" transform="translate(-249.777 -138.353)" fill="#ffaaa8"/>
        <path id="Tracé_1802" data-name="Tracé 1802" d="M395.31,220.795c5.527,12.069-.2,54.585-.2,54.585.166,1.958,2.406,5.813,3.24,14.433.986,10.186-1.547,35.759-1.547,35.759a7.709,7.709,0,0,1-7.2.286s-6.793-38.517-8.071-48.644c-1.115-8.838-3.255-29.611-3.255-29.611l-6.413,29.621A37.851,37.851,0,0,1,373.11,286c-.1,5.985-2.887,32.2-2.887,32.2s-2.481,1.453-7.15.766c0,0-4.5-34.447-4.362-42.477.071-4.3,1.946-50.049,1.946-50.049l34.653-5.644Z" transform="translate(-249.231 -135.881)" fill="#4a63c2"/>
        <g id="Groupe_1669" data-name="Groupe 1669" transform="translate(116.218 97.044)" opacity="0.15">
          <path id="Tracé_1803" data-name="Tracé 1803" d="M378.435,247.892l-1.794-9.869s-7.589-1.573-11.032-4.809a19.635,19.635,0,0,0,8.975,5.964l2.015,8.631-3.645,25.4Z" transform="translate(-365.609 -233.214)" fill="#1a2e35"/>
        </g>
        <path id="Tracé_1804" data-name="Tracé 1804" d="M379.373,138.058l.368-4.181a2.037,2.037,0,0,0-2.309,1.832,2.205,2.205,0,0,0,1.941,2.348" transform="translate(-249.666 -133.862)" fill="#1a2e35"/>
        <path id="Tracé_1805" data-name="Tracé 1805" d="M379.64,138.51l3.385-2.481a2.038,2.038,0,0,0-2.9-.526,2.205,2.205,0,0,0-.484,3.007" transform="translate(-249.708 -133.891)" fill="#1a2e35"/>
        <path id="Tracé_1806" data-name="Tracé 1806" d="M382.705,175.117s8.138.706,9.285,1.22c-5.84,6.395,3.042,9.048,3.042,9.048l-6.082,21.768c3.649,5.571,5.983,9.882,7.357,15.37-4.105,7.234-27.169,8.239-35.622,2.848.736-10.1,2.376-17.326,1.829-20.357-2.879-12.382-2.773-15-2.4-17.827.737-5.531,6.226-10.353,9.363-12.373h2.926l10.3.3Z" transform="translate(-249.259 -134.813)" fill="#eb6608"/>
        <path id="Tracé_1807" data-name="Tracé 1807" d="M366.223,145.134c-1.718,1.016-3.843,5.338-3.633,14.4.178,7.678,2.667,9.575,3.917,10.122s3.66.214,6-.176v4.608s-3.239,3.762-3.035,5.875,4.677,2.612,7.707.548a24.493,24.493,0,0,0,5.584-6.088l-.053-10.6s1.379,1.339,3.718-.705c1.93-1.688,2.581-4.534,1.076-6.061a3.364,3.364,0,0,0-5.352,1.066c-.643,1.395-2.11,1.418-2.124-.171-.069-8.168-1.036-8.6-1.856-11.948-4.877-1.6-8.367-1.01-11.954-.872" transform="translate(-249.321 -134.118)" fill="#ffaaa8"/>
        <path id="Tracé_1808" data-name="Tracé 1808" d="M371.368,157.881a.966.966,0,1,0,1.015-.956.982.982,0,0,0-1.015.956" transform="translate(-249.525 -134.397)" fill="#1a2e35"/>
        <path id="Tracé_1809" data-name="Tracé 1809" d="M371.052,164.569l-2.243.715a1.156,1.156,0,0,0,1.458.8,1.232,1.232,0,0,0,.784-1.52" transform="translate(-249.465 -134.575)" fill="#ff9090"/>
        <path id="Tracé_1810" data-name="Tracé 1810" d="M363.42,155.237l1.954-1.354a1.14,1.14,0,0,0-1.622-.333,1.249,1.249,0,0,0-.331,1.687" transform="translate(-249.336 -134.314)" fill="#1a2e35"/>
        <path id="Tracé_1811" data-name="Tracé 1811" d="M374.2,155.556l-1.953-1.355a1.141,1.141,0,0,1,1.622-.332,1.249,1.249,0,0,1,.331,1.687" transform="translate(-249.545 -134.322)" fill="#1a2e35"/>
        <path id="Tracé_1812" data-name="Tracé 1812" d="M363.724,157.167a.966.966,0,1,0,1.015-.956.982.982,0,0,0-1.015.956" transform="translate(-249.347 -134.381)" fill="#1a2e35"/>
        <path id="Tracé_1813" data-name="Tracé 1813" d="M368.312,156.624l-.153,5.813-3.059-.947Z" transform="translate(-249.379 -134.39)" fill="#ff9090"/>
        <path id="Tracé_1814" data-name="Tracé 1814" d="M372.747,169.973c2.469-.324,7.55-1.784,8.342-3.792a5.2,5.2,0,0,1-1.781,2.563c-1.518,1.3-6.561,2.766-6.561,2.766Z" transform="translate(-249.557 -134.612)" fill="#ff9090"/>
        <path id="Tracé_1815" data-name="Tracé 1815" d="M371.2,138.25a13.388,13.388,0,0,0-13.388,13.388v1.736h6.551a6.1,6.1,0,0,0,6.04-5.276l.241,5.276a4.848,4.848,0,0,0,4.829-4.426l.075-.861a5.743,5.743,0,0,0,5.725,5.286h.581l.671-9.459L371.2,138.25Z" transform="translate(-249.21 -133.963)" fill="#1a2e35"/>
        <path id="Tracé_1816" data-name="Tracé 1816" d="M386.035,179.948c-1.822,2.687-12.18,25.393-12.18,25.393s-15.622-1.055-22.235-1.758c-2.083-.222-1.618-2.454-2.454-4.665s-1.894-1.777-1.894-1.777v2.946c.069,1.985-3.2,3.047-4.605,3.592-2.309.9-4.835,1.47-7.217,2.211a3.507,3.507,0,0,0-2.117,1.283,2.246,2.246,0,0,0,.073,2.188,6.914,6.914,0,0,0,5.345,3.279c2.66.316,5.239-.447,7.823-.907a25.294,25.294,0,0,1,8.416-.576c2.907.387,6.7,1.192,9.585,1.714a98.467,98.467,0,0,0,11.158,1.294c2.086.089,3.593-.316,5.4-2.857s11.7-22.978,11.7-22.978c4.135-5.878,1.762-10.826-1.3-11.876-1.922-.658-3.674.808-5.5,3.495" transform="translate(-248.635 -134.847)" fill="#ffaaa8"/>
        <path id="Tracé_1817" data-name="Tracé 1817" d="M322.491,157.632a11.7,11.7,0,0,1,2.317.566,8.975,8.975,0,0,1,4.67,3.661,4.672,4.672,0,0,1,.568,2.787,1.91,1.91,0,0,1-.217.717,2.611,2.611,0,0,1-1.089.884,4.258,4.258,0,0,1-4.7.069,32.484,32.484,0,0,0-6.022-2.712,13.5,13.5,0,0,0-3.254-.577,2.959,2.959,0,0,0-1.743.638,2.521,2.521,0,0,1,.442-2.621,8.4,8.4,0,0,1,4.347-3.057,10.8,10.8,0,0,1,4.676-.354" transform="translate(-248.165 -134.411)" fill="#ffaaa8"/>
      </g>
      <g id="Character-1" transform="translate(96.511 224.587)">
        <path id="Tracé_1818" data-name="Tracé 1818" d="M135.329,215.784a10.241,10.241,0,1,0,10.241-10.241,10.241,10.241,0,0,0-10.241,10.241" transform="translate(-109.212 -203.046)" fill="#1a2e35"/>
        <rect id="Rectangle_352" data-name="Rectangle 352" width="7.214" height="12.35" transform="translate(11.833 186.035)" fill="#ffaaa8"/>
        <path id="Tracé_1819" data-name="Tracé 1819" d="M146.313,392.46l7.211.248.36-13.07-7.571-.247Z" transform="translate(-109.467 -207.085)" fill="#ffaaa8"/>
        <path id="Tracé_1820" data-name="Tracé 1820" d="M121.129,285.08c0,6.889-.891,56.587-.891,56.587-.168,1.982-2.027,5.637-1.624,13.251.546,10.342,1.733,42.186,1.733,42.186a9.492,9.492,0,0,0,8.033.158s6.366-42.309,7.658-52.558c1.128-8.944,3.043-33.244,3.043-33.244l3.91,29.2a41.03,41.03,0,0,0-.894,11.464c.337,4.741,3.115,34.1,3.115,34.1a9.847,9.847,0,0,0,8.33.637s3.645-41.848,3.729-46.2c.095-4.958-2.4-55.58-2.4-55.58H121.129Z" transform="translate(-108.822 -204.894)" fill="#8193d5"/>
        <path id="Tracé_1821" data-name="Tracé 1821" d="M154.538,242.076c4.229,3.478,11.87,10.533,11.87,10.533l-11.921,6.56-7.571-20.331s2.971-.586,7.623,3.238" transform="translate(-109.481 -203.819)" fill="#2e4088"/>
        <g id="Groupe_1670" data-name="Groupe 1670" transform="translate(37.434 34.987)" opacity="0.1">
          <path id="Tracé_1822" data-name="Tracé 1822" d="M154.538,242.076c4.229,3.478,11.87,10.533,11.87,10.533l-11.921,6.56-7.571-20.331s2.971-.586,7.623,3.238" transform="translate(-146.915 -238.806)"/>
        </g>
        <path id="Tracé_1823" data-name="Tracé 1823" d="M123.633,243.782s-2.7,2.7-2.7,9.247v14.135l-.207,26.69c10.355,5.458,23.43,5.776,34.477-2.292,0,0-.528-34.306-.528-39.925s-3.132-12.924-11.752-13.425L131.794,240.8l-8.161,2.986Z" transform="translate(-108.872 -203.805)" fill="#2e4088"/>
        <path id="Tracé_1824" data-name="Tracé 1824" d="M127.69,223.483s1.66,7.8,2.325,9.078a3.532,3.532,0,0,0,2.041,1.646l-.116-5.486Z" transform="translate(-109.034 -203.463)" fill="#1a2e35"/>
        <path id="Tracé_1825" data-name="Tracé 1825" d="M129.73,212.046a3.842,3.842,0,0,0-3.181,1.118c-1.366,1.4-.6,5.77,1.1,10.052l3.126.358Z" transform="translate(-108.991 -203.196)" fill="#1a2e35"/>
        <path id="Tracé_1826" data-name="Tracé 1826" d="M131.678,223.464c-.627.374-1.521-.829-2.294-1.639s-3.3-1.914-4.556.738c-1.283,2.7,1.112,6.276,3.1,6.9,3.424,1.075,3.938-1.121,3.938-1.121l.261,12.35s2.951,4.872,10.54,6.057c3.879.6,4.822-3.17.6-6.383l-.01-3.759a21.569,21.569,0,0,0,4.615.236c2.518-.389,4.1-2.376,4.866-5.1,1.227-4.379,1.693-7.913.652-16.523-1.141-9.437-12.117-9.535-18.044-5.8s-3.667,14.049-3.667,14.049" transform="translate(-108.959 -203.083)" fill="#ffaaa8"/>
        <path id="Tracé_1827" data-name="Tracé 1827" d="M131.786,224.423c-.315.006-1.514-1.983-2.294-2.693-1.081-.985.314-9.893.314-9.893a4.219,4.219,0,0,1,1.043-4.507c1.481-1.63,3.957-1.811,8.182-2.475,2.218-.349,5.579-.969,7.794-1.381,2.644-.491,4.833-1.012,6.7.61a4.691,4.691,0,0,1,1.3,5.253,4.3,4.3,0,0,1-.75,1.12,4.359,4.359,0,0,1-1.9,1.311s-1.154,1.024-5.164,1.511a59.259,59.259,0,0,1-11.113-.21c-1.162-.159-1.41.968-2.038,4.048-.551,2.7-1.007,7.285-2.067,7.305" transform="translate(-109.066 -202.987)" fill="#1a2e35"/>
        <path id="Tracé_1828" data-name="Tracé 1828" d="M129.738,212.68l-3.79-2.035a2.088,2.088,0,0,1,2.869-.949,2.26,2.26,0,0,1,.921,2.984" transform="translate(-108.994 -203.137)" fill="#1a2e35"/>
        <path id="Tracé_1829" data-name="Tracé 1829" d="M143.458,237.192s-5.621-1.132-7.586-2.177a6.464,6.464,0,0,1-2.716-2.687,8.834,8.834,0,0,0,1.543,3.17c1.437,1.837,8.759,3.19,8.759,3.19v-1.5Z" transform="translate(-109.161 -203.668)" fill="#ff9090"/>
        <path id="Tracé_1830" data-name="Tracé 1830" d="M142.266,222.386a1.127,1.127,0,1,1-1.126-1.173,1.145,1.145,0,0,1,1.126,1.173" transform="translate(-109.32 -203.41)" fill="#1a2e35"/>
        <path id="Tracé_1831" data-name="Tracé 1831" d="M141.036,218.043l-2.41,1.33a1.446,1.446,0,0,1,.562-1.919,1.343,1.343,0,0,1,1.848.589" transform="translate(-109.284 -203.319)" fill="#1a2e35"/>
        <path id="Tracé_1832" data-name="Tracé 1832" d="M143.18,230.38l2.572.965A1.35,1.35,0,0,1,144,232.2a1.437,1.437,0,0,1-.824-1.817" transform="translate(-109.392 -203.623)" fill="#ff9090"/>
        <path id="Tracé_1833" data-name="Tracé 1833" d="M152.551,218.967l-2.2-1.693a1.331,1.331,0,0,1,1.91-.293,1.458,1.458,0,0,1,.287,1.986" transform="translate(-109.561 -203.305)" fill="#1a2e35"/>
        <path id="Tracé_1834" data-name="Tracé 1834" d="M151.857,222.058a1.127,1.127,0,1,1-1.126-1.174,1.145,1.145,0,0,1,1.126,1.174" transform="translate(-109.543 -203.402)" fill="#1a2e35"/>
        <path id="Tracé_1835" data-name="Tracé 1835" d="M146.036,220.993l.369,6.774,3.537-1.205-3.906-5.569Z" transform="translate(-109.46 -203.405)" fill="#ff9090"/>
        <path id="Tracé_1836" data-name="Tracé 1836" d="M127.88,402.419v-1.031c.691.3,2.294,6.419,5.156,9.03,2.276,2.076,5.38,4.473,6.169,6.787.821,2.407-4.323,3.735-6.449,3.359-2.47-.438-6.751-2.177-7.827-3.79s-1.577-3.991-2.451-5.172-2.886-2.5-3.359-3.869a8.716,8.716,0,0,1,.413-3.787c.334-1.276.7-2.678,1.132-2.558,0,.155,0,.786,0,.786a5.707,5.707,0,0,0,3.607,1.219c1.055.04,3.616-.169,3.607-.974" transform="translate(-108.833 -207.596)" fill="#1a2e35"/>
        <path id="Tracé_1837" data-name="Tracé 1837" d="M153.548,390.737c.374.013.68.541,1.506,1.436a15.769,15.769,0,0,0,4.243,3.053c2.7,1.352,7.954,3.432,10.33,4.5,1.485.669,1.415,2.462-.119,3.483s-5.241,1.756-9.691.761c-2.424-.542-5.58-2.781-7.577-2.66s-5.735.092-7.21-.924-.884-3.187-.467-5.052c.454-2.035,1.023-5.209,1.7-5.069v.7c.867,1.313,5.343,1.848,7.249.881l.038-1.114Z" transform="translate(-109.415 -207.338)" fill="#1a2e35"/>
        <path id="Tracé_1838" data-name="Tracé 1838" d="M139.568,311.95a26.724,26.724,0,0,0,10.046-5.76s-1.939,3.63-7.7,7.007l1.233,25.456Z" transform="translate(-109.31 -205.384)" fill="#1a2e35"/>
        <path id="Tracé_1839" data-name="Tracé 1839" d="M148.714,337.385l-.681-.393a4.355,4.355,0,0,1-1.969-3.412v-70.13a4.354,4.354,0,0,1,1.97-3.412l60.735-35.065a4.354,4.354,0,0,1,3.939,0l.68.393a4.354,4.354,0,0,1,1.97,3.411v70.131a4.354,4.354,0,0,1-1.97,3.412l-60.735,35.065a4.354,4.354,0,0,1-3.939,0" transform="translate(-109.461 -203.486)" fill="#f5f5f5"/>
        <path id="Tracé_1840" data-name="Tracé 1840" d="M182.272,254.2c10.526-6.077,19.058-1.151,19.058,11s-8.532,26.932-19.058,33.009-19.058,1.151-19.058-11,8.532-26.932,19.058-33.009" transform="translate(-109.859 -204.116)" fill="#79819f"/>
        <path id="Tracé_1841" data-name="Tracé 1841" d="M182.441,264.037c3.415-1.972,6.183-.373,6.183,3.569a13.666,13.666,0,0,1-6.183,10.709c-3.415,1.971-6.183.374-6.183-3.569a13.666,13.666,0,0,1,6.183-10.709" transform="translate(-110.162 -204.385)" fill="#d5dbf1"/>
        <path id="Tracé_1842" data-name="Tracé 1842" d="M194.5,285.409c0-6.478-4.549-9.1-10.157-5.865l-3.508,2.024c-5.61,3.239-10.158,11.117-10.158,17.595v1.744c3.243,1.076,7.326.493,11.772-2.075A37.543,37.543,0,0,0,194.5,286.911Z" transform="translate(-110.033 -204.733)" fill="#d5dbf1"/>
        <path id="Tracé_1843" data-name="Tracé 1843" d="M215.352,228.461c-.134-1.022-.959-1.393-1.95-.825l-60.739,35.074a4.061,4.061,0,0,0-1.393,1.465l-4.61-2.662a4,4,0,0,1,1.392-1.475l60.73-35.064a4.35,4.35,0,0,1,3.94,0l.681.393a4.414,4.414,0,0,1,1.95,3.094" transform="translate(-109.475 -203.486)" fill="#fafafa"/>
        <path id="Tracé_1844" data-name="Tracé 1844" d="M152.319,338.421a4.38,4.38,0,0,1-3.6-.154l-.691-.393a4.359,4.359,0,0,1-1.96-3.415V264.333a3.945,3.945,0,0,1,.577-1.939l4.611,2.661a4.121,4.121,0,0,0-.577,1.94v70.137c0,1.124.711,1.651,1.64,1.289" transform="translate(-109.461 -204.367)" fill="#e1e1e1"/>
        <path id="Tracé_1845" data-name="Tracé 1845" d="M161.275,321.541v.037c0,1.994,1.4,2.8,3.127,1.805L200.051,302.8a6.912,6.912,0,0,0,3.127-5.415v-.036c0-1.995-1.4-2.8-3.126-1.806L164.4,316.125a6.91,6.91,0,0,0-3.127,5.415" transform="translate(-109.814 -205.127)" fill="#d5dbf1"/>
        <path id="Tracé_1846" data-name="Tracé 1846" d="M111.773,286.151c-3.7-2.571-3.651-6.4-2.467-10.782,8.058-29.793,10.524-29.952,14.045-31.456l2.821,11.722-7.532,24.409a47.335,47.335,0,0,0,16.849,7.9,6.956,6.956,0,0,0,3.759-.395c2.294-1.289,3.591-1.29,5.94-1.921v3.844a20.02,20.02,0,0,0,6.324-.21c4.866-.907,7,.1,4.02,5.671-1.867,3.491-5.492,4.643-14.574,3.075a73.329,73.329,0,0,1-9.781-2.548,83.034,83.034,0,0,1-19.4-9.312" transform="translate(-108.59 -203.937)" fill="#ffaaa8"/>
        <path id="Tracé_1847" data-name="Tracé 1847" d="M123.409,243.914s3.463,2.173,4.207,7.638-4.51,20.312-4.51,20.312-8.488-.813-12.01-4.994c0,0,4.907-13.58,5.826-16.648a8.967,8.967,0,0,1,6.487-6.308" transform="translate(-108.649 -203.937)" fill="#4a63c2"/>
        <g id="Groupe_1671" data-name="Groupe 1671" transform="translate(2.447 39.977)" opacity="0.1">
          <path id="Tracé_1848" data-name="Tracé 1848" d="M123.409,243.914s3.463,2.173,4.207,7.638-4.51,20.312-4.51,20.312-8.488-.813-12.01-4.994c0,0,4.907-13.58,5.826-16.648a8.967,8.967,0,0,1,6.487-6.308" transform="translate(-111.096 -243.914)"/>
        </g>
        <path id="Tracé_1849" data-name="Tracé 1849" d="M216.845,245.875v4.338s-2.348,3.571-4.867,4.883-2.5,6.585.638,7.327,7.447-3.128,7.812-5.258-.431-11.518-3.582-11.289" transform="translate(-110.95 -203.983)" fill="#ffaaa8"/>
      </g>
    </g>
  </g>
</svg>
