<svg xmlns="http://www.w3.org/2000/svg" xmlns:xlink="http://www.w3.org/1999/xlink" width="858.609" height="864.868" viewBox="0 0 858.609 864.868">
  <defs>
    <filter id="Union_6" x="172.39" y="0" width="546.411" height="733.683" filterUnits="userSpaceOnUse">
      <feOffset dx="4" dy="-2" input="SourceAlpha"/>
      <feGaussianBlur stdDeviation="6.5" result="blur"/>
      <feFlood flood-color="#82879a" flood-opacity="0.549"/>
      <feComposite operator="in" in2="blur"/>
      <feComposite in="SourceGraphic"/>
    </filter>
    <clipPath id="clip">
      <use xlink:href="#fill"/>
    </clipPath>
    <clipPath id="clip-2">
      <use xlink:href="#fill-2"/>
    </clipPath>
  </defs>
  <g id="services-img-header" transform="translate(-143.695 -72.791)">
    <path id="Polygone_91" data-name="Polygone 91" d="M495.627,0,660.837,286.308,495.627,572.616H165.209L0,286.308,165.209,0Z" transform="translate(430.003 111.341) rotate(30)" fill="#eaebf1"/>
    <g id="Screen" transform="translate(327.587 0.291)">
      <g transform="matrix(1, 0, 0, 1, -183.89, 72.5)" filter="url(#Union_6)">
        <path id="Union_6-2" data-name="Union 6" d="M16400.158-1155.608l-47.318-27.322-.96-.555v-15.255l-15.359-8.89,15.359-21.462-15.5,6.574,48.279-27.873,15.5-6.574-48.278,27.873,48.278-27.873.01,0,13.432,5.38,48.279,27.873-13.445-5.384,15.365,21.458v0l-15.365,8.89v15.26Zm-131.672-16.357c-2.555-.451-6.975-2.25-8.089-3.915s-1.628-4.124-2.529-5.343-2.984-2.584-3.473-4a8.966,8.966,0,0,1,.43-3.911c.343-1.319.718-2.767,1.169-2.642v-1.478c-.209-.1-.317-.159-.317-.159s-4.119-29.376-3.9-40.073c.154-7.375,2.125-11.019,2.3-13.068,0,0-1.261-41.4-1.261-48.517l.213-27.577v-3.982a63.71,63.71,0,0,1-2.013-6.9l-101.336,58.5a19.18,19.18,0,0,1-9.37,2.283,17.017,17.017,0,0,1-8.327-1.953,11.973,11.973,0,0,1-1.636-1.139,20.085,20.085,0,0,1-6.937-14.35v-315.185a16.475,16.475,0,0,1,1.081-5.589,21.486,21.486,0,0,1,1.09-2.475c.162-.317.334-.63.509-.935h0a18.7,18.7,0,0,1,6.453-6.816l392.872-226.824c5.043-2.909,12.965-3.055,17.7-.326,4.7,2.717,8.52,9.583,8.566,15.385v.1l-.006,315.181a19.053,19.053,0,0,1-3.1,9.7,18.215,18.215,0,0,1-6.031,6.111l-8.174,4.719a192.419,192.419,0,0,1,4.646,19.949,4.9,4.9,0,0,1-.58.626c1.1,4.892,2.225,9.525,3.059,12.977a86.83,86.83,0,0,0,6.588,17.705,3.741,3.741,0,0,0,1.949,1.715c2.2.86,3.254,1.987,5.049,3.268,1.408,1,2.447,1.119,2.379,1.536a1.855,1.855,0,0,1-2.207,1.361,13.423,13.423,0,0,1-3.072-.989,15.35,15.35,0,0,0,3.848,5.622c2.4,2.008,2.885,4.011,1.09,5.163.715,2.024,1.229,3.986,2.213,5.167a.522.522,0,0,1,.063.075l9.6,10.389s1.957-3.965,4.441-8.915c-.205-.392-.3-.63-.3-.63s4.445-8.615,8.664-16.253a13.506,13.506,0,0,1,10.764-7.154h.006c.658-.209,1.344-.413,2.049-.614l-.932-7.642c-2.5.438-5.969.2-6.752-.517-1.123-1.023-2.855-3.452-2.936-9.7a5.643,5.643,0,0,1-1.928-.789c-.355-.413,2.145-4.437,2.2-4.516a20.64,20.64,0,0,1,2.117-7.488,11.183,11.183,0,0,1-.422-1.782c-.969-6.236,6.82-8.874,6.82-8.874l-.164,4.616a18.9,18.9,0,0,1,16.107-1.9,12.678,12.678,0,0,1,7.459,5.818v-.4a2.1,2.1,0,0,1,1.361-2.655,2.109,2.109,0,0,1,2.654,1.361l-4.016,1.294a12.226,12.226,0,0,1,12.225,12.225v20.473a12.225,12.225,0,0,1-12.225-12.225v-4.374a17.308,17.308,0,0,1-2.408,3.535,16.407,16.407,0,0,1-7.65,5.084l.5,5.572v0c1.131-.225,2.188-.4,3.395-.626v0l.092-.012a7,7,0,0,1,1.3-.109,9.357,9.357,0,0,1,6.145,1.8c3,2.5,3.461,4.153,5.484,9.274s5.367,15.76,5.367,15.76a5.086,5.086,0,0,1-.43,1.206c1.3,4.266,2.367,7.993,2.83,9.817.3,1.185-3.895,7.805-7.4,13.16a16.016,16.016,0,0,1,.5,2.809,2.617,2.617,0,0,1-.287,1.1c.58,4.9.293,11.244-.91,22.151-1.516,13.8-2.211,25.068-2.211,25.068s1.873,4,2.107,13.127c.191,7.384-4.537,37.314-4.537,37.314s-.047.029-.125.075v2.959c.592.225.742,1.357.83,3.61.029.672.158,1.469.158,2.25a5.257,5.257,0,0,1-.088,1c.088,2.3-.4,2.842-1.836,3.448s-4.424.526-5.484-.4a16.5,16.5,0,0,1-3.4-4.245,19.375,19.375,0,0,0-3.254-3.944c-1.115-1.006-3.02-2.17-3.92-4.721a9.571,9.571,0,0,1-.338-4.3,3.086,3.086,0,0,1,.492-1.9,4.644,4.644,0,0,1,5.25-1.511,5.865,5.865,0,0,1,3.355,2.592h.006c-.84-7.4-2.283-20.293-3.018-27.477-1.357-13.373-1.32-18.578-1.809-25.043s-1.061-14.959-1.061-14.959c-.639,4.746-4.77,34.23-4.77,34.23s.514,2.321.885,11.428c.3,7.459-2.588,41.651-2.588,41.651,0,.058-.008,1.816,0,2.993a46.467,46.467,0,0,1,1.219,4.508,21.822,21.822,0,0,1,.518,4.036,5.668,5.668,0,0,1-.1,1.139c.012,2.008.037,2.863-1.637,3.356s-5.852.522-7.547.947-3.631,2.2-7.7,3.381a16.319,16.319,0,0,1-4.564.664,11.8,11.8,0,0,1-5.836-1.39c-2.467-1.423-3.156-2.421-2.771-4.328v0c-.426-2.817,3.117-6.031,7.4-5.1.422-.167,1.223-.488,2.232-.935h0a1.733,1.733,0,0,1,1.85-.856c.361-.175.736-.362,1.115-.562a1.724,1.724,0,0,1,1.631-.886c.447-.255.889-.518,1.324-.793h-.014a1.7,1.7,0,0,1,1.465-.989,15.2,15.2,0,0,0,2.275-2v-2.989h0c-.021-.175-2.576-27.977-3.811-38.3-1.574-13.085-1.564-7.112-2.049-13.573-.426-5.668-.355-34.977.57-54.448-.6-.246-.9-.4-.9-.4s.947-13.565,1.447-25.239c-.266-.033-.529-.071-.779-.117-3.2,5.677-6.787,11.921-7.918,13.469-2.2,2.993-5.564,4.47-7.613,2.571-2.029-1.882-12.959-16.52-13.215-16.858-.467-.476-1.068-1.1-1.693-1.795-3.891-2.634-8.758-3.506-12.639-6.332-4.2-3.047-6.512-10.41-3.09-9.02,5.406,2.191,8.979,2.7,11.287,2.567a24.254,24.254,0,0,1-5.289-6.5,72.75,72.75,0,0,1-3.811-8.394c-1.879-4.683-3.781-8.8-5.287-12.367.137,4.453.229,7.417.229,7.417-.1.075-.2.146-.3.217.752,18.19,1.891,46.735,1.824,50.3-.084,4.637-4.283,44.264-4.283,44.264-.2.067-.387.129-.58.184l-.066,2.534a.015.015,0,0,1,.01,0l.041-1.19c.379.017.693.58,1.535,1.532a16.228,16.228,0,0,0,4.346,3.256c2.764,1.44,8.135,3.656,10.568,4.8,1.52.714,1.447,2.625-.121,3.715s-5.363,1.87-9.918.81c-2.479-.576-5.705-2.964-7.75-2.834s-5.869.1-7.375-.985-.906-3.4-.48-5.384c.467-2.166,1.047-5.551,1.736-5.4v-1.432a5.135,5.135,0,0,1-.467-.276s-2.371-26.312-2.717-31.362a45.4,45.4,0,0,1,.914-12.217l-.373-3.469.029.8-3.66-34.651s-1.957,32.093-3.109,41.626c-1.322,10.923-8.307,51.038-8.307,51.038-.174.075-.346.146-.521.209v1.306c.711.321,2.346,6.841,5.275,9.625,2.33,2.212,5.506,4.766,6.316,7.229.742,2.275-3.314,3.648-5.76,3.648a4.7,4.7,0,0,1-.844-.067c-2.525-.467-6.908-2.321-8.006-4.036s-1.615-4.257-2.508-5.514-2.951-2.667-3.436-4.124a9.651,9.651,0,0,1,.422-4.036c.342-1.357.713-2.855,1.16-2.726v-1.519c-.209-.1-.316-.167-.316-.167s-.748-28.963-1.3-39.981a36.822,36.822,0,0,1,1.164-11.749,8.3,8.3,0,0,1-1.377,1.273,28.444,28.444,0,0,0-7.8,8.235c-2.562,3.994-10.895,15.66-14.752,16.128l0-.033c-1.465.113-3.756-1.311-6.982-4.145-3.311-2.905-9.371-9.617-12.209-12.805l.18,6.628-.041-.1c.434,18.569,1.381,50.979,1.381,50.979-.375.167-.764.313-1.156.447-.3,8.9-.705,16.345-.893,18.841-.422,5.639-.947,8.177-2.943,19.955-1.314,7.776-3.377,27.122-3.9,32.118h.043c3.129,3.456,9.9,6.515,9.963,6.54,6.473,2.759,7.045,3.306,6.6,4.445s-3.289,2.73-6.039,3.051a19.169,19.169,0,0,1-2.24.146,9.347,9.347,0,0,1-4.684-1.106c-2.137-1.189-5.256-2.55-7.25-2.533-3.094.025-5.084-.685-5.594-1.782s-.088-3.535.209-4.992c.322-1.578.877-3.348,1.027-3.815-.3-3.573-2.463-28.846-2.217-34.885a55.649,55.649,0,0,1,2.463-14.2s-.932-12.663-1.682-21.725c-.557-.1-1.111-.2-1.658-.321-.191,1.962-.379,4.007-.514,5.789-.42,5.639-2.1,11.023-3.727,21.491-.881,5.626-2.479,16.483-3.572,23.929,1.836-1,4.395-2.8,6.152-2.053,1.6.68,2.123,1.7,1.494,4.044-.7,2.6-2.562,4.324-4.287,6.173-1.986,2.133-2.926,3.673-4.32,5.422-1.119,1.4-3.668,1.665-5.408,1.148s-1.424-3.109-1.361-4.6c.07-1.874.2-2.859.66-3.118-.484-3.986-3.322-28.069-2.309-35.29a57.045,57.045,0,0,1,2.941-12.4s-.477-3.738-1.027-8.916l-80.032,46.242-36.108-20.849a14.308,14.308,0,0,1-2.366.973c-3,.943-5.789.8-8.645.9-.575.021-1.344.042-2.308.05-.668.209-1.327.4-1.975.551l-.046.013c.029,1.507.042,2.392.042,2.392-.025.017-.05.038-.075.054.567,14.83,1.716,45.629,1.645,49.5-.088,4.5-5.347,47.732-5.347,47.732-.2.067-.393.125-.584.18l-.067,2.454a.015.015,0,0,0,.009,0l.037-1.148c.389.012.7.559,1.557,1.482a16.323,16.323,0,0,0,4.383,3.155c2.792,1.4,8.219,3.548,10.677,4.654,1.532.689,1.461,2.542-.125,3.6s-5.418,1.816-10.014.785c-2.5-.559-5.764-2.872-7.825-2.746s-5.927.1-7.45-.956-.914-3.293-.48-5.217c.468-2.1,1.056-5.384,1.753-5.238v-1.39a4.674,4.674,0,0,1-.476-.267s-1.378-30.327-1.724-35.227a42.39,42.39,0,0,1,.922-11.845l-.3-2.538v0l-3.214-27.635s-1.979,25.106-3.144,34.347c-1.335,10.589-4.716,50.408-4.716,50.408-.18.075-.355.142-.526.2v1.269c.714.317,2.371,6.632,5.326,9.329,2.35,2.145,5.56,4.62,6.373,7.012.756,2.208-3.347,3.535-5.813,3.535A4.716,4.716,0,0,1,16268.486-1171.966Zm71.448-129.231,76.581-44.247h0l-76.59,44.238-.121-.063Zm269.72-1.11-.234-.134C16609.5-1302.395,16609.574-1302.349,16609.654-1302.307ZM16291-1343.32q.069-.647.19-1.281l.126-.651.876-4.549,1.624-8.44,0,0-2.626,13.64q-.12.629-.189,1.273Zm129.864-37.518,2.75,4.241c.723-1.169,1.553-2.475,2.518-3.965-1.023-2.713-1.879-5.188-2.584-7.442Zm-24.346-36.7-2.5,12.993-.117.6c-1.461,7.559,2.809,16.879,9.467,20.727l7.516,4.343a2.81,2.81,0,0,1-.545-1.484c1.021-4.015,5.947-19.346,8.414-25.356s6.674-8.732,10.5-7.826a6.035,6.035,0,0,1,1.471.092c1.047.2,1.969.351,2.959.547v.008l.438-4.863a14.274,14.274,0,0,1-6.67-4.433,15.417,15.417,0,0,1-3.779-11.023Zm47.641,7.15c.8.234,1.572.468,2.313.7,4.17,1.252,6.707,1.478,11.314,8.569,3.7,5.693,11.166,15.389,14.471,19.859,2.291-2.2,12.217-11.754,13.816-13.661l-7.5-4.333a.621.621,0,0,1-.268-.705l7.217-22.184a.375.375,0,0,1,.57-.217l10.883,6.315c-.18-10.126-.4-22.672-.551-32.548a4.745,4.745,0,0,1-.488-.492l.031-25.876-47.312,27.317a10.767,10.767,0,0,1,4.469,2.766c2.363,2.534,3.035,8.289-.25,12.28.121.626.225,1.294.3,2.008.029.042,2.225,3.577,1.916,3.936a4.79,4.79,0,0,1-1.682.693c-.072,5.447-1.578,7.567-2.559,8.46-.686.622-3.707.835-5.891.451Zm52.979,4.145a.13.13,0,0,0,.016.042c-.041-2.229-.086-4.808-.137-7.626l-2.576,7.066a3.744,3.744,0,0,1,1.35-.3A1.338,1.338,0,0,1,16497.135-1406.24Zm118.941-8.172c.994,1.536,1.863,2.984,2.621,4.349l1.445-2.767-1.369-3.339-.65.088-.8-1.8C16616.945-1416.779,16616.531-1415.619,16616.076-1414.412Z" transform="translate(-15935.52 1871.79)" fill="#d5dbf1"/>
      </g>
    </g>
    <g id="Screen-2" data-name="Screen" transform="translate(327.587 0.291)">
      <g id="Device" transform="translate(4 94)">
        <path id="Tracé_1097" data-name="Tracé 1097" d="M320.146,369.408,217.437,428.736l-.239-.128-39.035-22.541c-6.656-3.85-10.926-13.172-9.464-20.728l14.485-75.275,102.709-59.344-14.486,75.275c-1.462,7.556,2.808,16.878,9.466,20.728l39.272,22.685Z" transform="translate(-0.923 120.353)" fill="#d5dbf1"/>
        <path id="Tracé_1098" data-name="Tracé 1098" d="M183.031,308.418l-14.362,74.624,102.7-59.291,13.282-69.019-6.47-1.291-95.15,54.977Z" transform="translate(-0.767 121.998)" fill="#a4b0dc"/>
        <path id="Tracé_1099" data-name="Tracé 1099" d="M224.728,410.117l-39.284-22.68c-6.66-3.846-10.919-13.168-9.465-20.72l14.487-75.285-17.128-9.889-16.555,86.122c-2.19,11.388,4.237,25.45,14.28,31.249L224.728,429.9Z" transform="translate(-8.209 138.98)" fill="#949dc2"/>
        <path id="Tracé_1100" data-name="Tracé 1100" d="M301.682,324.7,198.973,384.038v19.78l102.709-59.341V324.7Z" transform="translate(17.546 165.059)" fill="#949dc2"/>
        <path id="Tracé_1101" data-name="Tracé 1101" d="M483.715,21.382c4.73,2.732,8.566,9.665,8.566,15.488l0,315.183c0,5.824-4.088,12.9-9.132,15.815L90.278,594.692c-5.044,2.912-12.966,3.058-17.7.326s-8.564-9.664-8.564-15.488V264.347c0-5.824,4.089-12.9,9.132-15.816L466.021,21.709c5.041-2.912,12.965-3.058,17.694-.327" transform="translate(-64.012 -19.426)" fill="#b7bdd5"/>
        <path id="Tracé_1102" data-name="Tracé 1102" d="M89.2,506.371c-5.038,2.358-12.209,2.31-16.621-.225-4.733-2.727-8.567-9.658-8.567-15.482V175.477a18.73,18.73,0,0,1,2.679-9l17.134,9.9a18.621,18.621,0,0,0-2.679,8.984V500.548c0,5.407,3.513,7.829,8.054,5.824" transform="translate(-64.014 69.442)" fill="#b7bdd5"/>
        <path id="Tracé_1103" data-name="Tracé 1103" d="M485.826,347.937l0-315.184c0-5.822-4.088-8.182-9.129-5.27L83.828,254.305c-5.042,2.912-9.132,9.992-9.132,15.815l0,315.184c0,5.822,4.086,8.182,9.13,5.272L476.7,363.751c5.042-2.91,9.13-9.992,9.13-15.814" transform="translate(-57.559 -15.31)" fill="#d5dbf1"/>
        <path id="Tracé_1104" data-name="Tracé 1104" d="M462.545,37.417,87.339,254.151a16.144,16.144,0,0,0-7.3,12.652l0,279.839c0,4.657,3.27,6.546,7.3,4.216L462.549,334.126a16.141,16.141,0,0,0,7.3-12.652l0-279.841c0-4.657-3.27-6.546-7.3-4.216" transform="translate(-54.332 -9.156)" fill="#687dcc"/>
        <path id="Tracé_1105" data-name="Tracé 1105" d="M88.766,506.426c0,4.823,3.385,6.777,7.563,4.365L443,310.636a16.712,16.712,0,0,0,7.563-13.1l0-233.376L88.766,273.048Z" transform="translate(-49.055 7.61)" fill="#fafafa"/>
        <path id="Tracé_1106" data-name="Tracé 1106" d="M450.565,64.162,88.766,273.048V506.426c0,3.42,1.7,5.4,4.186,5.4a6.855,6.855,0,0,0,3.377-1.033L443,310.636a16.712,16.712,0,0,0,7.563-13.1l0-233.376Zm-1.6,2.779,0,230.6a15.2,15.2,0,0,1-6.761,11.71L95.527,509.4a5.344,5.344,0,0,1-2.575.818c-2.329,0-2.581-2.654-2.581-3.794V273.974L448.961,66.941" transform="translate(-49.055 7.61)" fill="#e1e1e1"/>
        <path id="Tracé_1107" data-name="Tracé 1107" d="M100.806,213.858l71.252-41.14c1.919-1.107,3.473-.209,3.473,2.005V377.4a7.677,7.677,0,0,1-3.473,6.016l-71.252,41.137c-1.919,1.107-3.475.21-3.475-2.005l0-202.677a7.675,7.675,0,0,1,3.473-6.016" transform="translate(-43.879 72.928)" fill="#f0f0f0"/>
        <path id="Tracé_1108" data-name="Tracé 1108" d="M108.929,212.888l45.188-26.09c1.919-1.107,3.473-.319,3.473,1.758a7.451,7.451,0,0,1-3.473,5.769l-45.189,26.088c-1.919,1.109-3.473.321-3.473-1.757a7.448,7.448,0,0,1,3.475-5.769" transform="translate(-38.97 81.421)" fill="#fafafa"/>
        <path id="Tracé_1109" data-name="Tracé 1109" d="M105.454,216.982v2.711c0,1.33.934,1.869,2.084,1.2l2.35-1.356a4.6,4.6,0,0,0,2.084-3.61v-2.713c0-1.328-.934-1.867-2.084-1.2l-2.35,1.357a4.606,4.606,0,0,0-2.084,3.61" transform="translate(-38.97 96.791)" fill="#fccdac"/>
        <path id="Tracé_1110" data-name="Tracé 1110" d="M113.578,220.512c0,2.078,1.555,2.865,3.473,1.758l32.154-18.565a7.442,7.442,0,0,0,3.473-5.768c0-2.078-1.555-2.864-3.473-1.757l-32.154,18.564a7.446,7.446,0,0,0-3.473,5.768" transform="translate(-34.061 87.09)" fill="#fafafa"/>
        <path id="Tracé_1111" data-name="Tracé 1111" d="M105.454,226.372v2.711c0,1.33.934,1.869,2.084,1.2l2.35-1.357a4.6,4.6,0,0,0,2.084-3.61v-2.713c0-1.328-.934-1.867-2.084-1.2l-2.35,1.357a4.609,4.609,0,0,0-2.084,3.61" transform="translate(-38.97 102.465)" fill="#fccdac"/>
        <path id="Tracé_1112" data-name="Tracé 1112" d="M113.578,229.9c0,2.078,1.555,2.865,3.473,1.757L149.205,213.1a7.444,7.444,0,0,0,3.473-5.768c0-2.079-1.555-2.865-3.473-1.758l-32.154,18.564a7.452,7.452,0,0,0-3.473,5.769" transform="translate(-34.061 92.765)" fill="#fafafa"/>
        <path id="Tracé_1113" data-name="Tracé 1113" d="M105.454,235.747v2.711c0,1.33.934,1.869,2.084,1.2l2.35-1.356a4.6,4.6,0,0,0,2.084-3.61v-2.713c0-1.328-.934-1.867-2.084-1.2l-2.35,1.357a4.606,4.606,0,0,0-2.084,3.61" transform="translate(-38.97 108.131)" fill="#fccdac"/>
        <path id="Tracé_1114" data-name="Tracé 1114" d="M113.578,239.277c0,2.078,1.555,2.865,3.473,1.758l32.154-18.565a7.442,7.442,0,0,0,3.473-5.768c0-2.078-1.555-2.864-3.473-1.757L117.051,233.51a7.446,7.446,0,0,0-3.473,5.768" transform="translate(-34.061 98.431)" fill="#fafafa"/>
        <path id="Tracé_1115" data-name="Tracé 1115" d="M105.454,245.117v2.713c0,1.328.934,1.867,2.084,1.2l2.35-1.357a4.6,4.6,0,0,0,2.084-3.608v-2.715c0-1.328-.934-1.867-2.084-1.2l-2.35,1.357a4.611,4.611,0,0,0-2.084,3.61" transform="translate(-38.97 113.794)" fill="#fccdac"/>
        <path id="Tracé_1116" data-name="Tracé 1116" d="M113.578,248.649c0,2.078,1.555,2.865,3.473,1.757l32.154-18.564a7.444,7.444,0,0,0,3.473-5.768c0-2.078-1.555-2.865-3.473-1.758L117.051,242.88a7.451,7.451,0,0,0-3.473,5.769" transform="translate(-34.061 104.093)" fill="#fafafa"/>
        <path id="Tracé_1117" data-name="Tracé 1117" d="M108.757,264.578l45.188-26.09c1.919-1.107,3.473-.321,3.473,1.757a7.446,7.446,0,0,1-3.473,5.769L108.755,272.1c-1.919,1.107-3.473.321-3.473-1.757a7.448,7.448,0,0,1,3.475-5.769" transform="translate(-39.074 112.658)" fill="#fafafa"/>
        <path id="Tracé_1118" data-name="Tracé 1118" d="M105.282,268.67v2.711c0,1.33.934,1.869,2.084,1.2l2.35-1.357a4.6,4.6,0,0,0,2.084-3.61v-2.713c0-1.328-.934-1.867-2.084-1.2l-2.35,1.357a4.611,4.611,0,0,0-2.084,3.61" transform="translate(-39.074 128.028)" fill="#fccdac"/>
        <path id="Tracé_1119" data-name="Tracé 1119" d="M113.406,272.2c0,2.078,1.555,2.865,3.473,1.757l32.154-18.564a7.449,7.449,0,0,0,3.473-5.768c0-2.079-1.555-2.865-3.473-1.758l-32.154,18.564a7.451,7.451,0,0,0-3.473,5.769" transform="translate(-34.165 118.327)" fill="#fafafa"/>
        <path id="Tracé_1120" data-name="Tracé 1120" d="M105.282,278.061v2.711c0,1.33.934,1.867,2.084,1.2l2.35-1.356a4.6,4.6,0,0,0,2.084-3.61V274.3c0-1.328-.934-1.867-2.084-1.2l-2.35,1.357a4.606,4.606,0,0,0-2.084,3.61" transform="translate(-39.074 133.703)" fill="#fccdac"/>
        <path id="Tracé_1121" data-name="Tracé 1121" d="M113.406,281.592c0,2.078,1.555,2.865,3.473,1.758l32.154-18.565a7.448,7.448,0,0,0,3.473-5.768c0-2.078-1.555-2.865-3.473-1.758l-32.154,18.564a7.451,7.451,0,0,0-3.473,5.769" transform="translate(-34.165 124.002)" fill="#fafafa"/>
        <path id="Tracé_1122" data-name="Tracé 1122" d="M105.282,287.435v2.711c0,1.33.934,1.869,2.084,1.2l2.35-1.357a4.6,4.6,0,0,0,2.084-3.61v-2.713c0-1.328-.934-1.867-2.084-1.2l-2.35,1.357a4.609,4.609,0,0,0-2.084,3.61" transform="translate(-39.074 139.368)" fill="#fccdac"/>
        <path id="Tracé_1123" data-name="Tracé 1123" d="M113.406,290.967c0,2.078,1.555,2.865,3.473,1.757l32.154-18.564a7.448,7.448,0,0,0,3.473-5.768c0-2.079-1.555-2.865-3.473-1.758L116.879,285.2a7.451,7.451,0,0,0-3.473,5.769" transform="translate(-34.165 129.668)" fill="#fafafa"/>
        <path id="Tracé_1124" data-name="Tracé 1124" d="M105.282,296.806v2.711c0,1.33.934,1.867,2.084,1.2l2.35-1.356a4.6,4.6,0,0,0,2.084-3.61v-2.713c0-1.328-.934-1.867-2.084-1.2l-2.35,1.357a4.606,4.606,0,0,0-2.084,3.61" transform="translate(-39.074 145.031)" fill="#fccdac"/>
        <path id="Tracé_1125" data-name="Tracé 1125" d="M113.406,300.336c0,2.078,1.555,2.865,3.473,1.758l32.154-18.565a7.446,7.446,0,0,0,3.473-5.768c0-2.078-1.555-2.864-3.473-1.757l-32.154,18.564a7.446,7.446,0,0,0-3.473,5.768" transform="translate(-34.165 135.331)" fill="#fafafa"/>
        <path id="Tracé_1126" data-name="Tracé 1126" d="M88.766,265.205a16.712,16.712,0,0,1,7.563-13.1L443,51.954c4.178-2.411,7.563-.457,7.563,4.367V72.162L88.766,281.048V265.205Z" transform="translate(-49.056 -0.392)" fill="#949dc2"/>
        <path id="Tracé_1127" data-name="Tracé 1127" d="M289.086,69.436a7.84,7.84,0,0,0-3.547,6.145c0,2.262,1.588,3.18,3.547,2.047a7.835,7.835,0,0,0,3.547-6.143c0-2.262-1.587-3.18-3.547-2.049" transform="translate(69.861 10.505)" fill="#fff"/>
        <path id="Tracé_1128" data-name="Tracé 1128" d="M296.823,64.98a7.838,7.838,0,0,0-3.546,6.145c0,2.262,1.587,3.18,3.546,2.047a7.835,7.835,0,0,0,3.547-6.145c0-2.26-1.587-3.178-3.547-2.047" transform="translate(74.537 7.812)" fill="#fff"/>
        <path id="Tracé_1129" data-name="Tracé 1129" d="M304.562,60.524a7.838,7.838,0,0,0-3.547,6.145c0,2.262,1.587,3.18,3.547,2.049a7.841,7.841,0,0,0,3.546-6.145c0-2.262-1.587-3.18-3.546-2.049" transform="translate(79.214 5.119)" fill="#fff"/>
        <g id="Post" transform="translate(167.011 114.004)">
          <path id="Tracé_1130" data-name="Tracé 1130" d="M172.177,201.943,361.166,92.831l0,30.1L172.179,232.044Z" transform="translate(-165.659 -89.069)" fill="#4a63c2"/>
          <g id="Groupe_1521" data-name="Groupe 1521" transform="translate(6.518 3.762)" opacity="0.05">
            <path id="Tracé_1131" data-name="Tracé 1131" d="M172.177,201.943,361.166,92.831l0,30.1L172.179,232.044Z" transform="translate(-172.177 -92.831)"/>
          </g>
          <path id="Tracé_1132" data-name="Tracé 1132" d="M168.114,158.5l6.518,3.762,0,30.1-6.52-3.764V158.5Z" transform="translate(-168.114 -49.385)" fill="#d5dbf1"/>
          <g id="Groupe_1522" data-name="Groupe 1522" transform="translate(0 109.112)" opacity="0.2">
            <path id="Tracé_1133" data-name="Tracé 1133" d="M168.114,158.5l6.518,3.762,0,30.1-6.52-3.764V158.5Z" transform="translate(-168.114 -158.497)"/>
          </g>
          <path id="Tracé_1134" data-name="Tracé 1134" d="M363.621,94.248,357.1,90.486,168.114,199.6l6.518,3.761Z" transform="translate(-168.114 -90.486)" fill="#d5dbf1"/>
          <g id="Groupe_1523" data-name="Groupe 1523" transform="translate(0)" opacity="0.4">
            <path id="Tracé_1135" data-name="Tracé 1135" d="M363.621,94.248,357.1,90.486,168.114,199.6l6.518,3.761Z" transform="translate(-168.114 -90.486)" fill="#fff"/>
          </g>
          <path id="Tracé_1136" data-name="Tracé 1136" d="M172.177,220.7,361.166,111.592V284.669L172.177,393.782Z" transform="translate(-165.659 -77.731)" fill="#8193d5"/>
          <path id="Tracé_1137" data-name="Tracé 1137" d="M168.114,177.258l6.518,3.762V354.1l-6.515-3.762,0-173.077Z" transform="translate(-168.114 -38.047)" fill="#d5dbf1"/>
          <g id="Groupe_1524" data-name="Groupe 1524" transform="translate(0 139.211)" opacity="0.15">
            <path id="Tracé_1138" data-name="Tracé 1138" d="M168.114,177.258l6.518,3.762V354.1l-6.515-3.762,0-173.077Z" transform="translate(-168.114 -177.258)"/>
          </g>
          <path id="Tracé_1139" data-name="Tracé 1139" d="M244.339,144.364l-.22.2a2.121,2.121,0,0,1-.536.414c-.409.258-.608-.058-.988-.241l-3-1.763c-1.245-.728-2.7-1.577-4.231-2.522s-3.189-1.92-4.811-2.954c-.483-.322.408-1.92.951-1.648,1.705.887,3.38,1.829,4.964,2.69s3.047,1.689,4.3,2.4l3.031,1.718c.347.239.72.253.7.736a2.177,2.177,0,0,1-.09.671c-.045.193-.067.292-.067.292" transform="translate(-130.465 -63.087)" fill="#e1e1e1"/>
          <path id="Tracé_1140" data-name="Tracé 1140" d="M245.585,146.767c-2.329,4.028-6.119,6.207-10.117,4.043a1.581,1.581,0,0,1-.223-.119.3.3,0,0,1-.088-.059,4.309,4.309,0,0,1-1.688-3.865,13.429,13.429,0,0,1,6.056-10.5,4.451,4.451,0,0,1,4.059-.537,1.657,1.657,0,0,1,.223.119,3.1,3.1,0,0,1,.359.239c3.745,2.4,3.714,6.714,1.417,10.683" transform="translate(-128.618 -63.316)" fill="#1f2b5b"/>
          <path id="Tracé_1141" data-name="Tracé 1141" d="M248.669,153.088l4.487-7.667c-.794-.5-6.063-3.095-9.467-6.542a1.715,1.715,0,0,0-.17-.172c-.048-.051-.1-.1-.146-.151l-.011.019a2.609,2.609,0,0,0-2.986.115,8.72,8.72,0,0,0-3.943,6.831,2.77,2.77,0,0,0,1.154,2.551h0a1.945,1.945,0,0,0,.754.229,41.231,41.231,0,0,1,10.329,4.786" transform="translate(-126.827 -61.673)" fill="#2e4088"/>
          <path id="Tracé_1142" data-name="Tracé 1142" d="M253.874,145.382a4.732,4.732,0,0,0-4.733-4.731,4.674,4.674,0,0,0-1.678.321l-.1.03c-.061.026-.12.056-.181.083a5.479,5.479,0,0,0-.746.345,10.593,10.593,0,0,0-4.792,8.3,5.18,5.18,0,0,0,.143,1.2,4.725,4.725,0,0,0,9.381-.817c0-.152-.03-.3-.045-.448a4.719,4.719,0,0,0,2.751-4.284" transform="translate(-123.677 -60.17)" fill="#1f2b5b"/>
          <path id="Tracé_1143" data-name="Tracé 1143" d="M248.122,142.35c2.646-1.527,4.792-.289,4.792,2.767a10.6,10.6,0,0,1-4.792,8.3c-2.646,1.529-4.791.29-4.791-2.766a10.6,10.6,0,0,1,4.79-8.3" transform="translate(-122.658 -59.538)" fill="#4a63c2"/>
          <path id="Tracé_1144" data-name="Tracé 1144" d="M185.16,181.365c3.6-2.078,6.517-.395,6.517,3.762a14.405,14.405,0,0,1-6.517,11.288c-3.6,2.078-6.517.393-6.517-3.762a14.4,14.4,0,0,1,6.517-11.288" transform="translate(-161.751 -36.102)" fill="#fafafa"/>
          <path id="Tracé_1145" data-name="Tracé 1145" d="M192.625,183.089,224.3,164.8c1.571-.908,2.844-.263,2.844,1.439a6.1,6.1,0,0,1-2.844,4.725l-31.676,18.288c-1.572.908-2.846.263-2.844-1.439a6.1,6.1,0,0,1,2.844-4.725" transform="translate(-155.02 -45.824)" fill="#375a64"/>
          <path id="Tracé_1146" data-name="Tracé 1146" d="M191.865,189.07l28.414-16.406c1.152-.664,2.086-.476,2.086.419a4.084,4.084,0,0,1-2.071,2.849l-28.445,16.876c-1.142.679-2.07.385-2.068-.653a4.174,4.174,0,0,1,2.084-3.085" transform="translate(-155.02 -41.063)" fill="#375a64"/>
          <g id="Groupe_1525" data-name="Groupe 1525" transform="translate(19.552 76.446)" opacity="0.3">
            <path id="Tracé_1147" data-name="Tracé 1147" d="M180.3,233.962c0,1.635,1.243,2.241,2.777,1.356l157.366-90.854a5.914,5.914,0,0,0,2.777-4.564c0-1.635-1.243-2.243-2.777-1.357L183.081,229.4a5.911,5.911,0,0,0-2.78,4.563" transform="translate(-180.301 -138.135)"/>
          </g>
          <g id="Groupe_1526" data-name="Groupe 1526" transform="translate(19.552 124.161)" opacity="0.3">
            <path id="Tracé_1148" data-name="Tracé 1148" d="M180.3,227.273c0,1.635,1.243,2.241,2.777,1.356L277.326,174.2a5.914,5.914,0,0,0,2.777-4.564c0-1.635-1.243-2.241-2.777-1.356L183.081,222.71a5.911,5.911,0,0,0-2.78,4.563" transform="translate(-180.301 -167.877)"/>
          </g>
          <path id="Tracé_1149" data-name="Tracé 1149" d="M180.3,247.879l162.922-94.062v97.824L180.3,345.7Z" transform="translate(-160.748 -52.213)" fill="#fccdac"/>
          <g id="Groupe_1527" data-name="Groupe 1527" transform="translate(19.554 101.604)" opacity="0.7">
            <path id="Tracé_1150" data-name="Tracé 1150" d="M180.3,247.879l162.922-94.062v97.824L180.3,345.7Z" transform="translate(-180.302 -153.817)" fill="#fff"/>
          </g>
          <path id="Tracé_1151" data-name="Tracé 1151" d="M180.3,321.609l0-30.1,58.651-79.01,51.993,22.656-17.1-11.37,23.755-30.1,45.619,17.142,0,16.719L180.3,321.609Z" transform="translate(-160.749 -28.119)" fill="#fafafa"/>
          <path id="Tracé_1152" data-name="Tracé 1152" d="M270.749,174.483c5.086-2.936,9.207-.557,9.206,5.315s-4.122,13.011-9.206,15.947-9.206.555-9.207-5.317,4.122-13.01,9.207-15.945" transform="translate(-111.652 -40.484)" fill="#fafafa"/>
        </g>
      </g>
      <g id="People" transform="translate(183.999 382.877)">
        <g id="guy-hands-up" transform="translate(170.391 0)">
          <path id="Tracé_1258" data-name="Tracé 1258" d="M11.08,100.1C3.938,76.916-3.015,61.648,4.067,56.92c6.6,1.222,9.552,4.484,10.952,13.181,1.471,9.122,4.528,21.827,6.312,29.164a86.561,86.561,0,0,0,6.585,17.706,3.743,3.743,0,0,0,1.947,1.714c2.2.862,3.258,1.987,5.054,3.27,1.407,1,2.442,1.116,2.378,1.537a1.856,1.856,0,0,1-2.207,1.359,13.484,13.484,0,0,1-3.072-.988,15.3,15.3,0,0,0,3.848,5.62c3.453,2.888,2.937,5.776-2.623,6.113-1.991.12-6.6-1.7-10.88-8.978a72.368,72.368,0,0,1-3.809-8.4c-2.99-7.456-6.042-13.482-7.471-18.121" transform="translate(46.369 -1.432)" fill="#ffaaa8"/>
          <path id="Tracé_1259" data-name="Tracé 1259" d="M20.786,56.639s5.5-.287,8.827,3.387,7.221,25.63,7.221,25.63-3.649,5.014-13.266,2.961Z" transform="translate(28.388 -1.425)" fill="#eb6608"/>
          <g id="Groupe_1536" data-name="Groupe 1536" transform="translate(49.174 55.209)" opacity="0.3">
            <path id="Tracé_1260" data-name="Tracé 1260" d="M20.786,56.639s5.5-.287,8.827,3.387,7.221,25.63,7.221,25.63-3.649,5.014-13.266,2.961Z" transform="translate(-20.786 -56.634)"/>
          </g>
          <rect id="Rectangle_349" data-name="Rectangle 349" width="7.382" height="13.16" transform="translate(23.455 210.956)" fill="#ffaaa8"/>
          <path id="Tracé_1261" data-name="Tracé 1261" d="M29.432,215.32l7.377.264.369-13.928-7.746-.264Z" transform="translate(19.615 -5.066)" fill="#ffaaa8"/>
          <path id="Tracé_1262" data-name="Tracé 1262" d="M25.358,99.513c0,7.341,1.08,66.421,1.08,66.421-.171,2.113-2.074,6.007-1.661,14.121.56,11.021,1.3,39.983,1.3,39.983a9.37,9.37,0,0,0,8.219.169s6.981-40.114,8.3-51.036c1.154-9.533,3.113-41.626,3.113-41.626l4,37.317a45.476,45.476,0,0,0-.914,12.217c.345,5.053,2.719,31.363,2.719,31.363a9.738,9.738,0,0,0,8.522.679s4.2-39.625,4.284-44.26c.1-5.285-2.455-65.427-2.455-65.427l-36.516.079Z" transform="translate(-2.942 -2.501)" fill="#687dcc"/>
          <path id="Tracé_1263" data-name="Tracé 1263" d="M53.141,225.978v-1.1c.707.321,2.346,6.841,5.276,9.624,2.328,2.212,5.5,4.766,6.312,7.232.84,2.564-4.423,3.98-6.6,3.579-2.528-.466-6.908-2.319-8.007-4.038s-1.614-4.253-2.508-5.512-2.953-2.665-3.436-4.123A9.674,9.674,0,0,1,44.6,227.6c.343-1.359.714-2.853,1.159-2.726,0,.166,0,.838,0,.838a5.7,5.7,0,0,0,3.691,1.3c1.079.044,3.7-.179,3.691-1.037" transform="translate(-22.304 -5.657)" fill="#1a2e35"/>
          <path id="Tracé_1264" data-name="Tracé 1264" d="M21.406,213.5c.383.014.7.577,1.54,1.53a16.171,16.171,0,0,0,4.342,3.254c2.764,1.441,8.138,3.659,10.569,4.8,1.52.713,1.448,2.624-.122,3.712s-5.363,1.872-9.915.811c-2.48-.578-5.708-2.964-7.752-2.835s-5.868.1-7.376-.986-.9-3.4-.479-5.382c.465-2.169,1.047-5.552,1.737-5.4v.748c.887,1.4,5.466,1.969,7.416.939Z" transform="translate(35.096 -5.358)" fill="#1a2e35"/>
          <path id="Tracé_1265" data-name="Tracé 1265" d="M33.269,128.112a27.012,27.012,0,0,0,10.279-6.138s-1.983,3.867-7.882,7.466l1.262,33.324-3.66-34.653Z" transform="translate(9.505 -3.068)" fill="#1a2e35"/>
          <path id="Tracé_1266" data-name="Tracé 1266" d="M31.673,58.388s-5.777.528-5.367,11.532l1.277,17.529-.035,26.3c5.428,6.15,29.49,5.7,37.728-.492,0,0-.934-31.13-1.491-43.109-.395-8.515-2.355-12.8-10.724-13.74l-10.292.452Z" transform="translate(-5.417 -1.419)" fill="#eb6608"/>
          <g id="Groupe_1537" data-name="Groupe 1537" transform="translate(42.658 62.74)" opacity="0.3">
            <path id="Tracé_1267" data-name="Tracé 1267" d="M39.406,64.359,40.731,73.6l3.087-.058-3.483.55-.929-9.733Z" transform="translate(-39.406 -64.359)"/>
          </g>
          <path id="Tracé_1268" data-name="Tracé 1268" d="M29.253,32.7A11.224,11.224,0,0,0,40.242,44.15c6.069,0,10.715-5.13,10.989-11.446.484-11.177-4.92-11.445-10.989-11.445A11.224,11.224,0,0,0,29.253,32.7" transform="translate(5.707 -0.535)" fill="#1a2e35"/>
          <path id="Tracé_1269" data-name="Tracé 1269" d="M53.7,38.824s1.685,8.247,2.361,9.6a3.6,3.6,0,0,0,2.073,1.74l-.118-5.8Z" transform="translate(-25.007 -0.977)" fill="#1a2e35"/>
          <path id="Tracé_1270" data-name="Tracé 1270" d="M58.362,26.7s-1.209-.3-2.493,1.7c-1.1,1.72-1.35,5.583.377,10.112l3.175.379Z" transform="translate(-27.55 -0.671)" fill="#1a2e35"/>
          <path id="Tracé_1271" data-name="Tracé 1271" d="M38.127,38.77c-.637.4-1.545-.877-2.331-1.733s-3.347-2.024-4.626.781c-1.3,2.86,1.128,6.638,3.147,7.3,3.476,1.137,4-1.186,4-1.186l.266,13.063c4.616,7.141,15.073,6.882,11.313-.345l-.01-3.975a21.056,21.056,0,0,0,4.687.251c2.557-.412,4.166-2.514,4.941-5.4,1.247-4.631,1.72-8.369.662-17.476-1.158-9.981-12.305-10.086-18.324-6.14S38.127,38.77,38.127,38.77" transform="translate(-5.303 -0.541)" fill="#ffaaa8"/>
          <path id="Tracé_1272" data-name="Tracé 1272" d="M46.436,54.842a16.755,16.755,0,0,0,4.521,5.665,12.793,12.793,0,0,0,5.469,2.324,12.136,12.136,0,0,0-3.859,4.334c-1.151,2.539-9.274-4.452-9.2-9.412,0,0,1.274-4.982,3.02-5.3Z" transform="translate(-13.217 -1.319)" fill="#753304"/>
          <path id="Tracé_1273" data-name="Tracé 1273" d="M37.715,62.858s2.5-1.244,1.382-5.407l-.011-3.975,1.1.146a9.629,9.629,0,0,1,2.639,4.572c.252,1.139.87,6.907-.231,8.053-1,1.042-2.632-3.08-4.877-3.39" transform="translate(5.494 -1.345)" fill="#753304"/>
          <path id="Tracé_1274" data-name="Tracé 1274" d="M34.564,27.785a1.617,1.617,0,0,0-.861.057c-.945.429-1.147,3.366-1.313,4.215-.56,2.859-1.023,7.705-2.1,7.728-.321.006-1.537-2.1-2.33-2.849-1.1-1.04.319-10.464.319-10.464A4.605,4.605,0,0,1,29.34,21.7c1.975-2.266,5.082-2.766,7.921-2.923,3.343-.184,6.739.069,10.033-.663a27.968,27.968,0,0,1,3.143-.674.381.381,0,0,1,.287.048c.108.088.093.253.064.39a10.167,10.167,0,0,1-1.043,2.826,25.755,25.755,0,0,0,5.778-1.136.561.561,0,0,1,.329-.036c.22.07.259.363.247.594-.134,2.367-1.255,5.928-3.175,7.319a11.075,11.075,0,0,1-5.7,1.8c-5.169.134-8.378-.957-12.654-1.464" transform="translate(2.532 -0.439)" fill="#1a2e35"/>
          <path id="Tracé_1275" data-name="Tracé 1275" d="M59.68,27.126l-3.849-2.152a2.083,2.083,0,0,1,2.914-1,2.442,2.442,0,0,1,.935,3.156" transform="translate(-28.863 -0.596)" fill="#1a2e35"/>
          <path id="Tracé_1276" data-name="Tracé 1276" d="M52.422,53.343s-5.709-1.2-7.7-2.3A6.735,6.735,0,0,1,41.959,48.2a9.539,9.539,0,0,0,1.568,3.352c1.459,1.944,8.894,3.375,8.894,3.375Z" transform="translate(-7.84 -1.212)" fill="#ff9090"/>
          <path id="Tracé_1277" data-name="Tracé 1277" d="M45.655,37.659a1.148,1.148,0,1,1-1.143-1.241,1.189,1.189,0,0,1,1.143,1.241" transform="translate(-2.446 -0.916)" fill="#1a2e35"/>
          <path id="Tracé_1278" data-name="Tracé 1278" d="M47.862,32.61l-2.448,1.407a1.563,1.563,0,0,1,.57-2.03,1.339,1.339,0,0,1,1.878.623" transform="translate(-6.49 -0.8)" fill="#1a2e35"/>
          <path id="Tracé_1279" data-name="Tracé 1279" d="M39.893,46.134,42.5,47.155a1.359,1.359,0,0,1-1.774.9,1.543,1.543,0,0,1-.837-1.922" transform="translate(4.171 -1.161)" fill="#ff9090"/>
          <path id="Tracé_1280" data-name="Tracé 1280" d="M34.555,33.644l-2.231-1.79a1.318,1.318,0,0,1,1.94-.31,1.584,1.584,0,0,1,.291,2.1" transform="translate(19.148 -0.786)" fill="#1a2e35"/>
          <path id="Tracé_1281" data-name="Tracé 1281" d="M35.895,37.311A1.148,1.148,0,1,1,34.75,36.07a1.189,1.189,0,0,1,1.144,1.241" transform="translate(16.829 -0.907)" fill="#1a2e35"/>
          <path id="Tracé_1282" data-name="Tracé 1282" d="M35.544,36.362l.133,7.226,4.1-.941-4.233-6.285Z" transform="translate(11.058 -0.915)" fill="#ff9090"/>
          <path id="Tracé_1283" data-name="Tracé 1283" d="M79.127,43.8c-1.646-2.185-4.98,2.665-6.524,6.008s-1.565,5.236-.3,6.564,3.654.522,6.047-2.645,1.722-8.313.781-9.927" transform="translate(-64.103 -1.088)" fill="#00dfbf"/>
          <g id="Groupe_1538" data-name="Groupe 1538" transform="translate(7.294 42.163)" opacity="0.5">
            <path id="Tracé_1284" data-name="Tracé 1284" d="M79.127,43.8c-1.646-2.185-4.98,2.665-6.524,6.008s-1.565,5.236-.3,6.564,3.654.522,6.047-2.645,1.722-8.313.781-9.927" transform="translate(-71.397 -43.251)"/>
          </g>
          <path id="Tracé_1285" data-name="Tracé 1285" d="M62.965,43.36C68.778,57.045,76.953,64.7,80.608,73.479c4.794-.326,8.525-11.888,4.957-16.835,0,0-14.021-15.177-15.291-21.142-1.126-5.3-2.641-14.03-2.507-18.5a3.068,3.068,0,0,1,.863-1.984c1.47-1.583,1.472-2.854,2.417-4.6.737-1.363,1.543-1.873,1.314-2.18a1.764,1.764,0,0,0-2.389-.175,9.009,9.009,0,0,0-1.808,1.735,10.025,10.025,0,0,1,.828-5.128C70.621.985,70.224-.894,65.255.417c-3.115.822-5.07,3.415-5.535,10.9a73.791,73.791,0,0,0-.055,9.347c.539,5.76.885,11.764,1.594,16.533a25.174,25.174,0,0,0,1.7,6.164" transform="translate(-59.535 0)" fill="#ffaaa8"/>
          <path id="Tracé_1286" data-name="Tracé 1286" d="M77.838,57.906,65.467,43.773s1.468,3.448-1.748,8.461-5.132,4.149-5.132,4.149,7.3,10.655,9.257,14.222,3.988,6.574,3.988,6.574a2.335,2.335,0,0,0,2.306,1.259c1.819,0,6.628-8.052,3.7-20.532" transform="translate(-50.391 -1.101)" fill="#eb6608"/>
          <g id="Groupe_1539" data-name="Groupe 1539" transform="translate(8.197 42.672)" opacity="0.3">
            <path id="Tracé_1287" data-name="Tracé 1287" d="M77.838,57.906,65.467,43.773s1.468,3.448-1.748,8.461-5.132,4.149-5.132,4.149,7.3,10.655,9.257,14.222,3.988,6.574,3.988,6.574a2.335,2.335,0,0,0,2.306,1.259c1.819,0,6.628-8.052,3.7-20.532" transform="translate(-58.588 -43.773)" fill="#eb6608"/>
          </g>
        </g>
        <g id="girl-code" transform="translate(231.469 73.966)">
          <path id="Tracé_1190" data-name="Tracé 1190" d="M60.411,29.637c4.97.968,7.233,2.66,10.06,9.553s7.867,23.686,9.042,28.292c.526,2.064-12.538,20.53-11.977,20.257.17-.084-5.1-8.9-5.1-8.9l6.411-12.268L64.281,55.411Z" transform="translate(16.414 8.053)" fill="#ffaaa8"/>
          <path id="Tracé_1191" data-name="Tracé 1191" d="M59.332,29.749s4.536-.813,7.536,1.681,3.459,4.151,5.485,9.272,5.364,15.762,5.364,15.762-.959,5.728-10.282,6.853l-7.99-17.995s-2.782-10.883-.113-15.573" transform="translate(15.807 8.049)" fill="#2e4088"/>
          <path id="Tracé_1192" data-name="Tracé 1192" d="M51.752,145.828a10.711,10.711,0,0,0,.292,4.844c.9,2.55,2.8,3.717,3.921,4.722a19.194,19.194,0,0,1,3.253,3.945,16.56,16.56,0,0,0,3.4,4.245c1.062.921,4.048,1,5.487.4s1.923-1.147,1.835-3.448c-.088-2.247-7.062-3.084-7.062-3.084Z" transform="translate(14.024 39.623)" fill="#375a64"/>
          <path id="Tracé_1193" data-name="Tracé 1193" d="M68.951,154.256c.6.225.745,1.358.836,3.612.069,1.705.785,4.2-1.563,5.275a5.74,5.74,0,0,1-6.2-1.316c-1.6-2.007-2.677-3.772-4.957-6.219-1.976-2.123-4.036-2.838-4.914-7.081-.565-2.728-.121-3.858,1.716-4.64,2.523-1.076,6.488,2.439,8.467,2.992,1.7.477,6.023,7.152,6.618,7.377" transform="translate(14.108 39.04)" fill="#161e3e"/>
          <g id="Groupe_1529" data-name="Groupe 1529" transform="translate(66.029 182.723)" opacity="0.2">
            <path id="Tracé_1194" data-name="Tracé 1194" d="M68.951,154.256c.6.225.745,1.358.836,3.612.069,1.705.785,4.2-1.563,5.275a5.74,5.74,0,0,1-6.2-1.316c-1.6-2.007-2.677-3.772-4.957-6.219-1.976-2.123-4.036-2.838-4.914-7.081-.565-2.728-.121-3.858,1.716-4.64,2.523-1.076,6.488,2.439,8.467,2.992,1.7.477,6.023,7.152,6.618,7.377" transform="translate(-51.922 -143.683)"/>
          </g>
          <path id="Tracé_1195" data-name="Tracé 1195" d="M61.361,146.221a3.543,3.543,0,0,1-.336-.117,6.509,6.509,0,0,0-5.465,3.584c-.336.743.7,1.321,1.319.743a6.944,6.944,0,0,1,5.461-3.562,2.9,2.9,0,0,0-.979-.647" transform="translate(15.079 39.698)" fill="#fafafa"/>
          <path id="Tracé_1196" data-name="Tracé 1196" d="M62.491,147.206a6.456,6.456,0,0,0-5.077,3.553c-.337.743.7,1.321,1.317.743a6.655,6.655,0,0,1,4.554-3.4c-.271-.319-.539-.623-.795-.9" transform="translate(15.582 39.997)" fill="#fafafa"/>
          <path id="Tracé_1197" data-name="Tracé 1197" d="M26.8,173.8c-.385,1.909.305,2.906,2.77,4.329s6.332,1.91,10.4.727,6.014-2.961,7.7-3.383,5.874-.459,7.545-.947,1.646-1.347,1.637-3.356Z" transform="translate(7.256 46.508)" fill="#375a64"/>
          <path id="Tracé_1198" data-name="Tracé 1198" d="M55.182,163.556s.794,2.406,1.222,4.509c.34,1.672.827,4.467.24,5.725s-2.869,2.07-6.412,2.042c-2.293-.017-5.868,1.541-8.316,2.906-2.527,1.412-5.27,1.417-7.944,1.1-3.15-.37-6.414-2.2-6.924-3.5s-.641-2.284,6.786-5.448c.067-.029,8.616-3.183,12.208-7.148l9.14-.187Z" transform="translate(7.294 44.44)" fill="#1c264e"/>
          <g id="Groupe_1530" data-name="Groupe 1530" transform="translate(34.137 207.996)" opacity="0.2">
            <path id="Tracé_1199" data-name="Tracé 1199" d="M55.182,163.556s.794,2.406,1.222,4.509c.34,1.672.827,4.467.24,5.725s-2.869,2.07-6.412,2.042c-2.293-.017-5.868,1.541-8.316,2.906-2.527,1.412-5.27,1.417-7.944,1.1-3.15-.37-6.414-2.2-6.924-3.5s-.641-2.284,6.786-5.448c.067-.029,8.616-3.183,12.208-7.148l9.14-.187Z" transform="translate(-26.843 -163.556)"/>
          </g>
          <path id="Tracé_1200" data-name="Tracé 1200" d="M40.929,177.721s-.636-6.376-5.819-8.2c-4.685-1.648-8.777,1.824-8.321,4.841.306,2.031,6.01,6.641,14.14,3.359" transform="translate(7.269 45.945)" fill="#fafafa"/>
          <path id="Tracé_1201" data-name="Tracé 1201" d="M34.356,168.681a6.037,6.037,0,0,1,3.537,1.571c1.5,1.259,1.537,2.093,1.537,2.093a.786.786,0,0,0,1.353-.646s-.348-3.216-4.581-3.874a1.724,1.724,0,0,0-1.847.856" transform="translate(9.335 45.591)" fill="#fafafa"/>
          <path id="Tracé_1202" data-name="Tracé 1202" d="M36.686,167.566a5.3,5.3,0,0,1,3.572,1.419c1.494,1.258,1.5,2.245,1.5,2.245a.785.785,0,0,0,1.352-.646s-.348-3.216-4.581-3.875a1.726,1.726,0,0,0-1.847.857" transform="translate(9.968 45.288)" fill="#fafafa"/>
          <path id="Tracé_1203" data-name="Tracé 1203" d="M39,166.268a5.309,5.309,0,0,1,3.661,1.173c1.576,1.152,1.653,2.138,1.653,2.138a.786.786,0,0,0,1.3-.739s-.566-3.183-4.834-3.552a1.725,1.725,0,0,0-1.784.98" transform="translate(10.597 44.906)" fill="#fafafa"/>
          <path id="Tracé_1204" data-name="Tracé 1204" d="M66.907,149.131v4.325a6.77,6.77,0,0,1-6.989.189c-.122-.267-.472-4.515-.472-4.515Z" transform="translate(16.152 40.52)" fill="#ffaaa8"/>
          <path id="Tracé_1205" data-name="Tracé 1205" d="M51.081,161.2s-.01,2.053,0,3.226-1.375,2.921-4.961,2.793c-2.519-.089-4.278-.767-4.179-2.841v-2.991Z" transform="translate(11.395 43.801)" fill="#ffaaa8"/>
          <path id="Tracé_1206" data-name="Tracé 1206" d="M77.634,135.888c-.234-9.123-2.11-13.127-2.11-13.127s.7-11.27,2.214-25.067c2.308-21,1.246-25.076-2.9-34.527,0,0-35.358-3.582-36.437,11.111-1.343,18.3-1.5,55.52-1.016,61.984s.478.491,2.049,13.577c1.241,10.349,3.809,38.294,3.809,38.294a9.7,9.7,0,0,0,9.14-.187s2.891-34.194,2.588-41.652c-.371-9.108-.888-11.426-.888-11.426s4.134-29.485,4.774-34.232c0,0,.575,8.495,1.061,14.96s.446,11.67,1.807,25.043c1.068,10.488,3.656,33.132,3.656,33.132A8.685,8.685,0,0,0,73.1,173.2s4.727-29.932,4.539-37.314" transform="translate(10.091 17.059)" fill="#8193d5"/>
          <path id="Tracé_1207" data-name="Tracé 1207" d="M53.373,151.748s.2-5.051,7.024-5.752l.392.221a5.893,5.893,0,0,0-3.359-2.593,4.644,4.644,0,0,0-5.251,1.51c-1.193,1.535.015,5.63,1.194,6.614" transform="translate(14.044 38.959)" fill="#fafafa"/>
          <path id="Tracé_1208" data-name="Tracé 1208" d="M46.17,26.45l1.661,13.662,12.011-1.085L58.47,23.862Z" transform="translate(12.545 6.484)" fill="#ffaaa8"/>
          <path id="Tracé_1209" data-name="Tracé 1209" d="M74.028,36.25c-1.32-3.594-4.344-7.359-8.963-6.5-1.2.223-2.26.4-3.393.627-.1,3.146-6.034,4.777-11.946,2.868q-2.667.763-4.882,1.555c-4.227,1.51-5.927,8.533-6.022,20.282S37.077,90.42,37.077,90.42s8.89,4.721,25.529,1.7,16.345-8.671,16.345-8.671-.333-6.891-7.83-18.466c6.367-16.938,4.866-23.4,2.906-28.737" transform="translate(10.074 8.05)" fill="#4a63c2"/>
          <path id="Tracé_1210" data-name="Tracé 1210" d="M39.31,14.267s-2.556,4.1-2.2,4.517a6.391,6.391,0,0,0,2.065.824Z" transform="translate(10.075 3.876)" fill="#ff9090"/>
          <path id="Tracé_1211" data-name="Tracé 1211" d="M46.688,4.317c-2.554,1.408-6.964,4-7.858,13.573-.917,9.828,1.354,13.172,2.725,14.42.925.842,5.583,1.031,7.989.212,3.01-1.024,9.5-4.451,12.446-9.589,3.467-6.046,4-13.994-.268-16.989C55.713,1.731,48.85,3.126,46.688,4.317" transform="translate(10.493 0.843)" fill="#ffaaa8"/>
          <path id="Tracé_1212" data-name="Tracé 1212" d="M46.414,16.726A9.73,9.73,0,0,1,40.18,8.874C39.214,2.64,47,0,47,0Z" transform="translate(10.895 0)" fill="#1a2e35"/>
          <path id="Tracé_1213" data-name="Tracé 1213" d="M44.52,5.215s-2.017,9,.841,14.57c0,0,1.489-3.529,4.513-2.61,3.044.926,2.878,4.956.558,7.077a4.5,4.5,0,0,1-4.652,1.119,20.189,20.189,0,0,0,4.493,6.785S59.227,36.148,66.98,27.4c7.034-7.941,5.726-21.789-5.047-25.056S44.52,5.215,44.52,5.215" transform="translate(11.909 0.376)" fill="#1a2e35"/>
          <path id="Tracé_1214" data-name="Tracé 1214" d="M76.154,39.1A12.226,12.226,0,0,1,63.928,26.873V6.4A12.226,12.226,0,0,1,76.154,18.626Z" transform="translate(17.37 1.739)" fill="#1a2e35"/>
          <path id="Tracé_1215" data-name="Tracé 1215" d="M65.313,4.334A2.108,2.108,0,0,0,63.95,6.989L67.968,5.7a2.11,2.11,0,0,0-2.655-1.365" transform="translate(17.348 1.15)" fill="#1a2e35"/>
          <path id="Tracé_1216" data-name="Tracé 1216" d="M21.635,53.8c-1.744-1.992-2.033-6.39-4.357-9.418-2.269-2.955-1.9-6.077-3.357-4.719-1.559,1.452-.368,6.32-.368,6.32s-2.7,5.018-2.935,7.587,6.567,9.019,6.567,9.019Z" transform="translate(2.884 10.688)" fill="#ffaaa8"/>
          <path id="Tracé_1217" data-name="Tracé 1217" d="M16.8,44.581S14.051,48.43,1.655,43.4c-3.423-1.389-1.114,5.973,3.086,9.022,3.885,2.823,8.751,3.7,12.639,6.331.01-.374-.577-14.174-.577-14.174" transform="translate(0 11.746)" fill="#ffaaa8"/>
          <path id="Tracé_1218" data-name="Tracé 1218" d="M51.947,33.409c-3.532,1.228-6.622,2.65-9.918,8.845C37.794,50.212,30.092,65.8,30.092,65.8l-9.6-10.39s-1.4-1.969-4,2.323-1.45,5.48-1.45,5.48,11.167,14.957,13.216,16.86,5.417.422,7.612-2.57S49.439,53.934,49.439,53.934s7.5-13,2.508-20.525" transform="translate(4.022 9.078)" fill="#ffaaa8"/>
          <path id="Tracé_1219" data-name="Tracé 1219" d="M49.509,32.968c-.879.282-6.965.281-10.765,7.157-4.22,7.637-8.665,16.251-8.665,16.251s3.057,7.38,10.86,7.943c.013-.76,6.386-12.075,8.785-16.925s2.17-12.247-.215-14.426" transform="translate(8.173 8.958)" fill="#2e4088"/>
          <path id="Tracé_1220" data-name="Tracé 1220" d="M54.219,94.948l.669-7.147A26.986,26.986,0,0,0,65.674,83.72s-2.3,3.68-8.6,5.356l-1.423,6.963-.371,13.869-1.061-14.96Z" transform="translate(14.732 22.747)" fill="#2b454e"/>
        </g>
        <g id="black-girl-smartphone" transform="translate(106.909 110.336)">
          <path id="Tracé_1224" data-name="Tracé 1224" d="M13.322,36.438l11.157,6.478a.6.6,0,0,1,.254.7L16.813,65.355a.394.394,0,0,1-.589.213L5.8,59.547a.629.629,0,0,1-.271-.708l7.22-22.182a.377.377,0,0,1,.572-.219" transform="translate(62.453 -7.716)" fill="#3e4b80"/>
          <path id="Tracé_1225" data-name="Tracé 1225" d="M23.413,44.5,13.171,38.688,7.023,57.59l9.625,5.433Z" transform="translate(62.324 -7.775)" fill="#fff"/>
          <g id="Groupe_1531" data-name="Groupe 1531" transform="translate(75.94 38.402)" opacity="0.4">
            <path id="Tracé_1227" data-name="Tracé 1227" d="M13.382,48.061a2.631,2.631,0,0,1,1.081-1.691,3.618,3.618,0,0,1,2.517,2.355s-1.724-1.77-3.6-.664" transform="translate(-13.382 -46.37)" fill="#fff"/>
          </g>
          <path id="Tracé_1233" data-name="Tracé 1233" d="M14.076,41.127a.244.244,0,0,0,.122-.455l-2.46-1.422a.244.244,0,0,0-.244.423l2.46,1.422a.248.248,0,0,0,.122.032" transform="translate(67.178 -7.788)" fill="#2b454e"/>
          <path id="Tracé_1234" data-name="Tracé 1234" d="M10.426,41.413a.237.237,0,1,0,.237-.237.237.237,0,0,0-.237.237" transform="translate(71.52 -7.837)" fill="#2b454e"/>
          <path id="Tracé_1235" data-name="Tracé 1235" d="M18.93,61.854a.616.616,0,1,0,.616-.615.616.616,0,0,0-.616.615" transform="translate(53.969 -8.342)" fill="#2b454e"/>
          <path id="Tracé_1236" data-name="Tracé 1236" d="M94.485,45.478c-3.828-.9-8.037,1.816-10.5,7.828s-7.391,21.339-8.417,25.357c-.459,1.8,13.193,17.721,12.7,17.482-.15-.073,4.447-7.766,4.447-7.766l-6.625-10.2L90.243,67.11l4.241-21.632Z" transform="translate(-75.556 -7.941)" fill="#c76668"/>
          <path id="Tracé_1237" data-name="Tracé 1237" d="M70.1,191.386c-.519.2-.65,1.184-.728,3.149-.06,1.488-.378,4.083,1.363,4.6s4.292.253,5.408-1.148c1.393-1.748,2.335-3.288,4.322-5.422,1.724-1.851,3.588-3.579,4.285-6.175.629-2.345.105-3.364-1.5-4.045-2.2-.94-5.659,2.125-7.383,2.608-1.486.416-5.253,6.236-5.772,6.434" transform="translate(-59.996 -11.383)" fill="#1a2e35"/>
          <path id="Tracé_1238" data-name="Tracé 1238" d="M75.84,185.088a3.061,3.061,0,0,1,2.443,0c1.652.509,2.14,1.7.87,3.025s-4.372,4.219-4.372,4.219l-1.4-3.735Z" transform="translate(-58.822 -11.451)" fill="#c76668"/>
          <path id="Tracé_1239" data-name="Tracé 1239" d="M42.424,204.773a40.563,40.563,0,0,0-1.065,3.933c-.3,1.458-.721,3.9-.211,4.992s2.5,1.805,5.592,1.782c2-.016,5.117,1.342,7.251,2.534a11.094,11.094,0,0,0,6.928.96c2.748-.322,5.595-1.916,6.038-3.053s-.127-1.685-6.6-4.444c-.059-.024-6.829-3.082-9.962-6.54l-7.969-.163Z" transform="translate(-14.369 -11.952)" fill="#1a2e35"/>
          <path id="Tracé_1240" data-name="Tracé 1240" d="M61.63,211.478c.9.382,1.67.717,2.352,1.023.169.618-.08,1.589-2.963,2.032-4.395.675-15.673-7.421-15.673-7.421s.363-1.237.722-2.289l5.6.115c3.133,3.458,9.9,6.515,9.962,6.54" transform="translate(-15.645 -11.953)" fill="#c76668"/>
          <path id="Tracé_1241" data-name="Tracé 1241" d="M49.992,153.746a57.093,57.093,0,0,1,2.944-12.407s-1.361-10.672-2.15-20.926c-1.414-18.373-.279-24.38,3.335-32.621,0,0,30.832-3.124,31.773,9.689,1.172,15.957-.382,46.8-.806,52.432s-.948,8.177-2.942,19.957c-1.517,8.962-4.024,33.308-4.024,33.308-1.018,2.423-7.163,1.976-7.805-.817,0,0-2.52-28.8-2.257-35.307a55.613,55.613,0,0,1,2.466-14.2s-1.911-26-2.469-30.144c0,0-.962,8.249-1.385,13.887s-2.1,11.022-3.729,21.493c-1.414,9.083-4.723,31.792-4.723,31.792-2.935,2.944-5.648,1.12-5.852-.285,0,0-3.48-27.97-2.375-35.852" transform="translate(-42.261 -9.001)" fill="#2e4088"/>
          <path id="Tracé_1242" data-name="Tracé 1242" d="M71.278,41.169,69.831,53.083l-10.475-.947,1.2-13.224,10.726,2.256Z" transform="translate(-36.557 -7.78)" fill="#c76668"/>
          <path id="Tracé_1243" data-name="Tracé 1243" d="M54.176,51.452c1.152-3.134,5.067-6.624,9.094-5.876,1.049.195,1.972.348,2.959.547.092,2.744,5.263,4.166,10.419,2.5q2.325.667,4.257,1.357c3.686,1.316,5.169,7.441,5.249,17.686s1.594,61.9,1.594,61.9a10.384,10.384,0,0,1-5.318.931L81,121.312l-.669,9.47c-2.912.47-11.072-.29-16.242-2.01a40.851,40.851,0,0,1-15.153-9.144s.087-14.85,1.447-22.1,1.754-8.971,8.292-19.064c-5.553-14.771-6.21-22.359-4.5-27.01" transform="translate(-42.872 -7.945)" fill="#4a63c2"/>
          <g id="Groupe_1534" data-name="Groupe 1534" transform="translate(6.067 37.528)" opacity="0.3">
            <path id="Tracé_1244" data-name="Tracé 1244" d="M54.176,51.452c1.152-3.134,5.067-6.624,9.094-5.876,1.049.195,1.972.348,2.959.547.092,2.744,5.263,4.166,10.419,2.5q2.325.667,4.257,1.357c3.686,1.316,5.169,7.441,5.249,17.686s1.594,61.9,1.594,61.9a10.384,10.384,0,0,1-5.318.931L81,121.312l-.669,9.47c-2.912.47-11.072-.29-16.242-2.01a40.851,40.851,0,0,1-15.153-9.144s.087-14.85,1.447-22.1,1.754-8.971,8.292-19.064c-5.553-14.771-6.21-22.359-4.5-27.01" transform="translate(-48.939 -45.473)" fill="none"/>
          </g>
          <g id="Groupe_1535" data-name="Groupe 1535" transform="translate(37.461 55.602)" opacity="0.2">
            <path id="Tracé_1245" data-name="Tracé 1245" d="M56.208,72.493l-5.892-8.479,6.072,15.148Z" transform="translate(-50.316 -64.014)"/>
          </g>
          <path id="Tracé_1246" data-name="Tracé 1246" d="M78.34,25.782s4.091-4.617,1.107-9.3c-3.517-5.522-10.3-6.463-18.328-4.309A14.25,14.25,0,0,0,51.07,25.107C50.686,31,67.115,35.343,66.739,39.378l11.6-13.6Z" transform="translate(-37.732 -7.081)" fill="#1a2e35"/>
          <path id="Tracé_1247" data-name="Tracé 1247" d="M49.013,28s2.228,3.575,1.916,3.938a5.55,5.55,0,0,1-1.8.719L49.013,28Z" transform="translate(-6.155 -7.506)" fill="#b0494c"/>
          <path id="Tracé_1248" data-name="Tracé 1248" d="M66.523,16.356c2.227,1.227,6.072,3.49,6.852,11.837.8,8.57-1.182,11.486-2.376,12.575-.807.734-4.869.9-6.968.185-2.624-.894-8.283-3.882-10.852-8.362-3.023-5.272-3.491-12.2.234-14.814,5.24-3.676,11.223-2.46,13.11-1.42" transform="translate(-30.464 -7.186)" fill="#c76668"/>
          <path id="Tracé_1249" data-name="Tracé 1249" d="M80.088,16.682s1.759,7.845-.733,12.706c0,0-1.3-3.079-3.935-2.276-2.655.807-2.508,4.322-.486,6.171a3.919,3.919,0,0,0,4.056.977,17.6,17.6,0,0,1-3.918,5.916s-7.808,3.481-14.57-4.15c-6.135-6.924-4.994-19,4.4-21.85s15.184,2.506,15.184,2.506" transform="translate(-43.374 -7.137)" fill="#1a2e35"/>
          <path id="Tracé_1250" data-name="Tracé 1250" d="M70.736,13.492a6.514,6.514,0,1,0,6.516-6.515,6.515,6.515,0,0,0-6.516,6.515" transform="translate(-60.137 -6.977)" fill="#1a2e35"/>
          <path id="Tracé_1251" data-name="Tracé 1251" d="M67.435,11A3.954,3.954,0,1,0,71.39,7.044,3.954,3.954,0,0,0,67.435,11" transform="translate(-48.498 -6.979)" fill="#1a2e35"/>
          <path id="Tracé_1252" data-name="Tracé 1252" d="M76.7,19.113a3.955,3.955,0,1,0,3.955-3.955A3.954,3.954,0,0,0,76.7,19.113" transform="translate(-66.788 -7.183)" fill="#1a2e35"/>
          <g id="Polygone_2" data-name="Polygone 2" transform="matrix(0.883, 0.469, -0.469, 0.883, 75.033, 39.021)" fill="#fff">
            <path d="M 7.458389759063721 3.399318933486938 L 1.315104007720947 3.399318933486938 L 4.386746883392334 0.6689789891242981 L 7.458389759063721 3.399318933486938 Z" stroke="none"/>
            <path d="M 4.386746883392334 1.33794903755188 L 2.630199909210205 2.899318933486938 L 6.143293857574463 2.899318933486938 L 4.386746883392334 1.33794903755188 M 4.386746883392334 -1.192092895507812e-06 L 8.773496627807617 3.899318933486938 L -2.86102294921875e-06 3.899318933486938 L 4.386746883392334 -1.192092895507812e-06 Z" stroke="none" fill="#707070"/>
          </g>
          <g id="Polygone_3" data-name="Polygone 3" transform="matrix(0.921, 0.391, -0.391, 0.921, 73.561, 38.716)" fill="#fff">
            <path d="M 6.758327484130859 4.374182224273682 L 1.040319442749023 4.374182224273682 L 3.899323463439941 0.8004050850868225 L 6.758327484130859 4.374182224273682 Z" stroke="none"/>
            <path d="M 3.899323463439941 1.600785493850708 L 2.080617427825928 3.874182224273682 L 5.718029499053955 3.874182224273682 L 3.899323463439941 1.600785493850708 M 3.899323463439941 1.9073486328125e-06 L 7.798643589019775 4.874182224273682 L 3.337860107421875e-06 4.874182224273682 L 3.899323463439941 1.9073486328125e-06 Z" stroke="none" fill="#707070"/>
          </g>
          <path id="Tracé_1253" data-name="Tracé 1253" d="M61.93,13.253C65.3,16.875,65.225,27.066,55.108,29.3L49.019,11.086c3.9-2.385,9.9-1.066,12.912,2.167" transform="translate(-19.126 -7.05)" fill="#1a2e35"/>
          <path id="Tracé_1254" data-name="Tracé 1254" d="M56.951,32.593a1.988,1.988,0,0,0-1.25-3.775Z" transform="translate(-20.031 -7.524)" fill="#1a2e35"/>
          <path id="Tracé_1255" data-name="Tracé 1255" d="M29.268,49.44c4.17,1.252,6.711,1.478,11.319,8.567S55.626,78.383,56.625,80.073c1.391,2.35,1.654,5.925.453,8.085-1.12,2.016-3.816.828-8.388-3.185-4.422-3.88-13.753-14.55-13.753-14.55s-8.831-9.162-5.669-20.984" transform="translate(6.876 -8.045)" fill="#c76668"/>
          <path id="Tracé_1256" data-name="Tracé 1256" d="M5.605,89.218C9.464,88.75,17.793,77.083,20.355,73.09a28.49,28.49,0,0,1,7.806-8.237c4.084-3.016,3.489-7.652,1.707-11.9-.617-1.471-2.709-.515-2.709-.515l-.737,2.017-1.277,3.49c-.865.8-1.358,1.065-1.414.826-.11-.45.635-2.328.617-4.284-.022-2.354-1.67-.807-2.162.019a29.1,29.1,0,0,0-1.74,3.889c-.823,2.108-.483,4.24-1.485,5.677S4.517,78.386,4.517,78.386Z" transform="translate(56.945 -8.113)" fill="#c76668"/>
          <g id="Rectangle_347" data-name="Rectangle 347" transform="matrix(-0.875, -0.485, 0.485, -0.875, 83.937, 38.394)" fill="#fff" stroke="#707070" stroke-width="1">
            <rect id="fill" width="9.748" height="0.975" rx="0.487" stroke="none"/>
            <path d="M0,0.4747720956802368h9.7483549118042M9.2483549118042,0v0.9747720956802368M9.7483549118042,0.5h-9.7483549118042M0.5,0.9747720956802368v-0.9747720956802368" fill="none" clip-path="url(#clip)"/>
          </g>
          <g id="Rectangle_348" data-name="Rectangle 348" transform="matrix(-0.875, -0.485, 0.485, -0.875, 83.338, 39.721)" fill="#fff" stroke="#707070" stroke-width="1">
            <rect id="fill-2" width="9.748" height="0.975" rx="0.487" stroke="none"/>
            <path d="M0,0.4747720956802368h9.7483549118042M9.2483549118042,0v0.9747720956802368M9.7483549118042,0.5h-9.7483549118042M0.5,0.9747720956802368v-0.9747720956802368" fill="none" clip-path="url(#clip-2)"/>
          </g>
        </g>
        <g id="guy-with-cube" transform="translate(-53 175.203)">
          <g id="Box" transform="translate(85.971 129.244)">
            <path id="Tracé_1961" data-name="Tracé 1961" d="M192.461,345.868l-47.318-27.319L97.825,345.868l47.318,27.32,47.319-27.32Z" transform="translate(-81.368 -271.831)" fill="#00dfbf"/>
            <g id="Groupe_1748" data-name="Groupe 1748" transform="translate(16.457 46.718)" opacity="0.25">
              <path id="Tracé_1962" data-name="Tracé 1962" d="M192.461,345.868l-47.318-27.319L97.825,345.868l47.318,27.32,47.319-27.32Z" transform="translate(-97.825 -318.549)"/>
            </g>
            <path id="Tracé_1963" data-name="Tracé 1963" d="M95.93,273.023V226.305l48.277,27.874-40.391,23.4Z" transform="translate(-32.153 -226.305)" fill="#4a63c2"/>
            <path id="Tracé_1964" data-name="Tracé 1964" d="M239.53,226.306v46.718l-7.888,4.553-40.39-23.4,48.278-27.873Z" transform="translate(-175.753 -226.306)" fill="#2e4088"/>
            <path id="Tracé_1965" data-name="Tracé 1965" d="M255.03,226.306l-15.5,6.573-48.277,27.873,15.5-6.572Z" transform="translate(-191.254 -226.306)" fill="#2a3667"/>
            <path id="Tracé_1966" data-name="Tracé 1966" d="M69.393,226.306l13.441,5.385,48.277,27.873-13.441-5.385Z" transform="translate(-5.617 -226.306)" fill="#2e4088"/>
            <g id="Groupe_1749" data-name="Groupe 1749" transform="translate(63.776 0.001)" opacity="0.2">
              <path id="Tracé_1967" data-name="Tracé 1967" d="M69.393,226.306l48.538,27.319,13.18,5.939-13.441-5.385Z" transform="translate(-69.393 -226.306)" fill="#fff"/>
            </g>
            <path id="Tracé_1968" data-name="Tracé 1968" d="M166.935,320.27a6.145,6.145,0,1,0,6.144-6.145,6.145,6.145,0,0,0-6.144,6.145" transform="translate(-103.132 -269.648)" fill="#8193d5"/>
            <path id="Tracé_1969" data-name="Tracé 1969" d="M139.514,303.041a5.938,5.938,0,1,0,5.938-5.938,5.938,5.938,0,0,0-5.938,5.938" transform="translate(-61.41 -261.247)" fill="#79819f"/>
            <g id="Groupe_1750" data-name="Groupe 1750" transform="translate(78.104 35.856)" opacity="0.4">
              <path id="Tracé_1970" data-name="Tracé 1970" d="M139.514,303.041a5.938,5.938,0,1,0,5.938-5.938,5.938,5.938,0,0,0-5.938,5.938" transform="translate(-139.514 -297.103)"/>
            </g>
            <path id="Tracé_1971" data-name="Tracé 1971" d="M157.377,267.391a8.441,8.441,0,1,0,8.441-8.442,8.441,8.441,0,0,0-8.441,8.442" transform="translate(-93.327 -242.416)" fill="#949dc2"/>
            <g id="Groupe_1751" data-name="Groupe 1751" transform="translate(64.05 16.533)" opacity="0.5">
              <path id="Tracé_1972" data-name="Tracé 1972" d="M157.377,267.391a8.441,8.441,0,1,0,8.441-8.442,8.441,8.441,0,0,0-8.441,8.442" transform="translate(-157.377 -258.949)" fill="#fff"/>
            </g>
            <g id="Groupe_1752" data-name="Groupe 1752" transform="translate(64.05 17.32)" opacity="0.3">
              <path id="Tracé_1973" data-name="Tracé 1973" d="M168.172,271.2c4.021-2.912,4.35-8.634,1.2-10.692a8.442,8.442,0,1,1-12,7.654c.322,4.067,6.775,5.95,10.8,3.038" transform="translate(-157.376 -260.504)" fill="#949dc2"/>
            </g>
            <g id="Groupe_1753" data-name="Groupe 1753" transform="translate(64.05 17.32)" opacity="0.02">
              <path id="Tracé_1974" data-name="Tracé 1974" d="M168.172,271.2c4.021-2.912,4.35-8.634,1.2-10.692a8.442,8.442,0,1,1-12,7.654c.322,4.067,6.775,5.95,10.8,3.038" transform="translate(-157.376 -260.504)"/>
            </g>
            <path id="Tracé_1975" data-name="Tracé 1975" d="M205.368,262.408l-9.756-3.053a3.037,3.037,0,0,0-2.682.6l-7.252,6.125a3.037,3.037,0,0,0-.821,2.623l2.234,9.976a3.036,3.036,0,0,0,1.861,2.022l9.757,3.053a3.036,3.036,0,0,0,2.682-.6l7.253-6.125a3.039,3.039,0,0,0,.82-2.623l-2.234-9.976a3.039,3.039,0,0,0-1.861-2.022" transform="translate(-142.473 -242.567)" fill="#949dc2"/>
            <g id="Groupe_1754" data-name="Groupe 1754" transform="translate(42.333 16.688)" opacity="0.15">
              <path id="Tracé_1976" data-name="Tracé 1976" d="M205.368,262.408l-9.756-3.053a3.037,3.037,0,0,0-2.682.6l-7.252,6.125a3.037,3.037,0,0,0-.821,2.623l2.234,9.976a3.036,3.036,0,0,0,1.861,2.022l9.757,3.053a3.036,3.036,0,0,0,2.682-.6l7.253-6.125a3.039,3.039,0,0,0,.82-2.623l-2.234-9.976a3.039,3.039,0,0,0-1.861-2.022" transform="translate(-184.806 -259.255)"/>
            </g>
            <path id="Tracé_1977" data-name="Tracé 1977" d="M190.727,268.482c-.057-.709.442-1.082,1.2-.843l9.759,3.053a2.956,2.956,0,0,1,1.408,1.077,3.409,3.409,0,0,0-.234-.288l9.585-8.274a2.8,2.8,0,0,0-1.173-.79l-9.755-3.053a3.028,3.028,0,0,0-2.682.6l-7.255,6.125a3.061,3.061,0,0,0-.852,2.392" transform="translate(-148.393 -242.572)" fill="#d5dbf1"/>
            <g id="Groupe_1755" data-name="Groupe 1755" transform="translate(54.481 20.63)" opacity="0.15">
              <path id="Tracé_1978" data-name="Tracé 1978" d="M197.316,278.249a3.038,3.038,0,0,1-.821,2.623L189.243,287a3.073,3.073,0,0,1-2.429.657c.685.1,1.085-.367.914-1.131l-2.234-9.976a2.8,2.8,0,0,0-.689-1.234l9.588-8.274a2.8,2.8,0,0,1,.688,1.234l2.235,9.976Z" transform="translate(-184.805 -267.039)"/>
            </g>
            <path id="Tracé_1979" data-name="Tracé 1979" d="M136.618,271.789l-8.421-1.07a2.522,2.522,0,0,0-2.1.883l-5.033,6.066a2.524,2.524,0,0,0-.288,2.264l3.284,7.828a2.521,2.521,0,0,0,1.817,1.381l8.421,1.07a2.525,2.525,0,0,0,2.1-.883l5.033-6.066a2.522,2.522,0,0,0,.287-2.264l-3.284-7.827a2.522,2.522,0,0,0-1.817-1.381" transform="translate(-42.32 -248.219)" fill="#d5dbf1"/>
            <g id="Groupe_1756" data-name="Groupe 1756" transform="translate(78.303 22.487)" opacity="0.15">
              <path id="Tracé_1980" data-name="Tracé 1980" d="M136.618,271.789l-8.421-1.07a2.522,2.522,0,0,0-2.1.883l-5.033,6.066a2.524,2.524,0,0,0-.288,2.264l3.284,7.828a2.521,2.521,0,0,0,1.817,1.381l8.421,1.07a2.525,2.525,0,0,0,2.1-.883l5.033-6.066a2.522,2.522,0,0,0,.287-2.264l-3.284-7.827a2.522,2.522,0,0,0-1.817-1.381" transform="translate(-120.623 -270.706)"/>
            </g>
            <g id="Groupe_1757" data-name="Groupe 1757" transform="translate(88.744 24.043)" opacity="0.2">
              <path id="Tracé_1981" data-name="Tracé 1981" d="M131.277,282.513a2.522,2.522,0,0,1-.287,2.264l-5.033,6.066a2.551,2.551,0,0,1-1.889.892c.573-.021.834-.458.582-1.058l-3.284-7.828a2.331,2.331,0,0,0-.742-.908l6.627-8.164a2.332,2.332,0,0,1,.744.908l3.284,7.827Z" transform="translate(-120.623 -273.778)"/>
            </g>
            <path id="Tracé_1982" data-name="Tracé 1982" d="M128.984,279.76c-.15-.571.2-.95.857-.865l8.422,1.069a2.455,2.455,0,0,1,1.309.675,2.787,2.787,0,0,0-.234-.2l6.626-8.163a2.317,2.317,0,0,0-1.075-.474l-8.419-1.071a2.519,2.519,0,0,0-2.1.883l-5.034,6.066a2.543,2.543,0,0,0-.347,2.08" transform="translate(-50.607 -248.225)" fill="#d5dbf1"/>
            <path id="Tracé_1983" data-name="Tracé 1983" d="M222.206,290.848a10.476,10.476,0,1,0,10.476-10.476,10.476,10.476,0,0,0-10.476,10.476" transform="translate(-195.059 -252.989)" fill="#949dc2"/>
            <g id="Groupe_1758" data-name="Groupe 1758" transform="translate(27.147 27.383)" opacity="0.5">
              <path id="Tracé_1984" data-name="Tracé 1984" d="M222.206,290.848a10.476,10.476,0,1,0,10.476-10.476,10.476,10.476,0,0,0-10.476,10.476" transform="translate(-222.206 -280.372)" fill="#fff"/>
            </g>
            <g id="Groupe_1759" data-name="Groupe 1759" transform="translate(27.147 28.36)" opacity="0.5">
              <path id="Tracé_1985" data-name="Tracé 1985" d="M235.605,295.57c4.99-3.614,5.4-10.715,1.5-13.269a10.476,10.476,0,1,1-14.894,9.5c.4,5.047,8.408,7.383,13.4,3.77" transform="translate(-222.207 -282.301)" fill="#687dcc"/>
            </g>
            <path id="Tracé_1986" data-name="Tracé 1986" d="M160.281,278.962a11.509,11.509,0,1,0,12.726,10.146,11.509,11.509,0,0,0-12.726-10.146" transform="translate(-88.443 -252.257)" fill="#8193d5"/>
            <g id="Groupe_1760" data-name="Groupe 1760" transform="translate(61.619 26.632)" opacity="0.7">
              <path id="Tracé_1987" data-name="Tracé 1987" d="M160.281,278.962a11.509,11.509,0,1,0,12.726,10.146,11.509,11.509,0,0,0-12.726-10.146" transform="translate(-150.062 -278.889)" fill="#fff"/>
            </g>
            <g id="Groupe_1761" data-name="Groupe 1761" transform="translate(61.618 26.706)" opacity="0.2">
              <path id="Tracé_1988" data-name="Tracé 1988" d="M158.992,294.125c4.559,5,12.362,4.574,14.67,0a11.509,11.509,0,1,1-12.2-15.089c-5.461,1.057-7.025,10.088-2.466,15.09" transform="translate(-151.238 -279.035)" fill="#2e4088"/>
            </g>
            <path id="Tracé_1989" data-name="Tracé 1989" d="M205.893,306.917l-6.227-8.3a3.082,3.082,0,0,0-2.566-1.1l-9.607.745a3.081,3.081,0,0,0-2.231,1.674l-4.075,9.543a3.083,3.083,0,0,0,.334,2.77l6.227,8.3a3.085,3.085,0,0,0,2.566,1.1l9.607-.745a3.085,3.085,0,0,0,2.231-1.674l4.075-9.543a3.084,3.084,0,0,0-.334-2.769" transform="translate(-137.446 -261.445)" fill="#949dc2"/>
            <g id="Groupe_1762" data-name="Groupe 1762" transform="translate(43.553 36.061)" opacity="0.15">
              <path id="Tracé_1990" data-name="Tracé 1990" d="M205.893,306.917l-6.227-8.3a3.082,3.082,0,0,0-2.566-1.1l-9.607.745a3.081,3.081,0,0,0-2.231,1.674l-4.075,9.543a3.083,3.083,0,0,0,.334,2.77l6.227,8.3a3.085,3.085,0,0,0,2.566,1.1l9.607-.745a3.085,3.085,0,0,0,2.231-1.674l4.075-9.543a3.084,3.084,0,0,0-.334-2.769" transform="translate(-180.999 -297.506)"/>
            </g>
            <g id="Groupe_1763" data-name="Groupe 1763" transform="translate(50.477 46.816)" opacity="0.15">
              <path id="Tracé_1991" data-name="Tracé 1991" d="M195.227,329.711A3.085,3.085,0,0,1,193,331.385l-9.607.745a3.119,3.119,0,0,1-2.391-.9c.506.486,1.112.342,1.424-.389L186.5,321.3a2.858,2.858,0,0,0,.164-1.425l12.8-1.13a2.85,2.85,0,0,1-.164,1.424Z" transform="translate(-180.999 -318.743)"/>
            </g>
            <path id="Tracé_1992" data-name="Tracé 1992" d="M181.083,299.718c.373-.618,1.006-.63,1.487.016l6.229,8.3a3,3,0,0,1,.522,1.722,3.248,3.248,0,0,0-.023-.376l12.8-1.132a2.841,2.841,0,0,0-.5-1.347l-6.225-8.3a3.075,3.075,0,0,0-2.566-1.1l-9.608.744a3.106,3.106,0,0,0-2.12,1.465" transform="translate(-133.174 -261.439)" fill="#d5dbf1"/>
            <path id="Tracé_1993" data-name="Tracé 1993" d="M144.208,281.341v45.61L95.932,354.824V309.292Z" transform="translate(-32.155 -253.467)" fill="#687dcc"/>
            <path id="Tracé_1994" data-name="Tracé 1994" d="M113.878,281.341l15.361,21.46L80.961,330.752,65.6,309.292l48.277-27.951Z" transform="translate(-1.825 -253.467)" fill="#2e4088"/>
            <g id="Groupe_1764" data-name="Groupe 1764" transform="translate(63.776 49.333)" opacity="0.2">
              <path id="Tracé_1995" data-name="Tracé 1995" d="M129.24,323.713,81.228,350.4,65.6,330.2l15.36,21.46,48.277-27.951Z" transform="translate(-65.602 -323.713)" fill="#fff"/>
            </g>
            <path id="Tracé_1996" data-name="Tracé 1996" d="M191.252,281.341v45.61l48.277,27.873V309.292" transform="translate(-175.753 -253.467)" fill="#2e4088"/>
            <path id="Tracé_1997" data-name="Tracé 1997" d="M227.266,336.529l-.952,43.792-35.062-19.054,36.015,20.794Z" transform="translate(-163.49 -280.705)" fill="#375a64"/>
            <path id="Tracé_1998" data-name="Tracé 1998" d="M206.614,281.341l-15.36,21.46,48.277,27.951,15.36-21.461-48.277-27.951Z" transform="translate(-191.116 -253.467)" fill="#8193d5"/>
            <g id="Groupe_1765" data-name="Groupe 1765" transform="translate(47.42 81.527)" opacity="0.8">
              <path id="Tracé_1999" data-name="Tracé 1999" d="M216.592,396.684a.258.258,0,0,0,.258-.258v-5.773a.258.258,0,1,0-.516,0v5.773a.258.258,0,0,0,.258.258" transform="translate(-213.196 -388.817)" fill="#e1e1e1"/>
              <path id="Tracé_2000" data-name="Tracé 2000" d="M216.611,392.437a.261.261,0,0,0,.1-.021.257.257,0,0,0,.134-.339l-.917-2.119-1.023,1.182a.258.258,0,1,0,.389.338l.486-.562.591,1.366a.259.259,0,0,0,.236.155" transform="translate(-212.462 -388.601)" fill="#e1e1e1"/>
              <path id="Tracé_2001" data-name="Tracé 2001" d="M221.3,394a.258.258,0,0,0,.258-.258v-5.773a.258.258,0,0,0-.516,0v5.773a.258.258,0,0,0,.258.258" transform="translate(-220.284 -387.494)" fill="#e1e1e1"/>
              <path id="Tracé_2002" data-name="Tracé 2002" d="M221.317,389.756a.263.263,0,0,0,.1-.021.258.258,0,0,0,.134-.339l-.917-2.116-1.023,1.18a.258.258,0,0,0,.389.338l.486-.562.591,1.366a.258.258,0,0,0,.237.155" transform="translate(-219.551 -387.279)" fill="#e1e1e1"/>
            </g>
            <g id="Groupe_1766" data-name="Groupe 1766" transform="translate(53.55 84.309)" opacity="0.8">
              <path id="Tracé_2003" data-name="Tracé 2003" d="M203.252,405.734a.567.567,0,0,0,.282-.072.679.679,0,0,0,.308-.619v-.706a.258.258,0,0,0-.516,0v.706c0,.105-.029.16-.049.171s-.079.008-.169-.045A1.509,1.509,0,0,1,202.63,404v-2.956a.258.258,0,1,0-.516,0V404a1.961,1.961,0,0,0,.733,1.61.811.811,0,0,0,.4.12" transform="translate(-199.116 -396.73)" fill="#e1e1e1"/>
              <path id="Tracé_2004" data-name="Tracé 2004" d="M199.932,393.287a2.632,2.632,0,0,1,1.285.4,6.808,6.808,0,0,1,3.013,4.8l-5.791-3.344a1.908,1.908,0,0,1,.8-1.68,1.379,1.379,0,0,1,.7-.177m4.838,6.107v-.446a7.3,7.3,0,0,0-3.3-5.709,2.181,2.181,0,0,0-3.553,2.052v.149Z" transform="translate(-197.921 -392.772)" fill="#e1e1e1"/>
            </g>
          </g>
          <g id="Character" transform="translate(0)">
            <path id="Tracé_2005" data-name="Tracé 2005" d="M320.571,158.565l7.02-4.032L315.772,137l6.583-11.862s14.1,20.057,16.951,27.2c1.666,4.179,1.053,5.711-1.542,8.034a54.481,54.481,0,0,1-16.976,8.247" transform="translate(-282.669 -82.199)" fill="#ff9090"/>
            <path id="Tracé_2006" data-name="Tracé 2006" d="M329.931,111.181a13.96,13.96,0,0,1,6.8.2c3.255,1.071,5.089,2.189,8.417,6.889,3.239,4.577,9.156,13.873,9.156,13.873a16.048,16.048,0,0,1-10.628,7.764l-10.986-16.443-2.755-12.283Z" transform="translate(-305.552 -76.808)" fill="#2c3a71"/>
            <path id="Tracé_2007" data-name="Tracé 2007" d="M353.561,352.48l7.449.256.374-13.5-7.823-.256Z" transform="translate(-327.354 -162.847)" fill="#ffaaa8"/>
            <path id="Tracé_2008" data-name="Tracé 2008" d="M335.353,357.082c.387.013.7.559,1.556,1.483a16.277,16.277,0,0,0,4.385,3.155c2.791,1.4,8.217,3.546,10.673,4.653,1.535.691,1.462,2.544-.123,3.6s-5.415,1.815-10.012.787c-2.5-.56-5.764-2.873-7.828-2.749s-5.925.1-7.448-.955-.914-3.292-.483-5.219c.47-2.1,1.058-5.382,1.753-5.238v.724c.9,1.357,5.52,1.91,7.489.911l.039-1.15Z" transform="translate(-301.618 -169.491)" fill="#1a2e35"/>
            <rect id="Rectangle_356" data-name="Rectangle 356" width="7.454" height="12.76" transform="translate(5.582 186.42)" fill="#ffaaa8"/>
            <path id="Tracé_2009" data-name="Tracé 2009" d="M377.486,369.428v-1.066c.714.311,2.371,6.633,5.328,9.33,2.351,2.144,5.558,4.621,6.374,7.011.848,2.486-4.466,3.859-6.663,3.47-2.552-.452-6.976-2.25-8.086-3.915s-1.631-4.123-2.532-5.345-2.982-2.584-3.47-4a9.006,9.006,0,0,1,.426-3.913c.346-1.317.721-2.767,1.17-2.643,0,.16,0,.812,0,.812a5.9,5.9,0,0,0,3.726,1.259c1.091.042,3.736-.174,3.727-1.006" transform="translate(-364.451 -173.927)" fill="#1a2e35"/>
            <path id="Tracé_2010" data-name="Tracé 2010" d="M345.525,196.358c0,7.117,1.259,48.517,1.259,48.517-.174,2.049-2.146,5.69-2.3,13.067-.222,10.7,3.9,40.073,3.9,40.073a9.806,9.806,0,0,0,8.3.164s3.381-39.819,4.716-50.408c1.166-9.242,3.143-34.348,3.143-34.348l3.51,30.17a42.365,42.365,0,0,0-.923,11.845c.348,4.9,1.728,35.228,1.728,35.228a10.176,10.176,0,0,0,8.605.658s5.257-43.238,5.344-47.731c.1-5.124-1.948-57.425-1.948-57.425l-35.33,10.19Z" transform="translate(-343.119 -105.215)" fill="#30407e"/>
            <g id="Groupe_1767" data-name="Groupe 1767" transform="translate(21.421 102.256)" opacity="0.2">
              <path id="Tracé_2011" data-name="Tracé 2011" d="M357.141,226.322a27.6,27.6,0,0,0,10.379-5.951s-2,3.75-7.958,7.239l.794,26.346Z" transform="translate(-357.141 -220.371)"/>
            </g>
            <path id="Tracé_2012" data-name="Tracé 2012" d="M351.892,115.8a6.855,6.855,0,0,0-3.592,3.738,17.5,17.5,0,0,0-1.092,6.442v14.6l-.213,27.576c10.7,5.639,24.3,6.017,35.713-2.319,0,0-.638-35.495-.638-41.3q0-.394-.02-.8c-.415-8.293-8.579-13.984-16.621-11.915l-6.755,1.738Z" transform="translate(-344.588 -77.016)" fill="#f0f0f0"/>
            <path id="Tracé_2013" data-name="Tracé 2013" d="M364.044,181.534,368.8,178.8l.217,10.057c-.81.195-1.625.369-2.437.518-7.61,1.393-16.5.2-19.311-4.382s16.775-3.462,16.775-3.462" transform="translate(-330.897 -102.437)" fill="#ff9090"/>
            <path id="Tracé_2014" data-name="Tracé 2014" d="M349.3,68.648A10.244,10.244,0,1,0,359.54,58.4,10.243,10.243,0,0,0,349.3,68.648" transform="translate(-333.099 -57.029)" fill="#1a2e35"/>
            <path id="Tracé_2015" data-name="Tracé 2015" d="M387.161,86.544s1.659,7.8,2.325,9.08a3.532,3.532,0,0,0,2.042,1.646l-.116-5.486Z" transform="translate(-378.426 -67.642)" fill="#1a2e35"/>
            <path id="Tracé_2016" data-name="Tracé 2016" d="M393.037,68.59a3.843,3.843,0,0,0-3.182,1.119c-1.367,1.4-.6,5.771,1.1,10.053l3.127.359Z" transform="translate(-382.218 -60.86)" fill="#1a2e35"/>
            <path id="Tracé_2017" data-name="Tracé 2017" d="M359.072,77.228c-.627.374-1.521-.83-2.3-1.639s-3.3-1.915-4.556.739c-1.283,2.7,1.112,6.276,3.1,6.9,3.424,1.075,3.938-1.121,3.938-1.121l.253,12.73c4.258,5.458,16.074,5,11.15-.705l-.009-3.759a21.636,21.636,0,0,0,4.616.236c2.519-.389,4.1-2.376,4.866-5.1,1.228-4.379,1.694-7.914.653-16.525-1.141-9.439-12.119-9.536-18.046-5.806s-3.668,14.052-3.668,14.052" transform="translate(-346.273 -57.964)" fill="#ffaaa8"/>
            <path id="Tracé_2018" data-name="Tracé 2018" d="M369.308,80.033a2.924,2.924,0,0,1,2.954,3.431,2.993,2.993,0,0,1-2.909,2.41l-.323.009A2.993,2.993,0,0,1,366,83.629a2.925,2.925,0,0,1,2.769-3.582l.542-.014Zm-.372,6.444.542-.014a3.516,3.516,0,0,0,3.4-3.926,3.638,3.638,0,0,0-3.766-3.091l-.173,0a3.638,3.638,0,0,0-3.6,3.286,3.516,3.516,0,0,0,3.6,3.741" transform="translate(-346.199 -64.964)" fill="#1a2e35"/>
            <path id="Tracé_2019" data-name="Tracé 2019" d="M353.109,79.578a2.925,2.925,0,0,1,2.954,3.431,2.993,2.993,0,0,1-2.909,2.41l-.323.009a2.993,2.993,0,0,1-3.032-2.253,2.924,2.924,0,0,1,2.769-3.582l.542-.014Zm-.372,6.444.543-.014a3.516,3.516,0,0,0,3.395-3.926,3.638,3.638,0,0,0-3.766-3.091l-.173,0a3.638,3.638,0,0,0-3.6,3.286,3.516,3.516,0,0,0,3.6,3.741" transform="translate(-319.911 -64.793)" fill="#1a2e35"/>
            <path id="Tracé_2020" data-name="Tracé 2020" d="M360.543,82.475a2.574,2.574,0,0,1,1.525-.619,1.889,1.889,0,0,1,1.634.568l.462-.371a2.429,2.429,0,0,0-2.143-.787,3.149,3.149,0,0,0-1.864.757c-.174.159.261.566.384.452" transform="translate(-334.219 -65.647)" fill="#1a2e35"/>
            <path id="Tracé_2021" data-name="Tracé 2021" d="M384.429,84.076l-7.469.2.016.592,7.469-.2Z" transform="translate(-364.989 -66.711)" fill="#1a2e35" fill-rule="evenodd"/>
            <path id="Tracé_2022" data-name="Tracé 2022" d="M350.784,76.515c-.316.006-1.515-1.984-2.3-2.694-1.081-.984.315-9.895.315-9.895a4.217,4.217,0,0,1,1.043-4.507c1.481-1.63,3.092-2.66,7.365-2.888,3.741-.2,7.708.976,11.366.059a8.408,8.408,0,0,1,2.663-.381,2.719,2.719,0,0,1,2.239,1.3,2.037,2.037,0,0,1-.252,2.207,1.816,1.816,0,0,1,2.154,1.357,2.34,2.34,0,0,1-1.127,2.422c-.816.49-1.476.231-2.328.332a6.47,6.47,0,0,0-1.456.556A19.026,19.026,0,0,1,366,65.37a59.3,59.3,0,0,1-11.114-.21c-1.163-.159-1.412.968-2.039,4.048-.549,2.7-1.007,7.286-2.066,7.307" transform="translate(-337.985 -56.196)" fill="#1a2e35"/>
            <path id="Tracé_2023" data-name="Tracé 2023" d="M394.23,67.763l-3.791-2.035a2.089,2.089,0,0,1,2.87-.949,2.262,2.262,0,0,1,.921,2.984" transform="translate(-383.405 -59.339)" fill="#1a2e35"/>
            <path id="Tracé_2024" data-name="Tracé 2024" d="M379.36,105.282s-5.621-1.132-7.587-2.177a6.472,6.472,0,0,1-2.717-2.688,8.847,8.847,0,0,0,1.544,3.171c1.437,1.837,8.76,3.191,8.76,3.191Z" transform="translate(-354.981 -72.874)" fill="#ff9090"/>
            <path id="Tracé_2025" data-name="Tracé 2025" d="M371.749,84.157a1.127,1.127,0,1,1-1.127-1.173,1.146,1.146,0,0,1,1.127,1.173" transform="translate(-347.644 -66.299)" fill="#1a2e35"/>
            <path id="Tracé_2026" data-name="Tracé 2026" d="M373.986,77.582l-2.41,1.33a1.445,1.445,0,0,1,.561-1.919,1.343,1.343,0,0,1,1.849.589" transform="translate(-351.077 -63.977)" fill="#1a2e35"/>
            <path id="Tracé_2027" data-name="Tracé 2027" d="M365.824,97.363l2.572.965a1.35,1.35,0,0,1-1.747.852,1.438,1.438,0,0,1-.825-1.817" transform="translate(-341.953 -71.722)" fill="#ff9090"/>
            <path id="Tracé_2028" data-name="Tracé 2028" d="M355.66,78.173l-2.2-1.693a1.332,1.332,0,0,1,1.91-.293,1.456,1.456,0,0,1,.287,1.986" transform="translate(-321.836 -63.63)" fill="#1a2e35"/>
            <path id="Tracé_2029" data-name="Tracé 2029" d="M357.231,83.642a1.128,1.128,0,1,1-1.127-1.174,1.146,1.146,0,0,1,1.127,1.174" transform="translate(-324.084 -66.105)" fill="#1a2e35"/>
            <path id="Tracé_2030" data-name="Tracé 2030" d="M358.145,83.379l.37,6.775,3.537-1.206Z" transform="translate(-330.878 -66.448)" fill="#ff9090"/>
            <path id="Tracé_2031" data-name="Tracé 2031" d="M334.986,169.032a5.912,5.912,0,1,0,5.911-5.912,5.912,5.912,0,0,0-5.911,5.912" transform="translate(-301.21 -96.523)" fill="#00dfbf"/>
            <g id="Groupe_1768" data-name="Groupe 1768" transform="translate(33.776 66.597)" opacity="0.4">
              <path id="Tracé_2032" data-name="Tracé 2032" d="M334.986,169.032a5.912,5.912,0,1,0,5.911-5.912,5.912,5.912,0,0,0-5.911,5.912" transform="translate(-334.986 -163.12)"/>
            </g>
            <path id="Tracé_2033" data-name="Tracé 2033" d="M334.079,129.188l7.711-6.271a2.953,2.953,0,0,1,2.638-.424l8.755,2.919a2.955,2.955,0,0,1,1.685,2.073l1.575,9.813a2.954,2.954,0,0,1-.952,2.5l-7.711,6.271a2.953,2.953,0,0,1-2.638.423l-8.755-2.919A2.955,2.955,0,0,1,334.7,141.5l-1.575-9.813a2.952,2.952,0,0,1,.952-2.5" transform="translate(-309.696 -81.146)" fill="#d5dbf1"/>
            <g id="Groupe_1769" data-name="Groupe 1769" transform="translate(23.406 41.203)" opacity="0.15">
              <path id="Tracé_2034" data-name="Tracé 2034" d="M334.079,129.188l7.711-6.271a2.953,2.953,0,0,1,2.638-.424l8.755,2.919a2.955,2.955,0,0,1,1.685,2.073l1.575,9.813a2.954,2.954,0,0,1-.952,2.5l-7.711,6.271a2.953,2.953,0,0,1-2.638.423l-8.755-2.919A2.955,2.955,0,0,1,334.7,141.5l-1.575-9.813a2.952,2.952,0,0,1,.952-2.5" transform="translate(-333.102 -122.349)"/>
            </g>
            <path id="Tracé_2035" data-name="Tracé 2035" d="M357.238,127.261c-.2-.661-.79-.818-1.387-.329l-7.713,6.271a2.869,2.869,0,0,0-.884,1.479,3,3,0,0,1,.108-.344l-11.636-4.019a2.718,2.718,0,0,1,.775-1.135l7.709-6.27a2.945,2.945,0,0,1,2.638-.424l8.757,2.919a2.974,2.974,0,0,1,1.631,1.853" transform="translate(-312.1 -81.144)" fill="#d5dbf1"/>
            <g id="Groupe_1770" data-name="Groupe 1770" transform="translate(23.406 49.176)" opacity="0.2">
              <path id="Tracé_2036" data-name="Tracé 2036" d="M348.985,146.325a2.955,2.955,0,0,0,1.685,2.073l8.755,2.919a2.985,2.985,0,0,0,2.43-.281c-.583.334-1.112.06-1.233-.692l-1.576-9.814a2.738,2.738,0,0,1,.178-1.362l-11.637-4.019a2.724,2.724,0,0,0-.177,1.362l1.575,9.813Z" transform="translate(-347.385 -135.15)"/>
            </g>
            <path id="Tracé_2037" data-name="Tracé 2037" d="M337.232,157.293a11.159,11.159,0,1,1-8.111-13.537,11.159,11.159,0,0,1,8.111,13.537" transform="translate(-279.674 -89.092)" fill="#949dc2"/>
            <g id="Groupe_1771" data-name="Groupe 1771" transform="translate(35.571 54.326)" opacity="0.7">
              <path id="Tracé_2038" data-name="Tracé 2038" d="M337.232,157.293a11.159,11.159,0,1,1-8.111-13.537,11.159,11.159,0,0,1,8.111,13.537" transform="translate(-315.245 -143.418)" fill="#fff"/>
            </g>
            <g id="Groupe_1772" data-name="Groupe 1772" transform="translate(35.571 54.529)" opacity="0.2">
              <path id="Tracé_2039" data-name="Tracé 2039" d="M322.953,157.842c-4.22-5.026-2.8-12.469,1.891-14.1a11.159,11.159,0,1,0,12.929,13.672c-1.72,5.112-10.6,5.452-14.82.426" transform="translate(-315.786 -143.744)" fill="#4a63c2"/>
            </g>
            <path id="Tracé_2040" data-name="Tracé 2040" d="M343.458,162.34l2.795-10.333a3.181,3.181,0,0,1,2.04-2.03l9.489-2.957a3.181,3.181,0,0,1,2.778.751l7.551,7.586a3.182,3.182,0,0,1,.739,2.782l-2.795,10.332a3.18,3.18,0,0,1-2.04,2.03l-9.489,2.957a3.181,3.181,0,0,1-2.777-.751l-7.551-7.587a3.178,3.178,0,0,1-.739-2.781" transform="translate(-328.556 -90.422)" fill="#d5dbf1"/>
            <g id="Groupe_1773" data-name="Groupe 1773" transform="translate(14.939 69.587)" opacity="0.2">
              <path id="Tracé_2041" data-name="Tracé 2041" d="M356.395,180.618a3.181,3.181,0,0,0,2.777.752l9.489-2.957a3.215,3.215,0,0,0,1.947-1.774c-.3.659-.934.752-1.512.171l-7.551-7.586a2.94,2.94,0,0,1-.7-1.3l-12.7,3.809a2.938,2.938,0,0,0,.7,1.3Z" transform="translate(-348.142 -167.92)"/>
            </g>
            <path id="Tracé_2042" data-name="Tracé 2042" d="M374.083,147.591c-.593-.45-1.2-.219-1.419.584l-2.8,10.334a3.1,3.1,0,0,0,.159,1.85,3.511,3.511,0,0,1-.122-.369l-12.7,3.807a2.924,2.924,0,0,1-.036-1.48l2.793-10.331a3.172,3.172,0,0,1,2.04-2.03l9.49-2.959a3.2,3.2,0,0,1,2.591.594" transform="translate(-342.251 -90.414)" fill="#d5dbf1"/>
            <g id="Groupe_1774" data-name="Groupe 1774" transform="translate(14.839 56.509)" opacity="0.5">
              <path id="Tracé_2043" data-name="Tracé 2043" d="M374.083,147.591c-.593-.45-1.2-.219-1.419.584l-2.8,10.334a3.1,3.1,0,0,0,.159,1.85,3.511,3.511,0,0,1-.122-.369l-12.7,3.807a2.924,2.924,0,0,1-.036-1.48l2.793-10.331a3.172,3.172,0,0,1,2.04-2.03l9.49-2.959a3.2,3.2,0,0,1,2.591.594" transform="translate(-357.09 -146.923)" fill="#fff"/>
            </g>
            <path id="Tracé_2044" data-name="Tracé 2044" d="M337.485,166.283a124.748,124.748,0,0,0,18.749.953c2.852-.1,5.639.047,8.641-.9,8.043-2.534,7.779-9.172,6.214-9.432-.407.789-1.04,1.335-3.17,1.472s-4.547-.52-4.465-1.416c.033-.358,1.223-1.332,1.494-1.632a9.135,9.135,0,0,0,1.278-1.663c.412-.748,1.013-2.379.133-3.044-.791-.6-.652-.469-2.066.7s-3.029,1.767-4.889,3.571a10.923,10.923,0,0,1-4.316,3c-2.142.85-4.16.6-10.1-.353a62.887,62.887,0,0,1-9.723-2.08c-2.651-4.028-8.481-26.35-11.258-31.016-1.06-1.781-2.732-1.633-4.437-.718a9.2,9.2,0,0,0-4.216,11.049c.633,1.89,1.422,4.322,2.364,7.363,2.517,8.131,5.571,15.431,9.956,20.969,2.152,2.719,6.933,2.84,9.814,3.177" transform="translate(-313.829 -81.415)" fill="#ffaaa8"/>
            <path id="Tracé_2045" data-name="Tracé 2045" d="M365.81,188.62a9.541,9.541,0,0,1-3.885-2.9c-.86-1.013-2.59-2.135-3.527-3.075s-1.365.981-.422,2.422,2.154,3.487.7,3.257-6.121-1.514-7.444-3.809a3.886,3.886,0,0,0,.242,4.439c1.71,2.3,6.048,5.6,22.5,1.751a59.734,59.734,0,0,1-8.167-2.084" transform="translate(-338.135 -103.792)" fill="#ff9090"/>
            <path id="Tracé_2046" data-name="Tracé 2046" d="M386.506,118.462c-2.672.48-6.2,1.469-7.208,7.891s6.217,22.193,6.217,22.193,4.785,2.017,11.746-4.184c0,0-4.565-16.606-6.2-20.763s-4.558-5.137-4.558-5.137" transform="translate(-379.203 -79.68)" fill="#2c3a71"/>
          </g>
        </g>
      </g>
    </g>
  </g>
</svg>
