<svg xmlns="http://www.w3.org/2000/svg" xmlns:xlink="http://www.w3.org/1999/xlink" width="140.507" height="187.4" viewBox="0 0 140.507 187.4">
  <defs>
    <filter id="Icons" x="4.823" y="0" width="60.085" height="171.944" filterUnits="userSpaceOnUse">
      <feOffset dx="4" dy="-3" input="SourceAlpha"/>
      <feGaussianBlur stdDeviation="5" result="blur"/>
      <feFlood flood-opacity="0.161"/>
      <feComposite operator="in" in2="blur"/>
      <feComposite in="SourceGraphic"/>
    </filter>
    <filter id="Device" x="60.095" y="30.015" width="80.412" height="157.385" filterUnits="userSpaceOnUse">
      <feOffset dx="4" dy="-3" input="SourceAlpha"/>
      <feGaussianBlur stdDeviation="5" result="blur-2"/>
      <feFlood flood-opacity="0.161"/>
      <feComposite operator="in" in2="blur-2"/>
      <feComposite in="SourceGraphic"/>
    </filter>
  </defs>
  <g id="Strategie_Digitale" data-name="Strategie Digitale" transform="translate(-729.316 -658.861)">
    <path id="strategie-digitale-alveole" d="M180.378,0,121.754,33.789v67.578l58.624,33.789L239,101.366V33.789Z" transform="translate(607.562 683)" fill="#eaebf1"/>
    <g id="Strategie_Digitale-2" data-name="Strategie Digitale" transform="translate(-135.823 -26.097)">
      <g id="Device-icons-shadow" transform="translate(880.961 702.958)">
        <g transform="matrix(1, 0, 0, 1, -15.82, -18)" filter="url(#Icons)">
          <path id="Icons-2" data-name="Icons" d="M19.892,141.305,2.673,131.365A5.909,5.909,0,0,1,0,126.736V106.854a5.909,5.909,0,0,1,2.671-4.629l2.177-1.257a5.906,5.906,0,0,1,5.344,0l17.219,9.941a5.913,5.913,0,0,1,2.671,4.63V135.42a5.909,5.909,0,0,1-2.671,4.629l-2.177,1.256a5.906,5.906,0,0,1-5.344,0Zm0-50.165L2.673,81.2A5.907,5.907,0,0,1,0,76.571V56.69a5.911,5.911,0,0,1,2.673-4.63L4.85,50.8a5.906,5.906,0,0,1,5.344,0l17.218,9.941a5.909,5.909,0,0,1,2.673,4.63V85.256a5.907,5.907,0,0,1-2.673,4.629l-2.176,1.256a5.908,5.908,0,0,1-5.345,0Zm0-50.165L2.673,31.035A5.907,5.907,0,0,1,0,26.406V6.525A5.911,5.911,0,0,1,2.673,1.9L4.85.639a5.906,5.906,0,0,1,5.344,0L27.412,10.58a5.909,5.909,0,0,1,2.673,4.63V35.091a5.907,5.907,0,0,1-2.673,4.629l-2.176,1.256a5.908,5.908,0,0,1-5.345,0Z" transform="translate(15.82 18)" fill="#4a63c2"/>
        </g>
        <g transform="matrix(1, 0, 0, 1, -15.82, -18)" filter="url(#Device)">
          <path id="Device-2" data-name="Device" d="M44.237,127.129a1.838,1.838,0,0,1-.23-.114L1.543,102.5A3.423,3.423,0,0,1,0,99.827V4.065a1.774,1.774,0,0,1,.029-.327q-.008.04-.013.081A3.462,3.462,0,0,1,1.541,1.387L3.314.37A3.411,3.411,0,0,1,6.4.37L48.863,24.887a3.143,3.143,0,0,1,1.093,1.148L45.1,28.841a3.149,3.149,0,0,0-1.09-1.155L1.541,3.172a1.837,1.837,0,0,0-.222-.11,1.838,1.838,0,0,1,.223.111L44.007,27.687a3.165,3.165,0,0,1,1.09,1.154h0l4.859-2.806a0,0,0,0,0,0,0,3.7,3.7,0,0,1,.183.371,2.906,2.906,0,0,1,.267,1.154V123.32A3.405,3.405,0,0,1,48.865,126L47.1,127.017a3.18,3.18,0,0,1-1.546.368A3.32,3.32,0,0,1,44.237,127.129Zm.806.023a1.05,1.05,0,0,0,.506-1.026h0A1.052,1.052,0,0,1,45.043,127.153ZM2.223,15.493V91a2.136,2.136,0,0,0,1.324,1.8l38.61,22.29c.728.422,1.323.082,1.323-.765V39.314a2.938,2.938,0,0,0-1.323-2.3L3.547,14.731a1.2,1.2,0,0,0-.593-.182C2.52,14.549,2.223,14.9,2.223,15.493ZM45.549,30.362c0-.013,0-.027,0-.04C45.549,30.335,45.549,30.349,45.549,30.362Zm0-.051q0-.018,0-.036Q45.548,30.293,45.548,30.311Zm0-.058v0Z" transform="translate(71.1 48.01)" fill="#8193d5"/>
        </g>
      </g>
      <g id="strategie-digitale-logo" transform="translate(880.963 702.959)">
        <g id="Icons-3" data-name="Icons" transform="translate(0 0)">
          <g id="Group_2004" data-name="Group 2004" transform="translate(0.001)">
            <path id="Path_2217" data-name="Path 2217" d="M6.978-226.7l-17.218-9.941a5.9,5.9,0,0,0-5.345,0l-2.177,1.256a5.907,5.907,0,0,0-2.673,4.629v19.882a5.906,5.906,0,0,0,2.672,4.628l17.218,9.941a5.906,5.906,0,0,0,5.345,0l2.176-1.256a5.908,5.908,0,0,0,2.673-4.629v-19.882A5.906,5.906,0,0,0,6.978-226.7" transform="translate(20.433 237.284)" fill="#4a63c2"/>
          </g>
          <g id="Group_2005" data-name="Group 2005" transform="translate(0.001 4.617)">
            <path id="Path_2218" data-name="Path 2218" d="M-.543,33.572c1.476.852,2.673.161,2.673-1.543V12.148A5.908,5.908,0,0,0-.542,7.519L-17.761-2.422c-1.476-.852-2.673-.161-2.673,1.543V19a5.907,5.907,0,0,0,2.672,4.629Z" transform="translate(20.433 2.787)" fill="#4a63c2"/>
          </g>
          <g id="Group_2007" data-name="Group 2007" transform="translate(20.348 12.575)" opacity="0.15">
            <g id="Group_2006" data-name="Group 2006">
              <path id="Path_2219" data-name="Path 2219" d="M9.737-28.881a5.908,5.908,0,0,1-2.673,4.629L4.888-23A5.975,5.975,0,0,1,0-22.78c1.258.476,2.216-.234,2.216-1.758V-44.42a5.467,5.467,0,0,0-.782-2.634L8.954-51.4a5.459,5.459,0,0,1,.783,2.634Z" transform="translate(0 51.396)"/>
            </g>
          </g>
          <g id="Group_2009" data-name="Group 2009" transform="translate(0.033 0.002)" opacity="0.31">
            <g id="Group_2008" data-name="Group 2008" transform="translate(0 0)">
              <path id="Path_2220" data-name="Path 2220" d="M-223.8-75.171c.193-1.373,1.3-1.871,2.641-1.1l17.217,9.937a5.515,5.515,0,0,1,1.892,2l7.521-4.345a5.42,5.42,0,0,0-1.892-1.992l-17.218-9.942a5.928,5.928,0,0,0-5.346,0l-2.175,1.258a5.936,5.936,0,0,0-2.641,4.183" transform="translate(223.804 81.248)" fill="#fff"/>
            </g>
          </g>
          <g id="Group_2013" data-name="Group 2013" transform="translate(0.001 50.165)">
            <path id="Path_2224" data-name="Path 2224" d="M6.978-226.7l-17.218-9.941a5.9,5.9,0,0,0-5.345,0l-2.177,1.256a5.907,5.907,0,0,0-2.673,4.629v19.881a5.906,5.906,0,0,0,2.672,4.629l17.218,9.941a5.906,5.906,0,0,0,5.345,0l2.176-1.256a5.908,5.908,0,0,0,2.673-4.629v-19.882A5.906,5.906,0,0,0,6.978-226.7" transform="translate(20.433 237.284)" fill="#4a63c2"/>
          </g>
          <g id="Group_2014" data-name="Group 2014" transform="translate(0.001 54.781)">
            <path id="Path_2225" data-name="Path 2225" d="M-.543,33.568c1.476.852,2.673.161,2.673-1.543V12.144A5.909,5.909,0,0,0-.542,7.515L-17.761-2.426c-1.476-.852-2.673-.161-2.673,1.543V19a5.906,5.906,0,0,0,2.672,4.629Z" transform="translate(20.433 2.791)" fill="#4a63c2"/>
          </g>
          <g id="Group_2016" data-name="Group 2016" transform="translate(20.348 62.74)" opacity="0.15">
            <g id="Group_2015" data-name="Group 2015">
              <path id="Path_2226" data-name="Path 2226" d="M9.737-28.881a5.908,5.908,0,0,1-2.673,4.629L4.888-23A5.975,5.975,0,0,1,0-22.78c1.258.476,2.216-.234,2.216-1.758V-44.42a5.471,5.471,0,0,0-.782-2.634L8.954-51.4a5.459,5.459,0,0,1,.783,2.634Z" transform="translate(0 51.396)"/>
            </g>
          </g>
          <g id="Group_2018" data-name="Group 2018" transform="translate(0.033 50.165)" opacity="0.31">
            <g id="Group_2017" data-name="Group 2017" transform="translate(0 0)">
              <path id="Path_2227" data-name="Path 2227" d="M-223.8-75.171c.193-1.373,1.3-1.871,2.641-1.1l17.217,9.942a5.46,5.46,0,0,1,1.892,1.992l7.521-4.34a5.436,5.436,0,0,0-1.892-2l-17.218-9.942a5.928,5.928,0,0,0-5.346,0l-2.175,1.258a5.946,5.946,0,0,0-2.641,4.183" transform="translate(223.804 81.248)" fill="#fff"/>
            </g>
          </g>
          <g id="Group_2019" data-name="Group 2019" transform="translate(3.527 63.169)">
            <path id="Path_2228" data-name="Path 2228" d="M10.9-58.372s-2.012-4.63-2.2-5.3a20.416,20.416,0,0,1,.015-3.447c0-.445-1.832-1.682-2.418-.407a6.647,6.647,0,0,0-.31,4.279l-4.464-2.6c-.942-.55-1.333.226-1.336.838A3.328,3.328,0,0,0,.9-63.088s-.894-.271-.9.925a3.147,3.147,0,0,0,1.079,2.19s-.291.22-.295,1.055a3.512,3.512,0,0,0,1.249,2.233,2.554,2.554,0,0,0-.2,1.055,3.42,3.42,0,0,0,1.634,2.57l7.387,4.307Z" transform="translate(0 68.085)" fill="#fff"/>
          </g>
          <g id="Group_2020" data-name="Group 2020" transform="translate(18.657 86.295) rotate(-149.748)">
            <path id="Path_2229" data-name="Path 2229" d="M0,0H3.725l5.6,9.7H5.6Z" transform="translate(0 0)" fill="#fff"/>
          </g>
          <g id="Group_2021" data-name="Group 2021" transform="translate(0 100.33)">
            <path id="Path_2230" data-name="Path 2230" d="M6.983-226.7l-17.218-9.941a5.9,5.9,0,0,0-5.345,0l-2.177,1.256a5.908,5.908,0,0,0-2.672,4.629v19.881a5.907,5.907,0,0,0,2.673,4.629l17.218,9.941a5.906,5.906,0,0,0,5.345,0l2.176-1.256a5.907,5.907,0,0,0,2.672-4.629v-19.882A5.908,5.908,0,0,0,6.983-226.7" transform="translate(20.429 237.284)" fill="#4a63c2"/>
          </g>
          <g id="Group_2022" data-name="Group 2022" transform="translate(0 104.946)">
            <path id="Path_2231" data-name="Path 2231" d="M-172.508-264.288c0-1.7,1.2-2.4,2.672-1.543l17.218,9.941a5.909,5.909,0,0,1,2.673,4.629v19.882c0,1.7-1.2,2.4-2.673,1.543l-17.218-9.941a5.907,5.907,0,0,1-2.673-4.629Z" transform="translate(172.508 266.196)" fill="#4a63c2"/>
          </g>
          <g id="Group_2024" data-name="Group 2024" transform="translate(20.348 112.905)" opacity="0.15">
            <g id="Group_2023" data-name="Group 2023" transform="translate(0)">
              <path id="Path_2232" data-name="Path 2232" d="M9.732-28.881A5.908,5.908,0,0,1,7.06-24.252L4.884-23A5.975,5.975,0,0,1,0-22.78c1.258.476,2.216-.234,2.216-1.758V-44.42a5.464,5.464,0,0,0-.783-2.634L8.95-51.4a5.457,5.457,0,0,1,.783,2.634Z" transform="translate(0.004 51.396)"/>
            </g>
          </g>
          <g id="Group_2026" data-name="Group 2026" transform="translate(0.033 100.329)" opacity="0.31">
            <g id="Group_2025" data-name="Group 2025" transform="translate(0 0)">
              <path id="Path_2233" data-name="Path 2233" d="M-223.763-75.116c.193-1.378,1.3-1.871,2.641-1.1l17.217,9.943a5.5,5.5,0,0,1,1.892,1.991l7.516-4.34a5.461,5.461,0,0,0-1.887-2L-213.6-80.556a5.9,5.9,0,0,0-5.346,0l-2.175,1.253a5.944,5.944,0,0,0-2.641,4.188" transform="translate(223.763 81.197)" fill="#fff"/>
            </g>
          </g>
          <g id="Group_2027" data-name="Group 2027" transform="translate(4.37 115.389)">
            <path id="Path_2234" data-name="Path 2234" d="M-47.361,20.661l1.832-.146c2.413-.193,5.288-1.146,5.288-4.592A8.1,8.1,0,0,0-43.9,9.577c-1.577-.91-2.921-.537-3.437.777a8.186,8.186,0,0,0-3.437-4.746c-2.023-1.168-3.663-.221-3.663,2.116,0,3.382,2.859,7.664,5.257,10.66Z" transform="translate(54.442 -5.108)" fill="#fff"/>
          </g>
        </g>
        <g id="Device-and-Character" transform="translate(35.043 30.015)">
          <g id="Group_2028" data-name="Group 2028" transform="translate(20.228 2.961)">
            <path id="Path_2235" data-name="Path 2235" d="M-529.969-356.92a2.138,2.138,0,0,0,1.324,1.8l38.61,22.29c.729.421,1.324.081,1.324-.765v-75.014a2.938,2.938,0,0,0-1.324-2.3l-38.61-22.287c-.733-.425-1.324-.081-1.324.761Zm-.68-87.83,42.464,24.513a3.425,3.425,0,0,1,1.542,2.676V-321.8c0,.983-.692,1.384-1.542.89L-530.65-345.42a3.424,3.424,0,0,1-1.543-2.676v-95.763c0-.984.692-1.385,1.543-.891" transform="translate(532.192 444.961)" fill="#687dcc"/>
          </g>
          <g id="Group_2029" data-name="Group 2029" transform="translate(64.427 26.034)">
            <path id="Path_2236" data-name="Path 2236" d="M-76.308,96.241a3.455,3.455,0,0,0,2.9-.1l1.766-1.021A3.4,3.4,0,0,0-70.1,92.448V-3.308a2.92,2.92,0,0,0-.267-1.154,3.8,3.8,0,0,0-.184-.371,0,0,0,0,1,0,0l-4.86,2.806h0a4.227,4.227,0,0,1,.268.566,2.811,2.811,0,0,1,.188.956V95.254c0,.906-.589,1.319-1.35.986" transform="translate(76.308 4.838)" fill="#4a63c2"/>
          </g>
          <g id="Group_2030" data-name="Group 2030" transform="translate(41.116 107.196)">
            <path id="Path_2237" data-name="Path 2237" d="M1.52.208C.681-.277,0,.116,0,1.085A3.359,3.359,0,0,0,1.52,3.717c.839.485,1.52.092,1.52-.877A3.36,3.36,0,0,0,1.52.208Z" transform="translate(0 0)" fill="none" stroke="#fff" stroke-miterlimit="10" stroke-width="4.167"/>
          </g>
          <g id="Group_2031" data-name="Group 2031" transform="translate(41.968 17.353)">
            <path id="Path_2238" data-name="Path 2238" d="M1.035.141C.463-.189,0,.079,0,.739A2.288,2.288,0,0,0,1.035,2.532c.572.33,1.035.062,1.035-.6A2.288,2.288,0,0,0,1.035.141" transform="translate(0 0)"/>
          </g>
          <g id="Group_2032" data-name="Group 2032" transform="translate(38.143 19.052)">
            <path id="Path_2239" data-name="Path 2239" d="M-1.752-19.769l-7.993-4.615c-.477-.275-.864-.08-.864.437a1.851,1.851,0,0,0,.863,1.434L-1.752-17.9c.477.275.863.08.863-.437a1.852,1.852,0,0,0-.864-1.434" transform="translate(10.608 24.508)"/>
          </g>
          <g id="Group_2033" data-name="Group 2033" transform="translate(22.451 14.47)">
            <path id="Path_2240" data-name="Path 2240" d="M-506.78-221.648a2.138,2.138,0,0,0,1.324,1.8l38.61,22.29c.729.421,1.324.081,1.324-.765v-75.015a2.939,2.939,0,0,0-1.324-2.3l-38.61-22.286c-.733-.425-1.324-.081-1.324.761Z" transform="translate(506.78 298.102)" fill="#fff"/>
          </g>
          <g id="Group_2034" data-name="Group 2034" transform="translate(20.243 0)">
            <path id="Path_2241" data-name="Path 2241" d="M-613.455-302.026c.111-.8.753-1.093,1.525-.646l42.467,24.514a3.15,3.15,0,0,1,1.09,1.155l4.86-2.806a3.134,3.134,0,0,0-1.094-1.147l-42.46-24.517a3.41,3.41,0,0,0-3.089,0l-1.774,1.017a3.464,3.464,0,0,0-1.525,2.431" transform="translate(613.455 305.844)" fill="#8193d5"/>
          </g>
          <g id="Group_2035" data-name="Group 2035" transform="translate(61.323 39.342)">
            <path id="Path_2242" data-name="Path 2242" d="M.239-1.152V-1.7a.354.354,0,0,0-.105-.276L.1-2c-.058-.034-.1.036-.1.154v.551a.354.354,0,0,0,.1.276L.134-1c.058.034.1-.036.1-.155" transform="translate(0 2.004)" fill="#375a64"/>
          </g>
          <g id="Group_2036" data-name="Group 2036" transform="translate(60.845 38.666)">
            <path id="Path_2243" data-name="Path 2243" d="M.239-.752V-1.7a.353.353,0,0,0-.105-.276L.105-2c-.058-.034-.1.036-.1.155V-.89a.353.353,0,0,0,.105.276L.134-.6c.058.033.105-.036.105-.155" transform="translate(0 2.004)" fill="#375a64"/>
          </g>
          <g id="Group_2037" data-name="Group 2037" transform="translate(60.367 37.989)">
            <path id="Path_2244" data-name="Path 2244" d="M.239-.354V-1.705a.353.353,0,0,0-.1-.276L.1-2c-.058-.033-.1.036-.1.155V-.492a.354.354,0,0,0,.1.276L.134-.2c.058.034.1-.036.1-.155" transform="translate(0 2.007)" fill="#375a64"/>
          </g>
          <g id="Group_2038" data-name="Group 2038" transform="translate(59.888 36.731)">
            <path id="Path_2245" data-name="Path 2245" d="M.239.628V-1.705a.351.351,0,0,0-.105-.276L.105-2C.047-2.031,0-1.962,0-1.843V.49a.354.354,0,0,0,.1.276L.135.782c.058.034.1-.036.1-.155" transform="translate(0 2.006)" fill="#375a64"/>
          </g>
          <g id="Group_2039" data-name="Group 2039" transform="translate(58.453 36.669)">
            <path id="Path_2246" data-name="Path 2246" d="M-7.2-7.607V-8.46l.389,1.078Zm.021.725a.115.115,0,0,0,.014-.07v-.343l.536.31c.03.017.044,0,.044-.047v-.123a.362.362,0,0,0-.005-.068.557.557,0,0,0-.019-.066l-.57-1.555A.368.368,0,0,0-7.2-8.905a.1.1,0,0,0-.037-.034l-.075-.043c-.022-.014-.038-.014-.049,0a.128.128,0,0,0-.015.076v1.2L-7.5-7.78c-.023-.013-.039-.014-.047,0a.143.143,0,0,0-.014.075v.081a.227.227,0,0,0,.014.086.108.108,0,0,0,.047.052l.118.068v.343a.211.211,0,0,0,.015.086.121.121,0,0,0,.05.053l.09.052c.023.013.039.015.048,0" transform="translate(7.558 8.992)" fill="#375a64"/>
          </g>
          <g id="Group_2040" data-name="Group 2040" transform="translate(57.303 36.003)">
            <path id="Path_2247" data-name="Path 2247" d="M-1.039.674a1.124,1.124,0,0,0,.157-.7,2.23,2.23,0,0,0-.158-.88,1.078,1.078,0,0,0-.444-.534A.6.6,0,0,0-1.7-1.522a.237.237,0,0,0-.166.024.032.032,0,0,0-.015.03.15.15,0,0,0,.007.04l.049.179a.078.078,0,0,0,.02.039.037.037,0,0,0,.022,0,.306.306,0,0,1,.274.044A.742.742,0,0,1-1.2-.8a1.669,1.669,0,0,1,.11.651A.894.894,0,0,1-1.2.379C-1.272.466-1.37.474-1.493.4a.773.773,0,0,1-.132-.1A.658.658,0,0,1-1.73.191V-.365l.223.129c.023.013.038.014.047,0A.134.134,0,0,0-1.446-.31V-.388A.221.221,0,0,0-1.46-.475a.11.11,0,0,0-.047-.05l-.357-.206c-.024-.014-.043-.014-.053,0a.162.162,0,0,0-.016.088V.152a.349.349,0,0,0,.005.071.155.155,0,0,0,.022.053,1.154,1.154,0,0,0,.423.419c.192.11.34.1.444-.02" transform="translate(1.933 1.526)" fill="#375a64"/>
          </g>
          <g id="Group_2041" data-name="Group 2041" transform="translate(23.982 16.559)">
            <path id="Path_2248" data-name="Path 2248" d="M.143.213A.346.346,0,0,0,.178.037v-1.2A.641.641,0,0,0-.01-1.657l-1.605-.926a.074.074,0,0,0-.068-.008.069.069,0,0,0-.027.024.345.345,0,0,0-.034.175v1.2A.642.642,0,0,0-1.557-.7L.048.229a.064.064,0,0,0,.1-.016M-1.77-2.721c.06-.089.136-.113.212-.069l1.605.926a.815.815,0,0,1,.247.648v1.2A.7.7,0,0,1,.2.368.216.216,0,0,1,.116.446.133.133,0,0,1-.01.436L-1.616-.49a.816.816,0,0,1-.247-.649v-1.2a.7.7,0,0,1,.093-.382" transform="translate(1.863 2.811)" fill="#375a64"/>
          </g>
          <g id="Group_2042" data-name="Group 2042" transform="translate(24.974 17.432)">
            <path id="Path_2249" data-name="Path 2249" d="M-10.963-23.7v1.42l.865.5a.1.1,0,0,0,.028.009.235.235,0,0,1,0-.049v-1.078a.49.49,0,0,0-.139-.367Z" transform="translate(10.963 23.696)" fill="#375a64"/>
          </g>
          <g id="Group_2043" data-name="Group 2043" transform="translate(23.795 16.989)">
            <path id="Path_2250" data-name="Path 2250" d="M-1.243-14.339c-.059-.035-.107.136-.107.383v.223a.886.886,0,0,0,.108.519l.109.073,0-1.135-.107-.063" transform="translate(1.35 14.344)" fill="#375a64"/>
          </g>
          <g id="Group_2044" data-name="Group 2044" transform="matrix(0.5, -0.866, 0.866, 0.5, 54.861, 36.584)">
            <path id="Path_2251" data-name="Path 2251" d="M.415.072A.82.82,0,0,0,0,.671c0,.2.186.252.415.119a.821.821,0,0,0,.415-.6c0-.2-.186-.252-.415-.12" transform="translate(0 0)" fill="#375a64"/>
          </g>
          <g id="Group_2045" data-name="Group 2045" transform="translate(54.704 35.093)">
            <path id="Path_2252" data-name="Path 2252" d="M-8.322-15.22A1.874,1.874,0,0,1-7.6-14.134c.028.1.014.189-.033.218h0c-.059.037-.146-.04-.181-.162a1.316,1.316,0,0,0-.509-.766.329.329,0,0,0-.509.179c-.035.082-.122.058-.181-.047h0a.321.321,0,0,1-.033-.255.468.468,0,0,1,.724-.251" transform="translate(9.06 15.306)" fill="#375a64"/>
          </g>
          <g id="Group_2046" data-name="Group 2046" transform="translate(54.311 34.275)">
            <path id="Path_2253" data-name="Path 2253" d="M-12.758-21.04a2.906,2.906,0,0,1,1.11,1.58c.035.1.025.207-.025.239h0c-.057.036-.139-.035-.178-.152a2.367,2.367,0,0,0-.905-1.292.6.6,0,0,0-.907.246c-.039.072-.121.048-.178-.054a.309.309,0,0,1-.026-.268.737.737,0,0,1,1.111-.3" transform="translate(13.889 21.177)" fill="#375a64"/>
          </g>
          <g id="Group_2047" data-name="Group 2047" transform="translate(44.666 28.564)">
            <path id="Path_2254" data-name="Path 2254" d="M-7.7-.01a.151.151,0,0,0,.016.065A.1.1,0,0,0-7.651.1l.079.045a.029.029,0,0,0,.037,0A.063.063,0,0,0-7.52.1V-1.542L-7.207-1a.072.072,0,0,0,.038.04.031.031,0,0,0,.035-.009l.046-.065a.082.082,0,0,0,.011-.054A.176.176,0,0,0-7.1-1.15l-.413-.726a.131.131,0,0,0-.03-.038.325.325,0,0,0-.032-.021l-.079-.045a.028.028,0,0,0-.037,0A.062.062,0,0,0-7.7-1.93Z" transform="translate(7.704 1.986)" fill="#375a64"/>
          </g>
          <g id="Group_2048" data-name="Group 2048" transform="translate(44.159 28.951)">
            <path id="Path_2255" data-name="Path 2255" d="M-2.178-4.366a.028.028,0,0,0-.037,0,.065.065,0,0,0-.015.049v.2a.139.139,0,0,0,.015.064.1.1,0,0,0,.037.045l.13.075a.025.025,0,0,0,.036,0A.06.06,0,0,0-2-3.982v-.2a.154.154,0,0,0-.016-.066.091.091,0,0,0-.036-.043Zm0-1.04a.028.028,0,0,0-.037,0,.065.065,0,0,0-.015.049v.2a.141.141,0,0,0,.015.064.1.1,0,0,0,.037.045l.13.075a.026.026,0,0,0,.036,0A.063.063,0,0,0-2-5.023v-.2a.152.152,0,0,0-.016-.066.091.091,0,0,0-.036-.044Z" transform="translate(2.229 5.413)" fill="#375a64"/>
          </g>
          <g id="Group_2049" data-name="Group 2049" transform="translate(42.91 27.676)">
            <path id="Path_2256" data-name="Path 2256" d="M-7.681-7.594v-.838l.419,1.08Zm-.053.727a.029.029,0,0,0,.037,0,.063.063,0,0,0,.016-.047v-.41l.606.349a.028.028,0,0,0,.037,0,.064.064,0,0,0,.016-.048v-.107a.3.3,0,0,0-.006-.053.358.358,0,0,0-.021-.064l-.61-1.582a.37.37,0,0,0-.034-.072.112.112,0,0,0-.041-.042l-.077-.045a.029.029,0,0,0-.037,0,.061.061,0,0,0-.016.047V-7.7l-.166-.1a.028.028,0,0,0-.037,0,.061.061,0,0,0-.016.047v.107a.153.153,0,0,0,.016.066.1.1,0,0,0,.037.045l.166.1v.41a.151.151,0,0,0,.016.066.1.1,0,0,0,.037.045Z" transform="translate(8.083 8.999)" fill="#375a64"/>
          </g>
          <g id="Group_2050" data-name="Group 2050" transform="translate(41.79 26.936)">
            <path id="Path_2257" data-name="Path 2257" d="M-1.43-3.354a.393.393,0,0,1-.028.079.117.117,0,0,1-.051.056.156.156,0,0,1-.092.007.463.463,0,0,1-.149-.062.526.526,0,0,1-.113-.087.577.577,0,0,1-.1-.126.686.686,0,0,1-.063-.153.631.631,0,0,1-.025-.182.377.377,0,0,1,.024-.148.121.121,0,0,1,.062-.072.146.146,0,0,1,.095,0A.455.455,0,0,1-1.75-4l.161.094a.029.029,0,0,0,.036,0,.063.063,0,0,0,.016-.047v-.107a.171.171,0,0,0-.011-.055l-.02-.051-.348-.778.556.321a.028.028,0,0,0,.037,0,.061.061,0,0,0,.016-.047v-.107a.147.147,0,0,0-.016-.066.093.093,0,0,0-.037-.045l-.761-.44a.029.029,0,0,0-.037,0,.074.074,0,0,0-.015.049v.107a.188.188,0,0,0,.009.057.5.5,0,0,0,.025.063l.342.765a.4.4,0,0,0-.176-.055A.2.2,0,0,0-2.11-4.3a.3.3,0,0,0-.088.14.738.738,0,0,0-.032.233,1.106,1.106,0,0,0,.038.294,1.215,1.215,0,0,0,.1.261,1.067,1.067,0,0,0,.153.214.786.786,0,0,0,.187.152.555.555,0,0,0,.223.083.218.218,0,0,0,.154-.034.225.225,0,0,0,.092-.115.508.508,0,0,0,.032-.174A.12.12,0,0,0-1.262-3.3a.074.074,0,0,0-.029-.035l-.09-.052a.027.027,0,0,0-.034,0,.068.068,0,0,0-.016.034" transform="translate(2.229 5.336)" fill="#375a64"/>
          </g>
          <g id="Group_2051" data-name="Group 2051" transform="translate(31.797 82.675)">
            <path id="Path_2258" data-name="Path 2258" d="M3.789-31.137-15.949-42.483c-.781-.451-1.414-.085-1.413.816v.017A3.125,3.125,0,0,0-15.949-39.2L3.789-27.856c.781.45,1.413.085,1.413-.816v-.017a3.124,3.124,0,0,0-1.413-2.449" transform="translate(17.363 42.676)" fill="#eb6608"/>
          </g>
          <g id="Group_2052" data-name="Group 2052" transform="translate(31.98 27.085)">
            <path id="Path_2259" data-name="Path 2259" d="M8.389-19.358-11.6-30.9c-.568-.328-1.028-.062-1.028.594v.012A2.273,2.273,0,0,0-11.6-28.512L8.389-16.971c.568.328,1.028.062,1.028-.594v-.012a2.272,2.272,0,0,0-1.028-1.781" transform="translate(12.629 31.039)" fill="#2e4088"/>
          </g>
          <g id="Group_2053" data-name="Group 2053" transform="translate(26.103 23.45)">
            <path id="Path_2260" data-name="Path 2260" d="M.567.077C.254-.1,0,.043,0,.4a1.253,1.253,0,0,0,.567.982c.313.181.567.034.567-.327A1.253,1.253,0,0,0,.567.077" transform="translate(0 0)" fill="#375a64"/>
          </g>
          <g id="Group_2054" data-name="Group 2054" transform="translate(25.553 24.778)">
            <path id="Path_2261" data-name="Path 2261" d="M-14.456-24.791l.322.186a2.059,2.059,0,0,1,.931,1.613v.26c0,.144-.22.133-.492-.024l-1.2-.692c-.272-.157-.492-.4-.492-.533v-.249c0-.594.417-.858.931-.561" transform="translate(15.388 24.914)" fill="#375a64"/>
          </g>
          <g id="Group_2055" data-name="Group 2055" transform="translate(24.367 22.012)">
            <path id="Path_2262" data-name="Path 2262" d="M-6.863-7.286l.344.343.118-.113-.094-.583-.021-.045c-.045.011-.069.069-.068.177q-.16-.094-.159.154c-.068-.036-.113-.025-.138.029Zm-.725-1.37.479-.46.684,1.454.18,1.118L-6.9-7.2Z" transform="translate(7.588 9.117)" fill="#375a64"/>
          </g>
          <g id="Group_2056" data-name="Group 2056" transform="translate(25.167 28.588)">
            <path id="Path_2263" data-name="Path 2263" d="M22.168-294.783-11.6-314.28c-.568-.328-1.028-.062-1.028.594V-290.6a2.273,2.273,0,0,0,1.028,1.781l33.769,19.5c.568.328,1.028.062,1.028-.594V-293a2.273,2.273,0,0,0-1.028-1.781" transform="translate(12.629 314.42)" fill="#79819f"/>
          </g>
          <g id="Group_2058" data-name="Group 2058" transform="translate(25.167 28.588)" opacity="0.6">
            <g id="Group_2057" data-name="Group 2057">
              <path id="Path_2264" data-name="Path 2264" d="M22.168-294.783-11.6-314.28c-.568-.328-1.028-.062-1.028.594V-290.6a2.273,2.273,0,0,0,1.028,1.781l33.769,19.5c.568.328,1.028.062,1.028-.594V-293a2.273,2.273,0,0,0-1.028-1.781" transform="translate(12.629 314.42)" fill="#fff"/>
            </g>
          </g>
          <g id="Group_2059" data-name="Group 2059" transform="translate(41.625 95.602)">
            <path id="Path_2265" data-name="Path 2265" d="M-2.975-53.05l-13.6-7.85c-.811-.468-1.469-.089-1.469.848v1.381a3.247,3.247,0,0,0,1.469,2.544l13.6,7.85c.811.468,1.469.089,1.469-.848v-1.381A3.245,3.245,0,0,0-2.975-53.05" transform="translate(18.042 61.1)" fill="#2e4088"/>
          </g>
          <g id="Group_2060" data-name="Group 2060" transform="translate(46.448 99.648)">
            <path id="Path_2266" data-name="Path 2266" d="M-.11-16.024l-8.176-4.721c-.406-.234-.735-.068-.735.372a1.574,1.574,0,0,0,.735,1.219L-.11-14.433c.406.234.734.068.734-.371A1.574,1.574,0,0,0-.11-16.024" transform="translate(9.021 20.85)" fill="#fff"/>
          </g>
          <g id="Group_2061" data-name="Group 2061" transform="translate(43.446 98.071)">
            <path id="Path_2267" data-name="Path 2267" d="M-13.144-12.876l.374.216v-.432a.1.1,0,0,1,.1-.1.1.1,0,0,1,.1.1v.542l.469.271a.1.1,0,0,1,.035.131.1.1,0,0,1-.083.047.1.1,0,0,1-.047-.013l-.374-.216v.432a.1.1,0,0,1-.1.1.1.1,0,0,1-.1-.1v-.542l-.469-.271a.1.1,0,0,1-.035-.13.1.1,0,0,1,.13-.035" transform="translate(13.287 13.188)" fill="#fff"/>
          </g>
          <g id="Group_2062" data-name="Group 2062" transform="translate(43.048 97.486)">
            <path id="Path_2268" data-name="Path 2268" d="M-10.763-.95a.553.553,0,0,0,.551.064.554.554,0,0,0,.22-.509,1.919,1.919,0,0,0-.867-1.5.74.74,0,0,0-.361-.113.378.378,0,0,0-.191.049.554.554,0,0,0-.22.509,1.918,1.918,0,0,0,.867,1.5m-.742-2.177a.733.733,0,0,1,.742.064A2.131,2.131,0,0,1-9.8-1.4a.732.732,0,0,1-.315.675.562.562,0,0,1-.286.074.927.927,0,0,1-.456-.138,2.131,2.131,0,0,1-.963-1.667.733.733,0,0,1,.316-.675" transform="translate(11.821 3.201)" fill="#fff"/>
          </g>
          <g id="Group_2063" data-name="Group 2063" transform="translate(27.561 46.895)">
            <path id="Path_2269" data-name="Path 2269" d="M-265.134-472.941a13.468,13.468,0,0,1,6.608,2.033c8.277,4.779,15.01,16.441,15.01,26,0,4.556-1.519,7.942-4.276,9.534s-6.449,1.215-10.394-1.063c-8.276-4.778-15.01-16.441-15.01-26,0-4.556,1.519-7.942,4.276-9.534a7.476,7.476,0,0,1,3.786-.97m13.558,39.214a8.141,8.141,0,0,0,4.123-1.061c2.976-1.719,4.616-5.313,4.616-10.121,0-9.773-6.885-21.7-15.349-26.586-4.164-2.4-8.1-2.781-11.073-1.063s-4.616,5.313-4.616,10.121c0,9.773,6.886,21.7,15.349,26.586a14.132,14.132,0,0,0,6.949,2.124" transform="translate(273.875 473.62)" fill="#2e4088"/>
          </g>
          <g id="Group_2065" data-name="Group 2065" transform="translate(27.561 46.895)" opacity="0.2">
            <g id="Group_2064" data-name="Group 2064">
              <path id="Path_2270" data-name="Path 2270" d="M-265.134-472.941a13.468,13.468,0,0,1,6.608,2.033c8.277,4.779,15.01,16.441,15.01,26,0,4.556-1.519,7.942-4.276,9.534s-6.449,1.215-10.394-1.063c-8.276-4.778-15.01-16.441-15.01-26,0-4.556,1.519-7.942,4.276-9.534a7.476,7.476,0,0,1,3.786-.97m13.558,39.214a8.141,8.141,0,0,0,4.123-1.061c2.976-1.719,4.616-5.313,4.616-10.121,0-9.773-6.885-21.7-15.349-26.586-4.164-2.4-8.1-2.781-11.073-1.063s-4.616,5.313-4.616,10.121c0,9.773,6.886,21.7,15.349,26.586a14.132,14.132,0,0,0,6.949,2.124" transform="translate(273.875 473.62)"/>
            </g>
          </g>
          <g id="Group_2066" data-name="Group 2066" transform="translate(28.24 47.574)">
            <path id="Path_2271" data-name="Path 2271" d="M-257.479-480.992a13.467,13.467,0,0,1,6.608,2.033c8.277,4.779,15.01,16.441,15.01,26,0,4.556-1.519,7.942-4.276,9.533s-6.449,1.215-10.394-1.063c-8.276-4.778-15.01-16.441-15.01-26,0-4.556,1.519-7.942,4.276-9.534a7.476,7.476,0,0,1,3.786-.97" transform="translate(265.542 480.992)" fill="#fff"/>
          </g>
          <g id="Group_2071" data-name="Group 2071" transform="translate(44.083 68.692)" opacity="0.1">
            <g id="Group_2070" data-name="Group 2070" transform="translate(0 0)">
              <path id="Path_2275" data-name="Path 2275" d="M-53.8-26.87c-.369-1.639-2.389-2.523-1.587-3.182s2.84-4.8,3.072-6.708a25.4,25.4,0,0,0,0-4.44h0a7,7,0,0,0,1.67,3.639.012.012,0,0,1,.007,0l-1.045,7.269,2.486,6.367a11.527,11.527,0,0,1-7.312-1.444c1.707.032,2.922-.567,2.711-1.5" transform="translate(56.513 41.2)"/>
            </g>
          </g>
          <g id="Group_2076" data-name="Group 2076" transform="matrix(0.054, -0.999, 0.999, 0.054, 39.783, 53.958)">
            <path id="Path_2279" data-name="Path 2279" d="M.54,0A.528.528,0,0,0,0,.518a.532.532,0,0,0,.54.522A.529.529,0,0,0,1.08.521.532.532,0,0,0,.54,0" transform="translate(0 0)" fill="#1a2e35"/>
          </g>
          <g id="Group_2078" data-name="Group 2078" transform="translate(35.46 50.776)">
            <path id="Path_2281" data-name="Path 2281" d="M-12.881,2.132l1.057-.721a.614.614,0,0,0-.872-.186.672.672,0,0,0-.185.907" transform="translate(12.983 -1.116)" fill="#1a2e35"/>
          </g>
          <g id="Group_2079" data-name="Group 2079" transform="matrix(0.054, -0.999, 0.999, 0.054, 35.766, 53.553)">
            <path id="Path_2282" data-name="Path 2282" d="M.54,0A.528.528,0,0,0,0,.518a.532.532,0,0,0,.54.521A.528.528,0,0,0,1.08.521.532.532,0,0,0,.54,0" transform="translate(0 0)" fill="#1a2e35"/>
          </g>
          <g id="Group_2087" data-name="Group 2087" transform="translate(47.119 42.877)">
            <path id="Path_2289" data-name="Path 2289" d="M-26.749-5.2a1.247,1.247,0,0,0,1.761.1,1.247,1.247,0,0,0,.1-1.761Z" transform="translate(26.749 6.858)" fill="#2b454e"/>
          </g>
          <g id="Group_2088" data-name="Group 2088" transform="translate(46.391 42.261)">
            <path id="Path_2290" data-name="Path 2290" d="M-10.668,4.128A1.247,1.247,0,0,0-9.79,2.6a1.247,1.247,0,0,0-1.53-.878Z" transform="translate(11.32 -1.676)" fill="#2b454e"/>
          </g>
          <g id="Group_2697" data-name="Group 2697" transform="translate(0 28.246)">
            <g id="Group_2067" data-name="Group 2067" transform="translate(47.414 27.134)">
              <path id="Path_2272" data-name="Path 2272" d="M-126.92-209.735a7.526,7.526,0,0,0,4.644,6.037.017.017,0,0,1,.009,0l3.963,18.006a9.511,9.511,0,0,0,1.074-.531,10.655,10.655,0,0,0,4.421-5.208c-1.153-6.8-1.985-11.818-2.767-15.7-1.448-7.2-3.933-8.032-8.392-9.323a7.018,7.018,0,0,0-2.951,6.72" transform="translate(127.004 216.454)" fill="#ffaaa8"/>
            </g>
            <g id="Group_2082" data-name="Group 2082" transform="translate(29.407 9.977)">
              <path id="Path_2285" data-name="Path 2285" d="M-133.723-47.535a2.3,2.3,0,0,1,2.759-1.987,3.079,3.079,0,0,1,2.945,2.369c.01.076.011.149.017.223a1.644,1.644,0,0,1,.728-.084,1.918,1.918,0,0,1,.729.255,1.689,1.689,0,0,1,.207-.636c.675-1.093,1.522-1.4,3.593-1.4s3.192.5,3.714,1.809a3.671,3.671,0,0,1-2.976,4.7,3.664,3.664,0,0,1-4.345-2.552,6.046,6.046,0,0,1-.207-1.073,1.849,1.849,0,0,0-.782-.412.885.885,0,0,0-.682.247,2.662,2.662,0,0,1-3.227,2.332c-2.061-.349-2.511-2.2-2.472-3.781" transform="translate(133.726 49.542)" fill="#00dfbf"/>
            </g>
            <g id="Group_2068" data-name="Group 2068" transform="translate(0 16.939)">
              <path id="Path_2273" data-name="Path 2273" d="M-283.416-223.524c-.41.191-.817-.362-1.093-.791-1.147-1.787-1.474-2.154-2.266-3.292a.814.814,0,0,0-1.031-.346.644.644,0,0,0-.236.842c.095.239.392.825.642,1.286.423.782,1.779,3.145,1.779,3.145-.556-.026-1.1.683-.789,1.584a1.639,1.639,0,0,0-.324,1.868,6.517,6.517,0,0,0,2.24,2.954,4.508,4.508,0,0,1,1.773,1.681c1.1,1.845,4.938,8.453,8.2,12.8.669.893,2.541,3.357,3.521,3.6,1.246.309,2.3-.675,2.965-1.133,2.259-1.566,13.93-13.168,13.93-13.168,3.633-5.066,2.716-8.294,2.222-8.3s-4.653-.293-7.065,2.45c-2.227,2.533-10.975,11.607-10.975,11.607-1.328-1.559-7.722-9.992-8.11-10.595a3.507,3.507,0,0,1-.507-2.031,16.545,16.545,0,0,0,.288-1.651,10.142,10.142,0,0,0-.114-2.928,6.892,6.892,0,0,1,.006-1.144.35.35,0,0,0-.072-.272.311.311,0,0,0-.23-.06c-.494.024-.678.253-.922.683a4.286,4.286,0,0,0-.348,1.551c-.044.409-.067.855-.38.945-.447.061-.614-.428-.721-.668-.369-1.1-1.277-4.311-1.732-5.568a1.533,1.533,0,0,0-.465-.762c-.407-.294-.813-.083-.935.4a1.423,1.423,0,0,0,.007.565c.152.969.789,3.4.9,4.032.04.232.072.644-.153.705" transform="translate(288.102 229.365)" fill="#ffaaa8"/>
            </g>
            <g id="Group_2069" data-name="Group 2069" transform="translate(29.514 25.512)">
              <path id="Path_2274" data-name="Path 2274" d="M-198.811-147.738l.231,4.879,0,0a38.293,38.293,0,0,0,10.99,10.05c4.027,2.328,7.86,3.2,11.115,2.588l-3.393-8.689,1.426-9.92a.016.016,0,0,0-.009,0c-.153-.13-1.9-1.885-2.459-6.037-.535-3.962.455-6.326.766-6.72-.164-.052-3.7-1.006-3.7-1.006l-7.536-.564-3.125-.051a18.313,18.313,0,0,0-6.05,7.645,7.246,7.246,0,0,0,1.737,7.826" transform="translate(201.075 163.208)" fill="#eb6608"/>
            </g>
            <g id="Group_2072" data-name="Group 2072" transform="translate(30.557)">
              <path id="Path_2276" data-name="Path 2276" d="M-200.042,24.333h14.735a7.49,7.49,0,0,0,7.49-7.49v-6.59A10.254,10.254,0,0,0-188.072,0h-1.716a10.254,10.254,0,0,0-10.255,10.254Z" transform="translate(200.042 0)" fill="#2b454e"/>
            </g>
            <g id="Group_2074" data-name="Group 2074" transform="translate(32.143 2.531)" opacity="0.9">
              <g id="Group_2073" data-name="Group 2073" transform="translate(0 3.77) rotate(-50.399)">
                <path id="Path_2277" data-name="Path 2277" d="M2.745,1.113A10.268,10.268,0,0,0,.179,10.049a13.6,13.6,0,0,0,2.566,6.167C.543,6.07,4.893,0,4.893,0A3.908,3.908,0,0,0,2.745,1.113" transform="translate(0 0)" fill="#d5dbf1"/>
              </g>
            </g>
            <g id="Group_2075" data-name="Group 2075" transform="translate(31.999 4.895)">
              <path id="Path_2278" data-name="Path 2278" d="M-142.8-248.1c-1.268.736-2.851,3.9-2.746,10.558.09,5.642,1.908,7.049,2.823,7.457s2.688.177,4.412-.1l-.02,2.752s-2.331,2.646-2.192,4.2,2.527,2.7,6.96-.609a8.568,8.568,0,0,0,2.765-3.027l.013-7.415s1.006.992,2.735-.5c1.427-1.23,1.92-3.317.823-4.447a2.471,2.471,0,0,0-3.937.755,13.607,13.607,0,0,1-6.388-1.954A10.275,10.275,0,0,1-142.8-248.1" transform="translate(145.552 248.104)" fill="#ffaaa8"/>
            </g>
            <g id="Group_2077" data-name="Group 2077" transform="translate(36.437 18.862)">
              <path id="Path_2280" data-name="Path 2280" d="M1.336-11.288l-1.651.513a.85.85,0,0,0,1.067.6.9.9,0,0,0,.584-1.112" transform="translate(0.315 11.288)" fill="#ff9090"/>
            </g>
            <g id="Group_2080" data-name="Group 2080" transform="translate(33.794 12.793)">
              <path id="Path_2283" data-name="Path 2283" d="M2.154-41.613l.009,4.623L-.079-37.7Z" transform="translate(0.079 41.613)" fill="#ff9090"/>
            </g>
            <g id="Group_2081" data-name="Group 2081" transform="translate(39.23 23.942) rotate(-100.195)">
              <path id="Path_2284" data-name="Path 2284" d="M1.11.208c-.1,1.827.267,5.693,1.61,6.536A3.819,3.819,0,0,1,1.11,5.112C.376,3.84,0,0,0,0Z" transform="translate(0 0)" fill="#ff9090"/>
            </g>
            <g id="Group_2084" data-name="Group 2084" transform="translate(29.407 9.977)">
              <g id="Group_2083" data-name="Group 2083" transform="translate(0 0)">
                <path id="Path_2286" data-name="Path 2286" d="M-133.723-47.535a2.3,2.3,0,0,1,2.759-1.987,3.079,3.079,0,0,1,2.945,2.369c.01.076.011.149.017.223a1.644,1.644,0,0,1,.728-.084,1.918,1.918,0,0,1,.729.255,1.689,1.689,0,0,1,.207-.636c.675-1.093,1.522-1.4,3.593-1.4s3.192.5,3.714,1.809a3.671,3.671,0,0,1-2.976,4.7,3.664,3.664,0,0,1-4.345-2.552,6.046,6.046,0,0,1-.207-1.073,1.849,1.849,0,0,0-.782-.412.885.885,0,0,0-.682.247,2.662,2.662,0,0,1-3.227,2.332c-2.061-.349-2.511-2.2-2.472-3.781" transform="translate(133.726 49.542)" fill="#eaebf1"/>
              </g>
            </g>
            <g id="Group_2085" data-name="Group 2085" transform="translate(37.187 11.355)">
              <path id="Path_2287" data-name="Path 2287" d="M-21.661,2.868c.069-.007.14-.016.212-.027A2.86,2.86,0,0,0-19.3,1.419,3.086,3.086,0,0,0-18.971-.99c-.34-.851-1-1.417-3.123-1.41-.461,0-.84.018-1.156.051a2.094,2.094,0,0,0-1.9,1.052A2.992,2.992,0,0,0-25.093.743a2.992,2.992,0,0,0,3.432,2.125Z" transform="translate(25.295 2.4)" fill="#2e4088"/>
            </g>
            <g id="Group_2086" data-name="Group 2086" transform="translate(30.042 10.612)">
              <path id="Path_2288" data-name="Path 2288" d="M-13.9,4.389a1.98,1.98,0,0,0,1.364-.718,2.636,2.636,0,0,0,.443-2A2.494,2.494,0,0,0-14.484-.149a2.347,2.347,0,0,0-.513,0,1.562,1.562,0,0,0-1.537,1.377c-.045,1.856.608,2.913,1.944,3.139a2.521,2.521,0,0,0,.688.025" transform="translate(16.536 0.165)" fill="#2e4088"/>
            </g>
            <g id="Group_2089" data-name="Group 2089" transform="translate(44.96 14.002)">
              <path id="Path_2291" data-name="Path 2291" d="M1.311,2.87A1.421,1.421,0,0,1,1.322.029Z" transform="translate(0.104 -0.029)" fill="#2b454e"/>
            </g>
          </g>
          <g id="Group_2090" data-name="Group 2090" transform="translate(27.846 87.647)">
            <path id="Path_2292" data-name="Path 2292" d="M-9.865-57.023-16.573-60.9c-.811-.468-1.469-.089-1.469.848v1.381a3.247,3.247,0,0,0,1.469,2.544l6.707,3.873c.811.468,1.469.089,1.469-.848v-1.381a3.245,3.245,0,0,0-1.469-2.544" transform="translate(18.042 61.096)" fill="#e7e7e7"/>
          </g>
          <g id="Group_2091" data-name="Group 2091" transform="translate(33.986 92.461)">
            <path id="Path_2293" data-name="Path 2293" d="M.658.09C.295-.12,0,.05,0,.47A1.455,1.455,0,0,0,.658,1.611c.364.21.658.04.658-.38A1.456,1.456,0,0,0,.658.09" transform="translate(0 0)" fill="#2e4088"/>
          </g>
          <g id="Group_2092" data-name="Group 2092" transform="translate(32.01 91.32)">
            <path id="Path_2294" data-name="Path 2294" d="M.658.09C.295-.12,0,.05,0,.47A1.456,1.456,0,0,0,.658,1.611c.364.21.658.04.658-.38A1.456,1.456,0,0,0,.658.09" transform="translate(0 0)" fill="#2e4088"/>
          </g>
          <g id="Group_2093" data-name="Group 2093" transform="translate(30.035 90.18)">
            <path id="Path_2295" data-name="Path 2295" d="M.658.09C.3-.12,0,.05,0,.47a1.455,1.455,0,0,0,.658,1.14c.364.21.658.04.658-.38A1.456,1.456,0,0,0,.658.09" transform="translate(0 0)" fill="#2e4088"/>
          </g>
        </g>
        <g id="Group_2696" data-name="Group 2696" transform="translate(6.343 12.183)">
          <path id="Path_2791" data-name="Path 2791" d="M1.974-13.247,5.77-10.8V-21.583l2.648,1.706L8.7-23.3,5.77-25.192v-2.056c0-.851.151-1.09.876-.623L8.7-26.547v-3.746L6.072-31.987c-2.824-1.82-4.1-1.23-4.1,1.471v2.878L0-28.91v3.655l1.974,1.272Z" transform="translate(0 33.034)" fill="#fff"/>
        </g>
      </g>
    </g>
  </g>
</svg>
